<svg width="520" height="301" viewBox="0 0 520 301" fill="none" xmlns="http://www.w3.org/2000/svg">
<g clip-path="url(#clip0_296_24122)">
<g opacity="0.5">
<path opacity="0.3" d="M259.804 30.2788L233.819 15.2788L259.804 0.278809L285.778 15.2788L259.804 30.2788Z" fill="#4326A2"/>
<path opacity="0.3" d="M285.778 45.2788L259.805 30.2788L285.778 15.2788L311.763 30.2788L285.778 45.2788Z" fill="#4326A2"/>
<path opacity="0.3" d="M311.763 60.2788L285.778 45.2788L311.763 30.2788L337.737 45.2788L311.763 60.2788Z" fill="#4326A2"/>
<path opacity="0.3" d="M337.748 75.2788L311.763 60.2788L337.737 45.2788L363.722 60.2788L337.748 75.2788Z" fill="#4326A2"/>
<path opacity="0.1" d="M363.722 90.2788L337.748 75.2788L363.722 60.2788L389.707 75.2788L363.722 90.2788Z" fill="#4326A2"/>
<path opacity="0.3" d="M389.707 105.279L363.722 90.2788L389.707 75.2788L415.68 90.2788L389.707 105.279Z" fill="#4326A2"/>
<path opacity="0.1" d="M415.68 120.279L389.707 105.279L415.68 90.2788L441.665 105.279L415.68 120.279Z" fill="#4326A2"/>
<path opacity="0.3" d="M441.666 135.279L415.681 120.279L441.666 105.279L467.651 120.279L441.666 135.279Z" fill="#4326A2"/>
<path opacity="0.3" d="M467.65 150.279L441.666 135.279L467.65 120.279L493.624 135.279L467.65 150.279Z" fill="#4326A2"/>
<path opacity="0.3" d="M493.624 165.279L467.65 150.279L493.624 135.279L519.609 150.279L493.624 165.279Z" fill="#4326A2"/>
<path opacity="0.6" d="M233.819 45.2788L207.834 30.2788L233.819 15.2788L259.804 30.2788L233.819 45.2788Z" fill="#4326A2"/>
<path opacity="0.3" d="M259.804 60.2788L233.819 45.2788L259.804 30.2788L285.778 45.2788L259.804 60.2788Z" fill="#4326A2"/>
<path opacity="0.6" d="M285.778 75.2788L259.805 60.2788L285.778 45.2788L311.763 60.2788L285.778 75.2788Z" fill="#4326A2"/>
<path opacity="0.3" d="M311.763 90.2788L285.778 75.2788L311.763 60.2788L337.748 75.2788L311.763 90.2788Z" fill="#4326A2"/>
<path opacity="0.3" d="M337.748 105.279L311.763 90.2788L337.748 75.2788L363.722 90.2788L337.748 105.279Z" fill="#4326A2"/>
<path opacity="0.3" d="M363.722 120.279L337.748 105.279L363.722 90.2788L389.707 105.279L363.722 120.279Z" fill="#4326A2"/>
<path opacity="0.3" d="M389.707 135.279L363.722 120.279L389.707 105.279L415.68 120.279L389.707 135.279Z" fill="#4326A2"/>
<path opacity="0.3" d="M415.691 150.279L389.707 135.279L415.68 120.279L441.665 135.279L415.691 150.279Z" fill="#4326A2"/>
<path opacity="0.6" d="M441.666 165.279L415.692 150.279L441.666 135.279L467.651 150.279L441.666 165.279Z" fill="#4326A2"/>
<path opacity="0.3" d="M467.65 180.279L441.666 165.279L467.65 150.279L493.624 165.279L467.65 180.279Z" fill="#4326A2"/>
<path opacity="0.3" d="M207.846 60.2788L181.861 45.2788L207.835 30.2788L233.819 45.2788L207.846 60.2788Z" fill="#4326A2"/>
<path opacity="0.3" d="M233.819 75.2788L207.846 60.2788L233.819 45.2788L259.804 60.2788L233.819 75.2788Z" fill="#4326A2"/>
<path opacity="0.6" d="M259.804 90.2788L233.819 75.2788L259.804 60.2788L285.778 75.2788L259.804 90.2788Z" fill="#4326A2"/>
<path opacity="0.3" d="M285.778 105.279L259.805 90.2788L285.778 75.2788L311.763 90.2788L285.778 105.279Z" fill="#4326A2"/>
<path opacity="0.3" d="M311.763 120.279L285.778 105.279L311.763 90.2788L337.748 105.279L311.763 120.279Z" fill="#4326A2"/>
<path opacity="0.6" d="M337.748 135.279L311.763 120.279L337.748 105.279L363.722 120.279L337.748 135.279Z" fill="#4326A2"/>
<path opacity="0.3" d="M363.722 150.279L337.748 135.279L363.722 120.279L389.707 135.279L363.722 150.279Z" fill="#4326A2"/>
<path opacity="0.3" d="M389.707 165.279L363.722 150.279L389.707 135.279L415.692 150.279L389.707 165.279Z" fill="#4326A2"/>
<path opacity="0.3" d="M415.691 180.279L389.707 165.279L415.691 150.279L441.665 165.279L415.691 180.279Z" fill="#4326A2"/>
<path opacity="0.3" d="M441.666 195.279L415.692 180.279L441.666 165.279L467.651 180.279L441.666 195.279Z" fill="#4326A2"/>
<path opacity="0.1" d="M181.861 75.2788L155.876 60.2788L181.861 45.2788L207.846 60.2788L181.861 75.2788Z" fill="#4326A2"/>
<path opacity="0.3" d="M207.846 90.2788L181.861 75.2788L207.846 60.2788L233.819 75.2788L207.846 90.2788Z" fill="#4326A2"/>
<path opacity="0.3" d="M233.819 105.279L207.846 90.2788L233.819 75.2788L259.804 90.2788L233.819 105.279Z" fill="#4326A2"/>
<path opacity="0.3" d="M259.804 120.279L233.819 105.279L259.804 90.2788L285.778 105.279L259.804 120.279Z" fill="#4326A2"/>
<path opacity="0.3" d="M285.79 135.279L259.805 120.279L285.778 105.279L311.763 120.279L285.79 135.279Z" fill="#4326A2"/>
<path opacity="0.3" d="M311.763 150.279L285.79 135.279L311.763 120.279L337.748 135.279L311.763 150.279Z" fill="#4326A2"/>
<path opacity="0.6" d="M337.748 165.279L311.763 150.279L337.748 135.279L363.722 150.279L337.748 165.279Z" fill="#4326A2"/>
<path opacity="0.3" d="M363.722 180.279L337.748 165.279L363.722 150.279L389.707 165.279L363.722 180.279Z" fill="#4326A2"/>
<path opacity="0.3" d="M389.707 195.279L363.722 180.279L389.707 165.279L415.692 180.279L389.707 195.279Z" fill="#4326A2"/>
<path opacity="0.1" d="M415.691 210.279L389.707 195.279L415.691 180.279L441.665 195.279L415.691 210.279Z" fill="#4326A2"/>
<path opacity="0.3" d="M155.876 90.2788L129.902 75.2788L155.876 60.2788L181.861 75.2788L155.876 90.2788Z" fill="#4326A2"/>
<path opacity="0.6" d="M181.861 105.279L155.876 90.2788L181.861 75.2788L207.846 90.2788L181.861 105.279Z" fill="#4326A2"/>
<path opacity="0.3" d="M207.846 120.279L181.861 105.279L207.846 90.2788L233.819 105.279L207.846 120.279Z" fill="#4326A2"/>
<path opacity="0.3" d="M233.819 135.279L207.846 120.279L233.819 105.279L259.804 120.279L233.819 135.279Z" fill="#4326A2"/>
<path opacity="0.1" d="M259.804 150.279L233.819 135.279L259.804 120.279L285.789 135.279L259.804 150.279Z" fill="#4326A2"/>
<path opacity="0.3" d="M285.79 165.279L259.805 150.279L285.79 135.279L311.763 150.279L285.79 165.279Z" fill="#4326A2"/>
<path opacity="0.3" d="M311.763 180.279L285.79 165.279L311.763 150.279L337.748 165.279L311.763 180.279Z" fill="#4326A2"/>
<path opacity="0.3" d="M337.748 195.279L311.763 180.279L337.748 165.279L363.722 180.279L337.748 195.279Z" fill="#4326A2"/>
<path opacity="0.3" d="M363.722 210.279L337.748 195.279L363.722 180.279L389.707 195.279L363.722 210.279Z" fill="#4326A2"/>
<path opacity="0.3" d="M389.707 225.279L363.722 210.279L389.707 195.279L415.692 210.279L389.707 225.279Z" fill="#4326A2"/>
<path opacity="0.3" d="M129.902 105.279L103.917 90.2788L129.902 75.2788L155.876 90.2788L129.902 105.279Z" fill="#4326A2"/>
<path opacity="0.3" d="M155.876 120.279L129.902 105.279L155.876 90.2788L181.861 105.279L155.876 120.279Z" fill="#4326A2"/>
<path opacity="0.3" d="M181.861 135.279L155.876 120.279L181.861 105.279L207.846 120.279L181.861 135.279Z" fill="#4326A2"/>
<path opacity="0.1" d="M207.846 150.279L181.861 135.279L207.846 120.279L233.819 135.279L207.846 150.279Z" fill="#4326A2"/>
<path opacity="0.3" d="M233.819 165.279L207.846 150.279L233.819 135.279L259.804 150.279L233.819 165.279Z" fill="#4326A2"/>
<path opacity="0.6" d="M259.804 180.279L233.819 165.279L259.804 150.279L285.789 165.279L259.804 180.279Z" fill="#4326A2"/>
<path opacity="0.3" d="M285.79 195.279L259.805 180.279L285.79 165.279L311.763 180.279L285.79 195.279Z" fill="#4326A2"/>
<path opacity="0.1" d="M311.763 210.279L285.79 195.279L311.763 180.279L337.748 195.279L311.763 210.279Z" fill="#4326A2"/>
<path opacity="0.3" d="M337.748 225.279L311.763 210.279L337.748 195.279L363.722 210.279L337.748 225.279Z" fill="#4326A2"/>
<path opacity="0.3" d="M363.733 240.279L337.748 225.279L363.722 210.279L389.707 225.279L363.733 240.279Z" fill="#4326A2"/>
<path opacity="0.3" d="M103.918 120.279L77.9438 105.279L103.918 90.2788L129.902 105.279L103.918 120.279Z" fill="#4326A2"/>
<path opacity="0.6" d="M129.902 135.279L103.917 120.279L129.902 105.279L155.876 120.279L129.902 135.279Z" fill="#4326A2"/>
<path opacity="0.3" d="M155.887 150.279L129.902 135.279L155.876 120.279L181.861 135.279L155.887 150.279Z" fill="#4326A2"/>
<path opacity="0.3" d="M181.861 165.279L155.887 150.279L181.861 135.279L207.846 150.279L181.861 165.279Z" fill="#4326A2"/>
<path opacity="0.3" d="M207.846 180.279L181.861 165.279L207.846 150.279L233.819 165.279L207.846 180.279Z" fill="#4326A2"/>
<path opacity="0.3" d="M233.819 195.279L207.846 180.279L233.819 165.279L259.804 180.279L233.819 195.279Z" fill="#4326A2"/>
<path opacity="0.6" d="M259.804 210.279L233.819 195.279L259.804 180.279L285.789 195.279L259.804 210.279Z" fill="#4326A2"/>
<path opacity="0.3" d="M285.79 225.279L259.805 210.279L285.79 195.279L311.763 210.279L285.79 225.279Z" fill="#4326A2"/>
<path opacity="0.3" d="M311.763 240.279L285.79 225.279L311.763 210.279L337.748 225.279L311.763 240.279Z" fill="#4326A2"/>
<path opacity="0.3" d="M337.748 255.279L311.763 240.279L337.748 225.279L363.733 240.279L337.748 255.279Z" fill="#4326A2"/>
<path opacity="0.3" d="M77.9435 135.279L51.9585 120.279L77.9435 105.279L103.917 120.279L77.9435 135.279Z" fill="#4326A2"/>
<path opacity="0.3" d="M103.918 150.279L77.9438 135.279L103.918 120.279L129.902 135.279L103.918 150.279Z" fill="#4326A2"/>
<path opacity="0.3" d="M129.902 165.279L103.917 150.279L129.902 135.279L155.887 150.279L129.902 165.279Z" fill="#4326A2"/>
<path opacity="0.3" d="M155.887 180.279L129.902 165.279L155.887 150.279L181.861 165.279L155.887 180.279Z" fill="#4326A2"/>
<path opacity="0.6" d="M181.861 195.279L155.887 180.279L181.861 165.279L207.846 180.279L181.861 195.279Z" fill="#4326A2"/>
<path opacity="0.1" d="M207.846 210.279L181.861 195.279L207.846 180.279L233.819 195.279L207.846 210.279Z" fill="#4326A2"/>
<path opacity="0.6" d="M233.831 225.279L207.846 210.279L233.819 195.279L259.804 210.279L233.831 225.279Z" fill="#4326A2"/>
<path opacity="0.3" d="M259.805 240.279L233.831 225.279L259.805 210.279L285.79 225.279L259.805 240.279Z" fill="#4326A2"/>
<path opacity="0.6" d="M285.79 255.279L259.805 240.279L285.79 225.279L311.763 240.279L285.79 255.279Z" fill="#4326A2"/>
<path opacity="0.3" d="M311.763 270.279L285.79 255.279L311.763 240.279L337.748 255.279L311.763 270.279Z" fill="#4326A2"/>
<path opacity="0.3" d="M51.9585 150.279L25.9849 135.279L51.9585 120.279L77.9435 135.279L51.9585 150.279Z" fill="#4326A2"/>
<path opacity="0.1" d="M77.9435 165.279L51.9585 150.279L77.9435 135.279L103.917 150.279L77.9435 165.279Z" fill="#4326A2"/>
<path opacity="0.3" d="M103.918 180.279L77.9438 165.279L103.918 150.279L129.902 165.279L103.918 180.279Z" fill="#4326A2"/>
<path opacity="0.3" d="M129.902 195.279L103.917 180.279L129.902 165.279L155.887 180.279L129.902 195.279Z" fill="#4326A2"/>
<path opacity="0.3" d="M155.887 210.279L129.902 195.279L155.887 180.279L181.861 195.279L155.887 210.279Z" fill="#4326A2"/>
<path opacity="0.3" d="M181.861 225.279L155.887 210.279L181.861 195.279L207.846 210.279L181.861 225.279Z" fill="#4326A2"/>
<path opacity="0.3" d="M207.846 240.279L181.861 225.279L207.846 210.279L233.831 225.279L207.846 240.279Z" fill="#4326A2"/>
<path opacity="0.1" d="M233.831 255.279L207.846 240.279L233.831 225.279L259.804 240.279L233.831 255.279Z" fill="#4326A2"/>
<path opacity="0.3" d="M259.805 270.279L233.831 255.279L259.805 240.279L285.79 255.279L259.805 270.279Z" fill="#4326A2"/>
<path opacity="0.3" d="M285.79 285.279L259.805 270.279L285.79 255.279L311.763 270.279L285.79 285.279Z" fill="#4326A2"/>
<path opacity="0.3" d="M25.985 165.279L0 150.279L25.985 135.279L51.9586 150.279L25.985 165.279Z" fill="#4326A2"/>
<path opacity="0.3" d="M51.9585 180.279L25.9849 165.279L51.9585 150.279L77.9435 165.279L51.9585 180.279Z" fill="#4326A2"/>
<path opacity="0.3" d="M77.9435 195.279L51.9585 180.279L77.9435 165.279L103.917 180.279L77.9435 195.279Z" fill="#4326A2"/>
<path opacity="0.3" d="M103.929 210.279L77.9438 195.279L103.918 180.279L129.902 195.279L103.929 210.279Z" fill="#4326A2"/>
<path opacity="0.3" d="M129.902 225.279L103.929 210.279L129.902 195.279L155.887 210.279L129.902 225.279Z" fill="#4326A2"/>
<path opacity="0.3" d="M155.887 240.279L129.902 225.279L155.887 210.279L181.861 225.279L155.887 240.279Z" fill="#4326A2"/>
<path opacity="0.6" d="M181.861 255.279L155.887 240.279L181.861 225.279L207.846 240.279L181.861 255.279Z" fill="#4326A2"/>
<path opacity="0.3" d="M207.846 270.279L181.861 255.279L207.846 240.279L233.831 255.279L207.846 270.279Z" fill="#4326A2"/>
<path opacity="0.3" d="M233.831 285.279L207.846 270.279L233.831 255.279L259.804 270.279L233.831 285.279Z" fill="#4326A2"/>
<path opacity="0.3" d="M259.805 300.279L233.831 285.279L259.805 270.279L285.79 285.279L259.805 300.279Z" fill="#4326A2"/>
</g>
<g opacity="0.6">
<path d="M407.977 226.7C407.019 226.7 406.049 226.452 405.169 225.944L291.079 160.068C288.383 158.512 287.459 155.061 289.015 152.365C290.571 149.67 294.023 148.745 296.718 150.301L410.808 216.177C413.504 217.734 414.429 221.185 412.872 223.88C411.823 225.685 409.929 226.7 407.989 226.7H407.977Z" fill="#020230"/>
</g>
<path d="M408.225 20.1395C409.365 19.4854 411.192 19.4854 412.331 20.1395L414.35 21.3125C415.477 21.9666 415.477 23.0267 414.35 23.6809C413.21 24.335 411.372 24.335 410.244 23.6809L408.225 22.5079C407.086 21.8538 407.086 20.7937 408.225 20.1395Z" fill="#E8975B"/>
<path d="M389.03 19.226C390.157 18.5718 391.996 18.5718 393.135 19.226L405.552 26.3989C406.691 27.053 406.691 28.1132 405.552 28.7673C404.413 29.4214 402.575 29.4214 401.447 28.7673L389.03 21.5944C387.891 20.9402 387.891 19.8801 389.03 19.226Z" fill="#E8975B"/>
<path d="M350.752 47.9178C351.891 47.2637 353.718 47.2637 354.857 47.9178L361.568 51.7863C362.695 52.4404 362.695 53.5006 361.568 54.1547C360.428 54.8088 358.59 54.8088 357.462 54.1547L350.752 50.2863C349.613 49.6321 349.613 48.572 350.752 47.9178Z" fill="#E8975B"/>
<path opacity="0.4" d="M360.394 43.3275C361.533 42.6734 363.372 42.6734 364.5 43.3275L370.364 46.7223C371.503 47.3764 371.492 48.4365 370.364 49.0907C369.225 49.7448 367.387 49.7448 366.259 49.0907L360.394 45.6959C359.255 45.0418 359.255 43.9817 360.394 43.3275Z" fill="#E8975B"/>
<path opacity="0.4" d="M348.27 26.1395C349.398 25.4854 351.237 25.4854 352.376 26.1395L379.161 41.6358C380.3 42.2899 380.3 43.3501 379.161 44.0042C378.022 44.6583 376.184 44.6583 375.056 44.0042L348.27 28.5079C347.131 27.8538 347.131 26.7937 348.27 26.1395Z" fill="#E8975B"/>
<path d="M374.063 30.8988C375.191 30.2447 377.041 30.2447 378.169 30.8988L387.958 36.5492C389.086 37.2033 389.086 38.2635 387.958 38.9176C386.819 39.5717 384.981 39.5717 383.853 38.9176L374.063 33.2672C372.936 32.6131 372.924 31.5529 374.063 30.8988Z" fill="#E8975B"/>
<path d="M386.785 28.0907C387.925 27.4366 389.763 27.4366 390.891 28.0907L396.755 31.4854C397.894 32.1396 397.894 33.1997 396.755 33.8539C395.616 34.508 393.778 34.508 392.65 33.8539L386.785 30.4591C385.646 29.805 385.646 28.7448 386.785 28.0907Z" fill="#E8975B"/>
<path d="M355.444 50.6132C356.583 49.959 358.41 49.959 359.549 50.6132L361.568 51.7861C362.696 52.4402 362.696 53.5004 361.568 54.1545C360.429 54.8086 358.59 54.8086 357.462 54.1545L355.444 52.9816C354.305 52.3274 354.305 51.2673 355.444 50.6132Z" fill="#E8975B"/>
<path opacity="0.4" d="M321.88 41.3763C323.008 40.7222 324.846 40.7222 325.985 41.3763L352.771 56.8726C353.899 57.5267 353.899 58.5869 352.771 59.241C351.632 59.8951 349.793 59.8951 348.665 59.241L321.88 43.7448C320.741 43.0906 320.741 42.0305 321.88 41.3763Z" fill="#E8975B"/>
<path d="M283.601 70.068C284.74 69.4139 286.568 69.4139 287.707 70.068L308.786 82.2597C309.925 82.9139 309.925 83.974 308.786 84.6281C307.647 85.2823 305.808 85.2823 304.68 84.6281L283.601 72.4364C282.462 71.7823 282.462 70.7221 283.601 70.068Z" fill="#E8975B"/>
<path d="M307.601 73.7899C308.74 73.1358 310.579 73.1358 311.707 73.7899L317.571 77.1847C318.71 77.8388 318.699 78.8989 317.571 79.5531C316.432 80.2072 314.594 80.2072 313.466 79.5531L307.601 76.1583C306.462 75.5042 306.462 74.4441 307.601 73.7899Z" fill="#E8975B"/>
<path d="M309.857 64.9364C310.996 64.2823 312.823 64.2823 313.963 64.9364L326.38 72.1093C327.508 72.7635 327.508 73.8236 326.38 74.4778C325.241 75.1319 323.402 75.1319 322.275 74.4778L309.857 67.3048C308.718 66.6507 308.718 65.5905 309.857 64.9364Z" fill="#E8975B"/>
<path d="M321.282 61.3727C322.41 60.7185 324.26 60.7185 325.387 61.3727L335.177 67.0231C336.316 67.6772 336.316 68.7373 335.177 69.3915C334.038 70.0456 332.199 70.0456 331.072 69.3915L321.282 63.7411C320.143 63.087 320.143 62.0268 321.282 61.3727Z" fill="#E8975B"/>
<path d="M319.624 50.2299C320.763 49.5757 322.601 49.5757 323.729 50.2299L343.973 61.9366C345.113 62.5908 345.101 63.6509 343.973 64.305C342.834 64.9592 340.996 64.9592 339.868 64.305L319.624 52.5983C318.485 51.9441 318.485 50.884 319.624 50.2299Z" fill="#E8975B"/>
<path d="M288.282 72.7636C289.421 72.1095 305.628 80.4328 306.756 81.087L308.775 82.2599C309.914 82.914 309.914 83.9742 308.775 84.6283C307.635 85.2824 305.797 85.2824 304.669 84.6283L302.65 83.4554C301.511 82.8012 287.143 73.4178 288.282 72.7636Z" fill="#E8975B"/>
<path d="M283.455 80.1622C284.594 79.5081 286.421 79.5081 287.56 80.1622L299.977 87.3352C301.105 87.9893 301.105 89.0494 299.977 89.7036C298.838 90.3577 297 90.3577 295.872 89.7036L283.455 82.5307C282.316 81.8765 282.316 80.8164 283.455 80.1622Z" fill="#E8975B"/>
<path d="M245.177 108.865C246.316 108.211 248.143 108.211 249.282 108.865L255.992 112.734C257.131 113.388 257.131 114.448 255.992 115.102C254.853 115.756 253.015 115.756 251.887 115.102L245.177 111.234C244.037 110.579 244.037 109.519 245.177 108.865Z" fill="#E8975B"/>
<path d="M254.82 104.264C255.959 103.609 257.797 103.609 258.925 104.264L264.79 107.658C265.929 108.312 265.917 109.373 264.79 110.027C263.65 110.681 261.812 110.681 260.684 110.027L254.82 106.632C253.681 105.978 253.681 104.918 254.82 104.264Z" fill="#E8975B"/>
<path d="M257.064 95.4103C258.192 94.7561 260.03 94.7561 261.169 95.4103L273.586 102.583C274.714 103.237 274.714 104.297 273.586 104.952C272.447 105.606 270.609 105.606 269.481 104.952L257.064 97.7787C255.925 97.1246 255.925 96.0644 257.064 95.4103Z" fill="#E8975B"/>
<path d="M268.489 91.8463C269.628 91.1922 271.466 91.1922 272.594 91.8463L282.383 97.4967C283.522 98.1508 283.522 99.211 282.383 99.8651C281.244 100.519 279.406 100.519 278.278 99.8651L268.489 94.2147C267.35 93.5606 267.35 92.5004 268.489 91.8463Z" fill="#E8975B"/>
<path d="M281.21 89.0267C282.349 88.3726 284.188 88.3726 285.316 89.0267L291.18 92.4215C292.319 93.0756 292.308 94.1358 291.18 94.7899C290.041 95.444 288.203 95.444 287.075 94.7899L281.21 91.3952C280.071 90.741 280.071 89.6809 281.21 89.0267Z" fill="#E8975B"/>
<path d="M249.868 111.561C251.008 110.907 252.835 110.907 253.974 111.561L255.993 112.734C257.132 113.388 257.132 114.448 255.993 115.102C254.853 115.756 253.015 115.756 251.887 115.102L249.868 113.929C248.729 113.275 248.729 112.215 249.868 111.561Z" fill="#E8975B"/>
<path d="M230.673 110.647C231.812 109.993 233.639 109.993 234.778 110.647L247.195 117.82C248.334 118.474 248.334 119.534 247.195 120.188C246.056 120.843 244.218 120.843 243.09 120.188L230.673 113.016C229.534 112.361 229.534 111.301 230.673 110.647Z" fill="#E8975B"/>
<path d="M192.394 139.339C193.533 138.685 195.361 138.685 196.5 139.339L203.21 143.207C204.349 143.861 204.349 144.921 203.21 145.576C202.071 146.23 200.233 146.23 199.105 145.576L192.394 141.707C191.255 141.053 191.255 139.993 192.394 139.339Z" fill="#E8975B"/>
<path d="M202.026 134.749C203.165 134.095 205.004 134.095 206.131 134.749L211.996 138.143C213.135 138.798 213.135 139.858 211.996 140.512C210.857 141.166 209.019 141.166 207.891 140.512L202.026 137.117C200.887 136.463 200.887 135.403 202.026 134.749Z" fill="#E8975B"/>
<path d="M189.913 117.561C191.053 116.907 192.88 116.907 194.019 117.561L220.804 133.057C221.943 133.711 221.943 134.771 220.804 135.425C219.665 136.079 217.827 136.079 216.699 135.425L189.913 119.929C188.774 119.275 188.774 118.215 189.913 117.561Z" fill="#E8975B"/>
<path d="M215.707 122.32C216.846 121.666 218.684 121.666 219.812 122.32L229.602 127.97C230.741 128.624 230.741 129.685 229.602 130.339C228.463 130.993 226.624 130.993 225.496 130.339L215.707 124.688C214.568 124.034 214.568 122.974 215.707 122.32Z" fill="#E8975B"/>
<path d="M228.417 119.5C229.556 118.846 231.395 118.846 232.523 119.5L238.387 122.895C239.526 123.549 239.526 124.609 238.387 125.264C237.248 125.918 235.41 125.918 234.282 125.264L228.417 121.869C227.278 121.215 227.278 120.155 228.417 119.5Z" fill="#E8975B"/>
<path d="M197.076 142.034C198.215 141.38 200.042 141.38 201.181 142.034L203.2 143.207C204.339 143.861 204.339 144.922 203.2 145.576C202.06 146.23 200.222 146.23 199.094 145.576L197.076 144.403C195.936 143.749 195.936 142.688 197.076 142.034Z" fill="#E8975B"/>
<path d="M163.512 132.797C164.651 132.143 166.478 132.143 167.617 132.797L194.403 148.294C195.542 148.948 195.542 150.008 194.403 150.662C193.263 151.316 191.425 151.316 190.297 150.662L163.512 135.166C162.372 134.512 162.372 133.452 163.512 132.797Z" fill="#E8975B"/>
<path d="M125.233 161.489C126.372 160.835 128.199 160.835 129.338 161.489L150.417 173.681C151.557 174.335 151.545 175.395 150.417 176.049C149.278 176.703 147.44 176.703 146.312 176.049L125.233 163.858C124.094 163.203 124.094 162.143 125.233 161.489Z" fill="#E8975B"/>
<path opacity="0.5" d="M149.244 165.211C150.384 164.557 152.222 164.557 153.35 165.211L159.214 168.606C160.353 169.26 160.353 170.32 159.214 170.974C158.075 171.628 156.237 171.628 155.109 170.974L149.244 167.579C148.105 166.925 148.105 165.865 149.244 165.211Z" fill="#E8975B"/>
<path d="M151.489 156.358C152.628 155.703 154.455 155.703 155.594 156.358L168.012 163.53C169.151 164.185 169.151 165.245 168.012 165.899C166.873 166.553 165.034 166.553 163.906 165.899L151.489 158.726C150.35 158.072 150.35 157.012 151.489 156.358Z" fill="#E8975B"/>
<path d="M162.914 152.794C164.053 152.14 165.891 152.14 167.019 152.794L176.809 158.444C177.948 159.098 177.948 160.158 176.809 160.813C175.67 161.467 173.831 161.467 172.703 160.813L162.914 155.162C161.775 154.508 161.775 153.448 162.914 152.794Z" fill="#E8975B"/>
<path opacity="0.5" d="M161.267 141.651C162.406 140.997 164.244 140.997 165.372 141.651L185.617 153.358C186.756 154.012 186.756 155.072 185.617 155.726C184.477 156.38 182.639 156.38 181.511 155.726L161.267 144.019C160.128 143.365 160.128 142.305 161.267 141.651Z" fill="#E82B88"/>
<path d="M129.925 164.173C131.053 163.519 147.271 171.842 148.399 172.497L150.418 173.67C151.557 174.324 151.545 175.384 150.418 176.038C149.278 176.692 147.44 176.692 146.312 176.038L144.294 174.865C143.154 174.211 128.786 164.827 129.925 164.173Z" fill="#E8975B"/>
<path d="M125.098 171.583C126.237 170.929 128.064 170.929 129.203 171.583L141.621 178.756C142.76 179.41 142.76 180.47 141.621 181.124C140.481 181.779 138.643 181.779 137.515 181.124L125.098 173.952C123.959 173.297 123.959 172.237 125.098 171.583Z" fill="#E8975B"/>
<path d="M86.8197 200.286C87.9588 199.632 89.7858 199.632 90.9249 200.286L97.6354 204.154C98.7745 204.809 98.7745 205.869 97.6354 206.523C96.4963 207.177 94.658 207.177 93.5302 206.523L86.8197 202.654C85.6806 202 85.6806 200.94 86.8197 200.286Z" fill="#E8975B"/>
<path opacity="0.5" d="M98.7069 186.82C99.846 186.166 101.673 186.166 102.812 186.82L115.229 193.993C116.369 194.647 116.369 195.707 115.229 196.361C114.09 197.015 112.252 197.015 111.124 196.361L98.7069 189.188C97.5678 188.534 97.5678 187.474 98.7069 186.82Z" fill="#E8975B"/>
<path opacity="0.5" d="M110.132 183.267C111.271 182.613 113.109 182.613 114.237 183.267L124.026 188.918C125.166 189.572 125.154 190.632 124.026 191.286C122.887 191.94 121.049 191.94 119.921 191.286L110.132 185.636C108.993 184.982 108.993 183.921 110.132 183.267Z" fill="#E8975B"/>
<path d="M122.842 180.448C123.981 179.793 125.82 179.793 126.947 180.448L132.823 183.842C133.951 184.496 133.951 185.557 132.823 186.211C131.684 186.865 129.846 186.865 128.718 186.211L122.853 182.816C121.714 182.162 121.714 181.102 122.853 180.448H122.842Z" fill="#E8975B"/>
<path d="M96.451 195.685C97.5901 195.031 99.4285 195.031 100.556 195.685L106.421 199.079C107.549 199.734 107.549 200.794 106.421 201.448C105.282 202.102 103.443 202.102 102.316 201.448L96.451 198.053C95.3119 197.399 95.3119 196.339 96.451 195.685Z" fill="#E82B88"/>
<path d="M344.448 99.1997C344.019 98.0831 343.5 96.9666 342.936 95.8613C342.519 99.6959 340.951 103.542 339.113 107.376C339.417 109.88 339.395 112.395 339.023 114.899L334.59 116.478L322.433 128.399L306.226 136.745L287.549 143.264L265.703 147.143H247.027L225 143.094L199.624 136.756L179.357 122.658L171.451 115.643C171.181 114.109 171.068 112.564 171.057 111.019C169.06 106.937 167.775 102.47 166.466 97.8688C166.218 98.444 165.981 99.0192 165.767 99.5831L163.681 95.9741V111.786L163.714 111.752C164.132 124.948 173.042 138.064 190.478 148.136C226.218 168.764 284.154 168.764 319.884 148.136C337.827 137.771 346.748 124.181 346.658 110.602H346.669V95.9741L344.436 99.1997H344.448Z" fill="url(#paint0_radial_296_24122)"/>
<path d="M195.654 76.4179C228.519 57.4367 281.82 57.4367 314.684 76.4179C329.628 85.0457 337.748 96.0983 339.102 107.388C340.94 103.553 342.508 99.7074 342.925 95.8728C342.011 94.0683 340.951 92.2863 339.688 90.5269L342.339 90.2901L329.301 67.4968L291.124 49.1698L256.703 44.9404L227.278 48.6397L208.602 52.1585L193.444 59.2073L177.756 70.666L170.008 85.9931L169.027 92.9404C168.023 94.5645 167.166 96.1998 166.455 97.8577C167.752 102.459 169.049 106.925 171.045 111.008C170.933 98.4893 179.121 85.9592 195.666 76.4066L195.654 76.4179Z" fill="url(#paint1_radial_296_24122)"/>
<path opacity="0.5" d="M255.181 150.278C301.666 150.278 339.35 128.521 339.35 101.681C339.35 74.841 301.666 53.083 255.181 53.083C208.696 53.083 171.012 74.841 171.012 101.681C171.012 128.521 208.696 150.278 255.181 150.278Z" fill="url(#paint2_radial_296_24122)"/>
<path d="M319.884 58.6208C284.143 37.9929 226.207 37.9929 190.478 58.6208C154.748 79.2486 154.748 112.7 190.478 133.339C226.218 153.967 284.154 153.967 319.884 133.339C355.624 112.711 355.613 79.2599 319.884 58.6208ZM314.696 130.339C281.831 149.32 228.53 149.32 195.666 130.339C162.801 111.358 162.801 80.5907 195.666 61.6208C228.53 42.6396 281.831 42.6396 314.696 61.6208C347.56 80.602 347.572 111.369 314.696 130.339Z" fill="url(#paint3_radial_296_24122)"/>
<path opacity="0.3" d="M195.654 70.3726C181.15 78.741 173.064 89.4102 171.35 100.35C173.053 111.29 181.15 121.959 195.654 130.327C228.519 149.309 281.82 149.309 314.684 130.327C329.188 121.959 337.274 111.29 338.989 100.35C337.286 89.4102 329.188 78.741 314.684 70.3726C281.82 51.3914 228.519 51.3914 195.654 70.3726Z" fill="url(#paint4_radial_296_24122)"/>
<path d="M430.297 216.076C429.339 216.076 428.369 215.828 427.478 215.32L313.388 149.444C310.692 147.888 309.767 144.437 311.324 141.741C312.88 139.046 316.331 138.121 319.027 139.677L433.117 205.553C435.812 207.109 436.737 210.561 435.181 213.256C434.132 215.061 432.237 216.076 430.297 216.076Z" fill="url(#paint5_radial_296_24122)"/>
<path opacity="0.6" d="M319.027 139.688C316.331 138.132 312.88 139.057 311.324 141.752C309.767 144.448 310.692 147.899 313.388 149.455L321.609 154.203C321.609 154.203 318.621 146.636 327.485 144.572L319.027 139.688Z" fill="#020230"/>
</g>
<defs>
<radialGradient id="paint0_radial_296_24122" cx="0" cy="0" r="1" gradientUnits="userSpaceOnUse" gradientTransform="translate(162 106.801) scale(189.767 189.767)">
<stop stop-color="#4B02EF"/>
<stop offset="0.13" stop-color="#3802C3"/>
<stop offset="0.25" stop-color="#29029E"/>
<stop offset="0.38" stop-color="#1C037F"/>
<stop offset="0.51" stop-color="#120367"/>
<stop offset="0.65" stop-color="#0B0357"/>
<stop offset="0.81" stop-color="#07034D"/>
<stop offset="1" stop-color="#06044A"/>
</radialGradient>
<radialGradient id="paint1_radial_296_24122" cx="0" cy="0" r="1" gradientUnits="userSpaceOnUse" gradientTransform="translate(319.139 121.463) scale(183.44 183.44)">
<stop stop-color="#4B02EF"/>
<stop offset="0.13" stop-color="#3802C3"/>
<stop offset="0.25" stop-color="#29029E"/>
<stop offset="0.38" stop-color="#1C037F"/>
<stop offset="0.51" stop-color="#120367"/>
<stop offset="0.65" stop-color="#0B0357"/>
<stop offset="0.81" stop-color="#07034D"/>
<stop offset="1" stop-color="#06044A"/>
</radialGradient>
<radialGradient id="paint2_radial_296_24122" cx="0" cy="0" r="1" gradientUnits="userSpaceOnUse" gradientTransform="translate(189.576 31.0341) scale(198.733 198.733)">
<stop stop-color="#E39A65"/>
<stop offset="0.47" stop-color="#A92FFB"/>
<stop offset="0.59" stop-color="#881BFA"/>
<stop offset="0.73" stop-color="#6507FA"/>
<stop offset="1" stop-color="#3919BB"/>
</radialGradient>
<radialGradient id="paint3_radial_296_24122" cx="0" cy="0" r="1" gradientUnits="userSpaceOnUse" gradientTransform="translate(183.857 19.1584) scale(216.056)">
<stop stop-color="#E39A65"/>
<stop offset="0.47" stop-color="#A92FFB"/>
<stop offset="0.59" stop-color="#881BFA"/>
<stop offset="0.73" stop-color="#6507FA"/>
<stop offset="1" stop-color="#3919BB"/>
</radialGradient>
<radialGradient id="paint4_radial_296_24122" cx="0" cy="0" r="1" gradientUnits="userSpaceOnUse" gradientTransform="translate(189.846 36.0756) scale(191.459 191.459)">
<stop stop-color="#E39A65"/>
<stop offset="0.47" stop-color="#A92FFB"/>
<stop offset="0.59" stop-color="#881BFA"/>
<stop offset="0.73" stop-color="#6507FA"/>
<stop offset="1" stop-color="#3919BB"/>
</radialGradient>
<radialGradient id="paint5_radial_296_24122" cx="0" cy="0" r="1" gradientUnits="userSpaceOnUse" gradientTransform="translate(437.482 214.373) scale(176.605 176.605)">
<stop stop-color="#E39A65"/>
<stop offset="0.47" stop-color="#A92FFB"/>
<stop offset="0.59" stop-color="#881BFA"/>
<stop offset="0.73" stop-color="#6507FA"/>
<stop offset="1" stop-color="#3919BB"/>
</radialGradient>
<clipPath id="clip0_296_24122">
<rect width="519.609" height="300" fill="white" transform="translate(0 0.278809)"/>
</clipPath>
</defs>
</svg>
