<svg width="169" height="360" viewBox="0 0 169 360" fill="none" xmlns="http://www.w3.org/2000/svg">
<path d="M79.1233 340.259C76.0942 340.259 73.0407 339.478 70.3536 337.914L38.5482 319.569C37.1069 318.738 36.252 317.248 36.252 315.587C36.252 313.926 37.1069 312.436 38.5482 311.63L70.3536 293.284C75.7766 290.157 82.4943 290.157 87.9173 293.284L119.723 311.63C121.164 312.46 122.019 313.95 122.019 315.611C122.019 317.272 121.164 318.763 119.723 319.593L87.9173 337.939C85.2058 339.502 82.1768 340.284 79.1477 340.284L79.1233 340.259ZM79.1233 293.357C76.5095 293.357 73.8957 294.041 71.575 295.385L39.7696 313.73C39.0856 314.121 38.6948 314.805 38.6948 315.587C38.6948 316.369 39.0856 317.053 39.7696 317.443L71.575 335.789C76.2408 338.476 82.0302 338.476 86.6959 335.789L118.501 317.443C119.185 317.053 119.576 316.369 119.576 315.587C119.576 314.805 119.185 314.121 118.501 313.73L86.6959 295.385C84.3753 294.041 81.7615 293.357 79.1477 293.357H79.1233Z" fill="#E8975B"/>
<path opacity="0.6" d="M71.7937 358.997L1.73391 318.544C-0.831034 317.054 -0.513448 314.464 2.44235 312.754L76.7037 269.761C79.6595 268.051 84.1543 267.855 86.7192 269.346L156.779 309.798C159.344 311.289 159.026 313.878 156.071 315.588L81.8092 358.581C78.8534 360.291 74.3587 360.487 71.7937 358.997Z" fill="#020230"/>
<path d="M158.514 184.238L131.96 184.849L86.7197 158.735C84.1548 157.245 79.66 157.441 76.7042 159.151L28.2145 187.218L0 187.854V283.27H0.0244519C0.0244519 284.222 0.561825 285.126 1.73437 285.81L71.7942 326.263C74.3591 327.753 78.8538 327.558 81.8096 325.848L156.071 282.854C157.586 281.975 158.416 280.876 158.514 279.801V184.214V184.238Z" fill="url(#paint0_linear_528_2870)"/>
<mask id="mask0_528_2870" style="mask-type:luminance" maskUnits="userSpaceOnUse" x="0" y="140" width="159" height="92">
<path d="M71.7937 230.798L1.73391 190.346C-0.831034 188.855 -0.513448 186.266 2.44235 184.556L76.7037 141.563C79.6595 139.853 84.1543 139.657 86.7192 141.147L156.779 181.6C159.344 183.09 159.026 185.68 156.071 187.39L81.8092 230.383C78.8534 232.093 74.3587 232.289 71.7937 230.798Z" fill="white"/>
</mask>
<g mask="url(#mask0_528_2870)">
<path d="M159.343 139.682H-0.855957V232.289H159.343V139.682Z" fill="#3919BB"/>
<path d="M130.469 234.732H-3.29932V137.239H161.786V216.411H170.458C166.916 219.977 163.08 223.495 158.952 226.915C150.671 233.779 141.168 240.35 130.444 246.531V234.732H130.469Z" fill="#3919BB"/>
<path d="M129.883 234.732H-3.29932V137.239H161.786V216.215H169.7C166.183 219.757 162.372 223.251 158.244 226.67C149.987 233.51 140.533 240.057 129.858 246.189V234.732H129.883Z" fill="#3A19BC"/>
<path d="M129.297 234.732H-3.27441V137.239H161.811V205.223H178.544C166.989 219.782 150.525 233.632 129.297 245.847V234.732Z" fill="#3A18BD"/>
<path d="M128.686 234.732H-3.29932V137.239H161.786V205.052H177.713C166.207 219.537 149.816 233.339 128.686 245.505V234.732Z" fill="#3B18BE"/>
<path d="M128.099 234.732H-3.29932V137.239H161.786V204.881H176.907C165.45 219.318 149.156 233.022 128.099 245.163V234.732Z" fill="#3C18BF"/>
<path d="M127.514 234.732H-3.27441V137.239H161.811V204.734H176.125C164.718 219.098 148.497 232.753 127.514 244.821V234.732Z" fill="#3D18C0"/>
<path d="M126.902 234.732H-3.29932V137.239H161.786V204.563H175.27C163.911 218.878 147.764 232.46 126.878 244.479V234.732H126.902Z" fill="#3D17C1"/>
<path d="M126.316 234.732H-3.29932V137.239H161.786V204.392H174.464C163.154 218.634 147.08 232.167 126.292 244.137V234.732H126.316Z" fill="#3E17C2"/>
<path d="M125.73 234.732H-3.27441V137.239H161.811V204.221H173.683C162.421 218.389 146.421 231.874 125.73 243.77V234.707V234.732Z" fill="#3F17C3"/>
<path d="M125.119 234.732H-3.29932V137.239H161.786V204.05H172.852C161.639 218.17 145.712 231.581 125.119 243.428V234.707V234.732Z" fill="#3F16C4"/>
<path d="M124.533 234.732H-3.29932V137.239H161.786V203.903H172.045C160.882 217.95 145.028 231.312 124.533 243.111V234.756V234.732Z" fill="#4016C5"/>
<path d="M123.947 234.732H-3.29932V137.239H161.786V203.732H171.239C160.149 217.73 144.344 231.019 123.922 242.769V234.756L123.947 234.732Z" fill="#4116C6"/>
<path d="M123.361 234.732H-3.27441V137.239H161.811V203.561H170.458C159.417 217.485 143.685 230.726 123.361 242.402V234.732Z" fill="#4216C7"/>
<path d="M122.75 234.732H-3.29932V137.239H161.786V203.391H169.603C158.61 217.241 142.952 230.432 122.725 242.06V234.732H122.75Z" fill="#4215C8"/>
<path d="M122.163 234.732H-3.29932V137.239H161.786V203.244H168.797C157.853 217.046 142.268 230.139 122.139 241.743V234.756L122.163 234.732Z" fill="#4315C9"/>
<path d="M121.577 234.732H-3.27441V137.239H161.811V203.073H168.015C157.12 216.802 141.609 229.846 121.577 241.376V234.732Z" fill="#4415CA"/>
<path d="M120.966 234.732H-3.29932V137.239H161.786V202.902H167.184C156.338 216.557 140.9 229.553 120.966 241.034V234.732Z" fill="#4414CB"/>
<path d="M120.38 234.732H-3.29932V137.239H161.786V202.731H166.378C155.581 216.337 140.216 229.26 120.356 240.692V234.732H120.38Z" fill="#4514CC"/>
<path d="M119.794 234.732H-3.27441V137.239H161.811V202.56H165.597C154.849 216.093 139.557 228.967 119.794 240.326V234.707V234.732Z" fill="#4614CD"/>
<path d="M119.183 234.732H-3.29932V137.239H161.786V202.413H164.766C154.066 215.898 138.848 228.698 119.183 240.008V234.732Z" fill="#4613CE"/>
<path d="M118.597 234.732H-3.29932V137.239H161.786V202.242H163.935C153.285 215.653 138.139 228.405 118.572 239.666V234.732H118.597Z" fill="#4713CF"/>
<path d="M118.011 234.732H-3.29932V137.239H161.786V202.071H163.129C152.527 215.409 137.455 228.112 117.986 239.324V234.732H118.011Z" fill="#4813D0"/>
<path d="M117.425 234.732H-3.27441V137.239H161.811V201.9H162.348C151.795 215.189 136.796 227.819 117.425 238.958V234.707V234.732Z" fill="#4913D1"/>
<path d="M116.814 234.732H-3.29932V137.239H161.786V181.527H173.926C170.922 188.367 166.769 195.134 161.541 201.754C151.037 214.969 136.112 227.55 116.814 238.64V234.732Z" fill="#4912D2"/>
<path d="M116.227 234.732H-3.29932V137.239H161.786V160.959H178.69C175.661 188.27 154.604 216.191 116.203 238.274V234.732H116.227Z" fill="#4A12D3"/>
<path d="M115.641 234.732H-3.27441V137.239H161.811V161.008H177.811C174.806 188.172 153.847 215.971 115.641 237.956V234.756V234.732Z" fill="#4B12D4"/>
<path d="M115.03 234.732H-3.29932V137.239H161.786V161.032H176.882C173.878 188.074 153.04 215.727 115.006 237.614V234.756L115.03 234.732Z" fill="#4B11D5"/>
<path d="M114.444 234.732H-3.29932V137.239H161.786V161.057H176.003C173.023 187.952 152.259 215.482 114.444 237.248V234.732Z" fill="#4C11D6"/>
<path d="M113.858 234.732H-3.29932V137.239H161.786V161.081H175.099C172.143 187.854 151.477 215.238 113.833 236.906V234.732H113.858Z" fill="#4D11D7"/>
<path d="M113.272 234.732H-3.27441V137.239H161.811V161.13H174.22C171.264 187.757 150.72 215.018 113.272 236.564V234.732Z" fill="#4E11D8"/>
<path d="M112.661 234.732H-3.29932V137.239H161.786V161.154H173.316C170.384 187.659 149.938 214.774 112.661 236.222V234.732Z" fill="#4E10D9"/>
<path d="M112.075 234.732H-3.29932V137.239H161.786V161.179H172.412C169.481 187.561 149.132 214.53 112.05 235.88V234.732H112.075Z" fill="#4F10DB"/>
<path d="M111.489 234.732H-3.27441V137.239H161.811V161.228H171.533C168.626 187.463 148.375 214.31 111.489 235.538V234.732Z" fill="#5010DC"/>
<path d="M110.878 234.732H-3.29932V137.239H161.786V161.252H170.604C167.722 187.366 147.569 214.066 110.853 235.196V234.732H110.878Z" fill="#500FDD"/>
<path d="M110.291 234.731H-3.29932V137.238H161.077V123.534C168.308 135.455 171.166 148.28 169.725 161.276C166.842 187.243 146.811 213.82 110.291 234.853V234.731Z" fill="#510FDE"/>
<path d="M109.705 234.511C100.618 239.738 90.9447 244.38 80.8315 248.41V234.731H-3.27441V137.238H160.247V123.754C167.429 135.602 170.287 148.377 168.846 161.3C165.988 187.145 146.054 213.576 109.705 234.486V234.511Z" fill="#520FDF"/>
<path d="M109.094 234.169C100.056 239.372 90.4313 243.989 80.3669 247.995V234.731H-3.29932V137.238H159.367V123.974C166.525 135.772 169.358 148.475 167.917 161.324C165.059 187.023 145.223 213.332 109.07 234.144L109.094 234.169Z" fill="#530FE0"/>
<path d="M108.508 233.828C99.5185 239.006 89.9427 243.599 79.9272 247.581V234.731H-3.29932V137.239H158.537V124.219C165.645 135.944 168.455 148.598 167.038 161.374C164.204 186.95 144.466 213.113 108.508 233.828Z" fill="#530EE1"/>
<path d="M107.922 233.485C98.9811 238.639 89.4542 243.207 79.4875 247.165V234.731H-3.29932V137.238H157.682V124.438C164.766 136.115 167.551 148.695 166.158 161.398C163.349 186.852 143.709 212.868 107.922 233.461V233.485Z" fill="#540EE2"/>
<path d="M107.336 233.118C98.4441 238.248 88.966 242.768 79.0482 246.725V234.706H-3.27441V137.214H156.852V124.633C163.887 136.237 166.672 148.744 165.279 161.422C162.47 186.729 142.952 212.623 107.36 233.118H107.336Z" fill="#550EE3"/>
<path d="M106.725 232.777C97.8818 237.882 88.4526 242.377 78.5837 246.31V234.707H-3.29932V137.214H155.972V124.854C162.983 136.408 165.743 148.842 164.351 161.447C161.566 186.632 142.146 212.379 106.725 232.777Z" fill="#550DE4"/>
<path d="M106.139 232.435C97.3444 237.491 87.9396 241.986 78.1439 245.919V234.731H-3.29932V137.238H155.117V125.098C162.079 136.579 164.839 148.964 163.447 161.496C160.662 186.534 141.339 212.159 106.114 232.435H106.139Z" fill="#560DE5"/>
<path d="M105.552 232.094C96.7825 237.126 87.451 241.596 77.7042 245.505V234.732H-3.29932V137.239H154.262V125.318C161.199 136.751 163.935 149.062 162.543 161.521C159.783 186.437 140.558 211.916 105.528 232.094H105.552Z" fill="#570DE6"/>
<path d="M104.942 231.75C96.2216 236.758 86.939 241.204 77.241 245.088V234.731H-3.32275V137.238H153.383V125.562C160.272 136.921 163.008 149.183 161.64 161.569C158.904 186.339 139.777 211.695 104.918 231.75H104.942Z" fill="#580DE7"/>
<path d="M104.356 231.409C95.6838 236.392 86.45 240.814 76.8253 244.673V234.731H-3.27441V137.239H152.577V125.782C159.441 137.092 162.153 149.282 160.785 161.593C158.049 186.241 139.044 211.451 104.38 231.409H104.356Z" fill="#580CE8"/>
<path d="M103.769 231.067C95.1464 236.026 85.9613 240.423 76.3855 244.258V234.731H-3.27441V137.239H151.722V126.002C158.537 137.239 161.249 149.355 159.881 161.618C157.169 186.144 138.237 211.232 103.769 231.067Z" fill="#590CE9"/>
<path d="M103.158 230.726C94.5841 235.66 85.448 240.033 75.921 243.843V234.732H-3.29932V137.239H150.842V126.222C157.633 137.41 160.32 149.453 158.952 161.643C156.241 186.022 137.431 210.988 103.134 230.701L103.158 230.726Z" fill="#5A0CEA"/>
<path d="M102.572 230.383C94.0466 235.293 84.9594 239.641 75.4813 243.427V234.731H-3.29932V137.239H150.011V126.441C156.754 137.556 159.416 149.55 158.073 161.691C155.386 185.948 136.674 210.767 102.572 230.383Z" fill="#5A0BEB"/>
<path d="M101.986 230.041C93.5097 234.927 84.4713 239.251 75.042 243.013V234.731H-3.27441V137.239H149.181V126.662C155.899 137.728 158.537 149.648 157.218 161.716C154.555 185.826 135.941 210.523 102.011 230.041H101.986Z" fill="#5B0BEC"/>
<path d="M101.4 229.699C92.9723 234.56 83.9827 238.86 74.6023 242.597V234.731H-3.27441V137.239H148.326V126.906C154.995 137.923 157.633 149.77 156.314 161.765C153.652 185.753 135.16 210.303 101.424 229.699H101.4Z" fill="#5C0BED"/>
<path d="M100.789 229.357C84.0067 239.006 65.0505 246.481 45.0927 251.709V234.756H-3.29932V137.263H147.446V127.15C154.091 138.094 156.705 149.892 155.386 161.813C152.747 185.68 134.329 210.083 100.789 229.381V229.357Z" fill="#5C0AEE"/>
<path d="M100.202 229.015C83.5181 238.615 64.6597 246.041 44.824 251.244V234.755H-3.29932V137.263H146.591V127.37C153.187 138.265 155.801 149.966 154.482 161.838C151.843 185.557 133.547 209.839 100.202 229.039V229.015Z" fill="#5D0AEF"/>
<path d="M99.6167 228.673C83.03 238.224 64.2692 245.601 44.5557 250.78V234.755H-3.27441V137.263H145.761V127.589C152.333 138.411 154.922 150.063 153.603 161.862C150.989 185.459 132.79 209.594 99.6167 228.673Z" fill="#5E0AF0"/>
<path d="M99.0065 228.307C82.5175 237.809 63.8545 245.138 44.2387 250.292V234.731H-3.32275V137.239H144.858V127.785C151.38 138.558 153.97 150.137 152.675 161.862C150.086 185.313 131.984 209.326 98.982 228.307H99.0065Z" fill="#5F0AF1"/>
<path d="M98.4193 227.965C82.028 237.394 63.4627 244.698 43.969 249.804V234.707H-3.29932V137.215H144.026V127.981C150.524 138.68 153.089 150.21 151.795 161.863C149.205 185.192 131.226 209.058 98.4193 227.941V227.965Z" fill="#5F09F2"/>
<path d="M97.8335 227.622C81.5155 237.003 63.0723 244.258 43.7008 249.339V234.707H-3.27441V137.214H143.196V128.225C149.645 138.875 152.21 150.332 150.916 161.911C148.351 185.093 130.445 208.837 97.8335 227.598V227.622Z" fill="#6009F3"/>
<path d="M97.2233 227.28C81.003 236.612 62.6819 243.818 43.3837 248.875V234.731H-3.32275V137.238H142.293V128.469C148.718 139.046 151.234 150.454 149.963 161.984C147.399 185.044 129.615 208.642 97.1988 227.305L97.2233 227.28Z" fill="#6109F4"/>
<path d="M96.636 226.94C80.5135 236.222 62.2901 243.38 43.114 248.412V234.732H-3.29932V137.24H141.486V128.69C147.862 139.218 150.378 150.529 149.108 162.01C146.567 184.948 128.881 208.399 96.636 226.94Z" fill="#6108F5"/>
<path d="M96.0502 226.596C80.0254 235.83 61.8997 242.963 42.8458 247.946V234.731H-3.27441V137.238H140.656V128.908C147.007 139.363 149.499 150.625 148.253 162.033C145.737 184.824 128.149 208.153 96.0746 226.596H96.0502Z" fill="#6208F6"/>
<path d="M95.4635 226.255C79.5364 235.416 61.5084 242.525 42.5522 247.483V234.732H-3.29932V137.239H139.776V129.129C146.078 139.536 148.57 150.724 147.324 162.058C144.808 184.728 127.318 207.91 95.4635 226.255Z" fill="#6308F7"/>
<path d="M94.8528 225.912C78.999 235.024 61.0932 242.084 42.2591 247.018V234.731H-3.29932V137.238H138.921V129.348C145.199 139.681 147.666 150.82 146.42 162.082C143.929 184.604 126.536 207.665 94.8528 225.888V225.912Z" fill="#6408F8"/>
<path d="M94.2669 225.571C78.5108 234.634 60.7027 241.644 41.9908 246.554V234.731H-3.27441V137.239H138.091V129.593C144.32 139.877 146.787 150.943 145.541 162.131C143.05 184.532 125.779 207.445 94.2914 225.571H94.2669Z" fill="#6407F9"/>
<path d="M93.6802 225.229C78.0218 234.243 60.3114 241.205 41.6972 246.09V234.731H-3.29932V137.239H137.211V129.812C143.416 140.023 145.859 151.04 144.613 162.155C142.146 184.409 124.973 207.201 93.6558 225.229H93.6802Z" fill="#6507FA"/>
<path d="M93.0695 224.887C77.5088 233.852 59.8962 240.765 41.4041 245.626V234.756H-3.29932V137.263H136.356V130.057C142.512 140.219 144.955 151.139 143.733 162.204C141.291 184.336 124.215 206.981 93.0695 224.887Z" fill="#6507FA"/>
<path d="M92.5814 224.594C77.094 233.51 59.5791 240.399 41.1847 245.211V234.731H-3.27441V137.239H135.648V130.228C141.78 140.341 144.198 151.212 142.977 162.229C140.534 184.239 123.556 206.786 92.5814 224.594Z" fill="#6607FA"/>
<path d="M92.0684 224.301C76.6543 233.168 59.2371 240.008 40.9404 244.821V234.732H-3.27441V137.239H134.94V130.424C141.047 140.464 143.441 151.31 142.244 162.254C139.825 184.166 122.921 206.566 92.1172 224.301H92.0684Z" fill="#6708FA"/>
<path d="M91.555 224.007C76.2386 232.825 58.8946 239.641 40.6712 244.429V234.755H-3.29932V137.263H134.182V130.618C140.24 140.609 142.634 151.382 141.437 162.277C139.019 184.067 122.212 206.37 91.555 224.007Z" fill="#6708FA"/>
<path d="M91.0668 223.714C75.8237 232.484 58.5775 239.275 40.4518 244.014V234.731H-3.27441V137.239H133.474V130.79C139.508 140.732 141.902 151.456 140.68 162.302C138.286 183.994 121.553 206.175 91.0668 223.714Z" fill="#6809FA"/>
<path d="M90.5535 223.421C60.2138 240.887 21.9594 250.414 -15.4155 251.733L-3.29922 234.756V137.263H132.716V131.01C138.726 140.903 141.095 151.554 139.898 162.351C137.504 183.921 120.869 205.98 90.5291 223.446L90.5535 223.421Z" fill="#6909FA"/>
<path d="M90.0405 223.127C59.8718 240.496 21.7884 249.974 -15.3667 251.269L-3.29922 234.731V137.238H132.008V131.18C137.968 141.025 140.338 151.626 139.141 162.35C136.771 183.798 120.209 205.759 90.0405 223.127Z" fill="#6A0AFA"/>
<path d="M89.5279 222.835C59.5058 240.105 21.6423 249.535 -15.3418 250.829L-3.32315 234.731V137.239H131.251V131.376C137.187 141.172 139.532 151.725 138.36 162.375C135.99 183.725 119.526 205.564 89.5279 222.835Z" fill="#6B0AFA"/>
<path d="M89.0384 222.542C59.1873 239.715 21.5192 249.12 -15.2695 250.39L-3.29978 234.732V137.239H130.542V131.547C136.453 141.294 138.774 151.774 137.601 162.4C135.256 183.628 118.865 205.345 89.014 222.542H89.0384Z" fill="#6C0BFA"/>
<path d="M88.5264 222.248C58.8218 239.348 21.3491 248.679 -15.2197 249.95L-3.29881 234.731V137.239H129.81V131.742C135.697 141.44 138.018 151.871 136.845 162.424C134.5 183.53 118.206 205.149 88.5264 222.224V222.248Z" fill="#6D0CFA"/>
<path d="M88.0128 221.955C58.4793 238.957 21.202 248.24 -15.1714 249.51L-3.29937 234.731V137.239H129.101V131.938C134.939 141.563 137.26 151.945 136.087 162.449C133.767 183.457 117.546 204.954 88.0128 221.931V221.955Z" fill="#6E0CFA"/>
<path d="M87.5248 221.663C58.1378 238.567 21.0803 247.801 -15.1221 249.071L-3.29889 234.732V137.239H128.369V132.134C134.182 141.71 136.479 152.043 135.33 162.498C133.01 183.384 116.887 204.758 87.5248 221.663Z" fill="#6F0DFA"/>
<path d="M87.0107 221.369C57.7947 238.176 20.9084 247.361 -15.0742 248.631L-3.29994 234.732V137.239H127.635V132.329C133.424 141.856 135.696 152.14 134.548 162.522C132.252 183.311 116.227 204.563 86.9863 221.369H87.0107Z" fill="#700DFA"/>
<path d="M86.4992 221.076C57.4298 237.809 20.7632 246.945 -15.0239 248.191L-3.29847 234.731V137.239H126.903V132.524C132.644 142.002 134.916 152.213 133.792 162.546C131.496 183.212 115.569 204.342 86.4992 221.076Z" fill="#710EFA"/>
<path d="M85.9867 220.782C57.0882 237.418 20.6171 246.505 -14.999 247.751L-3.3224 234.731V137.238H126.171V132.695C131.887 142.124 134.159 152.286 133.011 162.546C130.739 183.09 114.885 204.123 85.9867 220.758V220.782Z" fill="#720EFA"/>
<path d="M85.498 220.489C56.7462 237.027 20.4949 246.065 -14.9258 247.311L-3.29806 234.755V137.263H125.462V132.915C131.154 142.295 133.402 152.384 132.253 162.619C129.982 183.065 114.225 203.976 85.4736 220.514L85.498 220.489Z" fill="#730FFA"/>
<path d="M84.9841 220.196C56.4032 236.636 20.3229 245.626 -14.8779 246.871L-3.29904 234.755V137.263H124.729V133.11C130.396 142.441 132.619 152.481 131.495 162.643C129.248 182.968 113.565 203.756 84.9841 220.22V220.196Z" fill="#7410FA"/>
<path d="M84.4721 219.904C56.0378 236.271 20.1773 245.212 -14.8281 246.433L-3.29807 234.756V137.264H123.997V133.307C129.615 142.589 131.838 152.58 130.714 162.669C128.467 182.871 112.882 203.562 84.4476 219.929L84.4721 219.904Z" fill="#7410FA"/>
<path d="M83.9825 219.611C55.7192 235.88 20.0542 244.772 -14.7803 245.993L-3.29912 234.756V137.264H123.263V133.502C128.857 142.711 131.055 152.654 129.956 162.718C127.733 182.822 112.221 203.391 83.958 219.66L83.9825 219.611Z" fill="#7511FA"/>
<path d="M83.47 219.317C55.3532 235.488 19.8836 244.331 -14.731 245.553L-3.29863 234.755V137.263H122.555V133.672C128.125 142.832 130.323 152.726 129.199 162.717C126.976 182.699 111.562 203.145 83.4455 219.317H83.47Z" fill="#7611FA"/>
<path d="M82.9564 219.024C55.0107 235.098 19.7366 243.892 -14.6826 245.113L-3.29912 234.756V137.263H121.822V133.868C127.342 142.979 129.541 152.799 128.442 162.742C126.243 182.626 110.902 202.95 82.9564 219.024Z" fill="#7712FA"/>
<path d="M82.4434 218.731C54.6443 234.732 19.59 243.452 -14.6582 244.649L-3.32353 234.732V137.239H121.064V134.039C126.561 143.102 128.735 152.873 127.635 162.742C125.437 182.504 110.194 202.731 82.419 218.707L82.4434 218.731Z" fill="#7812FA"/>
<path d="M81.9554 218.437C54.3272 234.34 19.4683 243.036 -14.5845 244.209L-3.29871 234.731V137.238H120.356V134.233C125.828 143.247 127.978 152.97 126.903 162.79C124.729 182.43 109.559 202.534 81.9309 218.437H81.9554Z" fill="#7913FA"/>
<path d="M81.4427 218.145C53.9611 233.95 19.2977 242.597 -14.5352 243.77L-3.2983 234.731V137.239H119.648V134.43C125.096 143.395 127.221 153.044 126.146 162.815C123.972 182.358 108.9 202.34 81.4427 218.145Z" fill="#7A14FA"/>
<path d="M80.9298 217.851C53.6192 233.558 19.1511 242.157 -14.4863 243.33L-3.2983 234.731V137.238H118.915V134.6C124.314 143.516 126.464 153.117 125.389 162.815C123.239 182.235 108.24 202.119 80.9298 217.827V217.851Z" fill="#7B14FA"/>
<path d="M80.4417 217.559C53.2776 233.193 19.0295 241.718 -14.437 242.891L-3.29781 234.732V137.239H118.183V134.796C123.557 143.664 125.683 153.191 124.608 162.864C122.458 182.162 107.581 201.925 80.4173 217.559H80.4417Z" fill="#7C15FA"/>
<path d="M79.9281 217.265C52.9351 232.802 18.8579 241.278 -14.3887 242.451L-3.29838 234.732V137.239H117.45V134.992C122.799 143.81 124.9 153.288 123.85 162.889C121.725 182.089 106.921 201.729 79.9281 217.265Z" fill="#7D15FA"/>
<path d="M79.4156 216.972C52.5692 232.411 18.7118 240.863 -14.3394 242.011L-3.29789 234.731V137.239H116.742V135.187C122.043 143.932 124.143 153.361 123.093 162.913C120.968 181.991 106.262 201.534 79.4156 216.972Z" fill="#7F16FA"/>
<path d="M78.9021 216.679C52.2267 232.02 18.5648 240.423 -14.3154 241.571L-3.32279 234.731V137.239H115.984V135.382C121.26 144.079 123.337 153.459 122.286 162.937C120.186 181.918 105.553 201.314 78.8777 216.679H78.9021Z" fill="#8017FA"/>
<path d="M78.414 216.386C51.8851 231.653 18.4187 239.983 -14.2417 241.131L-3.29796 234.731V137.239H115.276V135.578C120.528 144.225 122.604 153.557 121.554 162.986C119.478 181.844 104.918 201.143 78.3896 216.41L78.414 216.386Z" fill="#8117FA"/>
<path d="M77.9 216.092C51.5422 231.262 18.2711 239.543 -14.1938 240.692L-3.29894 234.731V137.239H114.542V135.749C119.77 144.347 121.822 153.605 120.771 162.986C118.695 181.722 104.233 200.898 77.8756 216.068L77.9 216.092Z" fill="#8218FA"/>
<path d="M77.387 215.8C51.1757 230.872 18.1245 239.129 -14.145 240.252L-3.29894 234.756V137.263H113.834V135.969C119.012 144.519 121.064 153.728 120.038 163.035C117.987 181.674 103.598 200.728 77.387 215.8Z" fill="#8318FA"/>
<path d="M76.8984 215.506C50.8581 230.505 18.0023 238.689 -14.0962 239.812L-3.29902 234.756V137.263H113.101V136.164C118.255 144.665 120.283 153.801 119.257 163.084C117.205 181.6 102.914 200.557 76.874 215.531L76.8984 215.506Z" fill="#8419FA"/>
<path d="M76.3859 215.213C50.4921 230.114 17.8318 238.248 -14.0469 239.372L-3.29853 234.755V137.263H112.368V136.359C117.498 144.811 119.526 153.898 118.5 163.108C116.472 181.502 102.255 200.336 76.3859 215.237V215.213Z" fill="#851AFA"/>
<path d="M75.8724 214.92C50.1496 229.723 17.6847 237.809 -13.9985 238.933L-3.29902 234.756V137.263H111.635V136.555C116.716 144.958 118.744 153.996 117.718 163.132C115.69 181.429 101.571 200.141 75.848 214.944L75.8724 214.92Z" fill="#861AFA"/>
<path d="M75.3604 214.626C49.7842 229.332 17.5391 237.369 -13.9731 238.493L-3.32246 234.755V137.263H110.903V136.725C115.96 145.055 117.963 154.045 116.961 163.132C114.958 181.306 100.912 199.921 75.3604 214.626Z" fill="#871BFA"/>
<path d="M74.8703 214.334C49.4651 228.966 17.391 236.954 -13.9014 238.029L-3.29959 234.731V137.238H110.193V136.896C115.226 145.178 117.204 154.118 116.203 163.157C114.2 181.233 100.251 199.701 74.8459 214.334H74.8703Z" fill="#881BFB"/>
<path d="M74.3582 214.041C49.0996 228.575 17.2454 236.515 -13.8516 237.589L-3.29869 234.731V137.239H109.461V137.092C114.469 145.325 116.423 154.192 115.446 163.181C113.468 181.136 99.6169 199.506 74.3582 214.041Z" fill="#891CFB"/>
<path d="M73.8443 213.748C48.7566 228.185 17.0978 236.075 -13.8037 237.15L-3.29966 234.732V137.239H99.0296V125.538C103.011 129.251 106.26 133.184 108.752 137.288C113.711 145.471 115.69 154.29 114.688 163.206C112.709 181.039 98.9563 199.311 73.8687 213.748H73.8443Z" fill="#8A1DFB"/>
<path d="M73.3571 213.454C48.4161 227.793 16.9771 235.635 -13.7534 236.71L-3.2982 234.731V137.238H98.3715V125.806C102.329 129.495 105.553 133.403 108.021 137.458C112.955 145.593 114.909 154.363 113.932 163.206C111.978 180.94 98.2982 199.066 73.3571 213.43V213.454Z" fill="#8B1DFB"/>
<path d="M72.8431 213.161C48.073 227.427 16.8051 235.195 -13.7056 236.27L-3.29925 234.731V137.238H97.6864V126.075C101.619 129.739 104.82 133.623 107.287 137.654C112.197 145.739 114.127 154.436 113.149 163.254C111.195 180.867 97.6132 198.895 72.8431 213.136V213.161Z" fill="#8C1EFB"/>
<path d="M72.3311 212.868C47.7076 227.036 16.6595 234.78 -13.6558 235.83L-3.29828 234.731V137.239H97.0279V126.344C100.936 129.984 104.112 133.843 106.555 137.849C111.416 145.886 113.346 154.534 112.369 163.279C110.439 180.77 96.9302 198.7 72.3067 212.844L72.3311 212.868Z" fill="#8D1FFB"/>
<path d="M71.8185 212.575C47.366 226.646 16.5134 234.341 -13.6309 235.391L-3.3222 234.732V137.239H96.3444V126.613C100.228 130.228 103.38 134.063 105.798 138.045C110.635 146.033 112.54 154.607 111.587 163.304C109.658 180.697 96.2467 198.48 71.7942 212.551L71.8185 212.575Z" fill="#8E1FFB"/>
<path d="M71.33 212.281C47.024 226.254 16.3668 233.9 -13.5576 234.951L-3.29787 234.731V137.238H95.7091V126.881C99.5688 130.472 102.72 134.283 105.114 138.24C109.926 146.155 111.832 154.704 110.855 163.352C108.949 180.623 95.6115 198.309 71.3055 212.281H71.33Z" fill="#8F20FB"/>
<path d="M70.816 211.989C46.681 225.889 16.2192 233.461 -13.5098 234.512H-3.29884V137.239H95.0242V127.126C98.8594 130.692 101.986 134.479 104.356 138.412C109.144 146.278 111.025 154.779 110.072 163.353C108.167 180.526 94.9265 198.065 70.7916 211.965L70.816 211.989Z" fill="#9020FB"/>
<path d="M70.3035 211.695C46.3151 225.497 16.0731 233.046 -13.4604 234.071H-3.29836V137.239H94.3651V127.394C98.1759 130.936 101.278 134.698 103.648 138.607C108.387 146.424 110.268 154.851 109.315 163.377C107.434 180.427 94.2674 197.869 70.3035 211.671V211.695Z" fill="#9121FB"/>
<path d="M69.8144 211.403C45.997 225.107 15.926 232.607 -13.4121 233.633H-3.29892V137.239H93.7051V127.664C97.4914 131.181 100.569 134.919 102.914 138.803C107.629 146.571 109.486 154.95 108.557 163.402C106.676 180.331 93.6073 197.674 69.7899 211.379L69.8144 211.403Z" fill="#9222FB"/>
<path d="M69.3018 211.11C45.631 224.716 15.7799 232.167 -13.3628 233.193H-3.29843V137.264H93.0459V127.957C96.8079 131.45 99.8614 135.163 102.206 139.022C106.897 146.742 108.729 155.047 107.801 163.475C105.944 180.306 92.9482 197.503 69.3018 211.134V211.11Z" fill="#9322FB"/>
<path d="M68.7888 210.816C45.289 224.349 15.6333 231.726 -13.314 232.752H-3.29851V137.263H92.3619V128.225C96.0994 131.693 99.1285 135.382 101.449 139.217C106.09 146.888 107.947 155.144 107.019 163.499C105.162 180.208 92.2642 197.307 68.7643 210.84L68.7888 210.816Z" fill="#9423FB"/>
<path d="M68.2754 210.524C44.9221 223.959 15.4862 231.288 -13.29 232.313H-3.32334V137.264H91.6774V128.494C95.3905 131.939 98.3952 135.603 100.716 139.413C105.333 147.035 107.165 155.243 106.237 163.524C104.404 180.111 91.5797 197.113 68.2509 210.548L68.2754 210.524Z" fill="#9624FB"/>
<path d="M67.7872 210.229C44.605 223.567 15.3401 230.871 -13.2163 231.873H-3.29851V137.263H91.0427V128.762C94.7314 132.182 97.7116 135.821 100.008 139.608C104.6 147.181 106.408 155.315 105.504 163.572C103.672 180.061 90.9695 196.916 67.7628 210.278L67.7872 210.229Z" fill="#9724FB"/>
<path d="M67.2747 209.937C44.239 223.177 15.194 230.432 -13.167 231.409H-3.2981V137.239H90.3836V128.982C94.0478 132.378 97.0281 135.993 99.2999 139.755C103.868 147.279 105.651 155.365 104.747 163.548C102.94 179.915 90.3104 196.673 67.2747 209.913V209.937Z" fill="#9825FB"/>
<path d="M66.7617 209.644C43.897 222.811 15.0474 229.993 -13.1182 230.97H-3.2981V137.239H89.6996V129.251C93.3394 132.623 96.2952 136.213 98.5426 139.951C103.062 147.402 104.845 155.438 103.966 163.573C102.158 179.842 89.6264 196.478 66.7617 209.62V209.644Z" fill="#9925FB"/>
<path d="M66.2481 209.351C43.53 222.42 14.8759 229.553 -13.0942 230.53H-3.323V137.239H89.0151V129.52C92.6305 132.866 95.5619 136.433 97.8093 140.146C102.304 147.547 104.087 155.535 103.183 163.597C101.4 179.744 88.9419 196.257 66.2238 209.326L66.2481 209.351Z" fill="#9A26FB"/>
<path d="M65.7601 209.057C43.2129 222.028 14.7542 229.113 -13.0205 230.09H-3.29818V137.239H75.5557V120.457C115.227 143.443 110.83 183.115 65.7356 209.057H65.7601Z" fill="#9B27FB"/>
<path d="M65.246 208.764C42.8455 221.637 14.6067 228.697 -12.9727 229.65H-3.29916V137.238H74.9929V120.774C114.395 143.59 110.023 182.992 65.246 208.764Z" fill="#9C27FB"/>
<path d="M64.734 208.471C42.5045 221.271 14.461 228.257 -12.9473 229.21H-3.32259V137.238H74.3831V121.116C113.493 143.785 109.169 182.894 64.7096 208.471H64.734Z" fill="#9D28FB"/>
<path d="M64.245 208.178C42.162 220.88 14.3139 227.818 -12.8745 228.771H-3.29874V137.239H73.8207V121.434C112.661 143.932 108.362 182.748 64.2205 208.153L64.245 208.178Z" fill="#9E29FB"/>
<path d="M63.7314 207.885C41.8194 220.49 14.1669 227.379 -12.8262 228.332H-3.29923V137.239H73.2584V121.776C111.806 144.104 107.555 182.651 63.7314 207.885Z" fill="#9F29FB"/>
<path d="M63.219 207.591C41.4535 220.098 14.0208 226.963 -12.7769 227.891H-3.29875V137.238H72.6726V122.093C110.951 144.273 106.725 182.528 63.219 207.567V207.591Z" fill="#A02AFB"/>
<path d="M62.7069 207.299C41.1125 219.733 13.8507 226.524 -12.7515 227.452H-3.32218V137.239H72.0873V122.436C110.097 144.445 105.871 182.431 62.6825 207.299H62.7069Z" fill="#A12BFB"/>
<path d="M62.2178 207.005C40.77 219.342 13.7281 226.084 -12.6787 227.012H-3.29834V137.239H71.5249V122.777C109.242 144.616 105.065 182.333 62.1934 207.005H62.2178Z" fill="#A22BFB"/>
<path d="M61.7038 206.712C40.4269 218.95 13.5805 225.643 -12.6309 226.572H-3.29939V137.262H70.9621V123.119C108.41 144.811 104.258 182.235 61.7038 206.736V206.712Z" fill="#A42CFB"/>
<path d="M61.1918 206.419C40.0615 218.584 13.4104 225.204 -12.6055 226.133H-3.32275V137.263H70.3524V123.461C107.507 144.983 103.404 182.138 61.1674 206.444L61.1918 206.419Z" fill="#A52CFB"/>
<path d="M60.7022 206.127C39.7429 218.195 13.2873 224.79 -12.5332 225.694H-3.29939V137.265H69.8139V123.78C106.7 145.155 102.621 182.017 60.7022 206.152V206.127Z" fill="#A62DFB"/>
<path d="M60.1906 205.832C39.3779 217.802 13.1421 224.349 -12.4829 225.252H-3.298V137.262H69.229V124.12C105.822 145.324 101.792 181.917 60.1662 205.856L60.1906 205.832Z" fill="#A72EFB"/>
<path d="M59.6766 205.541C39.0349 217.413 12.9946 223.911 -12.4351 224.79H-3.29898V137.24H68.6662V124.415C104.991 145.448 100.96 181.772 59.6766 205.516V205.541Z" fill="#A82EFB"/>
<path d="M59.1646 205.246C38.6694 217.045 12.8245 223.469 -12.4097 224.349H-3.32242V137.238H68.0565V124.755C104.112 145.641 100.106 181.673 59.1401 205.246H59.1646Z" fill="#A92FFB"/>
<path d="M58.675 204.953C38.3508 216.654 12.7014 223.029 -12.3374 223.909H-3.29906V137.238H67.518V125.073C103.281 145.788 99.3233 181.55 58.675 204.928V204.953Z" fill="#A92FFB"/>
<path d="M58.2353 204.709C38.0577 216.337 12.5792 222.664 -12.313 223.543H-3.29902V137.239H67.005V125.367C102.523 145.935 98.5906 181.454 58.211 204.709H58.2353Z" fill="#A930FA"/>
<path d="M57.7951 204.44C37.7396 215.97 12.4321 222.297 -12.2646 223.152H-3.29958V137.239H66.5159V125.635C101.815 146.082 97.906 181.356 57.7951 204.44Z" fill="#AA30F9"/>
<path d="M57.3803 204.195C37.4714 215.652 12.3349 221.93 -12.2153 222.785H-3.2991V137.238H66.0278V125.928C101.082 146.227 97.1981 181.282 57.3559 204.195H57.3803Z" fill="#AA31F8"/>
<path d="M56.9406 203.953C37.1538 215.336 12.1883 221.565 -12.1665 222.42H-3.27464V137.264H65.5637V126.247C100.374 146.4 96.5141 181.21 56.965 203.977L56.9406 203.953Z" fill="#AB32F7"/>
<path d="M56.5013 203.708C36.8611 215.018 12.0666 221.198 -12.1416 222.029H-3.29865V137.239H65.0512V126.491C99.6169 146.522 95.8061 181.087 56.5013 203.683V203.708Z" fill="#AB33F6"/>
<path d="M56.0864 203.439C36.5684 214.675 11.945 220.807 -12.0923 221.637H-3.29823V137.214H64.563V126.759C98.9089 146.643 95.0981 180.965 56.0621 203.439H56.0864Z" fill="#AB33F5"/>
<path d="M55.6467 203.195C36.2753 214.334 11.8228 220.441 -12.0435 221.271H-3.27378V137.239H64.0988V127.052C98.2004 146.79 94.4141 180.892 55.6712 203.195H55.6467Z" fill="#AC34F4"/>
<path d="M55.206 202.951C35.9567 214.017 11.6752 220.075 -12.02 220.905H-3.29925V137.239H63.5849V127.346C97.4422 146.961 93.7047 180.794 55.206 202.951Z" fill="#AC35F3"/>
<path d="M54.7907 202.705C35.688 213.698 11.5775 219.707 -11.9712 220.538H-3.29925V137.262H63.0963V127.638C96.7094 147.107 92.9963 180.72 54.7907 202.705Z" fill="#AD35F2"/>
<path d="M54.3515 202.436C35.3709 213.356 11.4314 219.316 -11.9219 220.147H-3.29876V137.238H62.6082V127.906C95.977 147.229 92.2884 180.622 54.3515 202.436Z" fill="#AD36F1"/>
<path d="M53.9128 202.193C35.0787 213.039 11.3102 218.951 -11.8965 219.757H-3.29782V137.215H62.1206V128.176C95.2695 147.377 91.6053 180.501 53.9372 202.193H53.9128Z" fill="#AD37F0"/>
<path d="M53.4965 201.948C34.809 212.721 11.2115 218.584 -11.8242 219.39H-3.27439V137.238H61.6311V128.469C94.5357 147.523 90.8959 180.427 53.4965 201.948Z" fill="#AE38EF"/>
<path d="M53.0572 201.704C34.4919 212.379 11.0654 218.217 -11.7993 219.023H-3.29839V137.238H61.1185V128.762C93.7788 147.693 90.1635 180.329 53.0328 201.704H53.0572Z" fill="#AE38EE"/>
<path d="M52.6166 201.436C34.1978 212.038 10.9422 217.827 -11.7759 218.633H-3.29933V137.239H60.629V129.031C93.0451 147.816 89.4542 180.233 52.6166 201.436Z" fill="#AE39ED"/>
<path d="M52.2017 201.191C33.9051 211.72 10.8205 217.46 -11.7021 218.266H-3.27443V137.238H60.1653V129.324C92.3615 147.962 88.795 180.159 52.2017 201.191Z" fill="#AF3AEC"/>
<path d="M51.762 200.948C33.6119 211.403 10.6984 217.095 -11.6777 217.901H-3.29892V137.264H59.6523V129.618C91.6042 148.134 88.0621 180.062 51.762 200.972V200.948Z" fill="#AF3BEB"/>
<path d="M51.3228 200.703C33.2949 211.085 10.5523 216.752 -11.6284 217.51H-3.29843V137.239H59.1642V129.886C90.8719 148.256 87.3542 179.964 51.3228 200.703Z" fill="#B03BEA"/>
<path d="M50.9079 200.459C33.0265 210.743 10.455 216.386 -11.5791 217.143H-3.27357V137.239H58.7005V130.155C90.1638 148.378 86.695 179.841 50.9079 200.434V200.459Z" fill="#B03CE9"/>
<path d="M50.4668 200.19C32.7076 210.401 10.307 215.995 -11.5562 216.752H-3.29945V137.239H58.1861V130.448C89.4296 148.549 85.9608 179.768 50.4668 200.19Z" fill="#B03DE8"/>
<path d="M50.028 199.945C32.4154 210.083 10.1858 215.628 -11.5063 216.386H-3.29855V137.239H57.6984V130.741C88.6976 148.695 85.2533 179.695 50.028 199.945Z" fill="#B13DE7"/>
<path d="M49.6117 199.701C32.1212 209.765 10.0871 215.262 -11.4585 216.019H-3.27507V137.263H57.2333V131.034C87.9882 148.842 84.5928 179.597 49.6362 199.725L49.6117 199.701Z" fill="#B13EE6"/>
<path d="M49.173 199.457C31.829 209.448 9.94147 214.896 -11.4331 215.628H-3.29859V137.239H56.7212V131.303C87.2319 148.989 83.8608 179.499 49.173 199.457Z" fill="#B23FE5"/>
<path d="M48.7333 199.189C31.5359 209.082 9.8193 214.505 -11.3843 215.238H-3.29859V137.215H56.2326V131.547C86.5235 149.087 83.1524 179.353 48.7333 199.164V199.189Z" fill="#B240E4"/>
<path d="M48.3179 198.945C31.2427 208.765 9.69713 214.139 -11.3354 214.872H-3.29866V137.239H55.7196V131.865C85.7661 149.258 82.4439 179.305 48.2934 198.945H48.3179Z" fill="#B240E3"/>
<path d="M47.8787 198.7C30.95 208.447 9.57545 213.772 -11.2861 214.505H-3.27372V137.239H55.256V132.134C85.0582 149.404 81.7605 179.182 47.8787 198.676V198.7Z" fill="#B341E2"/>
<path d="M47.438 198.455C30.6315 208.129 9.42789 213.405 -11.2627 214.138H-3.29919V137.263H54.742V132.451C84.2999 149.575 81.0266 179.133 47.438 198.48V198.455Z" fill="#B342E1"/>
<path d="M47.0236 198.187C30.3637 207.787 9.33113 213.014 -11.2129 213.747H-3.29822V137.238H54.2543V132.695C83.5925 149.672 80.3435 179.01 46.9992 198.187H47.0236Z" fill="#B442E0"/>
<path d="M46.5835 197.944C30.0457 207.446 9.18404 212.649 -11.1646 213.358H-3.27425V137.215H53.7897V132.965C82.8836 149.82 79.6591 178.89 46.6079 197.919L46.5835 197.944Z" fill="#B443DF"/>
<path d="M46.1428 197.698C29.7515 207.127 9.06091 212.281 -11.1411 212.99H-3.29972V137.238H53.2757V133.281C82.1253 149.99 78.9253 178.839 46.1428 197.698Z" fill="#B444DE"/>
<path d="M45.7275 197.453C29.4584 206.809 8.93874 211.915 -11.0923 212.623H-3.29972V137.238H52.7872V133.549C81.3925 150.112 78.2412 178.717 45.703 197.453H45.7275Z" fill="#B545DD"/>
<path d="M45.2882 197.186C29.1657 206.468 8.81706 211.525 -11.043 212.233H-3.27486V137.239H52.3235V133.844C80.6845 150.284 77.5577 178.645 45.3126 197.21L45.2882 197.186Z" fill="#B545DC"/>
<path d="M44.8495 196.94C28.8491 206.15 8.69589 211.158 -11.0176 211.866H-3.29829V137.238H51.8115V134.111C79.9526 150.405 76.8259 178.546 44.8495 196.94Z" fill="#B546DB"/>
<path d="M44.4332 196.697C28.5794 205.809 8.57273 210.816 -10.9453 211.5H-3.27486V137.263H51.3463V134.43C79.2432 150.577 76.1653 178.474 44.4576 196.721L44.4332 196.697Z" fill="#B647DA"/>
<path d="M43.9944 196.453C28.2872 205.491 8.45155 210.45 -10.9199 211.11H-3.29837V137.239H50.8343V134.674C78.4869 150.699 75.4334 178.352 43.9944 196.429V196.453Z" fill="#B647D9"/>
<path d="M43.5537 196.208C27.9686 205.173 8.30399 210.083 -10.8965 210.743H-3.29939V137.239H50.3203V134.967C77.7286 150.845 74.6995 178.253 43.5293 196.208H43.5537Z" fill="#B748D8"/>
<path d="M43.1394 195.94C27.7008 204.831 8.20721 209.693 -10.8223 210.352H-3.274V137.239H49.8571V135.236C77.0456 150.968 74.0409 178.156 43.1394 195.94Z" fill="#B749D7"/>
<path d="M42.6992 195.695C27.3827 204.513 8.06014 209.326 -10.7983 209.985H-3.29897V137.238H49.3436V135.528C76.2878 151.138 73.3075 178.082 42.6747 195.695H42.6992Z" fill="#B74AD6"/>
<path d="M42.26 195.452C27.0901 204.197 7.93848 208.96 -10.7734 209.62H-3.29845V137.264H48.8555V135.847C75.5554 151.31 72.5997 178.01 42.26 195.476V195.452Z" fill="#B84AD5"/>
<path d="M41.8432 195.206C26.7955 203.854 7.81483 208.593 -10.7017 209.228H-3.2755V137.238H48.3899V136.09C74.8455 151.431 71.9142 177.887 41.8432 195.182V195.206Z" fill="#B84BD4"/>
<path d="M41.4059 194.937C26.5048 203.512 7.69512 208.202 -10.6748 208.837H-3.29755V137.214H47.8793V136.359C74.1151 151.553 71.2082 177.764 41.4059 194.937Z" fill="#B94CD3"/>
<path d="M40.9637 194.694C26.1847 203.195 7.54608 207.836 -10.6284 208.471H-3.29999V137.239H47.3883V136.653C73.3798 151.701 70.4972 177.692 40.9637 194.694Z" fill="#B94CD2"/>
<path d="M40.5503 194.45C25.9179 202.877 7.45029 207.47 -10.5776 208.105H-3.27366V137.239H46.926V136.946C72.6732 151.871 69.8152 177.594 40.5503 194.45Z" fill="#B94DD1"/>
<path d="M40.1107 194.205C25.6004 202.559 7.32813 207.103 -10.5532 207.738H-3.29808V137.263H46.4131C71.916 152.017 69.1068 177.52 40.1107 194.229V194.205Z" fill="#BA4ED0"/>
<path d="M39.6694 193.937C25.3057 202.194 7.18007 206.713 -10.5059 207.348H-3.29962V137.24H-1.68736V127.542C15.9986 126.931 33.2693 130.204 45.8986 137.508C71.1816 152.141 68.3724 177.424 39.645 193.937H39.6694Z" fill="#BA4FCF"/>
<path d="M39.2302 193.692C25.0131 201.876 7.05841 206.346 -10.481 206.957H-3.29909V137.214H-1.71121V127.883C15.8037 127.272 32.9034 130.521 45.435 137.776C70.4738 152.287 67.689 177.301 39.2547 193.692H39.2302Z" fill="#BB4FCE"/>
<path d="M38.8149 193.448C24.7199 201.558 6.93622 205.979 -10.4077 206.59H-3.27468V137.239H-1.7357V128.274C15.6327 127.663 32.5613 130.887 44.9463 138.069C69.7408 152.433 67.0049 177.227 38.8149 193.448Z" fill="#BB50CD"/>
<path d="M38.3747 193.204C24.4262 201.241 6.81359 205.614 -10.3838 206.224H-3.29966V137.239H-1.80951V128.665C15.3879 128.054 32.1455 131.255 44.4328 138.363C68.9831 152.58 66.2716 177.13 38.3503 193.204H38.3747Z" fill="#BB51CC"/>
<path d="M37.9364 192.934C24.1101 200.897 6.66846 205.221 -10.3579 205.832H-3.29823V137.238H-1.83253V129.03C15.1938 128.444 31.8049 131.595 43.9701 138.63C68.3005 152.725 65.589 177.031 37.9608 192.934H37.9364Z" fill="#BC52CB"/>
<path d="M37.5201 192.691C23.8404 200.556 6.56973 204.88 -10.2856 205.467H-3.2748V137.239H-1.858V129.422C14.9974 128.836 31.4375 131.962 43.4806 138.924C67.5667 152.873 64.904 176.959 37.5201 192.691Z" fill="#BC52CA"/>
<path d="M37.0808 192.447C23.5232 200.239 6.42364 204.514 -10.2607 205.1H-3.2988V137.264H-1.93083V129.813C14.7535 129.227 31.0471 132.329 42.968 139.218C66.8098 153.02 64.1716 176.861 37.0808 192.471V192.447Z" fill="#BC53C9"/>
<path d="M36.6421 192.202C23.2311 199.921 6.30246 204.147 -10.2354 204.709H-3.32216V137.238H-2.0031V130.154C14.5103 129.568 30.6328 132.646 42.456 139.461C66.0536 153.141 63.4397 176.739 36.6177 192.177L36.6421 192.202Z" fill="#BD54C8"/>
<path d="M36.2264 191.958C22.9375 199.604 6.17979 203.781 -10.1626 204.343H-3.27386V137.239H-1.97917V130.546C14.3876 129.984 30.3392 133.013 42.0158 139.78C65.3935 153.313 62.8041 176.666 36.2264 191.958Z" fill="#BD54C7"/>
<path d="M35.7866 191.689C22.6443 199.262 6.05764 203.39 -10.1382 203.952H-3.29835V137.239H-2.05249V130.912C14.1433 130.35 29.9238 133.355 41.5027 140.048C64.6361 153.435 62.0712 176.568 35.7866 191.689Z" fill="#BE55C6"/>
<path d="M35.3459 191.445C22.3502 198.92 5.93449 203.024 -10.0903 203.586H-3.29933V137.239H-2.1023V131.303C13.9225 130.741 29.5565 133.697 40.9888 140.341C63.8779 153.606 61.3374 176.495 35.3215 191.445H35.3459Z" fill="#BE56C5"/>
<path d="M34.9321 191.2C22.0585 198.602 5.81379 202.657 -10.04 203.219H-3.27349V137.263H-2.10091V131.694C13.7529 131.132 29.2159 134.063 40.5505 140.634C63.1953 153.752 60.7036 176.397 34.9564 191.225L34.9321 191.2Z" fill="#BE57C4"/>
<path d="M34.4904 190.956C21.7634 198.284 5.68968 202.291 -10.0176 202.852H-3.29985V137.263H-2.17611V132.084C13.5067 131.522 28.8231 134.429 40.0356 140.927C62.4362 153.899 59.9689 176.324 34.4904 190.98V190.956Z" fill="#BF57C3"/>
<path d="M34.0526 190.688C21.4477 197.943 5.54504 201.9 -9.9668 202.438H-3.29798V137.215H-2.22314V132.403C13.2887 131.865 28.4341 134.723 39.5245 141.148C61.7051 153.997 59.2379 176.153 34.0526 190.664V190.688Z" fill="#BF58C2"/>
<path d="M33.6358 190.443C21.1775 197.625 5.44583 201.534 -9.91943 202.071H-3.29944V137.239H-2.24898V132.793C13.1163 132.256 28.0906 135.089 39.0588 141.441C60.9953 154.143 58.5769 176.08 33.6358 190.419V190.443Z" fill="#C059C1"/>
<path d="M33.1966 190.199C20.8604 197.283 5.29974 201.167 -9.89453 201.705H-3.29899V137.239H-2.29743V133.184C12.8968 132.646 27.7003 135.456 38.5708 141.758C60.2629 154.314 57.8689 176.006 33.1966 190.199Z" fill="#C059C0"/>
<path d="M32.7574 189.954C20.5678 196.965 5.17806 200.801 -9.84521 201.338H-3.29851V137.263H-2.34578V133.574C12.6775 133.037 27.3344 135.822 38.0583 142.051C59.5061 154.485 57.1366 175.933 32.7574 189.979V189.954Z" fill="#C05ABE"/>
<path d="M32.3425 189.685C20.2751 196.623 5.05637 200.409 -9.7959 200.947H-3.29802V137.238H-2.39419V133.941C12.4581 133.428 26.944 136.164 37.5702 142.319C58.7982 154.607 56.4531 175.835 32.3182 189.71L32.3425 189.685Z" fill="#C15BBD"/>
<path d="M31.9033 189.442C19.9824 196.307 4.9347 200.044 -9.74658 200.557H-3.27315V137.215H-2.39378V134.284C12.2875 133.771 26.6268 136.482 37.1065 142.565C58.0902 154.73 55.7695 175.689 31.9277 189.418L31.9033 189.442Z" fill="#C15CBC"/>
<path d="M31.4622 189.197C19.6634 195.988 4.78665 199.677 -9.72363 200.19H-3.29903V137.238H-2.46849V134.673C12.0418 134.16 26.2101 136.848 36.5921 142.857C57.3315 154.875 55.0353 175.615 31.4622 189.172V189.197Z" fill="#C25CBB"/>
<path d="M31.0473 188.953C19.3951 195.671 4.6894 199.335 -9.67432 199.823H-3.29862V137.239H-2.51691V135.065C11.8468 134.552 25.8441 137.214 36.1039 143.15C56.5991 155.022 54.3273 175.517 31.0229 188.928L31.0473 188.953Z" fill="#C25DBA"/>
<path d="M30.6066 188.684C19.101 195.304 4.56625 198.944 -9.62646 199.433H-3.27515V137.239H-2.51788V135.431C11.6748 134.943 25.5011 137.556 35.6388 143.419C55.9141 155.169 53.6667 175.42 30.6311 188.684H30.6066Z" fill="#C25EB9"/>
<path d="M30.1683 188.439C18.7848 194.986 4.42113 198.577 -9.60059 199.066H-3.29817V137.238H-2.58974V135.821C11.432 135.333 25.1117 137.922 35.1272 143.736C55.1583 155.339 52.9353 175.37 30.1683 188.464V188.439Z" fill="#C35EB8"/>
<path d="M29.7535 188.196C18.5166 194.67 4.32388 198.212 -9.55127 198.7H-3.29769V137.264H-2.63808V136.213C11.2126 135.725 24.7213 138.29 34.6391 144.03C54.4259 155.487 52.2273 175.274 29.7535 188.221V188.196Z" fill="#C35FB7"/>
<path d="M29.3133 187.952C18.1985 194.352 4.17683 197.845 -9.5029 198.309H-3.29822V137.483H-12.9473C-9.52733 136.995 -6.08299 136.677 -2.66306 136.555C11.0167 136.067 24.3788 138.607 34.1501 144.274C53.6926 155.609 51.5429 175.152 29.3133 187.927V187.952Z" fill="#C460B6"/>
<path d="M28.8731 187.707C17.9049 194.034 4.05411 197.478 -9.47905 197.942H-3.29874V137.873H-12.8745C-9.50344 137.385 -6.10792 137.092 -2.71242 136.97C10.7963 136.505 23.9874 138.997 33.661 144.591C52.9836 155.779 50.834 175.077 28.8975 187.707H28.8731Z" fill="#C461B5"/>
<path d="M28.4587 187.439C17.6126 193.668 3.93291 197.088 -9.40483 197.552H-3.27336V138.216H-12.7515C-9.42925 137.728 -6.05816 137.435 -2.73594 137.312C10.6262 136.848 23.6464 139.315 33.1734 144.836C52.2517 155.878 50.1264 174.956 28.4587 187.439Z" fill="#C461B4"/>
<path d="M28.0184 187.195C17.3189 193.351 3.81022 196.722 -9.38094 197.186H-3.29837V138.583H-12.7031C-9.40533 138.095 -6.10757 137.802 -2.80978 137.704C10.3814 137.24 23.2305 139.683 32.6598 145.13C51.4938 156.049 49.4174 174.883 27.994 187.195H28.0184Z" fill="#C562B3"/>
<path d="M27.5777 186.95C17.0004 193.033 3.66266 196.355 -9.35751 196.819H-3.29939V138.974H-12.6309C-9.38192 138.509 -6.10856 138.216 -2.85963 138.094C10.1605 137.63 22.8631 140.048 32.1702 145.423C50.76 156.195 48.708 174.785 27.5777 186.95Z" fill="#C563B2"/>
<path d="M27.1634 186.705C16.7326 192.714 3.56589 195.987 -9.28329 196.452H-3.274V139.339H-12.5078C-9.30773 138.875 -6.05877 138.581 -2.85869 138.484C9.99048 138.044 22.5221 140.413 31.707 145.739C50.077 156.365 48.025 174.735 27.1634 186.729V186.705Z" fill="#C564B1"/>
<path d="M26.7227 186.437C16.4141 192.373 3.41829 195.597 -9.25989 196.037H-3.29943V139.657H-12.46C-9.30874 139.193 -6.1086 138.924 -2.93295 138.802C9.74523 138.362 22.1302 140.707 31.193 145.959C49.3187 156.464 47.3156 174.565 26.7227 186.437Z" fill="#C664B0"/>
<path d="M26.2829 186.193C16.1209 192.032 3.29612 195.232 -9.21106 195.671H-3.29951V140.049H-12.3623C-9.23551 139.584 -6.08427 139.316 -2.95748 139.194C9.5497 138.754 21.7637 141.075 30.7044 146.253C48.5858 156.611 46.6071 174.492 26.2829 186.193Z" fill="#C665AF"/>
<path d="M25.8676 185.949C15.852 191.714 3.1983 194.865 -9.16231 195.305H-3.27513V140.415H-12.2646C-9.18671 139.975 -6.08437 139.682 -2.98201 139.584C9.3786 139.145 21.4217 141.441 30.2402 146.546C47.8773 156.757 45.923 174.394 25.8676 185.949Z" fill="#C766AE"/>
<path d="M25.4293 185.704C15.5359 191.396 3.05318 194.498 -9.13643 194.938H-3.29816V140.781H-12.1899C-9.16086 140.341 -6.08292 140.073 -3.02941 139.95C9.1602 139.535 21.0322 141.782 29.753 146.815C47.1703 156.903 45.2405 174.296 25.4537 185.68L25.4293 185.704Z" fill="#C766AD"/>
<path d="M24.9891 185.435C15.2423 191.054 2.93049 194.107 -9.08813 194.547H-3.29868V141.147H-12.1172C-9.11253 140.707 -6.10787 140.439 -3.10322 140.341C8.9154 139.926 20.6408 142.149 29.2151 147.108C46.388 157.05 44.4827 174.223 24.9646 185.435H24.9891Z" fill="#C767AC"/>
<path d="M24.5732 185.192C14.9485 190.737 2.80783 193.742 -9.03979 194.157H-3.2748V141.49H-12.02C-9.06422 141.051 -6.08403 140.806 -3.12824 140.684C8.71939 140.269 20.2738 142.467 28.7504 147.377C45.679 157.173 43.7981 174.102 24.5732 185.192Z" fill="#C868AB"/>
<path d="M24.1345 184.947C14.6564 190.394 2.68658 193.399 -9.01448 193.79H-3.29831V141.88H-11.9458C-9.03886 141.465 -6.08307 141.196 -3.17613 141.098C8.5005 140.683 19.9084 142.857 28.2628 147.694C44.9472 157.367 43.1151 174.052 24.1345 184.971V184.947Z" fill="#C869AA"/>
<path d="M23.6943 184.703C14.3383 190.077 2.53955 193.033 -8.96608 193.423H-3.29882V143.957H-20.374C-14.8044 142.491 -8.99056 141.66 -3.22553 141.465C8.28009 141.05 19.5171 143.199 27.7493 147.963C44.1894 157.49 42.3817 173.93 23.6698 184.703H23.6943Z" fill="#C969A9"/>
<path d="M23.2793 184.434C14.0699 189.735 2.44215 192.642 -8.91691 193.033H-3.27403V144.299H-20.1294C-14.6575 142.858 -8.91694 142.027 -3.2252 141.832C8.13386 141.441 19.1998 143.542 27.3099 148.232C43.5302 157.612 41.7225 173.832 23.3037 184.434H23.2793Z" fill="#C96AA8"/>
<path d="M22.84 184.19C13.7528 189.417 2.29596 192.275 -8.86768 192.666H-3.27362V142.222C7.91444 141.831 18.8094 143.908 26.7973 148.525C42.7733 157.783 41.0145 173.759 22.84 184.19Z" fill="#C96BA7"/>
<path d="M22.4003 183.946C13.4596 189.1 2.17381 191.909 -8.84326 192.3H-3.29811V142.613H-3.34694C7.67013 142.222 18.4185 144.274 26.2843 148.818C42.016 157.93 40.2816 173.661 22.4003 183.97V183.946Z" fill="#CA6BA6"/>
<path d="M21.984 183.701C13.1655 188.758 2.05066 191.543 -8.79541 191.909H-3.29909V142.955H-3.39675C7.44932 142.564 18.0266 144.592 25.7948 149.062C41.2822 158.027 39.5722 173.539 21.9595 183.677L21.984 183.701Z" fill="#CA6CA5"/>
<path d="M21.5462 183.432C12.8742 188.415 1.93044 191.151 -8.74463 191.518H-3.27276V143.321H-3.39487C7.2802 142.955 17.7109 144.933 25.3325 149.355C40.6001 158.198 38.9146 173.441 21.5706 183.432H21.5462Z" fill="#CB6DA4"/>
<path d="M21.1051 183.188C12.5797 188.098 1.80683 190.785 -8.72168 191.151H-3.29864V143.712H-3.46958C7.0345 143.345 17.2943 145.3 24.8181 149.648C39.8414 158.344 38.1803 173.368 21.1051 183.188Z" fill="#CB6EA3"/>
<path d="M20.6902 182.943C12.2869 187.78 1.68514 190.418 -8.67236 190.784H-3.29823V144.102H-3.51807C6.83944 143.736 16.9282 145.666 24.3299 149.941C39.1089 158.515 37.4722 173.294 20.6657 182.943H20.6902Z" fill="#CB6EA2"/>
<path d="M20.25 182.7C11.9933 187.463 1.56249 190.052 -8.62402 190.419H-3.27427V144.494H-3.51856C6.66795 144.128 16.5857 146.033 23.8653 150.235C38.4 158.662 36.7878 173.197 20.2744 182.724L20.25 182.7Z" fill="#CC6FA1"/>
<path d="M19.8098 182.455C11.6752 187.145 1.41542 189.686 -8.6001 190.052H-3.29925V144.885H-3.59237C6.42314 144.543 16.1944 146.399 23.3518 150.527C37.6667 158.809 36.0789 173.123 19.8098 182.479V182.455Z" fill="#CC70A0"/>
<path d="M19.3949 182.187C11.4069 186.779 1.31815 189.295 -8.52637 189.637H-3.27434V145.202H-3.61637C6.22815 144.86 15.8285 146.693 22.8637 150.748C36.9343 158.907 35.3709 172.953 19.3949 182.162V182.187Z" fill="#CC709F"/>
<path d="M18.9548 181.943C11.0889 186.462 1.17108 188.929 -8.50244 189.271H-3.29925V145.594H-3.66565C6.00787 145.252 15.4615 147.035 22.3747 151.041C36.201 159.054 34.662 172.88 18.9548 181.919V181.943Z" fill="#CD719E"/>
<path d="M18.5165 181.697C10.7972 186.143 1.05039 188.562 -8.47656 188.904H-3.29782V145.984H-3.71306C5.78947 145.642 15.0721 147.4 21.8875 151.358C35.4695 159.224 33.9795 172.806 18.5165 181.697Z" fill="#CD729D"/>
<path d="M18.1007 181.453C10.5035 185.826 0.927721 188.196 -8.40381 188.538H-3.2739V146.375H-3.73803C5.61792 146.057 14.7296 147.767 21.3985 151.651C34.7607 159.395 33.2705 172.733 18.1007 181.478V181.453Z" fill="#CE739C"/>
<path d="M17.661 181.186C10.2104 185.485 0.805566 187.806 -8.37939 188.148H-3.29839V146.742H-3.81135C5.37361 146.425 14.3143 148.11 20.8855 151.921C34.0034 159.518 32.5376 172.636 17.6365 181.21L17.661 181.186Z" fill="#CE739B"/>
<path d="M17.2218 180.941C9.89333 185.143 0.659458 187.463 -8.33008 187.756H-3.27345V147.084H-3.81087C5.2031 146.766 13.9972 148.427 20.4462 152.165C33.3198 159.615 31.903 172.489 17.2706 180.916L17.2218 180.941Z" fill="#CE749A"/>
<path d="M16.781 180.696C9.59912 184.824 0.536326 187.096 -8.30664 187.389H-3.29891V147.474H-3.88516C4.9578 147.156 13.5809 148.793 19.9078 152.457C32.5371 159.785 31.1447 172.415 16.781 180.671V180.696Z" fill="#CF7599"/>
<path d="M16.3652 180.452C9.32996 184.507 0.438097 186.73 -8.2583 187.023H-3.2994V147.865H-3.93448C4.73749 147.572 13.214 149.159 19.4188 152.75C31.8282 159.932 30.4358 172.317 16.3652 180.427V180.452Z" fill="#CF7598"/>
<path d="M15.9264 180.184C9.01324 184.166 0.292478 186.34 -8.2085 186.633H-3.2985V148.232H-3.95803C4.54294 147.939 12.8485 149.502 18.9311 153.02C31.0963 160.055 29.7527 172.22 15.9264 180.184Z" fill="#D07697"/>
<path d="M15.4853 179.939C8.71869 183.848 0.168859 185.973 -8.18555 186.266H-3.29993V148.623H-4.00829C4.34612 148.329 12.4807 149.868 18.4411 153.337C30.362 160.25 29.0429 172.171 15.4853 179.964V179.939Z" fill="#D07796"/>
<path d="M15.0714 179.695C8.42698 183.506 0.0481529 185.606 -8.13525 185.9H-3.29854V149.013H-4.05581C4.1276 148.72 12.0912 150.235 17.9539 153.63C29.6305 160.397 28.3359 172.073 15.0714 179.719V179.695Z" fill="#D07895"/>
<path d="M14.6307 179.45C8.13282 183.188 -0.0749903 185.24 -8.0874 185.508H-3.29952V149.355H-4.10561C3.9068 149.086 11.7238 150.552 17.44 153.874C28.8968 160.494 27.6265 171.951 14.6063 179.426L14.6307 179.45Z" fill="#D17894"/>
<path d="M14.191 179.182C7.81523 182.847 -0.221573 184.85 -8.06299 185.118H-3.29956V149.722H-4.1301C3.71131 149.453 11.3573 150.895 16.9758 154.144C28.1883 160.641 26.9424 171.829 14.2154 179.158L14.191 179.182Z" fill="#D17993"/>
<path d="M13.7767 178.938C7.5475 182.529 -0.31835 184.483 -7.98877 184.752H-3.27417V150.113H-4.15354C3.51688 149.844 11.0163 151.261 16.4881 154.436C27.4564 160.788 26.235 171.756 13.7767 178.938Z" fill="#D27A92"/>
<path d="M13.3369 178.693C7.22992 182.211 -0.464934 184.116 -7.96436 184.385H-3.29858V150.503H-4.22686C3.27256 150.235 10.601 151.627 15.9752 154.729C26.6991 160.934 25.5266 171.682 13.3126 178.693H13.3369Z" fill="#D27A91"/>
<path d="M12.8962 178.449C6.93578 181.869 -0.588065 183.75 -7.94092 184.018H-3.2996V150.894H-4.25225C3.1006 150.625 10.258 151.993 15.5101 155.047C25.9897 161.129 24.8416 171.609 12.9207 178.473L12.8962 178.449Z" fill="#D27B90"/>
<path d="M12.4814 178.205C6.64314 181.552 -0.709759 183.384 -7.86719 183.653H-3.2747V151.285H-4.27626C2.9056 151.041 9.89202 152.36 15.0219 155.34C25.2817 161.277 24.1336 171.536 12.4814 178.23V178.205Z" fill="#D37C8F"/>
<path d="M12.0416 177.936C6.34991 181.21 -0.831913 182.993 -7.84277 183.237H-3.29919V151.603H-4.34958C2.66128 151.358 9.50115 152.653 14.5089 155.56C24.5244 161.35 23.4251 171.365 12.0416 177.912V177.936Z" fill="#D37D8E"/>
<path d="M11.6029 177.692C6.05772 180.892 -0.953091 182.626 -7.81738 182.871H-3.32262V151.993H-4.39747C2.4424 151.749 9.11121 153.019 14.0213 155.853C23.7925 161.52 22.7177 171.292 11.6029 177.692Z" fill="#D37D8D"/>
<path d="M11.1866 177.447C5.76361 180.574 -1.07625 182.26 -7.74512 182.504H-3.27481V152.384H-4.39848C2.27039 152.14 8.7927 153.386 13.5562 156.146C23.0831 161.667 22.0327 171.194 11.1866 177.447Z" fill="#D47E8C"/>
<path d="M10.7479 177.203C5.47143 180.232 -1.19743 181.918 -7.71973 182.138H-3.29825V152.775H-4.47075C2.02712 152.555 8.37838 153.752 13.0441 156.439C22.3512 161.813 21.3253 171.121 10.7479 177.203Z" fill="#D47F8B"/>
<path d="M10.3081 176.935C5.15381 179.891 -1.34403 181.527 -7.6709 181.747H-3.29833V153.142H-4.51973C1.83157 152.922 8.0119 154.094 12.5311 156.708C21.5939 161.96 20.5923 171.023 10.2837 176.935H10.3081Z" fill="#D5808A"/>
<path d="M9.8929 176.69C4.88514 179.572 -1.44176 181.16 -7.62207 181.38H-3.27387V153.532H-4.51973C1.66058 153.312 7.66993 154.46 12.0914 157.025C20.91 162.131 19.9328 170.949 9.91728 176.714L9.8929 176.69Z" fill="#D58089"/>
<path d="M9.45212 176.446C4.56651 179.255 -1.58932 180.794 -7.59863 180.989H-3.29934V153.874H-4.59403C1.41528 153.654 7.27801 154.778 11.5774 157.27C20.1516 162.253 19.1989 170.827 9.45212 176.446Z" fill="#D58188"/>
<path d="M9.01292 176.202C4.27387 178.938 -1.711 180.428 -7.54932 180.623H-3.29885V154.265H-4.64237C1.19594 154.07 6.88767 155.145 11.0649 157.563C19.4193 162.4 18.491 170.73 9.01292 176.202Z" fill="#D68287"/>
<path d="M8.59761 175.934C3.9807 178.596 -1.83317 180.038 -7.50049 180.233H-3.29886V154.632H-4.66682C1.00049 154.437 6.54567 155.487 10.6007 157.832C18.7109 162.523 17.807 170.633 8.59761 175.934Z" fill="#D68286"/>
<path d="M8.15842 175.688C3.68808 178.253 -1.9548 179.67 -7.47554 179.866H-3.29836V159.199H-20.3491C-11.4084 154.045 2.22241 153.581 10.0883 158.125C17.9541 162.693 17.0747 170.559 8.13404 175.688H8.15842Z" fill="#D78385"/>
<path d="M7.718 175.445C3.39423 177.936 -2.07769 179.304 -7.42744 179.5H-3.29909V159.444H-19.9102C-11.2382 154.461 1.97738 153.997 9.59894 158.418C17.2205 162.84 16.39 170.461 7.718 175.445Z" fill="#D78484"/>
<path d="M7.30294 175.2C3.10131 177.619 -2.19953 178.938 -7.37828 179.109H-3.29884V159.689H-19.4702C-11.067 154.852 1.73334 154.412 9.13505 158.687C16.5368 162.962 15.7062 170.364 7.30294 175.2Z" fill="#D78583"/>
<path d="M6.86254 174.931C2.80747 177.276 -2.32242 178.547 -7.33018 178.718H-3.2751V159.932H-19.0312C-10.8967 155.242 1.48838 154.827 8.64581 158.955C15.8032 163.108 14.9971 170.241 6.88699 174.931H6.86254Z" fill="#D88582"/>
<path d="M6.42359 174.687C-1.44226 179.206 -13.412 179.621 -20.3252 175.615H-3.29882V160.177H-18.6152C-10.7494 155.657 1.22043 155.242 8.13358 159.248C15.0467 163.255 14.2894 170.168 6.42359 174.687Z" fill="#D88681"/>
<path d="M6.00842 174.442C-1.58872 178.815 -13.1431 179.206 -19.812 175.346H-3.27423V160.445H-18.1509C-10.5538 156.072 1.00072 155.681 7.66958 159.541C14.3385 163.401 13.6055 170.094 6.00842 174.442Z" fill="#D98780"/>
<path d="M5.56898 174.198C-1.75944 178.4 -12.8987 178.791 -19.3232 175.078H-3.27397V160.714H-17.7354C-10.407 156.512 0.732229 156.121 7.18124 159.835C13.6303 163.572 12.8974 169.997 5.59343 174.198H5.56898Z" fill="#D9877F"/>
<path d="M5.12902 173.93C-1.90627 177.985 -12.6546 178.351 -18.8594 174.76H-3.2987V160.909H-17.3204C-10.2851 156.854 0.463272 156.488 6.668 160.079C12.8727 163.67 12.1887 169.875 5.12902 173.93Z" fill="#D9887E"/>
<path d="M4.71393 173.686C-2.05265 177.594 -12.3857 177.936 -18.3462 174.492H-3.27403V161.179H-16.856C-10.0895 157.27 0.243628 156.928 6.20408 160.373C12.1645 163.817 11.505 169.777 4.73838 173.686H4.71393Z" fill="#DA897D"/>
<path d="M4.27344 173.441C-2.22443 177.178 -12.1422 177.52 -17.8584 174.223H-3.27483V161.447H-16.4416C-9.94373 157.709 -0.0258598 157.367 5.69031 160.665C11.4065 163.963 10.7713 169.703 4.27344 173.441Z" fill="#DA8A7C"/>
<path d="M3.83491 173.197C-2.39425 176.788 -11.8968 177.106 -17.3687 173.93H-3.29813V161.692H-16.0251C-9.79598 158.101 -0.293468 157.783 5.17842 160.959C10.6503 164.134 10.064 169.606 3.81046 173.197H3.83491Z" fill="#DA8A7B"/>
<path d="M3.41985 172.953C-2.5406 176.373 -11.6278 176.69 -16.8799 173.661H-3.29787V161.936H-15.5852C-9.62474 158.516 -0.537502 158.198 4.71454 161.227C9.96658 164.256 9.3803 169.509 3.41985 172.953Z" fill="#DB8B7A"/>
<path d="M2.97888 172.684C-2.71287 175.958 -11.3848 176.275 -16.3926 173.368H-3.29916V162.18H-15.1712C-9.47943 158.907 -0.807477 158.589 4.20028 161.496C9.20804 164.403 8.64617 169.411 2.95442 172.684H2.97888Z" fill="#DB8C79"/>
<path d="M2.53993 172.44C-2.88311 175.567 -11.1398 175.86 -15.9033 173.075H-3.29842V162.425H-14.7307C-9.30771 159.298 -1.05105 159.005 3.71243 161.789C8.4759 164.574 7.96296 169.313 2.53993 172.44Z" fill="#DC8C78"/>
<path d="M2.12476 172.195C-3.02957 175.151 -10.8709 175.444 -15.3901 172.806H-3.27383V162.693H-14.2665C-9.11214 159.737 -1.27069 159.444 3.2485 162.082C7.7677 164.696 7.27908 169.239 2.12476 172.195Z" fill="#DC8D77"/>
<path d="M1.68529 171.952C-3.20033 174.761 -10.6264 175.03 -14.9258 172.538H-3.29806V162.962H-13.8754C-8.98977 160.153 -1.56367 159.884 2.73568 162.376C7.03502 164.868 6.54648 169.143 1.68529 171.952Z" fill="#DC8E76"/>
<path d="M1.24585 171.682C-3.37106 174.345 -10.3819 174.589 -14.437 172.22H-3.29781V163.157H-13.4355C-8.81854 160.494 -1.80765 160.25 2.24741 162.619C6.30247 164.965 5.86276 169.02 1.24585 171.682Z" fill="#DD8F75"/>
<path d="M0.830192 171.438C-3.49358 173.93 -10.1135 174.174 -13.9243 171.951H-3.27371V163.426H-12.9717C-8.64789 160.934 -2.02786 160.69 1.78292 162.913C5.5937 165.111 5.17839 168.946 0.830192 171.438Z" fill="#DD8F74"/>
<path d="M0.389294 171.195C-3.66577 173.54 -9.87051 173.76 -13.437 171.683H-3.27492V163.695H-12.5576C-8.5025 161.35 -2.29783 161.13 1.26867 163.207C4.83517 165.283 4.44436 168.849 0.389294 171.195Z" fill="#DE9073"/>
<path d="M-0.0501776 170.95C-3.83653 173.124 -9.62601 173.344 -12.9727 171.414H-3.29916V163.963H-12.1421C-8.35576 161.789 -2.56628 161.569 0.780368 163.499C4.12702 165.429 3.7606 168.776 -0.0501776 170.95Z" fill="#DE9172"/>
<path d="M-0.465763 170.681C-3.98341 172.708 -9.35759 172.904 -12.46 171.096H-3.27498V164.183H-11.6782C-8.1606 162.155 -2.78641 161.96 0.315954 163.768C3.41832 165.575 3.07633 168.653 -0.441311 170.681H-0.465763Z" fill="#DE9171"/>
<path d="M-0.905272 170.437C-4.15421 172.318 -9.11311 172.489 -11.9712 170.828H-3.29925V164.428H-11.2872C-8.03827 162.547 -3.07937 162.376 -0.221288 164.037C2.6368 165.698 2.31921 168.556 -0.929723 170.437H-0.905272Z" fill="#DF9270"/>
<path d="M-1.34381 170.193C-4.32403 171.902 -8.86764 172.073 -11.4814 170.559H-3.2981V164.696H-10.8464C-7.86614 162.986 -3.32253 162.815 -0.708726 164.33C1.90508 165.844 1.61197 168.483 -1.36826 170.193H-1.34381Z" fill="#DF936F"/>
<path d="M-1.76033 169.948C-4.47185 171.512 -8.60019 171.658 -10.9941 170.266H-3.29931V164.941H-10.4079C-7.69637 163.377 -3.56803 163.231 -1.17408 164.623C1.21987 166.015 0.951189 168.385 -1.76033 169.948Z" fill="#E0946E"/>
<path d="M-2.20033 169.68C-4.64313 171.072 -8.35619 171.218 -10.5059 169.973H-3.29962V165.185H-9.99289C-7.55008 163.792 -3.83703 163.646 -1.68736 164.892C0.462316 166.137 0.218032 168.287 -2.22478 169.68H-2.20033Z" fill="#E0946D"/>
</g>
<path d="M156.071 185.85L81.8094 228.843C78.8536 230.553 74.3589 230.749 71.7939 229.259L1.73411 188.806C0.903557 188.317 0.390606 187.707 0.170753 187.047C-0.244525 188.268 0.243998 189.49 1.73411 190.345L71.7939 230.798C74.3589 232.288 78.8536 232.092 81.8094 230.382L156.071 187.389C158.074 186.241 158.831 184.702 158.367 183.358C158.074 184.238 157.317 185.117 156.071 185.826V185.85Z" fill="white"/>
<path opacity="0.4" d="M146.178 242.646C146.178 257.644 135.649 275.868 122.654 283.367C109.658 290.867 99.1294 284.784 99.1294 269.785C99.1294 254.786 109.658 236.563 122.654 229.064C135.649 221.564 146.178 227.647 146.178 242.646Z" fill="#06033E"/>
<path d="M125.096 283.954L133.329 270.323C136.138 267.074 138.483 263.19 140.071 259.16L149.158 244.136L137.921 237.712C134.916 235.758 130.666 235.904 125.927 238.64C116.84 243.892 109.462 256.668 109.462 267.172C109.462 272.351 111.27 275.991 114.153 277.75L114.25 277.798C114.275 277.798 114.299 277.823 114.324 277.847L125.072 284.003L125.096 283.954Z" fill="#7F0FFB"/>
<path d="M153.456 254.42C153.456 264.924 146.079 277.7 136.992 282.952C127.905 288.204 120.527 283.954 120.527 273.45C120.527 262.945 127.905 250.17 136.992 244.918C146.079 239.666 153.456 243.916 153.456 254.42Z" fill="#5315DB"/>
<path d="M147.814 257.694C147.814 264.607 142.977 272.986 136.992 276.455C131.007 279.924 126.17 277.114 126.17 270.201C126.17 263.288 131.007 254.909 136.992 251.441C142.977 247.972 147.814 250.781 147.814 257.694Z" fill="#E8975B"/>
<path d="M141.707 249.975C142.636 251.269 143.149 253.102 143.149 255.373C143.149 262.287 138.312 270.665 132.327 274.134C130.617 275.111 129.029 275.575 127.588 275.6C129.469 278.262 132.962 278.775 136.968 276.455C142.953 273.01 147.79 264.607 147.79 257.694C147.79 252.76 145.298 249.926 141.707 249.975Z" fill="#CE7436"/>
<path d="M168.969 276.087C168.969 282.072 164.108 286.933 158.123 286.933C152.138 286.933 147.277 282.072 147.277 276.087C147.277 270.102 152.138 265.241 158.123 265.241C164.108 265.241 168.969 270.102 168.969 276.087Z" fill="#E8975B"/>
<path d="M10.0889 271.959L10.0156 214.577C10.0156 212.476 11.7256 211.743 13.8264 212.965L66.6155 243.28C68.7163 244.502 70.4263 247.189 70.4263 249.289L70.4996 306.671C70.4996 308.772 68.7896 309.505 66.6888 308.283L13.8997 277.968C11.7989 276.747 10.0889 274.059 10.0889 271.959Z" fill="url(#paint1_linear_528_2870)"/>
<path opacity="0.4" d="M10.0889 271.959L10.0156 214.577C10.0156 212.476 11.7256 211.743 13.8264 212.965L66.6155 243.28C68.7163 244.502 70.4263 247.189 70.4263 249.289L70.4996 306.671C70.4996 308.772 68.7896 309.505 66.6888 308.283L13.8997 277.968C11.7989 276.747 10.0889 274.059 10.0889 271.959Z" fill="#06033E"/>
<path d="M17.8082 275.208C15.7074 273.986 13.9974 271.299 13.9974 269.198L13.9241 213.014L13.8264 212.965C11.7256 211.743 10.0156 212.476 10.0156 214.577L10.0889 271.959C10.0889 274.059 11.7989 276.747 13.8997 277.968L66.6888 308.283C68.7896 309.505 70.4996 308.772 70.4996 306.671V305.474L17.8082 275.232V275.208Z" fill="url(#paint2_linear_528_2870)"/>
<path d="M25.5521 255.886C24.7704 255.422 24.1108 255.789 24.1108 256.717V262.116C24.1108 263.019 24.746 264.143 25.5521 264.607C26.3338 265.071 26.9934 264.705 26.9934 263.777V258.378C26.9934 257.474 26.3582 256.351 25.5521 255.886Z" fill="#E8975B"/>
<path d="M31.7083 260.111C30.9266 259.647 30.2671 260.014 30.2671 260.942V265.681C30.2671 266.585 30.9022 267.709 31.7083 268.173C32.49 268.637 33.1496 268.27 33.1496 267.342V262.603C33.1496 261.699 32.5145 260.576 31.7083 260.111Z" fill="#F8359E"/>
<path d="M37.8387 258.376C37.057 257.912 36.3975 258.278 36.3975 259.207V269.222C36.3975 270.126 37.0326 271.25 37.8387 271.714C38.6204 272.178 39.28 271.812 39.28 270.883V260.868C39.28 259.964 38.6448 258.84 37.8387 258.376Z" fill="#E8975B"/>
<path d="M43.971 256.154C43.1893 255.69 42.5298 256.057 42.5298 256.985V272.741C42.5298 273.645 43.1649 274.769 43.971 275.233C44.7527 275.697 45.4123 275.33 45.4123 274.402V258.646C45.4123 257.742 44.7772 256.619 43.971 256.154Z" fill="#E8975B"/>
<path d="M50.1273 261.358C49.3456 260.894 48.686 261.26 48.686 262.189V276.308C48.686 277.212 49.3212 278.336 50.1273 278.8C50.909 279.264 51.5686 278.897 51.5686 277.969V263.85C51.5686 262.946 50.9334 261.822 50.1273 261.358Z" fill="#F8359E"/>
<path d="M56.2572 254.37C55.4755 253.906 54.8159 254.273 54.8159 255.201V279.849C54.8159 280.753 55.451 281.876 56.2572 282.34C57.0389 282.805 57.6984 282.438 57.6984 281.51V256.862C57.6984 255.958 57.0633 254.834 56.2572 254.37Z" fill="#E8975B"/>
<path d="M26.9684 253.15C26.9684 254.053 26.3333 254.42 25.5516 253.956C24.7699 253.516 24.1348 252.417 24.1348 251.513C24.1348 250.609 24.7699 250.243 25.5516 250.707C26.3333 251.147 26.9684 252.246 26.9684 253.15Z" fill="#E8975B"/>
<path d="M26.9684 248.093C26.9684 248.997 26.3333 249.363 25.5516 248.899C24.7699 248.459 24.1348 247.36 24.1348 246.456C24.1348 245.552 24.7699 245.186 25.5516 245.65C26.3333 246.09 26.9684 247.189 26.9684 248.093Z" fill="#F8359E"/>
<path d="M68.2035 220.465L17.7106 191.445C12.6784 188.538 13.3136 183.481 19.1275 180.135L71.3547 150.259C77.1441 146.912 85.9138 146.546 90.946 149.453L141.439 178.473C146.471 181.38 145.836 186.437 140.022 189.784L87.7948 219.659C82.0053 223.006 73.2357 223.372 68.2035 220.465Z" fill="url(#paint3_linear_528_2870)"/>
<path opacity="0.6" d="M68.2035 220.465L17.7106 191.445C12.6784 188.538 13.3136 183.481 19.1275 180.135L71.3547 150.259C77.1441 146.912 85.9138 146.546 90.946 149.453L141.439 178.473C146.471 181.38 145.836 186.437 140.022 189.784L87.7948 219.659C82.0053 223.006 73.2357 223.372 68.2035 220.465Z" fill="#020230"/>
<path d="M17.7115 191.444L22.1574 194.009L71.3312 165.892C77.1206 162.546 85.8903 162.179 90.9225 165.086L136.969 191.518L140.023 189.759C145.812 186.412 146.448 181.355 141.44 178.448L90.9469 149.428C85.9147 146.521 77.145 146.887 71.3556 150.234L19.1284 180.11C13.3389 183.456 12.7037 188.513 17.7115 191.42V191.444Z" fill="url(#paint4_linear_528_2870)"/>
<path opacity="0.6" d="M50.5661 191.665L93.9993 166.87L90.9213 165.087C85.8891 162.18 77.1195 162.547 71.33 165.893L22.1562 194.01L68.2032 220.441C71.7453 222.493 77.1438 222.908 82.0539 221.809L49.1737 202.975C44.1415 200.068 44.7766 195.012 50.5905 191.665H50.5661Z" fill="#020230"/>
<path opacity="0.6" d="M90.922 149.453C85.8898 146.546 77.1202 146.912 71.3307 150.259L19.1035 180.135C13.314 183.481 12.6788 188.538 17.6866 191.445L22.1325 194.01L71.3063 165.893C77.0957 162.546 85.8654 162.18 90.8976 165.087L93.9755 166.87V151.236L90.8976 149.453H90.922Z" fill="#020230"/>
<path d="M77.3157 215.824C74.5797 215.824 71.966 215.262 69.9629 214.09L29.9985 191.127C27.8732 189.906 26.7007 188.147 26.7007 186.193C26.7007 183.921 28.313 181.698 31.0978 180.086L72.4301 156.439C77.4134 153.557 84.7662 153.264 89.1389 155.804L129.079 178.767C131.204 179.988 132.377 181.747 132.377 183.725C132.377 185.997 130.764 188.22 127.98 189.833L86.6472 213.479C83.9357 215.042 80.5402 215.848 77.2913 215.848L77.3157 215.824ZM81.8349 156.537C78.9768 156.537 75.9477 157.221 73.6515 158.565L32.3192 182.211C30.2917 183.383 29.1435 184.849 29.1435 186.217C29.1435 187.585 30.2672 188.489 31.2199 189.051L71.1843 212.013C74.7508 214.065 81.2974 213.772 85.4746 211.378L126.807 187.732C128.835 186.559 129.983 185.093 129.983 183.725C129.983 182.358 128.859 181.429 127.906 180.892L87.9664 157.929C86.3541 157.001 84.18 156.561 81.8593 156.561L81.8349 156.537Z" fill="#E8975B"/>
<path style="mix-blend-mode:lighten" opacity="0.4" d="M131.252 69.0107H27.2617L27.4571 186.363C27.4571 186.876 27.7503 187.389 28.4098 187.756L72.9178 214.016C74.3346 214.846 80.2706 215.042 81.9073 214.089L129.909 187.976C130.763 187.487 131.203 186.852 131.252 186.266V69.0107Z" fill="url(#paint5_linear_528_2870)"/>
<path d="M111.417 73.4722C101.566 73.4722 90.4839 75.114 84.7375 79.2186C78.991 75.114 67.9086 73.4722 58.0575 73.4722C43.6914 73.4722 27.2729 76.7559 27.2729 85.786V110.414C27.2729 119.444 43.6914 122.727 58.0575 122.727C67.9086 122.727 78.991 121.086 84.7375 116.981C90.4839 121.086 101.566 122.727 111.417 122.727C125.784 122.727 142.202 119.444 142.202 110.414V85.786C142.202 76.7559 125.784 73.4722 111.417 73.4722ZM133.993 97.6894C132.351 99.3312 124.552 102.204 111.417 102.204C98.2827 102.204 90.4839 99.3312 88.8421 97.6894V94.8161C94.999 97.2789 103.619 98.0998 111.417 98.0998C119.216 98.0998 127.836 97.2789 133.993 94.8161V97.6894ZM35.4822 94.8161C41.6391 97.2789 50.2588 98.0998 58.0575 98.0998C65.8563 98.0998 74.4759 97.2789 80.6328 94.8161V97.6894C78.991 99.3312 71.1922 102.204 58.0575 102.204C44.9228 102.204 37.124 99.3312 35.4822 97.6894V94.8161ZM111.417 81.6814C123.321 81.6814 131.12 84.1441 133.582 85.786C131.12 87.4278 123.731 89.8906 111.417 89.8906C99.1036 89.8906 91.7153 87.4278 89.2525 85.786C91.7153 84.1441 99.514 81.6814 111.417 81.6814ZM58.0575 81.6814C69.9609 81.6814 77.7596 84.1441 80.2224 85.786C77.7596 87.4278 70.3713 89.8906 58.0575 89.8906C45.7437 89.8906 38.3554 87.4278 35.8926 85.786C38.3554 84.1441 46.1541 81.6814 58.0575 81.6814ZM35.4822 110.003V107.13C41.6391 109.593 50.2588 110.414 58.0575 110.414C65.8563 110.414 74.4759 109.593 80.6328 107.13V110.003C78.991 111.645 71.1922 114.518 58.0575 114.518C44.9228 114.518 37.124 111.645 35.4822 110.003ZM111.417 114.518C98.2827 114.518 90.4839 111.645 88.8421 110.003V107.13C94.999 109.593 103.619 110.414 111.417 110.414C119.216 110.414 127.836 109.593 133.993 107.13V110.003C132.351 111.645 124.552 114.518 111.417 114.518Z" fill="#E8975B"/>
<path d="M39.5868 57.4645C44.5123 57.4645 48.6169 54.5913 50.6692 50.0762L72.8341 56.2331C74.0655 61.5691 78.991 65.2633 84.7375 65.2633C90.8944 65.2633 96.2304 60.7482 97.0513 54.5913L116.753 31.195C117.574 31.6055 118.806 32.0159 119.627 32.0159L123.731 38.1728C120.037 41.0461 117.574 44.7402 117.574 49.2553C117.574 56.2331 122.91 61.5691 129.888 61.5691C136.866 61.5691 142.202 56.2331 142.202 49.2553C142.202 43.0984 138.097 38.1728 132.351 37.3519L128.246 31.195C131.53 28.7323 133.993 25.0381 133.993 20.523C133.993 13.5452 128.657 8.20921 121.679 8.20921C116.753 8.20921 112.649 11.0824 110.596 15.187L96.6408 9.4406C95.4094 4.10461 90.4839 0 84.7375 0C79.4015 0 74.8864 3.28369 73.2446 8.20921H63.3935C61.7517 3.28369 57.2366 0 51.9006 0C44.9228 0 39.5868 5.33599 39.5868 12.3138C39.5868 19.2917 44.9228 24.6276 51.9006 24.6276C53.9529 24.6276 55.5947 24.2172 57.2366 23.3963L75.7073 45.1507C74.8864 45.9716 74.4759 46.7925 73.655 48.0239L51.4901 41.867C49.8483 36.531 45.3332 32.8369 39.5868 32.8369C32.6089 32.8369 27.2729 38.1728 27.2729 45.1507C27.2729 52.1285 32.6089 57.4645 39.5868 57.4645ZM84.7375 57.4645C82.2747 57.4645 80.6328 55.8227 80.6328 53.3599C80.6328 50.8971 82.2747 49.2553 84.7375 49.2553C87.2002 49.2553 88.8421 50.8971 88.8421 53.3599C88.8421 55.8227 87.2002 57.4645 84.7375 57.4645ZM129.888 53.3599C127.425 53.3599 125.784 51.718 125.784 49.2553C125.784 46.7925 127.425 45.1507 129.888 45.1507C132.351 45.1507 133.993 46.7925 133.993 49.2553C133.993 51.718 132.351 53.3599 129.888 53.3599ZM121.679 16.4184C124.142 16.4184 125.784 18.0603 125.784 20.523C125.784 22.9858 124.142 24.6276 121.679 24.6276C119.216 24.6276 117.574 22.9858 117.574 20.523C117.574 18.0603 119.216 16.4184 121.679 16.4184ZM84.7375 8.20921C87.2002 8.20921 88.8421 9.85106 88.8421 12.3138C88.8421 14.7766 87.2002 16.4184 84.7375 16.4184C82.2747 16.4184 80.6328 14.7766 80.6328 12.3138C80.6328 9.85106 82.2747 8.20921 84.7375 8.20921ZM51.9006 16.4184C49.4378 16.4184 47.796 14.7766 47.796 12.3138C47.796 9.85106 49.4378 8.20921 51.9006 8.20921C54.3634 8.20921 56.0052 9.85106 56.0052 12.3138C56.0052 14.7766 54.3634 16.4184 51.9006 16.4184ZM62.983 17.6498C62.983 17.2394 63.3935 16.8289 63.3935 16.4184H73.2446C74.8864 21.344 79.4015 24.6276 84.7375 24.6276C89.663 24.6276 93.7676 21.7544 95.8199 17.6498L109.776 23.3963C110.186 24.2172 110.186 25.0381 110.596 25.859C110.596 25.859 110.186 25.859 110.186 26.2695L94.178 45.5611C91.7153 42.6879 88.4316 41.0461 84.7375 41.0461C83.9165 41.0461 83.5061 41.0461 82.6852 41.0461L62.983 17.6498ZM39.5868 41.0461C42.0495 41.0461 43.6914 42.6879 43.6914 45.1507C43.6914 47.6134 42.0495 49.2553 39.5868 49.2553C37.124 49.2553 35.4822 47.6134 35.4822 45.1507C35.4822 42.6879 37.124 41.0461 39.5868 41.0461Z" fill="#F8359E"/>
<defs>
<linearGradient id="paint0_linear_528_2870" x1="-16.7088" y1="242.524" x2="159.735" y2="242.524" gradientUnits="userSpaceOnUse">
<stop stop-color="#E39A65"/>
<stop offset="0.25" stop-color="#A92FFB"/>
<stop offset="0.56" stop-color="#3919BB"/>
</linearGradient>
<linearGradient id="paint1_linear_528_2870" x1="-9.89327" y1="232.336" x2="61.4368" y2="272.569" gradientUnits="userSpaceOnUse">
<stop stop-color="#3919BB"/>
<stop offset="1" stop-color="#6507FA"/>
</linearGradient>
<linearGradient id="paint2_linear_528_2870" x1="0.58638" y1="238.248" x2="46.56" y2="264.166" gradientUnits="userSpaceOnUse">
<stop stop-color="#131060"/>
<stop offset="0.21" stop-color="#140F62"/>
<stop offset="0.32" stop-color="#190F6A"/>
<stop offset="0.4" stop-color="#220F77"/>
<stop offset="0.48" stop-color="#2E0F8A"/>
<stop offset="0.54" stop-color="#3E0EA3"/>
<stop offset="0.6" stop-color="#510EC1"/>
<stop offset="0.66" stop-color="#680DE5"/>
<stop offset="0.68" stop-color="#740DF8"/>
<stop offset="0.72" stop-color="#7B16ED"/>
<stop offset="0.79" stop-color="#902FD0"/>
<stop offset="0.88" stop-color="#B357A2"/>
<stop offset="0.99" stop-color="#E18F63"/>
<stop offset="1" stop-color="#E8975B"/>
</linearGradient>
<linearGradient id="paint3_linear_528_2870" x1="32.9538" y1="150.479" x2="137.433" y2="227.769" gradientUnits="userSpaceOnUse">
<stop stop-color="#4F1FEC"/>
<stop offset="1" stop-color="#A92FFB"/>
</linearGradient>
<linearGradient id="paint4_linear_528_2870" x1="-81.6131" y1="170.754" x2="189.807" y2="170.754" gradientUnits="userSpaceOnUse">
<stop stop-color="#131060"/>
<stop offset="0.14" stop-color="#140F62"/>
<stop offset="0.21" stop-color="#190F6A"/>
<stop offset="0.26" stop-color="#220F77"/>
<stop offset="0.31" stop-color="#2E0F8A"/>
<stop offset="0.35" stop-color="#3D0EA3"/>
<stop offset="0.39" stop-color="#510EC1"/>
<stop offset="0.43" stop-color="#670DE5"/>
<stop offset="0.45" stop-color="#740DF8"/>
<stop offset="0.52" stop-color="#7D18EA"/>
<stop offset="0.66" stop-color="#9837C7"/>
<stop offset="0.85" stop-color="#C1698E"/>
<stop offset="1" stop-color="#E8975B"/>
</linearGradient>
<linearGradient id="paint5_linear_528_2870" x1="79.2447" y1="214.724" x2="79.2447" y2="69.0107" gradientUnits="userSpaceOnUse">
<stop stop-color="#E39A65"/>
<stop offset="0.15" stop-color="#B2794F"/>
<stop offset="0.24" stop-color="#956542"/>
<stop offset="0.43" stop-color="#60412A"/>
<stop offset="0.61" stop-color="#362518"/>
<stop offset="0.77" stop-color="#18100A"/>
<stop offset="0.9" stop-color="#060402"/>
<stop offset="1"/>
</linearGradient>
</defs>
</svg>
