<svg width="145" height="144" viewBox="0 0 145 144" fill="none" xmlns="http://www.w3.org/2000/svg">
<path d="M72.5 0C97.853 0 112.235 17.307 114.323 38.214H114.953C128.768 38.214 140.369 47.961 143.6 61.137C142.069 60.2019 140.472 59.3807 138.821 58.68C136.528 57.7099 134.166 56.9098 131.756 56.286C129.915 53.5131 127.42 51.2355 124.492 49.6535C121.563 48.0715 118.29 47.2338 114.962 47.214H114.323C112.092 47.214 109.94 46.3853 108.286 44.8886C106.631 43.3919 105.591 41.334 105.368 39.114C103.55 20.925 91.481 9 72.5 9C53.474 9 41.459 20.844 39.632 39.105C39.411 41.3266 38.3721 43.3867 36.7172 44.8853C35.0624 46.3838 32.9096 47.2138 30.677 47.214H30.047C18.743 47.214 9.5 56.736 9.5 68.607C9.5 80.487 18.752 90 30.038 90H72.5V99H30.038C13.721 99 0.5 85.392 0.5 68.607C0.5 52.38 12.857 39.123 28.418 38.259L30.677 38.214C32.783 17.172 47.147 0 72.5 0ZM139.739 101.547C132.449 105.705 122.972 108 113 108C103.028 108 93.56 105.705 86.261 101.547C84.5866 100.591 82.9942 99.4985 81.5 98.28V126C81.5 135.945 95.603 144 113 144C130.397 144 144.5 135.945 144.5 126V98.28C143.006 99.4985 141.413 100.591 139.739 101.547ZM113 63C95.603 63 81.5 71.055 81.5 81C81.5 90.945 95.603 99 113 99C130.397 99 144.5 90.945 144.5 81C144.5 71.055 130.397 63 113 63Z" fill="url(#paint0_linear_615_13011)"/>
<defs>
<linearGradient id="paint0_linear_615_13011" x1="-1.26691e-06" y1="66" x2="165" y2="88" gradientUnits="userSpaceOnUse">
<stop stop-color="#FF3BFF"/>
<stop offset="0.354167" stop-color="#ECBFBF"/>
<stop offset="0.734375" stop-color="#5C24FF"/>
<stop offset="0.989583" stop-color="#D94FD5"/>
</linearGradient>
</defs>
</svg>
