<svg width="248" height="256" viewBox="0 0 248 256" fill="none" xmlns="http://www.w3.org/2000/svg">
<path d="M0 3H164C172.837 3 180 10.1634 180 19V237C180 245.837 172.837 253 164 253H0" stroke="url(#paint0_linear_328_87)" stroke-opacity="0.7" stroke-width="6"/>
<path d="M184 129.5L189 132.387L189 126.613L184 129.5ZM188.364 130L191.273 130L191.273 129L188.364 129L188.364 130ZM194.182 130L197.091 130L197.091 129L194.182 129L194.182 130ZM200 130L202.909 130L202.909 129L200 129L200 130ZM205.818 130L208.727 130L208.727 129L205.818 129L205.818 130ZM211.636 130L214.545 130L214.545 129L211.636 129L211.636 130ZM217.455 130L220.364 130L220.364 129L217.455 129L217.455 130ZM223.273 130L226.182 130L226.182 129L223.273 129L223.273 130ZM229.091 130L232 130L232 129L229.091 129L229.091 130ZM234.909 130L237.818 130L237.818 129L234.909 129L234.909 130ZM240.727 130L243.636 130L243.636 129L240.727 129L240.727 130ZM246.545 130L248 130L248 129L246.545 129L246.545 130Z" fill="url(#paint1_linear_328_87)" fill-opacity="0.7"/>
<defs>
<linearGradient id="paint0_linear_328_87" x1="0" y1="128" x2="180" y2="128" gradientUnits="userSpaceOnUse">
<stop offset="0.081934" stop-color="#15BFFD" stop-opacity="0"/>
<stop offset="0.706057" stop-color="#15BFFD"/>
<stop offset="1" stop-color="#9C37FD"/>
</linearGradient>
<linearGradient id="paint1_linear_328_87" x1="191.04" y1="129.594" x2="191.051" y2="130.97" gradientUnits="userSpaceOnUse">
<stop stop-color="#15BFFD"/>
<stop offset="1" stop-color="#9C37FD"/>
</linearGradient>
</defs>
</svg>
