<svg width="386" height="400" viewBox="0 0 386 400" fill="none" xmlns="http://www.w3.org/2000/svg">
<g clip-path="url(#clip0_243_4197)">
<path d="M67.7874 161.467C66.4335 162.242 64.2429 162.242 62.889 161.467C61.5351 160.691 61.5351 159.428 62.889 158.637C64.2429 157.861 66.4335 157.861 67.7874 158.637C69.1414 159.413 69.1414 160.676 67.7874 161.467Z" fill="#E39A65"/>
<path d="M84.2171 170.959C82.8632 171.735 80.6726 171.735 79.3187 170.959C77.9647 170.183 77.9647 168.921 79.3187 168.13C80.6726 167.339 82.8632 167.354 84.2171 168.13C85.571 168.905 85.571 170.168 84.2171 170.959Z" fill="#E39A65"/>
<path d="M100.647 180.437C99.2929 181.213 97.1023 181.213 95.7484 180.437C94.3944 179.661 94.3944 178.398 95.7484 177.607C97.1023 176.816 99.2929 176.831 100.647 177.607C102.001 178.383 102.001 179.646 100.647 180.437Z" fill="#E39A65"/>
<path d="M117.092 189.929C115.738 190.705 113.547 190.705 112.193 189.929C110.839 189.154 110.839 187.891 112.193 187.1C113.547 186.309 115.738 186.324 117.092 187.1C118.446 187.876 118.446 189.138 117.092 189.929Z" fill="#E82B88"/>
<path d="M133.521 199.407C132.167 200.183 129.977 200.183 128.623 199.407C127.269 198.631 127.269 197.368 128.623 196.577C129.977 195.801 132.167 195.801 133.521 196.577C134.875 197.353 134.875 198.616 133.521 199.407Z" fill="#E82B88"/>
<path d="M52.3162 170.412C50.9623 171.188 48.7717 171.188 47.4178 170.412C46.0639 169.636 46.0639 168.373 47.4178 167.582C48.7717 166.806 50.9623 166.806 52.3162 167.582C53.6702 168.358 53.6702 169.621 52.3162 170.412Z" fill="#E39A65"/>
<path d="M68.7459 179.889C67.392 180.665 65.2014 180.665 63.8475 179.889C62.4936 179.113 62.4936 177.851 63.8475 177.06C65.2014 176.268 67.392 176.284 68.7459 177.06C70.0998 177.835 70.0998 179.098 68.7459 179.889Z" fill="#E39A65"/>
<path d="M82.763 189.951C84.6702 189.948 86.215 189.054 86.2135 187.953C86.212 186.852 84.6646 185.962 82.7575 185.965C80.8503 185.968 79.3054 186.862 79.307 187.963C79.3085 189.063 80.8558 189.953 82.763 189.951Z" fill="#E39A65"/>
<path d="M101.62 198.859C100.267 199.635 98.0759 199.635 96.722 198.859C95.3681 198.083 95.3681 196.821 96.722 196.029C98.0759 195.238 100.267 195.254 101.62 196.029C102.974 196.805 102.974 198.068 101.62 198.859Z" fill="#E82B88"/>
<path d="M118.05 208.336C116.696 209.112 114.506 209.112 113.152 208.336C111.798 207.561 111.798 206.298 113.152 205.507C114.506 204.731 116.696 204.731 118.05 205.507C119.404 206.283 119.404 207.545 118.05 208.336Z" fill="#E82B88"/>
<path d="M36.845 179.341C35.4911 180.117 33.3005 180.117 31.9466 179.341C30.5927 178.566 30.5927 177.303 31.9466 176.512C33.3005 175.721 35.4911 175.736 36.845 176.512C38.199 177.288 38.199 178.55 36.845 179.341Z" fill="#E39A65"/>
<path d="M53.2747 188.834C51.9208 189.61 49.7302 189.61 48.3763 188.834C47.0224 188.058 47.0224 186.796 48.3763 186.004C49.7302 185.229 51.9208 185.229 53.2747 186.004C54.6287 186.78 54.6287 188.043 53.2747 188.834Z" fill="#E39A65"/>
<path d="M69.7044 198.311C68.3505 199.087 66.1599 199.087 64.806 198.311C63.452 197.536 63.452 196.273 64.806 195.482C66.1599 194.691 68.3505 194.706 69.7044 195.482C71.0583 196.258 71.0583 197.52 69.7044 198.311Z" fill="#E39A65"/>
<path d="M86.1493 207.789C84.7953 208.565 82.6047 208.565 81.2508 207.789C79.8969 207.013 79.8969 205.75 81.2508 204.959C82.6047 204.168 84.7953 204.184 86.1493 204.959C87.5032 205.735 87.5032 206.998 86.1493 207.789Z" fill="#E82B88"/>
<path d="M102.579 217.282C101.225 218.057 99.0344 218.057 97.6805 217.282C96.3266 216.506 96.3266 215.243 97.6805 214.452C99.0344 213.676 101.225 213.676 102.579 214.452C103.933 215.228 103.933 216.49 102.579 217.282Z" fill="#E82B88"/>
<path d="M18.9451 188.868C20.8523 188.866 22.3972 187.971 22.3956 186.871C22.3941 185.77 20.8468 184.88 18.9396 184.883C17.0324 184.885 15.4876 185.78 15.4891 186.88C15.4906 187.981 17.038 188.871 18.9451 188.868Z" fill="#E82B88"/>
<path d="M37.8035 197.764C36.4496 198.54 34.259 198.54 32.9051 197.764C31.5512 196.988 31.5512 195.725 32.9051 194.934C34.259 194.143 36.4496 194.158 37.8035 194.934C39.1575 195.71 39.1575 196.973 37.8035 197.764Z" fill="#E82B88"/>
<path d="M51.8153 207.838C53.7224 207.835 55.2673 206.941 55.2657 205.84C55.2642 204.74 53.7169 203.85 51.8097 203.852C49.9025 203.855 48.3577 204.749 48.3592 205.85C48.3608 206.951 49.9081 207.841 51.8153 207.838Z" fill="#E82B88"/>
<path d="M70.6781 216.734C69.3241 217.51 67.1335 217.51 65.7796 216.734C64.4257 215.958 64.4257 214.696 65.7796 213.904C67.1335 213.113 69.3241 213.129 70.6781 213.904C72.032 214.68 72.032 215.943 70.6781 216.734Z" fill="#E82B88"/>
<path d="M87.1077 226.211C85.7538 226.987 83.5632 226.987 82.2093 226.211C80.8554 225.435 80.8554 224.173 82.2093 223.382C83.5632 222.591 85.7538 222.606 87.1077 223.382C88.4617 224.158 88.4617 225.42 87.1077 226.211Z" fill="#E82B88"/>
<path d="M5.90267 197.216C4.54875 197.992 2.35813 197.992 1.00421 197.216C-0.349711 196.44 -0.349711 195.178 1.00421 194.387C2.35813 193.596 4.54875 193.611 5.90267 194.387C7.25659 195.163 7.25659 196.425 5.90267 197.216Z" fill="#E82B88"/>
<path d="M22.3324 206.694C20.9784 207.47 18.7878 207.47 17.4339 206.694C16.08 205.918 16.08 204.655 17.4339 203.864C18.7878 203.073 20.9784 203.088 22.3324 203.864C23.6863 204.64 23.6863 205.903 22.3324 206.694Z" fill="#E82B88"/>
<path d="M36.3416 216.759C38.2488 216.757 39.7936 215.862 39.7921 214.762C39.7906 213.661 38.2432 212.771 36.3361 212.773C34.4289 212.776 32.8841 213.671 32.8856 214.771C32.8871 215.872 34.4345 216.762 36.3416 216.759Z" fill="#E82B88"/>
<path d="M55.2069 225.664C53.8529 226.439 51.6623 226.439 50.3084 225.664C48.9545 224.888 48.9545 223.625 50.3084 222.834C51.6623 222.058 53.8529 222.058 55.2069 222.834C56.5608 223.61 56.5608 224.873 55.2069 225.664Z" fill="#E82B88"/>
<path d="M69.2118 235.729C71.1189 235.726 72.6638 234.832 72.6622 233.731C72.6607 232.631 71.1134 231.741 69.2062 231.743C67.299 231.746 65.7542 232.64 65.7557 233.741C65.7572 234.842 67.3046 235.732 69.2118 235.729Z" fill="#E82B88"/>
<path opacity="0.6" d="M134.16 398.007L28.2956 336.822C23.1537 333.856 23.7926 328.668 29.7408 325.23L256.317 194.417C262.265 190.994 271.241 190.614 276.398 193.58L382.262 254.765C387.404 257.732 386.765 262.919 380.817 266.357L154.241 397.171C148.293 400.593 139.317 400.974 134.16 398.007Z" fill="#020230"/>
<path d="M376.801 210.04L376.923 210.193L276.748 152.293C271.636 149.342 262.706 149.707 256.819 153.115L32.4182 282.681L24.9336 279.821L27.0329 290.317C27.3068 291.884 28.4173 293.375 30.3949 294.516L133.78 354.271C138.891 357.222 147.821 356.857 153.708 353.45L378.687 223.564C381.456 221.967 383.053 219.974 383.449 218.012L385.594 207.804L376.755 210.056L376.801 210.04Z" fill="url(#paint0_radial_243_4197)"/>
<path d="M134.16 345.037L28.2956 283.852C23.1537 280.886 23.7926 275.698 29.7408 272.26L256.317 141.447C262.265 138.024 271.241 137.644 276.398 140.61L382.262 201.795C387.404 204.762 386.765 209.949 380.817 213.387L154.241 344.2C148.293 347.623 139.317 348.003 134.16 345.037Z" fill="url(#paint1_radial_243_4197)"/>
<path d="M134.297 338.191L36.7539 281.829C31.7185 278.923 32.3575 273.857 38.1687 270.511L256.378 144.505C262.189 141.158 270.967 140.793 275.987 143.698L374.306 200.502C379.326 203.408 378.703 208.474 372.891 211.82L153.906 337.37C148.095 340.717 139.317 341.082 134.297 338.176V338.191Z" fill="url(#paint2_radial_243_4197)"/>
<path opacity="0.4" d="M134.297 338.191L36.7539 281.829C31.7185 278.923 32.3575 273.857 38.1687 270.511L256.378 144.505C262.189 141.158 270.967 140.793 275.987 143.698L374.306 200.502C379.326 203.408 378.703 208.474 372.891 211.82L153.906 337.37C148.095 340.717 139.317 341.082 134.297 338.176V338.191Z" fill="#06033E"/>
<path d="M131.437 259.557L175.812 284.962C178.55 286.529 183.327 286.316 186.476 284.476C189.625 282.635 189.96 279.881 187.222 278.315L142.847 252.909C140.108 251.343 135.331 251.556 132.182 253.396C129.033 255.237 128.699 257.99 131.437 259.557Z" fill="url(#paint3_linear_243_4197)"/>
<path opacity="0.9" d="M152.978 247.022L197.353 272.427C200.091 273.994 204.868 273.781 208.017 271.94C211.166 270.1 211.501 267.346 208.763 265.779L164.388 240.374C161.649 238.807 156.873 239.02 153.724 240.861C150.574 242.702 150.24 245.455 152.978 247.022Z" fill="url(#paint4_linear_243_4197)"/>
<path opacity="0.7" d="M174.534 234.472L218.909 259.877C221.648 261.444 226.424 261.231 229.573 259.39C232.722 257.549 233.057 254.796 230.319 253.229L185.944 227.824C183.205 226.257 178.429 226.47 175.28 228.311C172.131 230.152 171.796 232.905 174.534 234.472Z" fill="url(#paint5_linear_243_4197)"/>
<path opacity="0.6" d="M196.075 221.937L240.45 247.342C243.189 248.909 247.965 248.696 251.114 246.855C254.263 245.014 254.598 242.261 251.86 240.694L207.485 215.289C204.746 213.722 199.97 213.935 196.821 215.776C193.672 217.616 193.337 220.37 196.075 221.937Z" fill="url(#paint6_linear_243_4197)"/>
<path opacity="0.3" d="M217.616 209.386L261.991 234.791C264.73 236.358 269.506 236.145 272.655 234.304C275.804 232.464 276.139 229.71 273.401 228.143L229.026 202.738C226.287 201.171 221.511 201.384 218.362 203.225C215.213 205.066 214.878 207.819 217.616 209.386Z" fill="url(#paint7_linear_243_4197)"/>
<path opacity="0.2" d="M239.157 196.851L283.532 222.256C286.271 223.823 291.047 223.61 294.196 221.769C297.345 219.929 297.68 217.175 294.942 215.608L250.567 190.203C247.828 188.636 243.052 188.849 239.903 190.69C236.754 192.531 236.419 195.284 239.157 196.851Z" fill="url(#paint8_linear_243_4197)"/>
<path d="M380.817 210.634L154.241 341.447C148.293 344.885 139.317 345.25 134.16 342.284L28.2958 281.099C26.5463 280.079 25.5119 278.801 25.0859 277.432C24.4014 279.805 25.4054 282.179 28.2958 283.837L134.16 345.022C139.302 347.988 148.293 347.623 154.241 344.185L380.817 213.372C384.742 211.105 386.294 208.093 385.472 205.446C384.94 207.287 383.419 209.128 380.817 210.634Z" fill="white"/>
<path opacity="0.6" d="M359.809 225.512L284.065 181.73C280.262 179.524 273.599 179.813 269.202 182.338L101.544 279.136C97.148 281.677 96.6764 285.51 100.48 287.716L176.223 331.498L359.809 225.496V225.512Z" fill="#020230"/>
<path d="M68.8069 269.78C63.8933 266.951 61.1702 261.033 61.1398 253.092C61.0941 236.951 72.4123 217.236 86.3623 209.127L215.913 133.856C217.099 133.171 218.255 132.365 219.381 131.528C219.488 131.619 219.609 131.711 219.716 131.802L224.706 127.801L230.912 120.225L236.997 109.318L239.614 101.909L241.059 93.3596L321.443 124.622L326.508 128.516L329.049 133.384L330.479 141.005L329.505 151.031L325.078 163.018L317.746 174.275L311.706 180.923L305.363 185.152L302.655 186.932L175.858 260.607L169.788 264.988L162.334 272.64L156.812 281.509L152.446 292.203L151.031 300.297L151.077 307.325L152.765 313.821L156.097 318.902L157.74 320.605L68.8526 269.75L68.8069 269.78Z" fill="url(#paint9_radial_243_4197)"/>
<path opacity="0.4" d="M225.816 126.447L230.897 120.24L236.982 109.333L239.599 101.924L241.029 93.375L321.412 124.637L326.478 128.531L329.018 133.399L330.448 141.021L329.475 151.046L325.048 163.033L317.7 174.276L314.794 177.485L225.816 126.447Z" fill="#06033E"/>
<path d="M158.531 319.86C153.967 317.244 151.442 311.645 151.411 304.115C151.366 288.324 162.44 269.02 176.086 261.094L305.637 185.822C319.587 177.714 330.905 157.983 330.859 141.858C330.859 137.202 329.901 133.232 328.121 130.174C326.873 128.029 325.215 126.341 323.192 125.169C318.278 122.34 311.783 122.994 304.922 126.98C290.972 135.088 279.654 154.819 279.699 170.944H280.795C280.749 155.153 291.824 135.849 305.469 127.923C311.98 124.135 318.081 123.496 322.644 126.112C327.208 128.729 329.733 134.327 329.764 141.858C329.809 157.648 318.735 176.953 305.089 184.879L175.539 260.151C161.589 268.259 150.27 287.975 150.316 304.115C150.331 312.056 153.054 317.974 157.983 320.803L158.531 319.86Z" fill="url(#paint10_linear_243_4197)"/>
<path d="M304.937 126.98C290.987 135.088 279.669 154.819 279.714 170.944L190.538 119.921C190.493 103.78 201.811 84.0648 215.761 75.9565C222.561 72.0012 228.996 71.3471 233.894 74.0854H233.909L234.016 74.1462L322.781 124.956L322.644 124.926C317.792 122.431 311.539 123.131 304.907 126.98H304.937Z" fill="url(#paint11_radial_243_4197)"/>
<g opacity="0.4">
<path d="M144.368 195.862C145.128 195.421 146.376 195.406 147.151 195.862L153.967 199.772C154.743 200.213 154.743 200.928 153.967 201.384C153.206 201.825 151.959 201.841 151.183 201.384L144.368 197.475C143.592 197.033 143.592 196.318 144.368 195.862Z" fill="#06033E"/>
<path d="M116.955 205.431L130.296 213.083C131.072 213.524 131.072 214.239 130.296 214.695C129.535 215.136 128.288 215.152 127.512 214.695L114.171 207.043C113.395 206.602 113.395 205.887 114.171 205.431C114.931 204.99 116.179 204.974 116.955 205.431Z" fill="#06033E"/>
<path d="M173.591 237.925L180.833 242.078C181.608 242.519 181.608 243.234 180.833 243.691C180.072 244.132 178.825 244.147 178.049 243.691L170.807 239.538C170.032 239.096 170.032 238.381 170.807 237.925C171.568 237.484 172.816 237.469 173.591 237.925Z" fill="#06033E"/>
<path d="M179.418 234.548L186.659 238.701C187.435 239.142 187.435 239.857 186.659 240.313C185.898 240.755 184.651 240.77 183.875 240.313L176.634 236.16C175.858 235.719 175.858 235.004 176.634 234.548C177.394 234.107 178.642 234.091 179.418 234.548Z" fill="#06033E"/>
<path d="M185.244 231.155L192.485 235.308C193.261 235.749 193.261 236.464 192.485 236.921C191.71 237.377 190.477 237.377 189.701 236.921L182.46 232.768C181.684 232.327 181.684 231.612 182.46 231.155C183.221 230.714 184.468 230.699 185.244 231.155Z" fill="#06033E"/>
<path d="M191.07 227.778L198.312 231.931C199.087 232.372 199.087 233.087 198.312 233.544C197.551 233.985 196.304 234 195.528 233.544L188.286 229.391C187.511 228.949 187.511 228.234 188.286 227.778C189.047 227.337 190.295 227.322 191.07 227.778Z" fill="#06033E"/>
<path d="M196.897 224.386L204.138 228.539C204.914 228.98 204.914 229.695 204.138 230.151C203.362 230.608 202.13 230.608 201.354 230.151L194.113 225.998C193.337 225.557 193.337 224.842 194.113 224.386C194.874 223.945 196.121 223.929 196.897 224.386Z" fill="#06033E"/>
<path d="M202.708 221.008L209.949 225.162C210.725 225.603 210.725 226.318 209.949 226.774C209.189 227.215 207.941 227.23 207.165 226.774L199.924 222.621C199.148 222.18 199.148 221.465 199.924 221.008C200.685 220.567 201.932 220.552 202.708 221.008Z" fill="#06033E"/>
<path d="M208.534 217.616L215.775 221.769C216.551 222.21 216.551 222.925 215.775 223.382C215 223.838 213.767 223.838 212.992 223.382L205.75 219.229C204.974 218.788 204.974 218.073 205.75 217.616C206.511 217.175 207.758 217.16 208.534 217.616Z" fill="#06033E"/>
<path d="M214.361 214.239L221.602 218.392C222.378 218.833 222.378 219.548 221.602 220.005C220.841 220.446 219.594 220.461 218.818 220.005L211.577 215.851C210.801 215.41 210.801 214.695 211.577 214.239C212.338 213.798 213.585 213.783 214.361 214.239Z" fill="#06033E"/>
<path d="M119.997 202.054C120.758 201.612 122.005 201.597 122.781 202.054L143.318 213.828C144.094 214.269 144.094 214.984 143.318 215.441C142.557 215.882 141.31 215.897 140.534 215.441L119.997 203.666C119.221 203.225 119.221 202.51 119.997 202.054Z" fill="#06033E"/>
<path d="M128.607 198.661L132.73 201.019C133.506 201.46 133.506 202.175 132.73 202.632C131.969 203.073 130.722 203.088 129.946 202.632L125.824 200.274C125.048 199.833 125.048 199.118 125.824 198.661C126.584 198.22 127.832 198.205 128.607 198.661Z" fill="#06033E"/>
<path d="M134.434 195.284L146.057 201.947C146.832 202.388 146.832 203.103 146.057 203.56C145.296 204.001 144.049 204.016 143.273 203.56L131.65 196.897C130.874 196.455 130.874 195.74 131.65 195.284C132.411 194.843 133.658 194.828 134.434 195.284Z" fill="#06033E"/>
<path d="M140.245 191.892L142.755 193.337C143.531 193.778 143.531 194.493 142.755 194.949C141.995 195.39 140.747 195.406 139.971 194.949L137.461 193.504C136.685 193.063 136.685 192.348 137.461 191.892C138.222 191.45 139.469 191.435 140.245 191.892Z" fill="#06033E"/>
<path d="M160.128 198.174C159.368 198.616 158.12 198.631 157.344 198.174L143.303 190.112C142.527 189.671 142.527 188.956 143.303 188.499C144.064 188.058 145.311 188.043 146.087 188.499L160.128 196.562C160.904 197.003 160.904 197.718 160.128 198.174Z" fill="#06033E"/>
<path d="M169.241 208.519L182.171 215.943C182.947 216.384 182.947 217.099 182.171 217.555C181.411 217.996 180.163 218.012 179.387 217.555L166.457 210.131L165.346 209.493L156.234 204.259C155.458 203.818 155.458 203.103 156.234 202.647C156.994 202.206 158.242 202.191 159.018 202.647L168.13 207.88L169.241 208.519Z" fill="#06033E"/>
<path d="M149.114 186.75C148.338 186.309 148.338 185.594 149.114 185.137C149.875 184.696 151.122 184.681 151.898 185.137L155.108 186.978C155.884 187.419 155.884 188.134 155.108 188.59C154.332 189.047 153.1 189.047 152.324 188.59L149.114 186.75Z" fill="#06033E"/>
<path d="M166.258 196.577L157.192 191.374C156.416 190.933 156.416 190.218 157.192 189.762C157.952 189.321 159.2 189.306 159.976 189.762L169.042 194.965C169.818 195.406 169.818 196.121 169.042 196.577C168.282 197.018 167.034 197.034 166.258 196.577Z" fill="#06033E"/>
<path d="M161.36 187.039L154.956 183.357C154.18 182.916 154.18 182.201 154.956 181.745C155.717 181.304 156.964 181.288 157.74 181.745L164.144 185.426C164.92 185.867 164.92 186.582 164.144 187.039C163.384 187.48 162.136 187.495 161.36 187.039Z" fill="#06033E"/>
<path d="M186.278 208.063L183.175 206.283L182.293 205.781L171.553 199.62C170.777 199.178 170.777 198.463 171.553 198.007C172.328 197.551 173.561 197.551 174.336 198.007L185.077 204.168L185.959 204.67L189.062 206.45C189.838 206.891 189.838 207.606 189.062 208.063C188.302 208.504 187.054 208.519 186.278 208.063Z" fill="#06033E"/>
<path d="M195.589 213.402L191.603 211.12C190.827 210.679 190.827 209.964 191.603 209.508C192.379 209.051 193.611 209.051 194.387 209.508L198.372 211.79C199.148 212.231 199.148 212.946 198.372 213.402C197.612 213.843 196.364 213.859 195.589 213.402Z" fill="#06033E"/>
<path d="M149.434 212.216C148.673 212.657 147.425 212.672 146.65 212.216L135.027 205.552C134.251 205.111 134.251 204.396 135.027 203.94C135.788 203.499 137.035 203.483 137.811 203.94L149.434 210.603C150.209 211.044 150.209 211.759 149.434 212.216Z" fill="#06033E"/>
<path d="M155.747 217.449L155.062 217.053L151.761 215.167C150.985 214.726 150.985 214.011 151.761 213.554C152.522 213.113 153.769 213.098 154.545 213.554L157.846 215.441L158.531 215.836L161.832 217.723C162.608 218.164 162.608 218.879 161.832 219.335C161.071 219.776 159.824 219.792 159.048 219.335L155.747 217.449Z" fill="#06033E"/>
</g>
<path opacity="0.6" d="M76.8084 188.621L20.4001 156.051C18.3312 154.864 18.5898 152.78 20.9782 151.396L80.7637 116.787C83.152 115.403 86.7574 115.266 88.8263 116.453L145.235 149.023C147.304 150.209 147.045 152.293 144.657 153.678L84.8711 188.286C82.4827 189.671 78.8773 189.808 76.8084 188.621Z" fill="#020230"/>
<path d="M146.619 47.9654L125.245 48.4522L88.8262 27.4284C86.7573 26.2418 83.1519 26.3787 80.7636 27.7631L41.728 50.3538L19.0156 50.871V127.679H19.0461C19.0461 128.44 19.472 129.185 20.4152 129.733L76.8235 162.303C78.8924 163.49 82.4978 163.353 84.8862 161.969L144.672 127.36C145.889 126.66 146.558 125.763 146.634 124.895V47.9654H146.619Z" fill="url(#paint12_linear_243_4197)"/>
<mask id="mask0_243_4197" style="mask-type:luminance" maskUnits="userSpaceOnUse" x="19" y="12" width="128" height="75">
<path d="M76.8084 85.4492L20.4001 52.8791C18.3312 51.6925 18.5898 49.6084 20.9782 48.224L80.7637 13.6154C83.152 12.231 86.7574 12.0941 88.8263 13.2807L145.235 45.8509C147.304 47.0374 147.045 49.1216 144.657 50.5059L84.8711 85.1146C82.4827 86.4989 78.8773 86.6358 76.8084 85.4492Z" fill="white"/>
</mask>
<g mask="url(#mask0_243_4197)">
<path d="M147.289 12.094H18.3315V86.6357H147.289V12.094Z" fill="#3919BB"/>
<path d="M124.044 88.157H16.8101V10.5728H148.81V73.8571H156.249C153.404 76.7323 150.316 79.5467 146.984 82.3154C140.321 87.8375 132.669 93.1315 124.044 98.106V88.157Z" fill="#3919BB"/>
<path d="M123.572 88.157H16.8101V10.5728H148.81V73.6898H155.625C152.795 76.5498 149.723 79.3641 146.406 82.1176C139.773 87.6245 132.152 92.8881 123.557 97.8322V88.157H123.572Z" fill="#3A19BC"/>
<path d="M123.085 88.157H16.8101V10.5728H148.81V73.5225H155.001C152.187 76.3672 149.129 79.1663 145.813 81.9046C139.195 87.3811 131.62 92.6295 123.07 97.5584V88.1722L123.085 88.157Z" fill="#3A18BD"/>
<path d="M122.614 88.157H16.8101V10.5728H148.81V73.3551H154.393C151.594 76.1847 148.536 78.9686 145.25 81.7069C138.663 87.1682 131.118 92.3861 122.598 97.2846V88.1722L122.614 88.157Z" fill="#3B18BE"/>
<path d="M122.127 88.157H16.8101V10.5728H148.81V73.1726H153.769C150.97 75.9869 147.943 78.7708 144.672 81.4787C138.115 86.9096 130.6 92.1123 122.127 96.9803V88.1418V88.157Z" fill="#3C18BF"/>
<path d="M121.655 88.157H16.8101V10.5728H148.81V73.0053H153.161C150.377 75.8196 147.365 78.5731 144.094 81.2809C137.568 86.6966 130.083 91.8689 121.64 96.7217V88.157H121.655Z" fill="#3D18C0"/>
<path d="M121.184 88.157H16.8101V10.5728H148.81V72.8379H152.537C149.768 75.637 146.756 78.3905 143.516 81.0831C137.02 86.4684 129.566 91.6255 121.168 96.4479V88.157H121.184Z" fill="#3D17C1"/>
<path d="M120.697 88.157H16.8101V10.5728H148.81V72.6706H151.913C149.16 75.4545 146.163 78.1927 142.938 80.8702C136.472 86.225 129.049 91.3669 120.697 96.174V88.1722V88.157Z" fill="#3E17C2"/>
<path d="M120.225 88.157H16.8101V10.5728H148.81V64.045H158.82C149.768 75.4545 136.868 86.301 120.225 95.885V88.157Z" fill="#3F17C3"/>
<path d="M119.738 88.157H16.8101V10.5728H148.81V63.9233H158.165C149.144 75.2871 136.32 86.0881 119.738 95.6264V88.1722V88.157Z" fill="#3F16C4"/>
<path d="M119.267 88.157H16.8101V10.5728H148.81V63.7864H157.511C148.536 75.0894 135.757 85.8447 119.252 95.3373V88.157H119.267Z" fill="#4016C5"/>
<path d="M118.78 88.157H16.8101V10.5728H148.81V63.6495H156.857C147.927 74.9068 135.21 85.6165 118.78 95.0635V88.157Z" fill="#4116C6"/>
<path d="M118.308 88.157H16.8101V10.5728H148.81V63.5126H156.203C147.304 74.7243 134.647 85.3731 118.293 94.7745V88.1418L118.308 88.157Z" fill="#4216C7"/>
<path d="M117.837 88.157H16.8101V10.5728H148.81V63.3909H155.549C146.695 74.5417 134.099 85.1449 117.822 94.5159V88.1722L117.837 88.157Z" fill="#4215C8"/>
<path d="M117.35 88.157H16.8101V10.5728H148.81V63.254H154.91C146.102 74.3592 133.552 84.9167 117.35 94.242V88.1722V88.157Z" fill="#4315C9"/>
<path d="M116.879 88.157H16.8101V10.5728H148.81V63.1171H154.256C145.478 74.1766 133.004 84.6733 116.879 93.953V88.157Z" fill="#4415CA"/>
<path d="M116.392 88.157H16.8101V10.5728H148.81V62.9802H153.602C144.87 73.9789 132.441 84.4451 116.392 93.6792V88.157Z" fill="#4414CB"/>
<path d="M115.92 88.157H16.8101V10.5728H148.81V62.8432H152.948C144.261 73.7963 131.878 84.2017 115.905 93.3901V88.1418L115.92 88.157Z" fill="#4514CC"/>
<path d="M115.449 88.157H16.8101V10.5728H148.81V62.7215H152.293C143.637 73.6138 131.33 83.9735 115.433 93.1315V88.1722L115.449 88.157Z" fill="#4614CD"/>
<path d="M114.962 88.157H16.8101V10.5728H148.81V62.5846H151.639C143.029 73.4312 130.768 83.7453 114.947 92.8577V88.1722L114.962 88.157Z" fill="#4613CE"/>
<path d="M114.49 88.157H16.8101V10.5728H148.81V62.4477H151C142.436 73.2486 130.235 83.5019 114.49 92.5686V88.157Z" fill="#4713CF"/>
<path d="M114.003 88.157H16.8101V10.5728H148.81V62.3108H150.346C141.812 73.0509 129.672 83.2737 114.003 92.2948V88.157Z" fill="#4813D0"/>
<path d="M113.532 88.157H16.8101V10.5728H148.81V62.1891H149.692C141.203 72.8835 129.125 83.0456 113.517 92.021V88.157H113.532Z" fill="#4913D1"/>
<path d="M113.06 88.157H16.8101V10.5728H148.81V62.0522H149.038C140.595 72.701 128.562 82.8022 113.045 91.7472V88.1722L113.06 88.157Z" fill="#4912D2"/>
<path d="M112.573 88.157H16.8101V10.5728H148.81V45.7138H158.318C155.899 51.1904 152.582 56.6213 148.384 61.9153C139.971 72.5032 128.014 82.574 112.558 91.4581V88.157H112.573Z" fill="#4A12D3"/>
<path d="M112.102 88.157H16.8101V10.5728H148.81V45.6682H157.618C155.214 51.1143 151.913 56.5148 147.73 61.7936C139.363 72.3359 127.451 82.3458 112.087 91.1995V88.1722L112.102 88.157Z" fill="#4B12D4"/>
<path d="M111.615 88.157H16.8101V10.5728H148.81V45.6074H156.918C154.53 51.023 151.244 56.4083 147.091 61.6414C138.769 72.1229 126.919 82.1024 111.615 90.9105V88.157Z" fill="#4B11D5"/>
<path d="M111.143 88.157H16.8101V10.5728H148.81V45.5617H156.218C153.845 50.9622 150.574 56.3018 146.437 61.5197C138.146 71.9556 126.356 81.8742 111.143 90.6367V88.157Z" fill="#4C11D6"/>
<path d="M110.672 88.157H16.8101V10.5728H148.81V45.5009H155.519C153.145 50.8709 149.905 56.1953 145.782 61.3828C137.537 71.773 125.808 81.646 110.657 90.3628V88.1722L110.672 88.157Z" fill="#4D11D7"/>
<path d="M110.185 88.157H16.8101V10.5728H148.81V29.3451H159.246C156.872 50.7796 140.321 72.7162 110.17 90.0738V88.157H110.185Z" fill="#4E11D8"/>
<path d="M109.713 88.157H16.8101V10.5728H148.81V29.3755H158.531C156.173 50.7036 139.713 72.5337 109.698 89.7999V88.157H109.713Z" fill="#4E10D9"/>
<path d="M109.227 88.157H16.8101V10.5728H148.81V29.4059H157.8C155.442 50.6275 139.074 72.3511 109.211 89.5261V88.157H109.227Z" fill="#4F10DB"/>
<path d="M108.755 88.157H16.8101V10.5728H148.81V29.4212H157.085C154.743 50.5362 138.45 72.1533 108.755 89.2523V88.157Z" fill="#5010DC"/>
<path d="M108.283 88.157H16.8101V10.5728H148.81V29.4516H156.355C154.028 50.4602 137.811 71.9708 108.268 88.9785V88.157H108.283Z" fill="#500FDD"/>
<path d="M107.797 88.157H16.8101V10.5728H148.81V29.482H155.64C153.328 50.3841 137.187 71.7882 107.797 88.7047V88.1722V88.157Z" fill="#510FDE"/>
<path d="M107.325 88.157H16.8101V10.5728H148.81V29.4972H154.925C152.628 50.2928 136.579 71.5753 107.325 88.4156V88.157Z" fill="#520FDF"/>
<path d="M106.838 88.1418C103.202 90.2411 99.4449 92.2035 95.5809 94.0595V88.157H16.8101V10.5728H148.81V29.5276H154.195C151.898 50.2168 135.94 71.3927 106.838 88.1418Z" fill="#530FE0"/>
<path d="M106.367 87.868C102.746 89.9521 99.0037 91.9145 95.1702 93.7552V88.157H16.8101V10.5728H148.81V29.5581H153.48C151.198 50.1407 135.316 71.2102 106.367 87.868Z" fill="#530EE1"/>
<path d="M105.895 87.5941C98.6995 91.732 91.0171 95.4134 83.0153 98.608V88.157H16.8101V10.5728H148.81V29.5733H152.75C150.483 50.0494 134.677 71.0124 105.88 87.5789L105.895 87.5941Z" fill="#540EE2"/>
<path d="M105.408 87.3203C98.2431 91.4429 90.6064 95.0939 82.635 98.2734V88.157H16.8101V10.5728H145.25V0C150.924 9.34053 153.161 19.4113 152.035 29.6037C149.783 49.9734 134.054 70.8298 105.408 87.3203Z" fill="#550EE3"/>
<path d="M104.937 87.0313C97.8171 91.1387 90.2261 94.7745 82.2851 97.9388V88.1571H16.8101V10.5728H144.565V0.182617C150.209 9.47751 152.43 19.5026 151.305 29.6342C149.053 49.8974 133.415 70.6322 104.921 87.0465L104.937 87.0313Z" fill="#550DE4"/>
<path d="M104.45 86.7573C97.3608 90.8343 89.8153 94.4549 81.92 97.6039V88.1569H16.8101V10.5726H143.881V0.36499C149.494 9.61425 151.715 19.5785 150.59 29.6644C148.353 49.8211 132.806 70.4494 104.45 86.7725V86.7573Z" fill="#560DE5"/>
<path d="M103.978 86.4836C96.9348 90.5453 89.4198 94.1355 81.5701 97.2693V88.1569H16.8101V10.5727H143.196V0.547607C148.779 9.75123 150.985 19.6546 149.875 29.6797C147.654 49.7299 132.182 70.2517 103.978 86.4836Z" fill="#570DE6"/>
<path d="M103.507 86.2099C96.4936 90.2412 89.0243 93.8314 81.2202 96.9348V88.1571H16.8101V10.5729H142.512V0.715088C148.064 9.87307 150.255 19.7308 149.144 29.6951C146.939 49.6388 131.543 70.0541 103.491 86.1947L103.507 86.2099Z" fill="#580DE7"/>
<path d="M103.02 85.9359C96.0373 89.952 88.6135 93.5117 80.8551 96.6151V88.1721H16.8101V10.5727H141.827V0.897461C147.349 9.99459 149.525 19.8067 148.429 29.7253C146.239 49.5626 130.92 69.8714 103.02 85.9207V85.9359Z" fill="#580CE8"/>
<path d="M102.548 85.6469C95.6113 89.6326 88.218 93.1771 80.49 96.2653V88.157H16.8101V10.5727H141.143V1.08008C146.634 10.1316 148.81 19.8828 147.714 29.7558C145.524 49.4866 130.296 69.6889 102.548 85.6469Z" fill="#590CE9"/>
<path d="M102.061 85.3731C95.1549 89.3436 87.8073 92.8729 80.1249 95.9307V88.157H16.8101V10.5728H140.443V1.2627C145.904 10.2686 148.064 19.9742 146.969 29.7863C144.794 49.4106 129.657 69.4912 102.046 85.3883L102.061 85.3731Z" fill="#5A0CEA"/>
<path d="M101.59 85.0994C94.729 89.0547 87.4117 92.5536 79.775 95.5961V88.1571H16.8101V10.5729H139.758V1.44531C145.189 10.4055 147.334 20.0503 146.254 29.8168C144.094 49.3346 129.033 69.3087 101.575 85.1146L101.59 85.0994Z" fill="#5A0BEB"/>
<path d="M101.118 84.8254C94.2878 88.7502 87.0162 92.2339 79.4251 95.2764V88.1721H16.8101V10.5727H139.074V1.62769C144.474 10.5423 146.604 20.1262 145.539 29.8318C143.394 49.2431 128.41 69.1108 101.103 84.8254H101.118Z" fill="#5B0BEC"/>
<path d="M100.631 84.5517C93.8466 88.4613 86.6054 91.9146 79.06 94.9419V88.1723H16.8101V10.5728H138.389V1.79517C143.759 10.6489 145.889 20.2024 144.809 29.8472C142.664 49.152 127.771 68.9131 100.616 84.5365L100.631 84.5517Z" fill="#5C0BED"/>
<path d="M100.16 84.2777C93.4055 88.1569 86.2099 91.6102 78.7101 94.607V88.1721H16.8101V10.5727H137.705V1.97754C143.044 10.7856 145.159 20.2783 144.094 29.8774C141.964 49.0757 127.147 68.7304 100.145 84.2625L100.16 84.2777Z" fill="#5C0AEE"/>
<path d="M99.6731 83.9887C92.9643 87.8527 85.8144 91.2755 78.3298 94.2572V88.157H16.8101V10.5727H137.02V2.16016C142.329 10.9226 144.429 20.3544 143.379 29.9079C141.264 48.9997 126.523 68.5479 99.6731 83.9887Z" fill="#5D0AEF"/>
<path d="M99.2015 83.7149C92.5232 87.5637 85.4189 90.9561 77.9799 93.9226V88.157H16.8101V10.5728H136.335V2.34277C141.614 11.0596 143.714 20.4458 142.649 29.9384C140.549 48.9237 125.9 68.3502 99.1863 83.7302L99.2015 83.7149Z" fill="#5E0AF0"/>
<path d="M98.7147 83.4412C92.082 87.2596 85.0081 90.652 77.6148 93.6032V88.1723H16.8101V10.5729H135.651V2.52539C140.899 11.1814 142.983 20.5219 141.934 29.9537C139.85 48.8325 125.276 68.1525 98.7147 83.4412Z" fill="#5F0AF1"/>
<path d="M98.2431 83.1672C91.6408 86.9703 84.6126 90.3323 77.2649 93.2683V88.1721H16.8101V10.5727H134.966V2.70776C140.199 11.3181 142.253 20.5978 141.219 29.9839C139.135 48.7563 124.652 67.9698 98.2431 83.1672Z" fill="#5F09F2"/>
<path d="M97.7715 82.8934C91.2149 86.6661 84.2171 90.0129 76.915 92.9337V88.1722H16.8101V10.5727H134.267V2.89038C139.469 11.4551 141.508 20.6891 140.473 30.0144C138.404 48.6803 123.998 67.7873 97.7411 82.8934H97.7715Z" fill="#6009F3"/>
<path d="M97.2847 82.6043C90.7585 86.3618 83.8063 89.6934 76.5499 92.5837V88.1417H16.8101V10.5726H133.582V3.05762C138.754 11.5767 140.793 20.7499 139.758 30.0295C137.705 48.5889 123.374 67.5894 97.2695 82.6043H97.2847Z" fill="#6109F4"/>
<path d="M96.8131 82.3305C90.3173 86.0576 83.4108 89.3739 76.1848 92.2643V88.1569H16.8101V10.5727H132.897V3.24023C138.039 11.7137 140.063 20.826 139.043 30.06C137.005 48.5129 122.766 67.3917 96.8131 82.3305Z" fill="#6108F5"/>
<path d="M96.3263 82.0568C89.8762 85.7686 83.0001 89.0546 75.8197 91.9297V88.157H16.8101V10.5728H132.213V3.42285C137.324 11.8354 139.332 20.9021 138.313 30.0905C136.275 48.4369 122.127 67.2093 96.3263 82.0568Z" fill="#6208F6"/>
<path d="M95.8547 81.783C89.435 85.4797 82.6045 88.7504 75.4698 91.5951V88.1571H16.8101V10.5728H131.528V3.60547C136.609 11.9724 138.617 20.9935 137.598 30.1058C135.575 48.3457 121.503 67.0116 95.8547 81.783Z" fill="#6308F7"/>
<path d="M95.3831 81.509C82.635 88.8415 68.2134 94.5158 53.0465 98.5015V88.1721H16.8101V10.5727H130.844V3.78784C135.894 12.1091 137.887 21.0694 136.883 30.1361C134.875 48.2695 120.879 66.8288 95.3831 81.509Z" fill="#6408F8"/>
<path d="M94.8963 81.22C82.2242 88.5221 67.8787 94.1507 52.8031 98.106V88.157H16.8101V10.5727H130.159V3.97046C135.179 12.2461 137.157 21.1455 136.153 30.1665C134.16 48.1935 120.241 66.6464 94.8963 81.2352V81.22Z" fill="#6407F9"/>
<path d="M94.4247 80.9463C81.8287 88.2027 67.5745 93.801 52.5901 97.741V88.1571H16.8101V10.5729H129.475V4.13794C134.464 12.368 136.427 21.2217 135.438 30.1819C133.46 48.1023 119.617 66.4487 94.4247 80.9463Z" fill="#6507FA"/>
<path d="M93.9379 80.6723C81.418 87.8831 67.2398 93.4509 52.3467 97.3605V88.1569H16.8101V10.5727H128.79V4.32031C133.749 12.4895 135.712 21.2976 134.723 30.2122C132.745 48.0261 119.008 66.2508 93.9531 80.6723H93.9379Z" fill="#6507FA"/>
<path d="M93.5424 80.4441C81.0833 87.6093 66.9812 93.1618 52.1641 97.0563V88.1721H16.8101V10.5727H128.197V4.47241C133.126 12.6112 135.073 21.3584 134.099 30.2273C132.137 47.95 118.461 66.0834 93.5272 80.4289L93.5424 80.4441Z" fill="#6607FA"/>
<path d="M93.1317 80.2009C80.7334 87.3356 66.7074 92.8577 51.9664 96.7217V88.1571H16.8101V10.5728H127.619V4.63989C132.532 12.733 134.464 21.4498 133.491 30.2579C131.543 47.8893 117.928 65.9314 93.1317 80.2009Z" fill="#6708FA"/>
<path d="M92.7209 79.9726C80.3835 87.0769 66.4335 92.5535 51.7686 96.4022V88.157H16.8101V10.5728H127.025V4.79199C131.909 12.8395 133.841 21.5106 132.867 30.2883C130.92 47.8284 117.381 65.7793 92.7209 79.9726Z" fill="#6708FA"/>
<path d="M92.3102 79.7292C80.0336 86.7879 66.1597 92.2492 51.5708 96.0828V88.157H16.8101V10.5728H126.447V4.94409C131.3 12.9459 133.217 21.5715 132.258 30.3035C130.326 47.7523 116.863 65.6119 92.3102 79.7292Z" fill="#6809FA"/>
<path d="M91.9146 79.501C79.7141 86.5292 65.9011 91.9601 51.3883 95.7633V88.1722H16.8101V10.5727H125.854V5.09619C130.692 13.0676 132.593 21.6475 131.635 30.3187C129.718 47.6763 116.316 65.4446 91.8994 79.4858L91.9146 79.501Z" fill="#6909FA"/>
<path d="M91.5039 79.2576C79.3643 86.2401 65.6273 91.6558 51.1905 95.4438V88.1721H16.8101V10.5727H125.276V5.24829C130.083 13.1741 131.985 21.7083 131.026 30.3491C129.109 47.6154 115.783 65.2924 91.5039 79.2728V79.2576Z" fill="#6A0AFA"/>
<path d="M91.0932 79.0294C79.0144 85.9815 65.3535 91.3516 50.9928 95.1243V88.1721H16.8101V10.5727H124.683V5.40039C129.459 13.2805 131.346 21.7691 130.403 30.3643C128.501 47.5393 115.251 65.125 91.0932 79.0294Z" fill="#6B0AFA"/>
<path d="M90.6824 78.7859C78.6645 85.7077 65.0796 91.0473 50.795 94.7896V88.1569H16.8101V10.5726H124.104V5.55249C128.866 13.387 130.737 21.8452 129.794 30.3794C127.908 47.4632 114.718 64.9577 90.6824 78.7859Z" fill="#6C0BFA"/>
<path d="M90.2717 78.5427C78.3146 85.4188 64.8058 90.7432 50.5972 94.4703V88.1571H16.8101V10.5729H123.511V5.70483C128.242 13.5089 130.113 21.9062 129.17 30.3949C127.284 47.3873 114.171 64.7906 90.2717 78.5427Z" fill="#6D0CFA"/>
<path d="M89.8762 78.3145C77.9951 85.1602 64.5472 90.439 50.4147 94.1508V88.1571H16.8101V10.5728H122.933V5.85693C127.634 13.6154 129.49 21.9671 128.562 30.4253C126.691 47.3265 113.638 64.6232 89.8762 78.3145Z" fill="#6E0CFA"/>
<path d="M89.4654 78.0711C77.6452 84.8711 64.2734 90.1347 50.2169 93.8314V88.1571H16.8101V10.5728H122.34V6.00903C127.025 13.7218 128.866 22.0279 127.938 30.4405C126.082 47.2504 113.106 64.4558 89.4502 78.0711H89.4654Z" fill="#6F0DFA"/>
<path d="M89.0547 77.8428C77.2953 84.6124 63.9995 89.8455 50.0192 93.5118V88.1569H16.8101V10.5727H121.762V6.17627C126.417 13.8434 128.258 22.1191 127.33 30.4708C125.474 47.1894 112.573 64.3036 89.0547 77.8428Z" fill="#700DFA"/>
<path d="M88.6439 77.5994C76.9455 84.3233 63.7257 89.5413 49.8214 93.1771V88.1417H16.8101V10.5727H121.184V6.32837C125.808 13.9651 127.634 22.1799 126.721 30.5012C124.88 47.1286 112.041 64.1514 88.6591 77.6146L88.6439 77.5994Z" fill="#710EFA"/>
<path d="M88.2484 77.3712C76.6108 84.0647 63.4671 89.237 49.6236 92.8728V88.1721H16.8101V10.5727H120.59V6.48047C125.2 14.0716 127.01 22.2407 126.097 30.5164C124.272 47.0525 111.493 63.9841 88.2332 77.3712H88.2484Z" fill="#720EFA"/>
<path d="M87.8378 77.128C64.6994 90.439 35.5065 97.7106 6.99805 98.7147L16.8102 88.1571V10.5729H120.012V6.63281C124.591 14.1783 126.402 22.317 125.489 30.5318C123.663 46.9766 110.976 63.817 87.8378 77.128Z" fill="#730FFA"/>
<path d="M87.4268 76.8998C64.4254 90.1347 35.3845 97.3759 7.04346 98.3647L16.8252 88.1571V10.5728H119.434V6.78491C123.983 14.2847 125.793 22.3778 124.88 30.5622C123.07 46.931 110.443 63.6648 87.442 76.8998H87.4268Z" fill="#7410FA"/>
<path d="M87.0164 76.6563C64.1367 89.8304 35.2632 97.0108 7.07422 97.9996L16.8103 88.1418V10.5728H118.841V6.93701C123.375 14.4064 125.154 22.4386 124.257 30.5774C122.462 46.8549 109.896 63.4974 87.0164 76.6563Z" fill="#7410FA"/>
<path d="M86.6055 76.4281C63.8475 89.5262 35.1413 96.6761 7.10449 97.6649L16.7949 88.1722V10.5728H118.233V7.08911C122.735 14.5129 124.515 22.5147 123.618 30.5926C121.823 46.7788 109.348 63.3301 86.5903 76.4129L86.6055 76.4281Z" fill="#7511FA"/>
<path d="M86.2102 76.1847C63.589 89.2067 35.035 96.3262 7.16553 97.2998L16.8255 88.157V10.5728H117.685V7.24121C122.158 14.6193 123.937 22.5755 123.04 30.623C121.26 46.7179 108.847 63.1779 86.2254 76.1999L86.2102 76.1847Z" fill="#7611FA"/>
<path d="M85.7993 75.9565C63.2999 88.9024 34.9132 95.9762 7.1958 96.9499L16.8102 88.157V10.5727H117.076V7.39331C121.534 14.7258 123.283 22.6363 122.401 30.6382C120.636 46.6418 108.284 63.0106 85.7841 75.9565H85.7993Z" fill="#7712FA"/>
<path d="M85.3883 75.7131C63.0258 88.5829 34.7912 95.6264 7.24121 96.5847L16.8251 88.157V10.5727H116.513V7.54541C120.94 14.8475 122.69 22.6972 121.807 30.6533C120.043 46.5657 107.766 62.828 85.4035 75.7131H85.3883Z" fill="#7812FA"/>
<path d="M84.9779 75.485C62.7371 88.2788 34.6699 95.2766 7.27197 96.235L16.8103 88.1571V10.5729H115.905V7.71289C120.302 14.9693 122.051 22.7886 121.169 30.6991C119.419 46.5202 107.219 62.6912 84.9779 75.5002V75.485Z" fill="#7913FA"/>
<path d="M84.5822 75.2416C62.463 87.9745 34.5631 94.9267 7.31738 95.8699L16.81 88.1571V10.5728H115.327V7.86499C119.708 15.0758 121.427 22.8494 120.56 30.7143C118.826 46.4441 106.686 62.5239 84.5669 75.2568L84.5822 75.2416Z" fill="#7A14FA"/>
<path d="M84.1717 75.0134C62.1895 87.6702 34.4417 94.5768 7.36328 95.5351L16.8255 88.1723V10.5728H114.749V8.01709C119.1 15.1974 120.819 22.9102 119.952 30.7295C118.217 46.368 106.154 62.3565 84.1717 75.0134Z" fill="#7B14FA"/>
<path d="M83.7608 74.7699C61.9003 87.3508 34.3199 94.2268 7.39355 95.17L16.8102 88.157V10.5728H114.156V8.16919C118.476 15.3039 120.195 22.9863 119.328 30.7599C117.609 46.3072 105.606 62.2043 83.7608 74.7851V74.7699Z" fill="#7C15FA"/>
<path d="M83.3499 74.5417C61.6263 87.0465 34.198 93.8769 7.42383 94.8201L16.81 88.1722V10.5728H113.562V8.32129C117.867 15.4104 119.556 23.0471 118.704 30.7751C117 46.2311 105.073 62.037 83.3347 74.5417H83.3499Z" fill="#7D15FA"/>
<path d="M82.9394 74.2983C61.3375 86.727 34.0766 93.527 7.46973 94.455L16.8103 88.157V10.5727H112.984V8.47339C117.259 15.5168 118.948 23.1079 118.096 30.7903C116.392 46.155 104.541 61.8696 82.9394 74.2983Z" fill="#7F16FA"/>
<path d="M82.5437 74.0701C61.0635 86.4227 33.9698 93.1771 7.51514 94.1051L16.8252 88.1569V10.5727H112.421V8.62549C116.666 15.6385 118.354 23.1839 117.502 30.8207C115.814 46.0941 104.024 61.7174 82.5589 74.0701H82.5437Z" fill="#8017FA"/>
<path d="M82.1333 73.8266C60.79 86.1184 33.8485 92.8272 7.5459 93.7399L16.8104 88.1569V10.5727H111.813V8.77759C116.042 15.745 117.7 23.2448 116.864 30.8359C115.19 46.018 103.477 61.5501 82.118 73.8266H82.1333Z" fill="#8117FA"/>
<path d="M81.7223 73.5984C60.5007 85.8142 33.7265 92.4773 7.59131 93.39L16.8101 88.1569V10.5726H111.235V8.92969C115.433 15.8514 117.092 23.3056 116.255 30.851C114.581 45.9419 102.944 61.3827 81.7223 73.5832V73.5984Z" fill="#8218FA"/>
<path d="M81.3114 73.3552C60.2267 85.4949 33.6047 92.1276 7.62158 93.0403L16.81 88.1571V10.5729H110.641V9.08203C114.81 15.9581 116.468 23.3819 115.631 30.8665C113.973 45.8661 102.396 61.2156 81.3114 73.34V73.3552Z" fill="#8318FA"/>
<path d="M80.9161 73.127C59.9531 85.1905 33.4984 91.7776 7.68262 92.6904L16.8254 88.1722V10.5728H110.079V9.24927C114.232 16.0949 115.859 23.4578 115.038 30.912C113.38 45.8203 101.879 61.0634 80.9161 73.127Z" fill="#8419FA"/>
<path d="M80.5052 72.8835C59.6639 84.8711 33.3765 91.4277 7.71289 92.3252L16.8252 88.157V10.5727H109.485V9.40137C113.608 16.2014 115.236 23.5187 114.414 30.9272C112.771 45.7443 101.346 60.896 80.5052 72.8987V72.8835Z" fill="#851AFA"/>
<path d="M80.0948 72.6553C59.3904 84.5668 33.2552 91.0778 7.74365 91.9753L16.8104 88.157V10.5727H108.892V9.55347C112.984 16.3079 114.612 23.5795 113.791 30.9424C112.163 45.6682 100.799 60.7286 80.0948 72.6553Z" fill="#861AFA"/>
<path d="M79.6838 72.4119C59.1012 84.2473 33.1332 90.7279 7.78906 91.6102L16.8101 88.1569V10.5727H108.299V9.70557C112.376 16.4143 113.973 23.6555 113.167 30.9728C111.539 45.6073 100.251 60.5765 79.6686 72.4271L79.6838 72.4119Z" fill="#871BFA"/>
<path d="M79.2729 72.1837C58.8272 83.9582 33.0114 90.3779 7.81934 91.2603L16.81 88.1569V10.5727H107.72V9.85767C111.767 16.536 113.364 23.7163 112.558 30.988C110.946 45.5312 99.7186 60.4091 79.2729 72.1837Z" fill="#881BFB"/>
<path d="M78.8776 71.9402C58.5536 83.6387 32.9052 90.028 7.86523 90.9104L16.8102 88.1569V10.5726H107.127V10.0098C111.144 16.6425 112.741 23.7772 111.935 31.0031C110.337 45.4551 99.1864 60.2418 78.8624 71.9402H78.8776Z" fill="#891CFB"/>
<path d="M78.4667 71.7123C58.2643 83.3347 32.7832 89.6783 7.91064 90.5607L16.8252 88.1723V10.5728H106.564V10.1621C110.565 16.7492 112.132 23.8534 111.341 31.0338C109.744 45.3945 98.669 60.0898 78.4667 71.7123Z" fill="#8A1DFB"/>
<path d="M78.0563 71.4688C57.9908 83.0152 32.6619 89.3284 7.94141 90.1956L16.8104 88.1571V10.5728H105.956V10.3142C109.927 16.8556 111.494 23.9143 110.702 31.049C109.12 45.3184 98.1065 59.9225 78.041 71.4688H78.0563Z" fill="#8B1DFB"/>
<path d="M77.6454 71.2406C57.7017 82.7109 32.54 88.9785 7.97168 89.8456L16.795 88.157V10.5728H105.363V10.4663C109.303 16.9773 110.87 23.9751 110.079 31.0642C108.512 45.2423 97.5739 59.7551 77.6302 71.2254L77.6454 71.2406Z" fill="#8C1EFB"/>
<path d="M77.2495 70.9973C57.4427 82.3915 32.4332 88.6287 8.03223 89.4806L16.8251 88.1571V10.5728H97.1324V1.354C100.281 4.29004 102.837 7.3934 104.8 10.6185C108.724 17.0838 110.276 24.0512 109.485 31.0946C107.918 45.1815 97.0563 59.603 77.2495 70.9973Z" fill="#8D1FFB"/>
<path d="M76.8391 70.769C57.154 82.1024 32.3119 88.2939 8.06299 89.1306L16.8102 88.157V10.5728H96.5851V1.56689C99.7189 4.4725 102.259 7.56066 104.207 10.7705C108.101 17.1902 109.637 24.112 108.862 31.1098C107.31 45.1053 96.509 59.4356 76.8239 70.7538L76.8391 70.769Z" fill="#8E1FFB"/>
<path d="M76.4282 70.5255C56.8648 81.7828 32.1899 87.9287 8.1084 88.7806L16.8252 88.1721V10.5727H96.0676V1.77979C99.1862 4.67018 101.696 7.74312 103.644 10.9226C107.507 17.2966 109.044 24.1727 108.268 31.1249C106.732 45.0292 95.9916 59.253 76.4434 70.5103L76.4282 70.5255Z" fill="#8F20FB"/>
<path d="M76.0178 70.2975C56.5913 81.4787 32.0686 87.5942 8.13916 88.4309L16.8103 88.1723V10.5728H95.5203V1.99292C98.6085 4.8681 101.119 7.91062 103.035 11.0901C106.884 17.4337 108.405 24.2489 107.63 31.1707C106.093 44.9837 95.4443 59.1162 76.0178 70.2975Z" fill="#9020FB"/>
<path d="M75.622 70.054C56.3172 81.1592 31.9619 87.229 8.18457 88.0657H16.8253V10.5727H95.0029V2.20581C98.0758 5.06578 100.571 8.09308 102.472 11.2421C106.291 17.5401 107.797 24.3249 107.036 31.1858C105.515 44.9076 94.9268 58.9488 75.622 70.054Z" fill="#9121FB"/>
<path d="M75.2115 69.8257C56.0437 80.8549 31.8404 86.8942 8.23047 87.7157H16.8256V10.5727H94.4555V2.4187C97.5132 5.24824 99.9776 8.26034 101.879 11.3941C105.667 17.6465 107.173 24.3857 106.413 31.2009C104.907 44.8314 94.3794 58.7814 75.2115 69.8105V69.8257Z" fill="#9222FB"/>
<path d="M74.8006 69.5825C55.7545 80.5355 31.7186 86.5293 8.26074 87.3508H16.8102V10.5728H93.9077V2.63184C96.935 5.44617 99.3994 8.42783 101.286 11.5464C105.058 17.7532 106.549 24.4467 105.789 31.2315C104.283 44.7707 93.8468 58.6294 74.8006 69.5977V69.5825Z" fill="#9322FB"/>
<path d="M74.3897 69.3542C55.4653 80.2464 31.5967 86.1945 8.29102 87.0008H16.8101V10.5727H93.3751V2.84473C96.3872 5.64384 98.8212 8.6103 100.692 11.6985C104.435 17.8748 105.91 24.5227 105.165 31.2466C103.674 44.6946 93.299 58.462 74.3745 69.3542H74.3897Z" fill="#9423FB"/>
<path d="M73.9793 69.1107C55.1917 79.9269 31.4753 85.8294 8.33691 86.6356H16.8103V10.5726H92.8429V3.05762C95.8398 5.84152 98.2586 8.77755 100.115 11.8505C103.826 17.9812 105.302 24.5834 104.557 31.2618C103.081 44.6184 92.7668 58.2946 73.9793 69.1107Z" fill="#9624FB"/>
<path d="M73.5835 68.8827C54.9177 79.6228 31.3686 85.4948 8.38232 86.3011H16.8253V10.5728H92.3254V3.27075C95.2919 6.02423 97.6955 8.96026 99.5514 12.0028C103.248 18.0878 104.708 24.6444 103.963 31.2771C102.487 44.5425 92.2494 58.1274 73.5987 68.8675L73.5835 68.8827Z" fill="#9724FB"/>
<path d="M73.1726 68.6392C54.6437 79.3032 31.2467 85.1296 8.4126 85.9359H16.81V10.5727H91.7624V3.48364C94.7137 6.22191 97.102 9.12752 98.9428 12.1548C102.609 18.1942 104.054 24.7204 103.324 31.3075C101.864 44.4816 91.7016 57.9752 73.1574 68.6392H73.1726Z" fill="#9825FB"/>
<path d="M72.7621 68.4112C54.3549 78.9991 31.1253 84.7951 8.4585 85.5862H16.8102V10.5729H91.2302V3.69678C94.1663 6.41983 96.5394 9.31023 98.3497 12.3071C101.986 18.3161 103.431 24.7814 102.701 31.3229C101.255 44.4057 91.1542 57.808 72.7469 68.396L72.7621 68.4112Z" fill="#9925FB"/>
<path d="M72.3513 68.1676C54.0809 78.6795 31.0034 84.4299 8.48877 85.2209H16.8101V10.5727H90.6976V3.9248C93.6032 6.63265 95.9612 9.49261 97.7715 12.4743C101.392 18.4376 102.822 24.8573 102.092 31.3531C100.647 44.3447 90.6216 57.6557 72.3513 68.1676Z" fill="#9A26FB"/>
<path d="M71.9559 67.9396C53.8073 78.3906 30.8971 84.0953 8.5498 84.8712H16.8255V10.5729H90.1806V4.13794C93.071 6.81536 95.4137 9.67532 97.2088 12.6266C100.799 18.5443 102.214 24.9336 101.499 31.3837C100.069 44.284 90.1045 57.4885 71.9559 67.9396Z" fill="#9B27FB"/>
<path d="M71.545 67.6961C53.5181 78.0711 30.7753 83.7302 8.58008 84.506H16.8253V10.5728H89.6328V4.35083C92.508 7.01303 94.8203 9.84258 96.6154 12.7786C100.175 18.6659 101.59 24.9943 100.875 31.3988C99.4601 44.2078 89.5719 57.3211 71.545 67.6961Z" fill="#9C27FB"/>
<path d="M71.1341 67.4678C53.2441 77.7667 30.6534 83.3954 8.61035 84.1712H16.8099V10.5727H89.085V4.56372C91.9297 7.21071 94.2421 10.0098 96.0067 12.9306C99.5513 18.7723 100.951 25.0551 100.236 31.414C98.8211 44.1317 89.0089 57.1537 71.1189 67.4526L71.1341 67.4678Z" fill="#9D28FB"/>
<path d="M70.7236 67.2246C52.9553 77.4474 30.532 83.0304 8.65625 83.8063H16.8254V10.5729H88.568V4.77686C91.3976 7.40863 93.6795 10.1925 95.4441 13.0829C98.9582 18.8789 100.343 25.1161 99.6428 31.4445C98.2432 44.071 88.492 57.0017 70.7236 67.2246Z" fill="#9E29FB"/>
<path d="M70.3128 66.9963C52.6814 77.1431 30.4101 82.6957 8.68652 83.4563H16.8101V10.5728H88.0202V4.98975C90.8345 7.5911 93.1012 10.3598 94.8507 13.235C98.3496 18.9853 99.7187 25.1921 99.0189 31.4597C97.6346 44.0101 87.9442 56.8343 70.3128 66.9811V66.9963Z" fill="#9F29FB"/>
<path d="M69.9175 66.7528C52.4078 76.8235 30.3039 82.3305 8.73242 83.0911H16.8103V10.5727H87.488V5.20264C90.2719 7.78878 92.5386 10.5423 94.2729 13.4022C97.7413 19.1222 99.1105 25.2681 98.4107 31.49C97.0263 43.9491 87.4272 56.6821 69.9175 66.7528Z" fill="#A02AFB"/>
<path d="M69.5065 66.5248C52.1185 76.5347 30.182 81.996 8.77783 82.7414H16.8253V10.5728H86.9554V5.41577C89.7241 7.9867 91.9603 10.7098 93.6793 13.5545C97.1174 19.2288 98.4713 25.3291 97.7867 31.5206C96.4176 43.8884 86.8793 56.5301 69.4913 66.54L69.5065 66.5248Z" fill="#A12BFB"/>
<path d="M69.0956 66.2813C51.8445 76.2151 30.0601 81.6308 8.80811 82.3762H16.8099V10.5728H86.4076V5.62866C89.161 8.18438 91.3821 10.8922 93.0859 13.7066C96.5087 19.3352 97.8474 25.405 97.1629 31.5357C95.8089 43.8123 86.3315 56.3627 69.0804 66.2965L69.0956 66.2813Z" fill="#A22BFB"/>
<path d="M68.6852 66.0378C51.5558 75.8956 29.9387 81.2808 8.83887 82.0262H16.8103V10.5727H85.8755V5.84155C88.5985 8.38206 90.8043 11.0595 92.5081 13.8586C95.9006 19.4416 97.2393 25.4658 96.5547 31.5508C95.2008 43.7361 85.8146 56.1952 68.6852 66.053V66.0378Z" fill="#A42CFB"/>
<path d="M68.2894 65.8098C51.2969 75.5915 29.8319 80.9311 8.89941 81.6765H16.8252V10.5728H85.3579V6.05469C88.0658 8.56477 90.2564 11.2422 91.945 14.0109C95.307 19.5635 96.6305 25.5268 95.9611 31.5814C94.6224 43.6754 85.2971 56.0433 68.2894 65.825V65.8098Z" fill="#A52CFB"/>
<path d="M67.879 65.5663C51.0082 75.2719 29.7106 80.5811 8.93018 81.3113H16.8103V10.5727H84.8106V6.26758C87.5032 8.76244 89.6786 11.4094 91.3368 14.1629C94.6836 19.6699 95.9919 25.6028 95.3225 31.5966C93.999 43.5993 84.7346 55.8759 67.8638 65.5815L67.879 65.5663Z" fill="#A62DFB"/>
<path d="M67.4681 65.338C50.719 74.9676 29.5887 80.2463 8.96045 80.9613H16.8101V10.5727H84.2628V6.48047C86.925 8.96012 89.0852 11.5767 90.7434 14.315C94.0597 19.7763 95.368 25.6636 94.7139 31.6117C93.3904 43.5231 84.2019 55.6932 67.4681 65.338Z" fill="#A72EFB"/>
<path d="M67.0571 65.0948C50.445 74.6635 29.4668 79.8814 9.00586 80.5964H16.8099V10.5728H83.7301V6.6936C86.3771 9.15804 88.5221 11.7594 90.1651 14.4672C93.451 19.8829 94.7593 25.7246 94.1051 31.6423C92.7968 43.4624 83.6845 55.5412 67.0571 65.11V65.0948Z" fill="#A82EFB"/>
<path d="M66.6467 64.8666C50.1563 74.3593 29.3454 79.5468 9.03662 80.2466H16.8103V10.5729H73.8271V0.0761719C102.837 16.8861 99.6276 45.8813 66.6467 64.8666Z" fill="#A92FFB"/>
<path d="M66.2509 64.6231C49.8974 74.0397 29.2386 79.1815 9.09717 79.8813H16.8252V10.5727H73.3704V0.349854C102.153 17.0229 98.9732 45.8051 66.2509 64.6383V64.6231Z" fill="#A92FFB"/>
<path d="M65.9013 64.4252C49.6543 73.781 29.1477 78.8924 9.12793 79.5922H16.8255V10.5726H72.9752V0.562744C101.575 17.1293 98.4107 45.7137 65.9013 64.4252Z" fill="#A930FA"/>
<path d="M65.5513 64.2275C49.4107 73.5224 29.0411 78.5882 9.1582 79.288H16.8254V10.5727H72.5795V0.791016C100.981 17.251 97.8324 45.6378 65.5513 64.2275Z" fill="#AA30F9"/>
<path d="M65.2013 64.0299C49.1672 73.2639 28.9344 78.2993 9.18848 78.9838H16.81V10.5728H72.1686V1.01929C100.388 17.3576 97.2542 45.5618 65.186 64.0147L65.2013 64.0299Z" fill="#AA31F8"/>
<path d="M64.8517 63.8319C48.9241 72.9899 28.8283 78.0101 9.21924 78.6946H16.8103V10.5726H71.7734V1.24731C99.795 17.4792 96.6917 45.4855 64.8517 63.8167V63.8319Z" fill="#AB32F7"/>
<path d="M64.5017 63.619C48.6806 72.7162 28.7368 77.6907 9.24951 78.3753H16.8102V10.5727H71.3777V1.47559C99.2016 17.6009 96.1286 45.4248 64.5017 63.619Z" fill="#AB33F6"/>
<path d="M64.1668 63.4214C48.4674 72.4576 28.6453 77.4017 9.29492 78.0711H16.8252V10.5728H70.9972V1.70386C98.6385 17.7075 95.5808 45.3488 64.1668 63.4214Z" fill="#AB33F5"/>
<path d="M63.8172 63.2234C48.2243 72.1989 28.5392 77.0973 9.32568 77.7819H16.8255V10.5726H70.6172V1.93188C98.0608 17.829 95.0182 45.2726 63.8324 63.2234H63.8172Z" fill="#AC34F4"/>
<path d="M63.4672 63.0258C47.9807 71.9403 28.4326 76.8084 9.35596 77.4777H16.8101V10.5727H70.2063V2.16016C97.4521 17.9508 94.44 45.1966 63.4672 63.0258Z" fill="#AC35F3"/>
<path d="M63.1171 62.8129C47.7372 71.6666 28.3259 76.5042 9.38623 77.1583H16.81V10.5728H69.8107V2.38843C96.8739 18.0574 93.877 45.1206 63.1171 62.8129Z" fill="#AD35F2"/>
<path d="M62.7676 62.6149C47.4941 71.4078 28.235 76.1998 9.41699 76.8691H16.8103V10.5726H69.4155V2.61646C96.2809 18.1789 93.3145 45.0444 62.7676 62.6149Z" fill="#AD36F1"/>
<path d="M62.4175 62.4173C47.2506 71.1493 28.1283 75.9108 9.44727 76.565H16.8102V10.5727H69.0198V2.84473C95.7027 18.3007 92.7362 44.9684 62.4175 62.4173Z" fill="#AD37F0"/>
<path d="M62.0826 62.2196C47.0374 70.8755 28.0368 75.6067 9.49268 76.2608H16.8251V10.5728H68.6392V3.073C95.1244 18.4073 92.1883 44.8924 62.0826 62.2196Z" fill="#AE38EF"/>
<path d="M61.7331 62.0064C46.7943 70.6015 27.9307 75.3022 9.52344 75.9564H16.8103V10.5726H68.2288V3.30103C94.5162 18.5288 91.6106 44.8162 61.7331 62.0216V62.0064Z" fill="#AE38EE"/>
<path d="M61.383 61.8088C46.5507 70.343 27.824 75.0133 9.55371 75.6522H16.8101V10.5727H67.8332V3.5293C93.938 18.6506 91.0476 44.7402 61.383 61.824V61.8088Z" fill="#AE39ED"/>
<path d="M61.033 61.6111C46.3072 70.0845 27.7326 74.7091 9.58398 75.348H16.81V10.5728H67.4375V3.75757C93.3445 18.7724 90.4846 44.6642 61.033 61.6111Z" fill="#AF3AEC"/>
<path d="M60.6834 61.4131C46.0641 69.8257 27.6265 74.4199 9.61475 75.0436H16.8103V10.5726H67.0423V3.9856C92.7668 18.8787 89.9068 44.588 60.6834 61.4131Z" fill="#AF3BEB"/>
<path d="M60.3334 61.2003C45.8206 69.552 27.5198 74.1158 9.64502 74.7395H16.8102V10.5728H66.6466V4.19873C92.1734 18.9854 89.3438 44.4969 60.3334 61.2003Z" fill="#B03BEA"/>
<path d="M59.9833 61.0024C45.5922 69.2933 27.4132 73.8114 9.67529 74.4351H16.7948V10.5726H66.2357V4.42676C91.5647 19.1069 88.7656 44.4359 59.9681 61.0024H59.9833Z" fill="#B03CE9"/>
<path d="M59.6488 60.8047C45.3642 69.0195 27.3373 73.5224 9.73633 74.131H16.8254V10.5727H65.8708V4.65503C91.0172 19.2135 88.2333 44.3599 59.6488 60.8047Z" fill="#B03DE8"/>
<path d="M59.2988 60.607C45.1207 68.761 27.2307 73.2183 9.7666 73.842H16.8252V10.5728H65.4751V4.8833C90.4238 19.3353 87.6703 44.2839 59.2988 60.5918V60.607Z" fill="#B13DE7"/>
<path d="M58.9493 60.4091C44.8776 68.5022 27.1245 72.9291 9.79736 73.5376H16.8256V10.5726H65.0799V5.11133C89.8308 19.4568 87.0926 44.2077 58.9645 60.3939L58.9493 60.4091Z" fill="#B13EE6"/>
<path d="M58.5992 60.1962C44.6341 68.2285 27.0179 72.6249 9.82764 73.2182H16.8254V10.5727H64.6843V5.3396C89.2526 19.5634 86.5295 44.1317 58.6144 60.1962H58.5992Z" fill="#B23FE5"/>
<path d="M58.2492 59.9985C44.3905 67.9699 26.9112 72.3207 9.85791 72.9292H16.8101V10.5728H64.2734V5.56787C88.644 19.6852 85.9513 44.0557 58.2492 59.9985Z" fill="#B240E4"/>
<path d="M57.8991 59.8006C44.1622 67.7112 26.8198 72.0315 9.88818 72.6248H16.8099V10.5727H63.8777V5.7959C88.0657 19.8067 85.3883 43.9795 57.8991 59.8006Z" fill="#B240E3"/>
<path d="M57.5647 59.6029C43.9342 67.4526 26.7288 71.7426 9.93408 72.3207H16.8254V10.5727H63.4976V6.02417C87.4879 19.9133 84.8257 43.9035 57.5647 59.6029Z" fill="#B341E2"/>
<path d="M57.2147 59.39C43.6907 67.1789 26.6221 71.4232 9.96436 72.0165H16.8252V10.5728H63.102V6.25244C86.8945 20.0351 84.2627 43.8276 57.2147 59.39Z" fill="#B342E1"/>
<path d="M56.8651 59.1921C43.4476 66.9201 26.516 71.134 9.99512 71.7121H16.8256V10.5727H62.7068V6.48047C86.3167 20.1566 83.7001 43.7513 56.8651 59.1921Z" fill="#B442E0"/>
<path d="M56.5151 58.9944C43.2041 66.6464 26.4094 70.8298 10.0254 71.4079H16.8102V10.5727H62.2959V6.70874C85.7081 20.2784 83.1219 43.6753 56.4999 58.9944H56.5151Z" fill="#B443DF"/>
<path d="M56.165 58.7968C42.9605 66.3878 26.3179 70.5409 10.0557 71.1037H16.8101V10.5728H61.9002V6.93701C85.1298 20.3849 82.5589 43.5994 56.165 58.7968Z" fill="#B444DE"/>
<path d="M55.815 58.5836C42.7322 66.1138 26.2113 70.2365 10.0859 70.7993H16.8099V10.5727H61.5045V7.16504C84.5364 20.5065 81.9807 43.5384 55.815 58.5988V58.5836Z" fill="#B545DD"/>
<path d="M55.4655 58.3859C42.4891 65.8553 26.1051 69.9323 10.1167 70.4952H16.8102V10.5727H61.1093V7.39331C83.9434 20.6283 81.4181 43.4624 55.4655 58.4011V58.3859Z" fill="#B545DC"/>
<path d="M55.1306 58.1883C42.2607 65.5968 26.0136 69.6433 10.1621 70.191H16.8252V10.5728H60.7288V7.62158C83.3803 20.7348 80.8703 43.3864 55.1306 58.1883Z" fill="#B546DB"/>
<path d="M54.781 57.9903C42.0176 65.338 25.9227 69.3541 10.1929 69.9018H16.8104V10.5727H60.3184V7.84961C82.7722 20.8564 80.2925 43.3102 54.7658 57.9903H54.781Z" fill="#B647DA"/>
<path d="M54.4309 57.7926C41.7741 65.0795 25.8161 69.05 10.2231 69.5976H16.8102V10.5727H59.9379V8.07788C82.1939 20.9782 79.7295 43.2342 54.4309 57.7926Z" fill="#B647D9"/>
<path d="M54.0809 57.5796C41.5305 64.7903 25.7094 68.7456 10.2534 69.2781H16.81V10.5727H59.5422V8.29077C81.6157 21.0694 79.1665 43.1428 54.0809 57.5796Z" fill="#B748D8"/>
<path d="M53.7309 57.3819C41.3022 64.5318 25.6028 68.4415 10.2837 68.9891H16.8099V10.5727H59.1466V8.51904C81.0223 21.1911 78.6035 43.0669 53.7309 57.3819Z" fill="#B749D7"/>
<path d="M53.3813 57.1842C41.0591 64.2733 25.4966 68.1525 10.3145 68.6849H16.795V10.5728H58.7361V8.74731C80.4293 21.3129 78.0257 42.9909 53.3661 57.1842H53.3813Z" fill="#B74AD6"/>
<path d="M53.0464 56.9863C40.8307 64.0145 25.4203 67.8633 10.3599 68.3805H16.81V10.5727H58.3556V8.97534C79.851 21.4192 77.4778 42.9146 53.0464 56.9711V56.9863Z" fill="#B84AD5"/>
<path d="M52.6969 56.7734C40.5876 63.7408 25.3142 67.5439 10.3906 68.0764H16.8103V10.5727H57.9604V9.20361C79.258 21.541 76.9001 42.8387 52.6969 56.7734Z" fill="#B84BD4"/>
<path d="M52.3467 56.5757C40.344 63.4822 25.2075 67.255 10.436 67.7722H16.8253V10.5728H57.5799V9.43188C78.695 21.6628 76.3522 42.7627 52.3619 56.5757H52.3467Z" fill="#B94CD3"/>
<path d="M51.9967 56.3778C40.1157 63.2235 25.1008 66.9506 10.4663 67.4678H16.8252V10.5727H57.1842V9.65991C78.1015 21.7844 75.7892 42.6865 52.0119 56.3778H51.9967Z" fill="#B94CD2"/>
<path d="M51.6471 56.1801C39.8726 62.9649 25.0099 66.6616 10.4971 67.1636H16.8103V10.5728H56.7738V9.88818C77.5086 21.8909 75.2115 42.6105 51.6471 56.1801Z" fill="#B94DD1"/>
<path d="M51.2971 55.9672C39.629 62.676 24.9032 66.3574 10.5273 66.8594H16.8101V10.5728H56.3781V10.1165C76.9151 22.0127 74.6332 42.5497 51.2971 55.9824V55.9672Z" fill="#BA4ED0"/>
<path d="M50.9622 55.7693C39.4006 62.4172 24.8117 66.053 10.5728 66.555H16.8251V10.5727H55.9976V10.3445C76.3368 22.1342 74.0853 42.4735 50.9622 55.7693Z" fill="#BA4FCF"/>
<path d="M50.6126 55.5716C39.1576 62.1587 24.7056 65.764 10.6035 66.2509H16.8255V10.5728H55.6024C75.7591 22.2408 73.5228 42.3975 50.6126 55.5716Z" fill="#BB4FCE"/>
<path d="M50.2626 55.3738C38.914 61.9001 24.599 65.475 10.6338 65.9618H16.8253V10.5727H17.6164V2.92081C31.5967 2.43401 45.2272 5.02015 55.2067 10.8009C75.1656 22.3625 72.9598 42.3214 50.2778 55.3738H50.2626Z" fill="#BB50CD"/>
<path d="M49.9126 55.1761C38.6857 61.6414 24.5075 65.1708 10.6641 65.6576H16.81V10.5728H17.5706V3.22507C31.414 2.73827 44.9076 5.3092 54.7958 11.0291C74.557 22.4842 72.3816 42.2454 49.9126 55.1761Z" fill="#BB51CC"/>
<path d="M49.563 54.9631C38.4426 61.3676 24.4014 64.8665 10.6948 65.3381H16.8103V10.5728H17.5405V3.52936C31.247 3.04255 44.6189 5.58306 54.4006 11.2574C73.9792 22.5907 71.8038 42.1693 49.563 54.9784V54.9631Z" fill="#BC52CB"/>
<path d="M49.213 54.7652C38.199 61.1089 24.2947 64.5621 10.7251 65.049H16.8101V10.5726H17.5099V3.83347C31.0796 3.36188 44.3145 5.87196 54.0049 11.4854C73.3858 22.7123 71.2408 42.0931 49.213 54.7652Z" fill="#BC52CA"/>
<path d="M48.8629 54.5675C37.9555 60.8503 24.1881 64.2731 10.7554 64.7447H16.81V10.5727H17.4641V4.13773C30.8968 3.66613 44.0101 6.161 53.6093 11.7136C72.8076 22.834 70.6778 42.0171 48.8629 54.5675Z" fill="#BC53C9"/>
<path d="M48.5285 54.3698C37.7276 60.5765 24.0971 63.9841 10.8013 64.4405H16.8255V10.5727H17.4492V4.44201C30.745 3.97042 43.7213 6.43486 53.2292 11.9418C72.2297 22.9405 70.1304 41.9411 48.5285 54.3698Z" fill="#BD54C8"/>
<path d="M48.1785 54.157C37.484 60.3028 24.0057 63.6648 10.8315 64.1364H16.8101V10.5729H17.4034V4.73123C30.5775 4.27485 43.4169 6.70887 52.8183 12.155C71.6211 23.0472 69.5522 41.85 48.1633 54.157H48.1785Z" fill="#BD54C7"/>
<path d="M47.8284 53.9592C37.2557 60.0442 23.899 63.3758 10.8618 63.8322H16.8099V10.5729H17.3728V5.03549C30.41 4.57911 43.1277 6.99791 52.4226 12.3832C71.0428 23.1689 68.9739 41.7739 47.8132 53.9592H47.8284Z" fill="#BE55C6"/>
<path d="M47.4789 53.7612C37.0126 59.7854 23.7929 63.0865 10.8926 63.5277H16.8103V10.5727H17.3427V5.33952C30.243 4.88315 42.8238 7.27152 52.0426 12.6111C70.4651 23.2904 68.4266 41.6976 47.4941 53.7612H47.4789Z" fill="#BE56C5"/>
<path d="M47.1288 53.5636C36.7691 59.5269 23.6862 62.7824 10.9229 63.2388H16.8101V10.5728H17.2969V5.64389C30.0603 5.20272 42.5194 7.56067 51.6318 12.8394C69.8717 23.397 67.8484 41.6217 47.1288 53.5484V53.5636Z" fill="#BE57C4"/>
<path d="M46.7788 53.3506C36.5255 59.2531 23.5948 62.4781 10.9531 62.9193H16.81V10.5728H17.2664V5.94814C29.8928 5.50697 42.215 7.84971 51.2361 13.0676C69.2782 23.5187 67.2854 41.5608 46.7788 53.3506Z" fill="#BF57C3"/>
<path d="M46.4444 53.1529C36.2976 58.9945 23.5038 62.1739 10.999 62.6151H16.8102V10.5728H17.2362V6.25242C29.7257 5.81126 41.9262 8.12357 50.8408 13.2959C68.6852 23.6404 66.7076 41.4848 46.4292 53.1529H46.4444Z" fill="#BF58C2"/>
<path d="M46.0943 52.955C36.054 58.7358 23.3971 61.8848 11.0293 62.3107H16.8101V10.5727H17.2056V6.55654C29.5735 6.13059 41.6218 8.41248 50.4603 13.5239C68.1222 23.7468 66.1597 41.4086 46.0943 52.955Z" fill="#C059C1"/>
<path d="M45.7447 52.7572C35.8261 58.4619 23.2909 61.5957 11.0752 62.0217H16.8256V10.5727H17.1907V6.86079C29.4216 6.43484 41.3483 8.70152 50.0803 13.7521C67.5443 23.8685 65.6124 41.3325 45.7599 52.7572H45.7447Z" fill="#C059C0"/>
<path d="M45.3947 52.5595C35.5825 58.2033 23.1843 61.2915 11.1055 61.7174H16.8254V10.5727H17.1449V7.16507C29.2389 6.73912 41.0286 8.97537 49.6694 13.9803C66.9357 23.9902 65.0341 41.2565 45.3947 52.5595Z" fill="#C05ABE"/>
<path d="M45.0446 52.3465C35.339 57.9295 23.0928 60.9873 11.1357 61.398H16.8253V10.5727H17.1143V7.46934C29.0714 7.04338 40.7395 9.26442 49.2737 14.2085C66.3575 24.0967 64.4711 41.1805 45.0446 52.3465Z" fill="#C15BBD"/>
<path d="M44.6951 52.1488C35.0959 57.671 22.9867 60.6831 11.1665 61.1091H16.8104V10.5728H17.069V7.77369C28.8892 7.36295 40.4355 9.55357 48.8785 14.4368C65.7645 24.2185 63.8934 41.1045 44.6951 52.1488Z" fill="#C15CBC"/>
<path d="M44.345 51.9511C34.8524 57.4124 22.8801 60.3941 11.1968 60.8048H16.8102V10.5728H17.0384V8.07797C28.7217 7.66723 40.1311 9.82742 48.4828 14.665C65.1863 24.3402 63.3303 41.0285 44.3602 51.9511H44.345Z" fill="#C25CBB"/>
<path d="M44.0101 51.7532C34.6239 57.1536 22.7885 60.1049 11.2422 60.5004H16.8252V10.5727H17.0078V8.36685C28.5693 7.95611 39.8419 10.1011 48.0871 14.8778C64.5928 24.4314 62.7673 40.937 44.0101 51.738V51.7532Z" fill="#C25DBA"/>
<path d="M43.6606 51.5403C34.3961 56.8799 22.6976 59.7855 11.2729 60.1963H16.8255V10.5728H16.9777V8.67121C28.4023 8.27568 39.538 10.3902 47.6919 15.1061C63.9998 24.5532 62.2047 40.8611 43.6606 51.5403Z" fill="#C25EB9"/>
<path d="M43.3105 51.3426C34.1525 56.6213 22.591 59.4965 11.3032 59.892H16.8102V10.5728H16.9319V8.97549C28.2196 8.57996 39.2335 10.6641 47.2962 15.3344C63.4216 24.6749 61.6265 40.785 43.3105 51.3426Z" fill="#C35EB8"/>
<path d="M42.9605 51.1448C33.909 56.3475 22.4843 59.2075 11.3335 59.5878H16.81V10.5728H16.9013V9.27975C28.0521 8.88422 38.9291 10.9531 46.9005 15.5625C62.8281 24.7966 61.0635 40.709 42.9605 51.1296V51.1448Z" fill="#C35FB7"/>
<path d="M42.6109 50.9469C33.6659 56.0888 22.3782 58.9031 11.3643 59.2986H16.8104V10.5727H16.8712V9.58387C27.8851 9.20355 38.6404 11.242 46.5054 15.7906C62.2504 24.9029 60.5009 40.648 42.6109 50.9317V50.9469Z" fill="#C460B6"/>
<path d="M42.2609 50.734C33.4224 55.815 22.2715 58.5989 11.3945 58.9792H16.8102V10.6183H8.65625C11.3641 10.2228 14.1024 9.97942 16.8254 9.88814C27.7024 9.50782 38.3208 11.5159 46.0944 16.0188C61.6417 25.0247 59.9227 40.5719 42.2457 50.734H42.2609Z" fill="#C461B5"/>
<path d="M41.926 50.5362C33.194 55.5564 22.1952 58.2946 11.4399 58.6749H16.8252V10.1924C27.5653 9.81209 38.0468 11.8049 45.7291 16.247C61.0786 25.1464 59.39 40.4959 41.926 50.5362Z" fill="#C461B4"/>
<path d="M41.5764 50.3386C32.9661 55.2979 22.0891 58.0057 11.4707 58.3708H16.8103V10.5728L16.7647 10.4968C27.3831 10.1317 37.7276 12.0941 45.3187 16.4753C60.4857 25.253 58.7971 40.4199 41.5764 50.3386Z" fill="#C562B3"/>
<path d="M41.2264 50.1408C32.7225 55.0393 21.9825 57.7167 11.501 58.0818H16.8102V10.801H16.7341C27.2156 10.4359 37.4385 12.3679 44.9231 16.7035C59.8923 25.3747 58.2341 40.3439 41.2264 50.1256V50.1408Z" fill="#C563B2"/>
<path d="M40.8764 49.9431C32.479 54.7807 21.8758 57.4124 11.5312 57.7775H16.81V11.1053H16.7035C27.0481 10.7402 37.1493 12.657 44.5274 16.9317C59.2988 25.4964 57.6711 40.2678 40.8764 49.9278V49.9431Z" fill="#C564B1"/>
<path d="M40.5268 49.7301C32.2359 54.5068 21.7697 57.1082 11.562 57.4581H16.8104V11.4096H16.6582C26.8659 11.0445 36.8301 12.946 44.1322 17.1599C58.7211 25.6029 57.1085 40.1918 40.5268 49.7301Z" fill="#C664B0"/>
<path d="M40.1768 49.5322C31.9924 54.2329 21.6782 56.819 11.5923 57.1689H16.8102V11.7137H16.6277C26.6984 11.3638 36.5409 13.2197 43.7365 17.388C58.1276 25.7245 56.5303 40.1156 40.1768 49.5322Z" fill="#C665AF"/>
<path d="M39.8419 49.3344C31.764 53.9743 21.5867 56.5148 11.6377 56.8647H16.81V12.0179H16.597C26.546 11.6681 36.2365 13.5088 43.3407 17.6314C57.5493 25.8614 55.9672 40.0548 39.8266 49.3497L39.8419 49.3344Z" fill="#C766AE"/>
<path d="M39.4923 49.1368C31.5361 53.7158 21.4806 56.2258 11.6685 56.5605H16.8103V12.3071H16.5669C26.379 11.9572 35.9478 13.7827 42.9456 17.8445C56.9564 25.9528 55.4047 39.9636 39.4771 49.1368H39.4923Z" fill="#C766AD"/>
<path d="M39.1423 48.9237C31.2926 53.4418 21.3739 55.9062 11.6987 56.2561H16.8102V12.6112H16.5363C26.2115 12.2765 35.6434 14.0564 42.5651 18.0725C56.3781 26.0743 54.8569 39.8874 39.1423 48.9237Z" fill="#C767AC"/>
<path d="M38.7922 48.7259C31.049 53.1832 21.2825 55.6172 11.729 55.9519H16.81V12.9155H16.4905C26.0288 12.5808 35.339 14.3454 42.1542 18.3007C55.7847 26.1961 54.2786 39.8113 38.7922 48.7259Z" fill="#C868AB"/>
<path d="M38.4426 48.5282C30.8059 52.9246 21.1763 55.3282 11.7749 55.6477H16.8255V13.2197H16.4756C25.877 12.885 35.0502 14.6345 41.7741 18.5289C55.2069 26.3178 53.716 39.7353 38.4578 48.5282H38.4426Z" fill="#C869AA"/>
<path d="M38.0925 48.3305C30.5623 52.6661 21.0696 55.0241 11.8052 55.3587H16.8101V13.5241H16.4298C25.6943 13.2046 34.7458 14.9084 41.3633 18.7572C54.6134 26.4244 53.1378 39.6746 38.0925 48.3305Z" fill="#C969A9"/>
<path d="M37.7425 48.1175C30.3188 52.3923 20.963 54.7198 11.8354 55.0393H16.81V13.8284H16.3992C25.542 13.5089 34.4566 15.1975 40.9828 18.9854C54.0352 26.5461 52.59 39.5985 37.7577 48.1328L37.7425 48.1175Z" fill="#C96AA8"/>
<path d="M37.4081 47.9198C30.106 52.1185 20.872 54.4156 11.8813 54.735H16.8254V14.1326H16.3843C25.3901 13.8132 34.1678 15.4865 40.6027 19.2136C53.4574 26.6678 52.0426 39.5224 37.4233 47.935L37.4081 47.9198Z" fill="#C96BA7"/>
<path d="M37.058 47.7219C29.8625 51.8597 20.7806 54.1264 11.9116 54.4459H16.8253V14.4367H16.3385C25.2074 14.1325 33.8634 15.7754 40.1918 19.4417C52.8639 26.7742 51.4492 39.4463 37.058 47.7219Z" fill="#CA6BA6"/>
<path d="M36.708 47.5242C29.6189 51.6011 20.6739 53.8374 11.9419 54.1416H16.8251V14.741H16.3079C25.0399 14.4368 33.559 16.0493 39.7962 19.6699C52.2705 26.8959 50.8861 39.3702 36.708 47.5242Z" fill="#CA6CA5"/>
<path d="M36.3584 47.3264C29.3759 51.3425 20.5678 53.5331 11.9727 53.8374H16.8103V15.0453H16.2626C24.8577 14.741 33.2551 16.3383 39.3858 19.8981C51.6623 27.0176 50.3084 39.2941 36.3432 47.3264H36.3584Z" fill="#CB6DA4"/>
<path d="M36.0084 47.1134C29.1323 51.0687 20.4611 53.2289 12.0029 53.5179H16.8101V15.3495H16.232C24.6902 15.0453 32.9507 16.6274 39.0053 20.1263C51.0993 27.1241 49.7606 39.2181 36.0084 47.1286V47.1134Z" fill="#CB6EA3"/>
<path d="M35.6584 46.9155C28.8888 50.81 20.3697 52.9397 12.0332 53.2288H16.81V15.6537H16.2015C24.538 15.3646 32.6615 16.9011 38.6096 20.3544C50.5059 27.2457 49.1976 39.1419 35.6736 46.9308L35.6584 46.9155Z" fill="#CB6EA2"/>
<path d="M35.3239 46.7178C28.676 50.5514 20.2787 52.6355 12.0791 52.9245H16.8254V15.9579H16.1713C24.3709 15.6689 32.3575 17.1901 38.2143 20.5825C49.928 27.3674 48.6198 39.0659 35.3239 46.733V46.7178Z" fill="#CC6FA1"/>
<path d="M34.9739 46.5201C28.4325 50.2928 20.1721 52.3465 12.1094 52.6204H16.8253V16.247H16.1407C24.2034 15.958 32.0683 17.4641 37.8187 20.7956C49.3346 27.4587 48.0567 38.9747 34.9739 46.5049V46.5201Z" fill="#CC70A0"/>
<path d="M34.6239 46.3073C28.1889 50.0039 20.0654 52.0272 12.1396 52.3162H16.8099V16.5514H16.0949C24.0207 16.2776 31.7639 17.738 37.423 21.0239C48.7412 27.5806 47.4937 38.8987 34.6239 46.3073Z" fill="#CC709F"/>
<path d="M34.2743 46.1093C27.9459 49.7451 19.9593 51.7379 12.1704 52.0117H16.8103V16.8554H16.0648C23.8537 16.5816 31.46 18.0268 37.0278 21.2519C48.1634 27.702 46.9312 38.8224 34.2743 46.1093Z" fill="#CD719E"/>
<path d="M33.9243 45.9115C27.7023 49.4865 19.8678 51.4489 12.2007 51.7075H16.8101V17.1597H16.0343C23.6862 16.8859 31.1708 18.3159 36.6321 21.4801C47.57 27.8237 46.3682 38.7464 33.9243 45.9115Z" fill="#CD729D"/>
<path d="M33.5742 45.7139C27.474 49.228 19.7612 51.1448 12.231 51.4186H16.8099V17.4641H15.9885C23.5187 17.2055 30.8512 18.5898 36.2212 21.7084C46.9613 27.9303 45.7747 38.6857 33.559 45.7139H33.5742Z" fill="#CE739C"/>
<path d="M33.2247 45.5009C27.2309 48.9542 19.655 50.8405 12.2617 51.0991H16.8103V17.7683H15.9584C23.3517 17.5097 30.5625 18.8789 35.8412 21.9366C46.3988 28.052 45.2274 38.6096 33.2247 45.5161V45.5009Z" fill="#CE739B"/>
<path d="M32.8898 45.3031C27.0025 48.6956 19.5635 50.5515 12.3071 50.7949H16.8101V18.0726H15.9277C23.1841 17.814 30.258 19.1679 35.4455 22.1648C45.8053 28.1738 44.6643 38.5335 32.8898 45.3031Z" fill="#CE749A"/>
<path d="M32.5397 45.1053C26.7589 48.4368 19.4569 50.2471 12.3374 50.5057H16.8099V18.3767H15.8972C23.0166 18.1333 29.9688 19.4416 35.0498 22.3929C45.227 28.2801 44.1013 38.4574 32.5397 45.1053Z" fill="#CF7599"/>
<path d="M32.1902 44.9075C26.5159 48.1782 19.366 49.9581 12.3682 50.2015H16.8102V18.681H15.8671C22.8496 18.4376 29.6649 19.7307 34.6546 22.6211C44.6341 28.4018 43.5236 38.3813 32.1902 44.9075Z" fill="#CF7598"/>
<path d="M31.8401 44.7097C26.2723 47.9044 19.2593 49.6538 12.3984 49.8972H16.8101V18.9852H15.8213C22.6669 18.7418 29.3605 20.0197 34.2589 22.8492C44.0406 28.5235 42.9605 38.3052 31.8401 44.7097Z" fill="#D07697"/>
<path d="M31.4905 44.4969C26.0444 47.6307 19.1531 49.3497 12.4443 49.5779H16.8256V19.2896H15.8063C22.5303 19.0614 29.0717 20.2937 33.8789 23.0776C43.478 28.6302 42.4131 38.2293 31.5057 44.5121L31.4905 44.4969Z" fill="#D07796"/>
<path d="M31.1405 44.2991C25.8008 47.3721 19.0465 49.0607 12.4746 49.2889H16.8102V19.5939H15.7605C22.3476 19.3657 28.7673 20.5827 33.468 23.3058C42.8694 28.7519 41.8349 38.1533 31.1405 44.2991Z" fill="#D07895"/>
<path d="M30.8056 44.1014C25.5724 47.1135 18.9702 48.7564 12.52 48.9846H16.8252V19.8981H15.7451C22.1952 19.67 28.4932 20.8718 33.0875 23.534C42.3063 28.8736 41.287 38.0772 30.8056 44.1014Z" fill="#D17894"/>
<path d="M30.456 43.9035C25.3294 46.8547 18.864 48.4673 12.5508 48.6803H16.8255V20.1871H15.6998C22.013 19.9589 28.1741 21.1302 32.6923 23.7468C41.7133 28.9647 40.7093 37.9858 30.456 43.8883V43.9035Z" fill="#D17993"/>
<path d="M30.106 43.6906C25.0858 46.581 18.7574 48.1631 12.5811 48.3761H16.8254V20.4914H15.6692C21.8455 20.2784 27.8849 21.4194 32.2966 23.9751C41.1199 29.0865 40.1463 37.9098 30.1212 43.6906H30.106Z" fill="#D27A92"/>
<path d="M29.7559 43.4929C24.8423 46.3224 18.6507 47.8589 12.6113 48.0718H16.81V20.7957H15.6234C21.6628 20.5827 27.5653 21.7084 31.8857 24.2033C40.5264 29.2082 39.568 37.8338 29.7559 43.4929Z" fill="#D27A91"/>
<path d="M29.4064 43.2951C24.6144 46.0638 18.5446 47.5699 12.6421 47.7676H16.8103V21.1H15.5933C21.511 20.887 27.2766 21.9823 31.4905 24.4315C39.9335 29.33 39.0055 37.773 29.4064 43.2951Z" fill="#D27B90"/>
<path d="M29.0563 43.0972C24.3708 45.7899 18.4531 47.2655 12.6724 47.4784H16.8102V21.4041H15.5628C21.3435 21.2063 26.9722 22.2712 31.11 24.6596C39.3705 29.4363 38.4425 37.6968 29.0715 43.082L29.0563 43.0972Z" fill="#D37C8F"/>
<path d="M28.7214 42.8842C24.1424 45.516 18.3616 46.9612 12.7178 47.159H16.8252V21.7083H15.5321C21.176 21.5106 26.6829 22.5602 30.7143 24.8877C38.777 29.558 37.8794 37.6207 28.7214 42.8842Z" fill="#D37D8E"/>
<path d="M28.3719 42.6865C23.8994 45.2574 18.2555 46.6722 12.7485 46.8548H16.8255V22.0126H15.502C21.009 21.8148 26.379 22.8341 30.3191 25.116C38.184 29.6798 37.3169 37.5447 28.3719 42.6865Z" fill="#D37D8D"/>
<path d="M28.0218 42.4889C23.6558 44.9989 18.1489 46.3681 12.7788 46.5658H16.8101V22.317H15.4562C20.8263 22.1344 26.0746 23.1232 29.9082 25.3443C37.5906 29.7863 36.7386 37.4687 28.0066 42.4889H28.0218Z" fill="#D47E8C"/>
<path d="M27.6718 42.2911C23.4123 44.7403 18.0574 46.079 12.8091 46.2616H16.81V22.6212H15.4256C20.6588 22.4387 25.7854 23.4123 29.5277 25.5725C37.0123 29.908 36.1908 37.3926 27.6718 42.2911Z" fill="#D47F8B"/>
<path d="M27.3222 42.0934C23.1844 44.4817 17.9513 45.7748 12.8398 45.9574H16.8103V22.9255H15.3956C20.507 22.7429 25.4815 23.6861 29.1325 25.8007C36.4194 30.0298 35.6131 37.3166 27.3222 42.0934Z" fill="#D5808A"/>
<path d="M26.9722 41.8803C22.9409 44.2078 17.8446 45.4704 12.8701 45.653H16.8102V23.2296H15.3498C20.3243 23.0623 25.1771 23.975 28.7216 26.0287C35.8259 30.1361 35.0349 37.2404 26.9722 41.8803Z" fill="#D58089"/>
<path d="M26.6222 41.6825C22.6973 43.9492 17.738 45.1814 12.9004 45.3487H16.81V23.5339H15.3192C20.1568 23.3665 24.8727 24.2641 28.326 26.2569C35.2325 30.2578 34.4719 37.1644 26.6222 41.6825Z" fill="#D58188"/>
<path d="M26.2877 41.4848C22.4694 43.6754 17.647 44.8772 12.9463 45.0445H16.8103V23.8381H15.289C19.9897 23.6708 24.5839 24.5379 27.9459 26.4851C34.6699 30.3796 33.9245 37.0883 26.2877 41.4848Z" fill="#D68287"/>
<path d="M25.9377 41.2871C22.2258 43.4169 17.5556 44.5882 12.9766 44.7404H16.8101V24.1273H15.2585C19.8222 23.9599 24.2795 24.8119 27.5502 26.6982C34.0764 30.4709 33.3462 36.9971 25.9377 41.2719V41.2871Z" fill="#D68286"/>
<path d="M25.5877 41.074C21.9823 43.1429 17.4489 44.2838 13.0068 44.4359H16.81V24.4314H15.2279C19.6547 24.2793 23.9903 25.1007 27.1546 26.9263C33.483 30.5925 32.7832 36.9209 25.5877 41.074Z" fill="#D78385"/>
<path d="M25.2381 40.8762C21.7544 42.8843 17.3428 43.9796 13.0376 44.1317H16.8103V24.7357H15.1826C19.4877 24.5835 23.6712 25.3746 26.7441 27.1545C32.89 30.7142 32.2055 36.8449 25.2229 40.8762H25.2381Z" fill="#D78484"/>
<path d="M24.8881 40.6785C21.5109 42.6257 17.2361 43.6906 13.0679 43.8275H16.8102V25.0399H15.152C19.3202 24.8878 23.382 25.6637 26.3485 27.3827C32.2966 30.8359 31.6425 36.7841 24.8728 40.6633L24.8881 40.6785Z" fill="#D78583"/>
<path d="M24.5379 40.4807C21.2672 42.3671 17.1294 43.3864 13.1133 43.5385H16.8099V25.3594H15.1213C19.1527 25.2225 23.0775 25.9679 25.9679 27.6261C31.7183 30.9577 31.0946 36.7232 24.5379 40.4807Z" fill="#D88582"/>
<path d="M24.2035 40.2679C21.0393 42.0934 17.0536 43.0822 13.1592 43.2191H16.8254V25.6486H15.1064C19.0008 25.5116 22.804 26.2266 25.5879 27.8392C31.1557 31.0642 30.532 36.6321 24.2187 40.2679H24.2035Z" fill="#D88681"/>
<path d="M23.8535 40.07C20.7958 41.8346 16.947 42.793 13.1895 42.9147H16.8253V25.9374H15.0758C18.8333 25.8005 22.5148 26.5003 25.1922 28.052C30.5622 31.1706 29.9689 36.5406 23.8687 40.0547L23.8535 40.07Z" fill="#D98780"/>
<path d="M23.5034 39.8722C20.5522 41.5608 16.8403 42.4888 13.2197 42.6257H16.8251V26.2569H15.03C18.6506 26.1352 22.1952 26.8046 24.7813 28.2954C29.9688 31.2923 29.3907 36.4798 23.5034 39.8722Z" fill="#D9877F"/>
<path d="M23.1539 39.6745C20.3243 41.3022 16.7342 42.1998 13.2505 42.3215H16.8254V26.5612H14.9999C18.4988 26.4395 21.9065 27.0784 24.4013 28.5236C29.3911 31.414 28.8434 36.4038 23.1691 39.6593L23.1539 39.6745Z" fill="#D9887E"/>
<path d="M22.8038 39.4767C20.0808 41.0436 16.6427 41.9107 13.2808 42.0172H16.8101V26.8655H14.9541C18.3161 26.7438 21.5868 27.3675 23.9904 28.7518C28.7824 31.5357 28.25 36.3277 22.8038 39.4615V39.4767Z" fill="#DA897D"/>
<path d="M22.4538 39.2636C19.8372 40.7697 16.5361 41.5911 13.311 41.7128H16.8099V27.1696H14.9236C18.1486 27.0631 21.2976 27.6564 23.5948 28.9951C28.2042 31.6573 27.6869 36.2667 22.4538 39.2788V39.2636Z" fill="#DA8A7C"/>
<path d="M22.1194 39.0658C19.6093 40.511 16.4451 41.3021 13.3569 41.4086H16.8254V27.4738H14.9086C17.9968 27.3674 21.0089 27.9454 23.2147 29.2233C27.6264 31.779 27.1395 36.1907 22.1194 39.0811V39.0658Z" fill="#DA8A7B"/>
<path d="M21.7696 38.8681C19.366 40.2525 16.3387 40.9979 13.3875 41.1044H16.8255V30.0144H6.48096C11.2729 27.2457 18.5902 27.0023 22.8193 29.4363C27.0484 31.8856 26.5768 36.0995 21.7696 38.8681Z" fill="#DB8B7A"/>
<path d="M21.4194 38.6705C19.1223 39.994 16.232 40.709 13.4176 40.8002H16.8252V30.2123H6.83057C11.4096 27.5805 18.3921 27.3371 22.4235 29.6646C26.4548 31.9922 26.0137 36.0235 21.4194 38.6705Z" fill="#DB8C79"/>
<path d="M21.0697 38.4575C16.7036 40.9675 10.0557 41.1957 6.22217 38.9747H16.8101V30.41H7.16535C11.5314 27.8999 18.1793 27.6717 22.0128 29.8928C25.8464 32.1138 25.4205 35.9474 21.0697 38.4575Z" fill="#DC8C78"/>
<path d="M20.7198 38.2596C16.5819 40.648 10.2535 40.861 6.61768 38.7465H16.8253V30.6077H7.53043C11.6683 28.2193 17.9967 28.0064 21.6325 30.1209C25.2835 32.2355 24.8728 35.8713 20.735 38.2596H20.7198Z" fill="#DC8D77"/>
<path d="M20.3699 38.062C16.4451 40.3286 10.4665 40.5264 6.99805 38.5335H16.8102V30.8208H7.86517C11.79 28.5541 17.7686 28.3563 21.237 30.3492C24.6903 32.3572 24.31 35.8105 20.3851 38.062H20.3699Z" fill="#DC8E76"/>
<path d="M20.02 37.864C16.3081 39.9938 10.6643 40.1916 7.39355 38.3052H16.8102V31.0184H8.19982C11.9117 28.8886 17.5556 28.6908 20.8263 30.5772C24.0818 32.4636 23.7319 35.7343 20.02 37.864Z" fill="#DD8F75"/>
<path d="M19.6852 37.6511C16.2016 39.6592 10.8771 39.8417 7.8042 38.0618H16.8253V31.201H8.56483C12.0485 29.1929 17.3729 29.0103 20.4459 30.7902C23.5188 32.5701 23.1841 35.643 19.6852 37.6511Z" fill="#DD8F74"/>
<path d="M19.3353 37.4534C16.0646 39.3398 11.0749 39.5071 8.19971 37.8489H16.8253V31.414H8.9147C12.1854 29.5276 17.1751 29.3603 20.0503 31.0185C22.9255 32.6919 22.606 35.567 19.3353 37.4534Z" fill="#DE9073"/>
<path d="M18.9854 37.2558C15.9277 39.0204 11.2726 39.1725 8.59521 37.6209H16.8252V31.6271H9.26457C12.3223 29.8624 16.9774 29.7103 19.6548 31.262C22.3474 32.8137 22.0431 35.5063 18.9854 37.2558Z" fill="#DE9172"/>
<path d="M18.6355 37.0579C15.806 38.6856 11.4856 38.8377 8.99072 37.3925H16.8252V31.8247H9.61444C12.444 30.197 16.7644 30.0448 19.2592 31.49C21.7541 32.9352 21.4803 35.4301 18.6355 37.0579Z" fill="#DE9171"/>
<path d="M18.2857 36.8602C15.6691 38.3662 11.6834 38.5031 9.37109 37.1796H16.8101V32.0378H9.94917C12.5657 30.5317 16.5514 30.3948 18.8638 31.7183C21.1609 33.057 20.9175 35.3541 18.3009 36.8602H18.2857Z" fill="#DF9270"/>
<path d="M17.9358 36.6472C15.5322 38.0316 11.8812 38.1533 9.7666 36.9362H16.81V32.2203H10.299C12.7026 30.836 16.3537 30.7143 18.4682 31.9313C20.5828 33.1483 20.3394 35.2629 17.951 36.6472H17.9358Z" fill="#DF936F"/>
<path d="M17.601 36.4494C15.4256 37.712 12.094 37.8185 10.1772 36.708H16.8252V32.4181H10.6488C12.8242 31.1554 16.1558 31.0489 18.0726 32.1594C19.9894 33.27 19.7764 35.1868 17.601 36.4494Z" fill="#E0946E"/>
<path d="M17.2511 36.2517C15.2887 37.3775 12.2918 37.484 10.5728 36.4799H16.8251V32.6159H10.9987C12.9611 31.4902 15.958 31.3837 17.677 32.3877C19.4113 33.3918 19.2135 35.1108 17.2511 36.2517Z" fill="#E0946D"/>
</g>
<path d="M144.656 49.2585L84.8709 83.8671C82.4825 85.2515 78.8771 85.3884 76.8082 84.2018L20.3999 51.6316C19.7154 51.2361 19.3198 50.7493 19.1373 50.2169C18.8178 51.1905 19.1981 52.1793 20.3999 52.8791L76.8082 85.4492C78.8771 86.6358 82.4825 86.4989 84.8709 85.1146L144.656 50.5059C146.254 49.5779 146.877 48.3457 146.497 47.2656C146.254 47.9806 145.66 48.6804 144.656 49.2585Z" fill="white"/>
<path d="M27.1546 118.582L27.0938 72.3815C27.0938 70.6929 28.4629 70.0996 30.1515 71.0884L72.6403 95.4742C74.3289 96.4478 75.7132 98.608 75.7132 100.312L75.7741 146.512C75.7741 148.201 74.4049 148.794 72.7163 147.806L30.2275 123.42C28.5389 122.446 27.1546 120.286 27.1546 118.582Z" fill="url(#paint13_linear_243_4197)"/>
<path opacity="0.4" d="M27.1546 118.582L27.0938 72.3815C27.0938 70.6929 28.4629 70.0996 30.1515 71.0884L72.6403 95.4742C74.3289 96.4478 75.7132 98.608 75.7132 100.312L75.7741 146.512C75.7741 148.201 74.4049 148.794 72.7163 147.806L30.2275 123.42C28.5389 122.446 27.1546 120.286 27.1546 118.582Z" fill="#06033E"/>
<path d="M33.361 121.184C31.6724 120.21 30.288 118.05 30.288 116.346L30.2272 71.119L30.1511 71.0734C28.4625 70.0998 27.0782 70.6778 27.0934 72.3664L27.1542 118.567C27.1542 120.256 28.5386 122.416 30.2272 123.405L72.716 147.791C74.4046 148.764 75.7889 148.186 75.7737 146.497V145.539L33.361 121.184Z" fill="url(#paint14_linear_243_4197)"/>
<path opacity="0.4" d="M138.328 118.582L138.389 72.3815C138.389 70.6929 137.02 70.0996 135.331 71.0884L92.8423 95.4742C91.1537 96.4478 89.7693 98.608 89.7693 100.312L89.7085 146.512C89.7085 148.201 91.0776 148.794 92.7662 147.806L135.255 123.42C136.944 122.446 138.328 120.286 138.328 118.582Z" fill="#06033E"/>
<path opacity="0.4" d="M132.121 121.184C133.81 120.21 135.194 118.05 135.194 116.346L135.255 71.119L135.331 71.0734C137.02 70.0998 138.404 70.6778 138.389 72.3664L138.328 118.567C138.328 120.256 136.944 122.416 135.255 123.405L92.7663 147.791C91.0778 148.764 89.6934 148.186 89.7086 146.497V145.539L132.121 121.184Z" fill="#06033E"/>
<path opacity="0.4" d="M81.0376 76.2914C79.9727 76.2914 78.9535 76.0632 78.1624 75.622L38.1533 52.5293C37.271 52.0121 36.7842 51.2819 36.7842 50.43C36.7842 49.4716 37.4383 48.5588 38.5641 47.9047L80.9616 23.3668C82.8936 22.2562 85.7383 22.1497 87.4421 23.1234L127.451 46.2161C128.334 46.7181 128.82 47.4635 128.82 48.3002C128.82 49.2586 128.166 50.1713 127.041 50.8255L84.643 75.3634C83.5933 75.9719 82.2851 76.2762 81.0376 76.2762V76.2914ZM84.5974 23.96C83.6086 23.96 82.5437 24.2034 81.7374 24.6598L39.3399 49.1977C38.701 49.5628 38.3207 50.0192 38.3207 50.4147C38.3207 50.8103 38.701 51.0537 38.9292 51.1906L78.9383 74.2833C80.1705 74.9983 82.4372 74.8918 83.8976 74.0399L126.295 49.502C126.919 49.1369 127.314 48.6805 127.314 48.3002C127.314 47.9199 126.934 47.6613 126.706 47.5244L86.6967 24.4316C86.1491 24.1122 85.3884 23.96 84.5974 23.96Z" fill="#06033E"/>
<path opacity="0.5" d="M64.8818 113.395L64.5319 113.182C63.2236 112.421 62.1436 110.368 62.1436 108.618V102.564C62.1436 100.814 63.2236 100.008 64.5319 100.753L64.8818 100.966C66.1901 101.727 67.2702 103.781 67.2702 105.53V111.585C67.2702 113.334 66.1901 114.14 64.8818 113.395Z" fill="#E8975B"/>
<path d="M64.8818 131.27L64.5319 131.057C63.2236 130.296 62.1436 128.242 62.1436 126.493V120.438C62.1436 118.689 63.2236 117.883 64.5319 118.628L64.8818 118.841C66.1901 119.602 67.2702 121.655 67.2702 123.405V129.459C67.2702 131.209 66.1901 132.015 64.8818 131.27Z" fill="#E8975B"/>
<path d="M53.3506 106.732L53.0007 106.519C51.6924 105.758 50.6123 103.705 50.6123 101.955V95.9005C50.6123 94.151 51.6924 93.3447 53.0007 94.0902L53.3506 94.3031C54.6589 95.0638 55.7389 97.1175 55.7389 98.8669V104.922C55.7389 106.671 54.6589 107.477 53.3506 106.732Z" fill="#F8359E"/>
<path d="M53.3506 124.607L53.0007 124.394C51.6924 123.633 50.6123 121.579 50.6123 119.83V113.775C50.6123 112.026 51.6924 111.219 53.0007 111.965L53.3506 112.178C54.6589 112.939 55.7389 114.992 55.7389 116.742V122.796C55.7389 124.546 54.6589 125.352 53.3506 124.607Z" fill="#F8359E"/>
<path d="M41.8193 100.084L41.4694 99.8709C40.1611 99.1103 39.0811 97.0566 39.0811 95.3071V89.2525C39.0811 87.5031 40.1611 86.6968 41.4694 87.4422L41.8193 87.6552C43.1276 88.4158 44.2077 90.4695 44.2077 92.219V98.2736C44.2077 100.023 43.1276 100.829 41.8193 100.084Z" fill="#E8975B"/>
<path opacity="0.5" d="M41.8193 117.959L41.4694 117.746C40.1611 116.985 39.0811 114.931 39.0811 113.182V107.127C39.0811 105.378 40.1611 104.572 41.4694 105.317L41.8193 105.53C43.1276 106.291 44.2077 108.344 44.2077 110.094V116.148C44.2077 117.898 43.1276 118.704 41.8193 117.959Z" fill="#E8975B"/>
<path d="M81.8136 291.413C80.1858 292.356 77.554 292.356 75.9415 291.413C74.3138 290.469 74.3138 288.963 75.9415 288.02C77.5693 287.077 80.201 287.077 81.8136 288.02C83.4413 288.963 83.4413 290.469 81.8136 291.413Z" fill="#E39A65"/>
<path d="M101.544 302.791C99.9165 303.735 97.2847 303.735 95.6721 302.791C94.0596 301.848 94.0444 300.342 95.6721 299.399C97.2999 298.456 99.9317 298.456 101.544 299.399C103.172 300.342 103.172 301.848 101.544 302.791Z" fill="#E82B88"/>
<path d="M121.275 314.186C119.647 315.129 117.015 315.129 115.403 314.186C113.775 313.243 113.775 311.737 115.403 310.793C117.031 309.85 119.662 309.85 121.275 310.793C122.903 311.737 122.903 313.243 121.275 314.186Z" fill="#E82B88"/>
</g>
<path d="M235.753 202.573C236.572 203.151 236.917 204.364 236.524 205.287L235.831 206.93C235.438 207.853 234.468 208.128 233.666 207.545C232.847 206.967 232.502 205.754 232.895 204.832L233.588 203.188C233.981 202.266 234.951 201.99 235.753 202.573Z" fill="#6F2A9F"/>
<path d="M232.99 189.626C233.809 190.204 234.154 191.417 233.761 192.34L229.533 202.421C229.14 203.344 228.171 203.62 227.369 203.037C226.549 202.459 226.204 201.245 226.597 200.323L230.825 190.241C231.218 189.318 232.188 189.043 232.99 189.626Z" fill="#6F2A9F"/>
<path d="M199.483 171.766C200.303 172.344 200.647 173.557 200.255 174.479L197.966 179.928C197.573 180.851 196.604 181.126 195.802 180.543C194.982 179.965 194.637 178.752 195.03 177.83L197.318 172.381C197.711 171.458 198.681 171.183 199.483 171.766Z" fill="#6F2A9F"/>
<path d="M205.504 176.948C206.323 177.526 206.668 178.739 206.275 179.661L204.281 184.432C203.888 185.354 202.918 185.63 202.116 185.047C201.296 184.469 200.952 183.256 201.345 182.333L203.339 177.563C203.732 176.64 204.702 176.365 205.504 176.948Z" fill="#6F2A9F"/>
<path d="M218.981 164.44C219.801 165.018 220.145 166.231 219.753 167.154L210.592 188.923C210.199 189.846 209.23 190.121 208.428 189.538C207.608 188.96 207.263 187.747 207.656 186.824L216.817 165.055C217.209 164.132 218.179 163.857 218.981 164.44Z" fill="#6F2A9F"/>
<path d="M219.472 182.763C220.292 183.341 220.637 184.554 220.244 185.477L216.907 193.427C216.514 194.349 215.544 194.625 214.742 194.042C213.923 193.464 213.578 192.251 213.971 191.328L217.308 183.378C217.701 182.456 218.67 182.18 219.472 182.763Z" fill="#6F2A9F"/>
<path d="M224.445 190.446C225.264 191.024 225.609 192.238 225.216 193.16L223.222 197.93C222.829 198.853 221.859 199.129 221.057 198.546C220.237 197.968 219.893 196.755 220.285 195.832L222.28 191.062C222.673 190.139 223.643 189.863 224.445 190.446Z" fill="#6F2A9F"/>
<path d="M197.905 175.566C198.724 176.144 199.069 177.357 198.676 178.28L197.983 179.923C197.59 180.846 196.62 181.121 195.818 180.538C194.999 179.96 194.654 178.747 195.047 177.825L195.74 176.181C196.133 175.259 197.103 174.983 197.905 175.566Z" fill="#6F2A9F"/>
<path d="M200.061 150.949C200.881 151.527 201.225 152.74 200.833 153.663L191.672 175.432C191.279 176.355 190.31 176.63 189.508 176.047C188.688 175.469 188.343 174.256 188.736 173.333L197.897 151.564C198.289 150.641 199.259 150.366 200.061 150.949Z" fill="#6F2A9F"/>
<path d="M191.516 151.769C192.335 152.347 192.68 153.56 192.287 154.483L185.357 170.928C184.964 171.851 183.994 172.126 183.192 171.543C182.373 170.965 182.028 169.752 182.421 168.83L189.351 152.384C189.744 151.462 190.714 151.186 191.516 151.769Z" fill="#6F2A9F"/>
<defs>
<radialGradient id="paint0_radial_243_4197" cx="0" cy="0" r="1" gradientUnits="userSpaceOnUse" gradientTransform="translate(28.6455 229.421) scale(353.982 353.982)">
<stop stop-color="#E39A65"/>
<stop offset="0.28" stop-color="#A92FFB"/>
<stop offset="0.33" stop-color="#881BFA"/>
<stop offset="0.4" stop-color="#6507FA"/>
<stop offset="0.54" stop-color="#0D0C6F"/>
</radialGradient>
<radialGradient id="paint1_radial_243_4197" cx="0" cy="0" r="1" gradientUnits="userSpaceOnUse" gradientTransform="translate(88.5527 126.554) scale(467.27 467.27)">
<stop stop-color="#E39A65"/>
<stop offset="0.41" stop-color="#A92FFB"/>
<stop offset="0.55" stop-color="#881BFA"/>
<stop offset="0.73" stop-color="#6507FA"/>
<stop offset="0.74" stop-color="#6308F8"/>
<stop offset="1" stop-color="#3919BB"/>
</radialGradient>
<radialGradient id="paint2_radial_243_4197" cx="0" cy="0" r="1" gradientUnits="userSpaceOnUse" gradientTransform="translate(106.717 138.785) scale(293.527 293.527)">
<stop stop-color="#6507FA"/>
<stop offset="1" stop-color="#3919BB"/>
</radialGradient>
<linearGradient id="paint3_linear_243_4197" x1="172.296" y1="292.943" x2="145.03" y2="246.115" gradientUnits="userSpaceOnUse">
<stop stop-color="#E39A65"/>
<stop offset="1" stop-color="#E95F8D"/>
</linearGradient>
<linearGradient id="paint4_linear_243_4197" x1="193.829" y1="280.405" x2="166.564" y2="233.577" gradientUnits="userSpaceOnUse">
<stop stop-color="#E39A65"/>
<stop offset="1" stop-color="#E95F8D"/>
</linearGradient>
<linearGradient id="paint5_linear_243_4197" x1="215.377" y1="267.859" x2="188.111" y2="221.031" gradientUnits="userSpaceOnUse">
<stop stop-color="#E39A65"/>
<stop offset="1" stop-color="#E95F8D"/>
</linearGradient>
<linearGradient id="paint6_linear_243_4197" x1="236.911" y1="255.321" x2="209.645" y2="208.493" gradientUnits="userSpaceOnUse">
<stop stop-color="#E39A65"/>
<stop offset="1" stop-color="#E95F8D"/>
</linearGradient>
<linearGradient id="paint7_linear_243_4197" x1="258.458" y1="242.775" x2="231.192" y2="195.947" gradientUnits="userSpaceOnUse">
<stop stop-color="#E39A65"/>
<stop offset="1" stop-color="#E95F8D"/>
</linearGradient>
<linearGradient id="paint8_linear_243_4197" x1="280.005" y1="230.23" x2="252.739" y2="183.402" gradientUnits="userSpaceOnUse">
<stop stop-color="#E39A65"/>
<stop offset="1" stop-color="#E95F8D"/>
</linearGradient>
<radialGradient id="paint9_radial_243_4197" cx="0" cy="0" r="1" gradientUnits="userSpaceOnUse" gradientTransform="translate(46.7401 199.958) rotate(59.84) scale(393.474 393.474)">
<stop stop-color="#E39A65"/>
<stop offset="0.4" stop-color="#A92FFB"/>
<stop offset="0.55" stop-color="#881BFA"/>
<stop offset="0.73" stop-color="#6507FA"/>
<stop offset="1" stop-color="#3919BB"/>
</radialGradient>
<linearGradient id="paint10_linear_243_4197" x1="215.164" y1="179.084" x2="262.276" y2="260.16" gradientUnits="userSpaceOnUse">
<stop stop-color="#5B04F7"/>
<stop offset="1" stop-color="#2D0979"/>
</linearGradient>
<radialGradient id="paint11_radial_243_4197" cx="0" cy="0" r="1" gradientUnits="userSpaceOnUse" gradientTransform="translate(184.717 112.393) rotate(59.84) scale(234.228 234.228)">
<stop stop-color="#E39A65"/>
<stop offset="0.4" stop-color="#A92FFB"/>
<stop offset="0.55" stop-color="#881BFA"/>
<stop offset="0.73" stop-color="#6507FA"/>
<stop offset="1" stop-color="#3919BB"/>
</radialGradient>
<linearGradient id="paint12_linear_243_4197" x1="5.56769" y1="94.8658" x2="147.608" y2="94.8658" gradientUnits="userSpaceOnUse">
<stop stop-color="#E39A65"/>
<stop offset="0.25" stop-color="#A92FFB"/>
<stop offset="0.56" stop-color="#3919BB"/>
</linearGradient>
<linearGradient id="paint13_linear_243_4197" x1="11.0597" y1="86.6814" x2="68.472" y2="119.054" gradientUnits="userSpaceOnUse">
<stop stop-color="#3919BB"/>
<stop offset="1" stop-color="#6507FA"/>
</linearGradient>
<linearGradient id="paint14_linear_243_4197" x1="19.4871" y1="91.4278" x2="56.4993" y2="112.315" gradientUnits="userSpaceOnUse">
<stop stop-color="#131060"/>
<stop offset="0.21" stop-color="#140F62"/>
<stop offset="0.32" stop-color="#190F6A"/>
<stop offset="0.4" stop-color="#220F77"/>
<stop offset="0.48" stop-color="#2E0F8A"/>
<stop offset="0.54" stop-color="#3E0EA3"/>
<stop offset="0.6" stop-color="#510EC1"/>
<stop offset="0.66" stop-color="#680DE5"/>
<stop offset="0.68" stop-color="#740DF8"/>
<stop offset="0.72" stop-color="#7B16ED"/>
<stop offset="0.79" stop-color="#902FD0"/>
<stop offset="0.88" stop-color="#B357A2"/>
<stop offset="0.99" stop-color="#E18F63"/>
<stop offset="1" stop-color="#E8975B"/>
</linearGradient>
<clipPath id="clip0_243_4197">
<rect width="385.731" height="400" fill="white"/>
</clipPath>
</defs>
</svg>
