<svg width="418" height="400" viewBox="0 0 418 400" fill="none" xmlns="http://www.w3.org/2000/svg">
<path d="M134.54 236.631C134.243 236.631 133.964 236.561 133.702 236.387L73.9489 200.084C71.8361 198.792 70.6138 196.54 70.6662 194.077C70.736 191.598 72.0805 189.415 74.2632 188.245L141.245 152.38C142.031 151.96 143.026 152.257 143.445 153.043C143.865 153.829 143.568 154.824 142.782 155.243L75.7998 191.109C74.6474 191.72 73.9489 192.855 73.914 194.165C73.8791 195.457 74.5251 196.644 75.6252 197.308L135.378 233.61C136.147 234.082 136.391 235.077 135.92 235.845C135.623 236.352 135.081 236.631 134.523 236.631H134.54Z" fill="url(#paint0_linear_531_2890)"/>
<path d="M153.416 389.436C152.578 389.436 151.757 389.209 150.989 388.772C149.452 387.899 148.544 386.31 148.544 384.547V337.488C148.544 335.55 147.566 333.769 145.908 332.756L113.307 312.553C112.539 312.082 112.312 311.087 112.783 310.318C113.255 309.55 114.25 309.323 115.018 309.794L147.619 329.997C150.238 331.621 151.792 334.415 151.792 337.488V384.547C151.792 385.402 152.368 385.821 152.613 385.961C152.857 386.101 153.503 386.38 154.237 385.961L274.511 315.854C275.279 315.4 276.275 315.661 276.729 316.447C277.183 317.216 276.921 318.211 276.152 318.665L155.878 388.772C155.11 389.226 154.272 389.436 153.416 389.436Z" fill="url(#paint1_linear_531_2890)"/>
<path d="M146.309 369.46C146.309 371.59 144.58 373.302 142.467 373.302C140.355 373.302 138.626 371.573 138.626 369.46C138.626 367.347 140.355 365.619 142.467 365.619C144.58 365.619 146.309 367.347 146.309 369.46Z" fill="#24126A"/>
<path d="M184.201 326.47C184.201 328.6 182.472 330.312 180.359 330.312C178.246 330.312 176.518 328.583 176.518 326.47C176.518 324.357 178.246 322.629 180.359 322.629C182.472 322.629 184.201 324.357 184.201 326.47Z" fill="#24126A"/>
<path d="M188.635 359.699C190.757 359.699 192.477 357.979 192.477 355.858C192.477 353.736 190.757 352.016 188.635 352.016C186.514 352.016 184.794 353.736 184.794 355.858C184.794 357.979 186.514 359.699 188.635 359.699Z" fill="#24126A"/>
<path d="M109.343 348.594C109.343 350.724 107.615 352.435 105.502 352.435C103.389 352.435 101.66 350.707 101.66 348.594C101.66 346.481 103.389 344.752 105.502 344.752C107.615 344.752 109.343 346.481 109.343 348.594Z" fill="#24126A"/>
<path d="M133.126 322.594C133.126 324.724 131.397 326.435 129.284 326.435C127.172 326.435 125.443 324.707 125.443 322.594C125.443 320.481 127.172 318.752 129.284 318.752C131.397 318.752 133.126 320.481 133.126 322.594Z" fill="#24126A"/>
<path d="M147.915 336.86L105.606 345.015C105.432 345.015 105.257 345.067 105.082 345.102L105.117 344.823L103.092 344.316V346.708C103.092 346.796 103.092 346.9 103.127 346.988C103.389 347.931 104.908 348.577 106.532 348.42L148.841 340.265L147.915 336.86Z" fill="url(#paint2_linear_531_2890)"/>
<path d="M183.363 322.35L182.07 323.433C180.97 322.944 179.259 323.066 178.107 323.729L147.968 336.843L152.194 339.27L182.332 326.157C183.048 325.755 183.38 325.231 183.345 324.725V322.333L183.363 322.35Z" fill="#0C0B6B"/>
<path d="M132.13 319.416C131.379 318.56 129.581 318.229 128.114 318.665C127.939 318.717 127.782 318.77 127.625 318.84C127.555 318.717 127.468 318.595 127.363 318.49C127.101 318.229 126.473 317.862 126.473 317.862V320.254C126.473 320.499 126.577 320.743 126.787 320.987L146.239 338.746L151.547 337.174L132.095 319.416H132.13Z" fill="url(#paint3_linear_531_2890)"/>
<path d="M191.411 351.789L190.695 352.034L190.294 352.889C190.137 352.82 189.979 352.75 189.787 352.697L151.617 337.192L148.91 340.265L187.081 355.771C188.548 356.207 190.346 355.858 191.097 355.02C191.324 354.758 191.411 354.496 191.411 354.217V351.789Z" fill="#0C0B6B"/>
<path d="M146.274 338.763L140.005 365.619L139.534 365.374V367.854C139.621 368.64 140.634 369.321 142.048 369.443C143.672 369.6 145.209 368.954 145.453 368.011L152.158 339.305L146.274 338.763Z" fill="#0C0B6B"/>
<path d="M189.788 350.305L154.394 335.917L182.332 323.764C183.589 323.048 183.711 321.948 182.629 321.319L182.332 321.145C181.249 320.516 179.346 320.603 178.106 321.319L150.168 333.472L132.13 317.006C131.38 316.151 129.581 315.819 128.114 316.256C126.648 316.692 126.071 317.722 126.805 318.578L144.842 335.044L105.606 342.605C103.983 342.762 102.865 343.635 103.127 344.578C103.389 345.521 104.908 346.167 106.532 346.01L145.768 338.449L139.551 365.078C139.29 366.021 140.407 366.894 142.031 367.051C143.655 367.208 145.192 366.562 145.436 365.619L151.652 338.99L187.047 353.379C188.513 353.815 190.312 353.466 191.063 352.628C191.814 351.772 191.22 350.742 189.753 350.305H189.788ZM150.605 335.952L149.941 336.703L148.509 336.563L148.282 335.742L149.574 335.358L150.605 335.952Z" fill="url(#paint4_radial_531_2890)"/>
<path d="M149.383 338.169C147.671 338.169 146.292 336.79 146.292 335.078V299.335H152.473V335.078C152.473 336.79 151.094 338.169 149.383 338.169Z" fill="#24126A"/>
<path d="M132.952 256.886C132.882 256.083 132.358 255.315 131.345 254.739L130.699 254.372C128.307 252.992 124.116 253.167 121.357 254.756L101.853 266.019C100.386 266.874 99.6178 267.939 99.5654 268.97V272.375C99.5654 273.265 100.089 274.103 101.172 274.732L101.818 275.099C104.21 276.478 108.401 276.303 111.16 274.714L130.664 263.452C132.079 262.631 132.847 261.601 132.934 260.588V256.886H132.952Z" fill="url(#paint5_radial_531_2890)"/>
<path d="M101.8 271.798L101.154 271.431C98.762 270.052 99.0589 267.625 101.818 266.036L121.322 254.773C124.081 253.167 128.272 253.01 130.664 254.389L131.31 254.756C133.702 256.135 133.406 258.562 130.647 260.151L111.142 271.414C108.383 273.02 104.193 273.177 101.8 271.798Z" fill="url(#paint6_radial_531_2890)"/>
<path d="M143.114 287.513L102.254 311.086C100.229 312.256 98.5874 311.016 98.5874 308.31C98.5874 305.603 100.229 302.478 102.254 301.308L149.068 274.312V276.163C149.068 280.546 146.414 285.627 143.114 287.531V287.513Z" fill="#515151"/>
<path d="M146.117 186.813C144.703 186.045 142.869 186.15 140.879 187.302L139.656 188.001C135.134 190.603 131.467 197.605 131.467 203.629V284.44L142.328 278.172V280.738L129.302 291.355L99.7222 311.191L141.298 334.694L165.203 316.29L178.822 304.661L187.309 210.09L146.117 186.796V186.813Z" fill="url(#paint7_radial_531_2890)"/>
<path d="M115.665 320.219C115.665 320.219 114.565 317.285 116.747 315.103C118.93 312.92 130.42 308.083 131.258 307.559C132.096 307.036 136.217 303.997 136.217 303.997L137.474 301.168C137.474 301.168 114.128 303.438 113.831 303.805C113.517 304.172 102.901 313.688 103.215 314.107C103.529 314.526 110.531 316.22 110.531 316.22L111.876 318.071L115.647 320.201L115.665 320.219Z" fill="#2D2D2D"/>
<path d="M182.28 210.701L181.057 211.399C176.535 214.001 172.868 221.003 172.868 227.027V307.839L143.638 324.706C141.612 325.876 139.971 329.019 139.971 331.708C139.971 334.415 141.612 335.655 143.638 334.485L184.497 310.912C187.78 309.009 190.452 303.927 190.452 299.544V216.882C190.452 210.858 186.785 208.081 182.262 210.701H182.28Z" fill="url(#paint8_radial_531_2890)"/>
<path d="M104.612 337.715C104.612 337.715 98.5874 341.574 96.5619 343.861C94.5189 346.131 90.4853 350.794 92.1441 353.011C93.803 355.229 99.4081 356.469 105.432 350.933C111.456 345.398 109.745 345.049 114.879 342.307C120.013 339.566 121.427 336.563 120.798 334.851C120.187 333.14 117.655 330.119 116.258 330.765C114.879 331.411 104.612 337.715 104.612 337.715Z" fill="url(#paint9_linear_531_2890)"/>
<path d="M133.894 353.937C133.894 353.937 131.729 358.686 130.612 360.275C129.494 361.847 124.099 370.962 126.91 373.04C129.721 375.135 135.082 374.559 139.307 369.967C143.533 365.374 144.476 359.787 145.506 357.953C146.554 356.12 149.138 351.23 147.916 348.402C146.694 345.573 146.414 345.084 146.414 345.084L133.877 353.919L133.894 353.937Z" fill="url(#paint10_linear_531_2890)"/>
<path d="M112.033 286.204C112.033 286.204 94.1522 303.858 91.2187 312.711C91.2187 312.711 89.9789 317.495 93.4363 321.249C96.8937 325.003 104.245 337.279 104.245 337.279C104.245 337.279 109.728 343.914 116.8 338.606C116.8 338.606 119.995 333.49 118.039 330.102C116.066 326.697 110.845 315.854 110.845 315.854C110.845 315.854 122.318 307.961 127.975 305.97C133.633 303.98 136.653 302.443 136.653 302.443C136.653 302.443 135.623 307.786 131.485 312.99C127.346 318.211 120.414 326.575 122.719 332.407C125.024 338.239 126.369 340.038 128.534 343.39C130.699 346.743 132.759 353.745 134.61 354.478C136.461 355.212 145.017 356.05 146.397 350.48C147.776 344.909 143.481 334.083 141.543 330.416C141.543 330.416 164.679 303.718 166.879 300.784C169.079 297.851 119.209 281.682 112.05 286.204H112.033Z" fill="url(#paint11_radial_531_2890)"/>
<path d="M118.022 330.119C116.049 326.714 110.828 315.871 110.828 315.871C110.828 315.871 122.3 307.978 127.957 305.987C133.615 303.997 136.636 302.46 136.636 302.46C137.718 300.958 141.228 295.214 142.799 290.674C129.756 286.85 115.595 283.969 112.015 286.221C113.272 289.347 119.925 289.312 119.925 289.312C119.925 289.312 122.405 295.353 124.063 296.139C125.705 296.907 129.651 296.069 129.651 296.069C129.651 296.069 129.022 297.065 126.194 299.09C123.382 301.116 105.781 315.539 105.781 315.539C105.781 315.539 106.777 316.115 111.474 324.584C116.171 333.053 116.764 338.64 116.764 338.64C116.764 338.64 119.96 333.524 118.004 330.137L118.022 330.119Z" fill="#160A5B"/>
<path opacity="0.6" d="M157.572 295.58C147.235 294.585 135.186 294.498 137.893 299.928C142.485 309.148 151.74 309.549 151.74 309.549C151.687 312.937 137.491 329.281 137.491 329.281L140.791 335.707C144.092 342.132 143.69 353.849 143.69 353.849C144.965 353.151 145.977 352.085 146.379 350.462C147.759 344.891 143.463 334.065 141.525 330.398C141.525 330.398 164.661 303.7 166.861 300.766C167.507 299.893 163.596 297.868 157.572 295.563V295.58Z" fill="#020230"/>
<path d="M93.9426 239.162L96.7015 237.032C96.7015 237.032 111.526 228.79 116.468 226.136C119.139 224.687 121.916 222.102 123.889 220.042C125.827 218.034 128.499 216.899 131.293 216.882L157.275 216.759C157.275 216.759 160.296 221.614 161.326 222.556C162.077 223.255 169.132 229.174 174.178 234.029C176.972 236.718 179.015 240.105 180.08 243.842C182.978 254.039 182.926 274.609 183.363 289.312C183.363 289.312 181.564 290.01 177.129 290.953C172.711 291.896 173.252 291.285 173.252 291.285C173.252 291.285 166.617 306.197 157.624 307.646C148.632 309.095 136.514 304.887 134.348 290.761C134.348 290.761 116.817 288.142 112.05 286.186C111.614 286.011 111.456 285.47 111.736 285.086C113.849 282.275 121.759 271.361 122.509 264.254C123.383 256.03 123.121 244.104 122.457 240.856C122.457 240.856 109.239 245.833 105.013 246.723C105.013 246.723 88.9137 264.412 82.191 269.231C82.191 269.231 84.4959 265.616 79.8687 263.154L93.9076 239.18L93.9426 239.162Z" fill="url(#paint12_radial_531_2890)"/>
<path opacity="0.6" d="M177.129 290.954C177.809 290.814 178.403 290.674 178.962 290.534L178.019 288.701L153.625 286.117L139.377 286.85L134.47 291.512C134.75 293.031 135.134 294.428 135.623 295.703C135.64 295.703 141.682 296.576 144.476 295.982C147.287 295.389 168.991 298.567 169.026 298.584C171.488 295.057 173.008 291.757 173.2 291.355C173.182 291.477 173.444 291.757 177.094 290.971L177.129 290.954Z" fill="#020230"/>
<path d="M144.197 282.432C144.162 282.345 144.092 282.275 144.004 282.275C142.835 282.24 135.204 282.013 132.323 281.018C129.197 279.935 125.879 280.145 125.722 280.319C125.565 280.494 120.344 282.711 120.047 283.602C119.768 284.405 119.279 287.164 119.96 288.177C120.641 289.19 120.973 289.888 120.973 289.888L121.514 289.941C121.514 289.941 122.213 291.32 122.614 291.809C122.789 292.018 122.929 292.263 123.033 292.507C123.365 293.223 123.941 294.393 124.186 294.411C124.535 294.446 126.141 294.76 126.56 294.655C126.892 294.568 127.189 293.538 127.067 293.101C127.032 292.979 127.084 292.857 127.224 292.839C127.975 292.717 129.983 292.455 132.759 292.717C136.147 293.031 140.949 290.814 141.385 290.604C141.403 290.604 141.438 290.604 141.455 290.587L146.24 290.15C146.379 290.15 146.467 290.01 146.432 289.871L144.249 282.397L144.197 282.432Z" fill="#FCD1C5"/>
<path d="M138.434 232.038C138.434 232.038 134.366 247.037 138.661 262.456C138.661 262.456 154.324 233.243 156.018 228.511C157.712 223.779 158.34 220.409 156.751 218.697C155.162 217.004 141.018 225.787 141.018 225.787L138.434 232.038Z" fill="#F0F6FF"/>
<path d="M142.468 255.559C142.468 255.559 145.454 246.426 144.93 243.493C144.406 240.542 143.673 238.446 143.673 238.446L146.362 235.967L147.549 238.429C147.549 238.429 153.469 234.081 153.87 233.278C153.87 233.278 149.103 236.543 147.601 237.032C147.601 237.032 146.903 235.862 145.96 235.461C145.017 235.059 142.695 238.254 142.695 238.254L142.258 243.79L139.918 256.711L140.739 258.632L142.485 255.576L142.468 255.559Z" fill="#C4CCD6"/>
<path d="M145.943 235.461C145.943 235.461 143.288 230.781 139.848 232.213C139.848 232.213 139.29 237.976 139.761 238.499C138.993 239.512 137.072 242.289 136.723 245.344C135.763 253.918 138.679 262.456 138.679 262.456L141.001 258.091C141.001 258.091 141.595 252.835 143.114 247.178C144.249 243.004 143.673 239.687 143.288 238.237C144.266 237.434 145.943 235.444 145.943 235.444V235.461Z" fill="url(#paint13_radial_531_2890)"/>
<path d="M131.118 208.134C131.118 208.134 130.402 211.784 130.664 212.465C130.926 213.146 131.851 213.617 131.624 215.049C131.397 216.481 132.218 220.724 132.637 222.138C132.637 222.138 132.322 223.657 132.759 224.111C133.178 224.583 133.737 224.565 134.138 225.281C134.54 225.997 134.662 229.681 136.164 230.904C137.648 232.126 139.604 232.388 140.599 232.126C141.594 231.864 142.625 231.096 142.625 231.096L144.877 232.039C144.877 232.039 156.524 228.739 156.157 220.567V219.694C156.157 219.694 156.978 218.541 157.222 217.773C157.467 217.004 159.388 213.617 158.41 212.15C158.41 212.15 162.915 194.34 148.998 193.274C135.081 192.209 132.986 201.953 131.135 208.134H131.118Z" fill="#FCD1C5"/>
<path d="M156.14 220.549V220.444C155.564 220.095 154.988 219.886 154.534 219.955C152.945 220.235 153.311 216.935 153.311 216.935C153.311 216.935 153.015 217.528 152.211 221.754C151.391 225.98 142.625 231.078 142.625 231.078L144.878 232.021C144.878 232.021 156.524 228.721 156.158 220.549H156.14Z" fill="#E2B1A6"/>
<path d="M131.188 200.399C129.826 203.28 129.18 206.754 132.026 209.094C132.026 209.094 134.418 209.74 138.958 207.628C142.014 206.196 145.087 206.842 146.746 207.401C147.514 207.662 148.02 208.396 148.003 209.217L147.933 211.748C147.916 212.412 148.3 213.006 148.911 213.268L151.024 214.158L151.443 216.62C151.565 217.354 152.316 217.79 153.014 217.546L153.556 217.354C153.556 217.354 153.87 211.871 158.393 212.15C158.393 212.15 162.059 204.223 158.305 196.976C154.551 189.73 144.266 190.253 142.066 191.074C139.185 192.157 139.587 192 137.928 193.012C135.029 194.793 132.637 197.325 131.188 200.399Z" fill="#AA8383"/>
<path opacity="0.6" d="M168.206 256.257C168.206 256.257 166.093 271.781 165.237 276.181L158.427 279.778L170.511 279.045L168.206 256.257Z" fill="#020230"/>
<path d="M158.392 212.15C158.392 212.15 159.632 209.461 159.929 205.794C154.306 210.247 148.02 209.199 148.02 209.199L147.95 211.731C147.933 212.394 148.317 212.988 148.928 213.25L151.041 214.158L151.46 216.62C151.582 217.353 152.333 217.79 153.032 217.545L153.573 217.353C153.573 217.353 153.887 211.871 158.41 212.15H158.392Z" fill="#936D6D"/>
<path opacity="0.6" d="M161.396 225.787C161.396 225.787 157.799 238.167 157.048 240.542L154.15 240.228L154.674 244.139L139.063 264.726L156.402 244.82L155.721 241.328L158.358 241.607L161.414 225.77L161.396 225.787Z" fill="#020230"/>
<path d="M146.064 293.049C146.064 293.049 182.681 291.861 183.624 291.198C184.567 290.534 184.724 281.105 184.637 275.657C184.584 271.833 184.637 256.834 181.354 246.322C183.921 255.227 182.576 286.71 181.406 288.317C180.236 289.923 145.401 290.848 145.401 290.848C145.785 292.158 146.064 293.066 146.064 293.066V293.049Z" fill="#263649"/>
<path d="M74.1064 263.765C74.1064 263.765 73.9667 264.691 72.3777 265.599C70.7887 266.507 66.7027 268.515 66.0567 269.091C65.3931 269.667 62.4596 272.252 62.3723 272.583C62.285 272.915 61.4119 275.849 61.4119 276.023C61.4119 276.198 61.6913 277.542 61.6913 277.542L60.7833 281.855C60.7833 281.855 59.6308 283.532 60.8881 283.986C62.1278 284.44 62.8437 283.148 62.8612 282.956C62.8612 282.956 64.747 282.065 66.144 280.982C67.5234 279.9 73.0936 275.43 74.0365 275.709C74.9794 275.988 74.1064 277.595 73.6524 277.857C73.1984 278.136 70.2474 281.017 71.4872 283.008C72.7269 285.016 73.5301 281.873 74.3334 281.244C75.1366 280.616 76.9177 278.101 77.9828 277.787C79.0654 277.473 81.0211 273.439 81.283 271.641C81.5449 269.842 82.8196 268.672 83.2911 268.096C83.7451 267.52 82.2958 263.032 82.2958 263.032L76.7954 261.321L74.8747 262.578L74.1064 263.748V263.765Z" fill="#FCD1C5"/>
<mask id="mask0_531_2890" style="mask-type:luminance" maskUnits="userSpaceOnUse" x="155" y="285" width="34" height="20">
<path d="M157.782 303.945L157.136 303.578C154.743 302.198 155.04 299.771 157.799 298.182L177.304 286.92C180.08 285.313 184.253 285.156 186.646 286.535L187.292 286.902C189.684 288.282 189.387 290.709 186.628 292.298L167.124 303.56C164.365 305.167 160.174 305.324 157.782 303.945Z" fill="white"/>
</mask>
<g mask="url(#mask0_531_2890)">
<path d="M178.648 240.14C177.496 238.324 176.972 239.669 175.418 241.171C173.34 243.196 170.721 246.339 169.359 250.303C166.896 257.515 167.787 275.57 168.608 278.137C168.608 278.137 145.681 281.891 144.092 281.821C142.503 281.751 146.065 293.049 146.065 293.049C146.065 293.049 182.682 291.861 183.625 291.198C184.567 290.534 184.725 281.105 184.637 275.657C184.567 270.977 184.637 249.639 178.648 240.158V240.14Z" fill="#334659"/>
<path d="M146.064 293.049C146.064 293.049 182.681 291.861 183.624 291.198C184.567 290.534 184.724 281.105 184.637 275.657C184.584 271.833 184.637 256.834 181.354 246.322C183.921 255.227 182.576 286.71 181.406 288.317C180.236 289.923 145.401 290.848 145.401 290.848C145.785 292.158 146.064 293.066 146.064 293.066V293.049Z" fill="#263649"/>
</g>
<path d="M188.933 289.033C188.863 288.23 188.339 287.461 187.327 286.885L186.681 286.518C184.288 285.139 180.098 285.314 177.339 286.902L157.834 298.165C156.368 299.021 155.599 300.086 155.547 301.116V304.521C155.547 305.412 156.071 306.25 157.153 306.878L157.799 307.245C160.192 308.625 164.382 308.45 167.141 306.861L186.646 295.598C188.06 294.778 188.828 293.747 188.916 292.735V289.033H188.933Z" fill="url(#paint14_radial_531_2890)"/>
<path d="M157.782 303.945L157.136 303.578C154.743 302.199 155.04 299.772 157.799 298.183L177.304 286.92C180.08 285.314 184.253 285.156 186.646 286.536L187.292 286.903C189.684 288.282 189.387 290.709 186.628 292.298L167.124 303.561C164.365 305.167 160.174 305.324 157.782 303.945Z" fill="url(#paint15_radial_531_2890)"/>
<path d="M122.509 400C121.724 400 120.99 399.808 120.327 399.424C118.79 398.533 117.935 396.752 117.935 394.413V341.801H120.205V394.413C120.205 395.879 120.659 396.979 121.444 397.451C122.248 397.905 123.417 397.748 124.692 397.014L168.503 371.73C171.559 369.967 174.143 365.496 174.143 361.969V309.358H176.413V361.969C176.413 366.352 173.444 371.521 169.638 373.703L125.827 398.987C124.675 399.651 123.54 400 122.475 400H122.509Z" fill="#4326A2"/>
<path d="M10.5988 337.732C9.81306 337.732 9.07968 337.54 8.41614 337.156C6.87954 336.265 6.02393 334.484 6.02393 332.145V279.533H8.29391V332.145C8.29391 333.611 8.74791 334.711 9.53367 335.183C10.3194 335.637 11.5068 335.48 12.7815 334.746L56.5922 309.462C59.648 307.698 62.2323 303.228 62.2323 299.701V247.09H64.5023V299.701C64.5023 304.084 61.5164 309.235 57.7272 311.435L13.9165 336.719C12.764 337.383 11.629 337.732 10.5639 337.732H10.5988Z" fill="#4326A2"/>
<path d="M7.73932 298.363L6.61084 300.353L118.521 363.823L119.649 361.834L7.73932 298.363Z" fill="#4326A2"/>
<path opacity="0.5" d="M119.384 353.413L0 284.475L64.1184 247.475L183.502 316.395L119.384 353.413Z" fill="url(#paint16_linear_531_2890)"/>
<path d="M0 278.765V284.475L119.384 353.413L183.502 316.395V310.685L119.384 347.703L0 278.765Z" fill="url(#paint17_radial_531_2890)"/>
<path d="M119.384 347.703L0 278.765L64.1184 241.747L183.502 310.685L119.384 347.703Z" fill="url(#paint18_radial_531_2890)"/>
<path opacity="0.4" d="M126.386 294.01C126.386 294.01 130.978 295.651 134.488 295.057C137.998 294.464 154.865 294.149 154.865 294.149L152.211 292.613L146.292 288.492L131.624 289.487L125.967 291.513L126.386 294.01Z" fill="#020230"/>
<path d="M144.197 282.432C144.162 282.345 144.092 282.275 144.004 282.275C142.835 282.24 135.204 282.013 132.323 281.018C129.197 279.935 125.879 280.145 125.722 280.319C125.565 280.494 120.344 282.711 120.047 283.602C119.768 284.405 119.279 287.164 119.96 288.177C120.641 289.19 120.973 289.888 120.973 289.888L121.514 289.941C121.514 289.941 122.213 291.32 122.614 291.809C122.789 292.018 122.929 292.263 123.033 292.507C123.365 293.223 123.941 294.393 124.186 294.411C124.535 294.446 126.141 294.76 126.56 294.655C126.892 294.568 127.189 293.538 127.067 293.101C127.032 292.979 127.084 292.857 127.224 292.839C127.975 292.717 129.983 292.455 132.759 292.717C136.147 293.031 140.949 290.814 141.385 290.604C141.403 290.604 141.438 290.604 141.455 290.587L146.24 290.15C146.379 290.15 146.467 290.01 146.432 289.871L144.249 282.397L144.197 282.432Z" fill="#FCD1C5"/>
<path d="M178.648 240.14C177.496 238.324 176.972 239.669 175.418 241.171C173.34 243.196 170.721 246.339 169.359 250.303C166.896 257.515 167.787 275.57 168.608 278.137C168.608 278.137 145.681 281.891 144.092 281.821C142.503 281.751 146.065 293.049 146.065 293.049C146.065 293.049 182.682 291.861 183.625 291.198C184.567 290.534 184.725 281.105 184.637 275.657C184.567 270.977 184.637 249.639 178.648 240.158V240.14Z" fill="url(#paint19_radial_531_2890)"/>
<path opacity="0.6" d="M146.065 293.049C146.065 293.049 182.682 291.861 183.625 291.198C184.568 290.534 184.725 281.105 184.638 275.657C184.585 271.833 184.638 256.834 181.355 246.322C183.922 255.227 182.577 286.71 181.407 288.317C180.237 289.923 145.402 290.848 145.402 290.848C145.786 292.158 146.065 293.066 146.065 293.066V293.049Z" fill="#020230"/>
<path opacity="0.3" d="M80.4274 274.313C80.4274 274.313 93.5235 264.08 95.3918 263.085C97.2602 262.09 98.046 261.339 98.046 261.339L93.6632 258.807L86.2595 261.863L76.9176 271.117L62.5469 281.315V283.69C62.5469 283.69 74.4032 278.591 75.7303 277.735C77.0573 276.88 80.4274 274.33 80.4274 274.33V274.313Z" fill="#180D5B"/>
<path opacity="0.63" d="M72.6048 283.567C72.6048 283.567 75.3987 281.07 77.1972 280.249C78.9957 279.411 81.8594 277.211 82.2086 275.517C82.5579 273.824 85.5438 270.087 85.5438 270.087L80.7768 272.846L73.8621 276.844L62.355 283.515C62.355 283.515 63.0534 284.318 64.5202 283.829C65.9695 283.34 68.7109 281.594 69.9856 281.437C71.2603 281.28 73.3731 280.896 73.3731 280.896L72.6223 283.602L72.6048 283.567Z" fill="#2D2D2D"/>
<path d="M74.1064 263.765C74.1064 263.765 73.9667 264.691 72.3777 265.599C70.7887 266.507 66.7027 268.515 66.0567 269.091C65.3931 269.667 62.4596 272.252 62.3723 272.583C62.285 272.915 61.4119 275.849 61.4119 276.023C61.4119 276.198 61.6913 277.542 61.6913 277.542L60.7833 281.855C60.7833 281.855 59.6308 283.532 60.8881 283.986C62.1278 284.44 62.8437 283.148 62.8612 282.956C62.8612 282.956 64.747 282.065 66.144 280.982C67.5234 279.9 73.0936 275.43 74.0365 275.709C74.9794 275.988 74.1064 277.595 73.6524 277.857C73.1984 278.136 70.2474 281.017 71.4872 283.008C72.7269 285.016 73.5301 281.873 74.3334 281.244C75.1366 280.616 76.9177 278.101 77.9828 277.787C79.0654 277.473 81.0211 273.439 81.283 271.641C81.5449 269.842 82.8196 268.672 83.2911 268.096C83.7451 267.52 82.2958 263.032 82.2958 263.032L76.7954 261.321L74.8747 262.578L74.1064 263.748V263.765Z" fill="#FCD1C5"/>
<path d="M123.784 233.557C123.784 233.557 123.575 225.351 124.971 219.064C124.587 219.361 124.221 219.676 123.871 220.025C121.898 222.085 119.122 224.67 116.45 226.119C111.509 228.79 96.684 237.015 96.684 237.015L93.9251 239.145C85.2293 245.973 75.5032 260.797 74.0889 263.748C74.7699 262.84 76.516 261.339 79.8686 263.137C84.4959 265.599 82.2957 269.284 82.2957 269.284C89.0184 264.464 105.013 246.706 105.013 246.706C108.959 245.885 120.816 241.45 122.3 240.891C123.243 238.429 123.802 235.95 123.749 233.54L123.784 233.557Z" fill="url(#paint20_radial_531_2890)"/>
<path d="M50.2188 289.574L52.8554 290.954L79.3619 275.64C79.7984 275.378 80.5842 275.413 81.0906 275.71L126.822 302.111C127.259 301.867 129.249 300.907 129.249 300.907L128.289 303.421C128.254 303.526 128.167 303.631 128.027 303.718L100.106 319.835C99.6695 320.097 98.8838 320.062 98.3774 319.765L51.5807 292.752C51.3712 292.63 51.249 292.49 51.1966 292.333L50.2362 289.557L50.2188 289.574Z" fill="url(#paint21_radial_531_2890)"/>
<path d="M50.6378 290.01L98.5869 317.704C99.1107 318.001 99.9139 318.036 100.368 317.774L128.987 301.256C129.441 300.994 129.389 300.54 128.865 300.225L80.9159 272.531C80.392 272.235 79.5888 272.2 79.1348 272.462L50.5155 288.98C50.0615 289.242 50.1139 289.696 50.6378 290.01Z" fill="url(#paint22_radial_531_2890)"/>
<path d="M67.2964 286.256L99.7572 305.01L101.294 304.119L68.833 285.366L67.2964 286.256Z" fill="#24126A"/>
<path opacity="0.4" d="M64.8345 287.687L103.058 309.741L104.594 308.868L66.3711 286.797L64.8345 287.687Z" fill="#06033E"/>
<path opacity="0.4" d="M62.3721 289.102L100.595 311.173L102.132 310.283L63.9087 288.211L62.3721 289.102Z" fill="#06033E"/>
<path d="M59.9102 290.517L98.1507 312.588L99.6873 311.697L61.4468 289.626L59.9102 290.517Z" fill="#24126A"/>
<path opacity="0.4" d="M109.588 304.556L72.6045 283.2L71.0679 284.091L107.772 305.271L109.308 306.162L110.845 305.271L109.588 304.556Z" fill="#06033E"/>
<path opacity="0.4" d="M97.8887 303.927L105.537 308.345L107.073 307.454L99.3729 303.001L97.8887 303.927Z" fill="#06033E"/>
<path d="M50.3064 288.876L56.3655 252.905L55.8766 252.696L56.6099 252.277C56.7496 252.189 56.9592 252.189 57.1687 252.311L105.607 280.285C106.008 280.512 106.305 281.105 106.235 281.507L100.124 317.757C100.089 317.949 100.002 318.071 99.8619 318.124L99.146 318.543L99.0238 317.879H99.0587L50.9001 290.098C50.4984 289.871 50.2016 289.277 50.2714 288.876H50.3064Z" fill="url(#paint23_radial_531_2890)"/>
<path d="M105.345 281.28L106.148 280.931C106.235 281.141 106.288 281.35 106.253 281.525L100.141 317.775C100.106 317.967 100.019 318.089 99.8792 318.141L99.1633 318.561L99.041 317.897H99.076L96.6313 316.5L105.327 281.28H105.345Z" fill="url(#paint24_linear_531_2890)"/>
<path d="M50.1667 290.534L98.6047 318.507C98.9714 318.717 99.3031 318.595 99.373 318.211L105.484 281.961C105.554 281.542 105.257 280.965 104.856 280.738L56.4179 252.765C56.0512 252.556 55.7194 252.678 55.6496 253.062L49.538 289.312C49.4682 289.731 49.765 290.307 50.1667 290.534Z" fill="url(#paint25_radial_531_2890)"/>
<path d="M305.269 31.1074H263.792V155.538H305.269V31.1074Z" fill="url(#paint26_radial_531_2890)"/>
<path d="M139.362 155.538L255.497 186.645V0L139.362 31.1075V155.538ZM168.396 51.8459H186.853L197.222 74.8655L208.006 51.8459H226.048L207.176 84.8199L227.915 123.601H209.457L197.222 96.226L185.194 123.601H167.151L187.267 85.4421L168.396 51.8459Z" fill="url(#paint27_radial_531_2890)"/>
<path d="M414.219 225.663H260.903C260.019 225.663 259.172 226.014 258.547 226.639C257.921 227.264 257.57 228.112 257.57 228.996V282.323C257.57 283.207 257.921 284.055 258.547 284.68C259.172 285.305 260.019 285.656 260.903 285.656H414.219C415.103 285.656 415.951 285.305 416.576 284.68C417.201 284.055 417.552 283.207 417.552 282.323V228.996C417.552 228.112 417.201 227.264 416.576 226.639C415.951 226.014 415.103 225.663 414.219 225.663ZM317.563 252.326C317.562 254.094 316.859 255.788 315.609 257.038C314.359 258.288 312.665 258.991 310.898 258.992H297.566V268.991C297.566 269.875 297.215 270.723 296.59 271.348C295.964 271.973 295.117 272.324 294.233 272.324C293.349 272.324 292.501 271.973 291.876 271.348C291.251 270.723 290.9 269.875 290.9 268.991V242.328C290.9 241.444 291.251 240.596 291.876 239.971C292.501 239.346 293.349 238.995 294.233 238.995H310.898C312.665 238.996 314.359 239.699 315.609 240.949C316.859 242.199 317.562 243.893 317.563 245.661V252.326ZM350.893 262.325C350.89 264.976 349.836 267.518 347.961 269.392C346.087 271.267 343.545 272.321 340.894 272.324H327.562C326.678 272.324 325.831 271.973 325.206 271.348C324.58 270.723 324.229 269.875 324.229 268.991V242.328C324.229 241.444 324.58 240.596 325.206 239.971C325.831 239.346 326.678 238.995 327.562 238.995H340.894C343.545 238.998 346.087 240.052 347.961 241.926C349.836 243.801 350.89 246.343 350.893 248.994V262.325ZM380.89 252.326C381.773 252.326 382.621 252.678 383.246 253.303C383.871 253.928 384.222 254.775 384.222 255.659C384.222 256.543 383.871 257.391 383.246 258.016C382.621 258.641 381.773 258.992 380.89 258.992H364.225V268.991C364.225 269.875 363.874 270.723 363.249 271.348C362.624 271.973 361.776 272.324 360.892 272.324C360.008 272.324 359.16 271.973 358.535 271.348C357.91 270.723 357.559 269.875 357.559 268.991V242.328C357.559 241.444 357.91 240.596 358.535 239.971C359.16 239.346 360.008 238.995 360.892 238.995H380.89C381.773 238.995 382.621 239.346 383.246 239.971C383.871 240.596 384.222 241.444 384.222 242.328C384.222 243.212 383.871 244.059 383.246 244.684C382.621 245.309 381.773 245.661 380.89 245.661H364.225V252.326H380.89ZM344.227 248.994V262.325C344.226 263.209 343.875 264.056 343.25 264.681C342.625 265.306 341.778 265.657 340.894 265.658H330.895V245.661H340.894C341.778 245.661 342.625 246.013 343.25 246.638C343.875 247.263 344.226 248.11 344.227 248.994ZM297.566 245.661H310.898V252.326H297.566V245.661ZM404.22 165.67H367.558C366.674 165.67 365.826 165.319 365.201 164.694C364.576 164.068 364.225 163.221 364.225 162.337V125.674H274.235C273.351 125.674 272.503 126.025 271.878 126.651C271.253 127.276 270.902 128.123 270.902 129.007V218.997H404.22V165.67ZM380.89 205.665H294.233C293.349 205.665 292.501 205.314 291.876 204.689C291.251 204.064 290.9 203.216 290.9 202.332C290.9 201.448 291.251 200.6 291.876 199.975C292.501 199.35 293.349 198.999 294.233 198.999H380.89C381.773 198.999 382.621 199.35 383.246 199.975C383.871 200.6 384.222 201.448 384.222 202.332C384.222 203.216 383.871 204.064 383.246 204.689C382.621 205.314 381.773 205.665 380.89 205.665ZM380.89 185.667H294.233C293.349 185.667 292.501 185.316 291.876 184.691C291.251 184.066 290.9 183.218 290.9 182.334C290.9 181.451 291.251 180.603 291.876 179.978C292.501 179.353 293.349 179.002 294.233 179.002H380.89C381.773 179.002 382.621 179.353 383.246 179.978C383.871 180.603 384.222 181.451 384.222 182.334C384.222 183.218 383.871 184.066 383.246 184.691C382.621 185.316 381.773 185.667 380.89 185.667ZM402.267 159.004H370.891V127.627L402.267 159.004ZM270.902 292.322H404.22V308.987C404.22 309.871 403.869 310.718 403.244 311.343C402.619 311.968 401.771 312.32 400.887 312.32H274.235C273.351 312.32 272.503 311.968 271.878 311.343C271.253 310.718 270.902 309.871 270.902 308.987V292.322Z" fill="url(#paint28_radial_531_2890)"/>
<defs>
<linearGradient id="paint0_linear_531_2890" x1="70.6662" y1="194.392" x2="143.638" y2="194.392" gradientUnits="userSpaceOnUse">
<stop stop-color="#E39A65"/>
<stop offset="1" stop-color="#E95F8D"/>
</linearGradient>
<linearGradient id="paint1_linear_531_2890" x1="112.539" y1="349.484" x2="276.956" y2="349.484" gradientUnits="userSpaceOnUse">
<stop stop-color="#E39A65"/>
<stop offset="1" stop-color="#E95F8D"/>
</linearGradient>
<linearGradient id="paint2_linear_531_2890" x1="147.461" y1="337.035" x2="77.7378" y2="354.042" gradientUnits="userSpaceOnUse">
<stop stop-color="#5761D7"/>
<stop offset="0.18" stop-color="#5B65D8"/>
<stop offset="0.39" stop-color="#6A72DE"/>
<stop offset="0.61" stop-color="#8188E8"/>
<stop offset="0.85" stop-color="#A2A6F5"/>
<stop offset="1" stop-color="#BCBEFF"/>
</linearGradient>
<linearGradient id="paint3_linear_531_2890" x1="139.272" y1="329.142" x2="121.234" y2="311.715" gradientUnits="userSpaceOnUse">
<stop stop-color="#5761D7"/>
<stop offset="0.18" stop-color="#5B65D8"/>
<stop offset="0.39" stop-color="#6A72DE"/>
<stop offset="0.61" stop-color="#8188E8"/>
<stop offset="0.85" stop-color="#A2A6F5"/>
<stop offset="1" stop-color="#BCBEFF"/>
</linearGradient>
<radialGradient id="paint4_radial_531_2890" cx="0" cy="0" r="1" gradientUnits="userSpaceOnUse" gradientTransform="translate(89.1578 328.671) scale(116.346 116.346)">
<stop stop-color="#E39A65"/>
<stop offset="0.4" stop-color="#A92FFB"/>
<stop offset="0.55" stop-color="#881BFA"/>
<stop offset="0.73" stop-color="#6507FA"/>
<stop offset="1" stop-color="#3919BB"/>
</radialGradient>
<radialGradient id="paint5_radial_531_2890" cx="0" cy="0" r="1" gradientUnits="userSpaceOnUse" gradientTransform="translate(92.7031 246.706) scale(25.7731 25.7731)">
<stop stop-color="#E39A65"/>
<stop offset="0.4" stop-color="#A92FFB"/>
<stop offset="0.55" stop-color="#881BFA"/>
<stop offset="0.73" stop-color="#6507FA"/>
<stop offset="1" stop-color="#3919BB"/>
</radialGradient>
<radialGradient id="paint6_radial_531_2890" cx="0" cy="0" r="1" gradientUnits="userSpaceOnUse" gradientTransform="translate(86.8184 245.047) scale(56.4703 56.4703)">
<stop stop-color="#E39A65"/>
<stop offset="0.4" stop-color="#A92FFB"/>
<stop offset="0.55" stop-color="#881BFA"/>
<stop offset="0.73" stop-color="#6507FA"/>
<stop offset="1" stop-color="#3919BB"/>
</radialGradient>
<radialGradient id="paint7_radial_531_2890" cx="0" cy="0" r="1" gradientUnits="userSpaceOnUse" gradientTransform="translate(97.6966 181.296) scale(143.393 143.393)">
<stop stop-color="#E39A65"/>
<stop offset="0.4" stop-color="#A92FFB"/>
<stop offset="0.55" stop-color="#881BFA"/>
<stop offset="0.73" stop-color="#6507FA"/>
<stop offset="1" stop-color="#3919BB"/>
</radialGradient>
<radialGradient id="paint8_radial_531_2890" cx="0" cy="0" r="1" gradientUnits="userSpaceOnUse" gradientTransform="translate(49.276 212.063) scale(261.59 261.59)">
<stop stop-color="#E39A65"/>
<stop offset="0.28" stop-color="#A92FFB"/>
<stop offset="0.33" stop-color="#881BFA"/>
<stop offset="0.4" stop-color="#6507FA"/>
<stop offset="0.54" stop-color="#0D0C6F"/>
</radialGradient>
<linearGradient id="paint9_linear_531_2890" x1="114.076" y1="345.608" x2="86.6089" y2="335.794" gradientUnits="userSpaceOnUse">
<stop stop-color="#2D0979"/>
<stop offset="1" stop-color="#5B04F7"/>
</linearGradient>
<linearGradient id="paint10_linear_531_2890" x1="141.979" y1="361.48" x2="121.706" y2="352.575" gradientUnits="userSpaceOnUse">
<stop stop-color="#2D0979"/>
<stop offset="1" stop-color="#5B04F7"/>
</linearGradient>
<radialGradient id="paint11_radial_531_2890" cx="0" cy="0" r="1" gradientUnits="userSpaceOnUse" gradientTransform="translate(55.8593 320.394) scale(80.2178 80.2178)">
<stop stop-color="#E39A65"/>
<stop offset="0.47" stop-color="#A92FFB"/>
<stop offset="0.59" stop-color="#881BFA"/>
<stop offset="0.73" stop-color="#6507FA"/>
<stop offset="1" stop-color="#3919BB"/>
</radialGradient>
<radialGradient id="paint12_radial_531_2890" cx="0" cy="0" r="1" gradientUnits="userSpaceOnUse" gradientTransform="translate(127.329 216.393) scale(97.1729 97.1729)">
<stop stop-color="#E39A65"/>
<stop offset="0.47" stop-color="#A92FFB"/>
<stop offset="0.59" stop-color="#881BFA"/>
<stop offset="0.73" stop-color="#6507FA"/>
<stop offset="1" stop-color="#3919BB"/>
</radialGradient>
<radialGradient id="paint13_radial_531_2890" cx="0" cy="0" r="1" gradientUnits="userSpaceOnUse" gradientTransform="translate(71.1901 242.638) scale(85.2118 85.2118)">
<stop stop-color="#E39A65"/>
<stop offset="0.47" stop-color="#A92FFB"/>
<stop offset="0.59" stop-color="#881BFA"/>
<stop offset="0.73" stop-color="#6507FA"/>
<stop offset="1" stop-color="#3919BB"/>
</radialGradient>
<radialGradient id="paint14_radial_531_2890" cx="0" cy="0" r="1" gradientUnits="userSpaceOnUse" gradientTransform="translate(161.693 281.123) scale(42.0471 42.0472)">
<stop stop-color="#E39A65"/>
<stop offset="0.28" stop-color="#A92FFB"/>
<stop offset="0.33" stop-color="#881BFA"/>
<stop offset="0.4" stop-color="#6507FA"/>
<stop offset="0.54" stop-color="#0D0C6F"/>
</radialGradient>
<radialGradient id="paint15_radial_531_2890" cx="0" cy="0" r="1" gradientUnits="userSpaceOnUse" gradientTransform="translate(155.39 278.766) scale(27.6065 27.6065)">
<stop stop-color="#E39A65"/>
<stop offset="0.4" stop-color="#A92FFB"/>
<stop offset="0.55" stop-color="#881BFA"/>
<stop offset="0.73" stop-color="#6507FA"/>
<stop offset="1" stop-color="#3919BB"/>
</radialGradient>
<linearGradient id="paint16_linear_531_2890" x1="0" y1="300.435" x2="183.502" y2="300.435" gradientUnits="userSpaceOnUse">
<stop stop-color="#42E8E0"/>
<stop offset="0.15" stop-color="#42E3DF"/>
<stop offset="0.33" stop-color="#44D4DE"/>
<stop offset="0.52" stop-color="#48BDDD"/>
<stop offset="0.72" stop-color="#4D9BDA"/>
<stop offset="0.93" stop-color="#5471D8"/>
<stop offset="1" stop-color="#5761D7"/>
</linearGradient>
<radialGradient id="paint17_radial_531_2890" cx="0" cy="0" r="1" gradientUnits="userSpaceOnUse" gradientTransform="translate(-2.04299 280.773) scale(147.602 147.602)">
<stop stop-color="#E39A65"/>
<stop offset="0.4" stop-color="#A92FFB"/>
<stop offset="0.55" stop-color="#881BFA"/>
<stop offset="0.73" stop-color="#6507FA"/>
<stop offset="1" stop-color="#3919BB"/>
</radialGradient>
<radialGradient id="paint18_radial_531_2890" cx="0" cy="0" r="1" gradientUnits="userSpaceOnUse" gradientTransform="translate(-10.0054 266.368) scale(204.788 204.788)">
<stop stop-color="#E39A65"/>
<stop offset="0.4" stop-color="#A92FFB"/>
<stop offset="0.55" stop-color="#881BFA"/>
<stop offset="0.73" stop-color="#6507FA"/>
<stop offset="1" stop-color="#3919BB"/>
</radialGradient>
<radialGradient id="paint19_radial_531_2890" cx="0" cy="0" r="1" gradientUnits="userSpaceOnUse" gradientTransform="translate(76.0795 231.602) scale(158.148 158.148)">
<stop stop-color="#E39A65"/>
<stop offset="0.47" stop-color="#A92FFB"/>
<stop offset="0.59" stop-color="#881BFA"/>
<stop offset="0.73" stop-color="#6507FA"/>
<stop offset="0.86" stop-color="#5010DC"/>
<stop offset="1" stop-color="#3919BB"/>
</radialGradient>
<radialGradient id="paint20_radial_531_2890" cx="0" cy="0" r="1" gradientUnits="userSpaceOnUse" gradientTransform="translate(118.423 213.442) scale(104.245 104.245)">
<stop stop-color="#E39A65"/>
<stop offset="0.47" stop-color="#A92FFB"/>
<stop offset="0.59" stop-color="#881BFA"/>
<stop offset="0.73" stop-color="#6507FA"/>
<stop offset="1" stop-color="#3919BB"/>
</radialGradient>
<radialGradient id="paint21_radial_531_2890" cx="0" cy="0" r="1" gradientUnits="userSpaceOnUse" gradientTransform="translate(48.8742 291.809) rotate(180) scale(61.8833 61.8833)">
<stop stop-color="#E39A65"/>
<stop offset="0.4" stop-color="#A92FFB"/>
<stop offset="0.55" stop-color="#881BFA"/>
<stop offset="0.73" stop-color="#6507FA"/>
<stop offset="1" stop-color="#3919BB"/>
</radialGradient>
<radialGradient id="paint22_radial_531_2890" cx="0" cy="0" r="1" gradientUnits="userSpaceOnUse" gradientTransform="translate(36.267 296.768) rotate(180) scale(96.4919 96.4919)">
<stop stop-color="#E39A65"/>
<stop offset="0.4" stop-color="#A92FFB"/>
<stop offset="0.55" stop-color="#881BFA"/>
<stop offset="0.73" stop-color="#6507FA"/>
<stop offset="1" stop-color="#3919BB"/>
</radialGradient>
<radialGradient id="paint23_radial_531_2890" cx="0" cy="0" r="1" gradientUnits="userSpaceOnUse" gradientTransform="translate(51.389 247.23) rotate(180) scale(78.1399 78.1399)">
<stop stop-color="#E39A65"/>
<stop offset="0.4" stop-color="#A92FFB"/>
<stop offset="0.55" stop-color="#881BFA"/>
<stop offset="0.73" stop-color="#6507FA"/>
<stop offset="1" stop-color="#3919BB"/>
</radialGradient>
<linearGradient id="paint24_linear_531_2890" x1="106.253" y1="299.737" x2="96.6488" y2="299.737" gradientUnits="userSpaceOnUse">
<stop stop-color="#5761D7"/>
<stop offset="0.18" stop-color="#5B65D8"/>
<stop offset="0.39" stop-color="#6A72DE"/>
<stop offset="0.61" stop-color="#8188E8"/>
<stop offset="0.85" stop-color="#A2A6F5"/>
<stop offset="1" stop-color="#BCBEFF"/>
</linearGradient>
<radialGradient id="paint25_radial_531_2890" cx="0" cy="0" r="1" gradientUnits="userSpaceOnUse" gradientTransform="translate(46.1156 248.679) scale(93.9425 93.9425)">
<stop stop-color="#E39A65"/>
<stop offset="0.4" stop-color="#A92FFB"/>
<stop offset="0.55" stop-color="#881BFA"/>
<stop offset="0.73" stop-color="#6507FA"/>
<stop offset="1" stop-color="#3919BB"/>
</radialGradient>
<radialGradient id="paint26_radial_531_2890" cx="0" cy="0" r="1" gradientUnits="userSpaceOnUse" gradientTransform="translate(280.822 29.0336) rotate(90.2869) scale(118.901 39.6663)">
<stop stop-color="#F8359E"/>
<stop offset="0.369792" stop-color="#E8975B"/>
<stop offset="0.734375" stop-color="#7C1DC9"/>
<stop offset="0.96875" stop-color="#3919BB"/>
</radialGradient>
<radialGradient id="paint27_radial_531_2890" cx="0" cy="0" r="1" gradientUnits="userSpaceOnUse" gradientTransform="translate(187.045 -3.11074) rotate(90.5356) scale(178.358 111.062)">
<stop stop-color="#F8359E"/>
<stop offset="0.369792" stop-color="#E8975B"/>
<stop offset="0.734375" stop-color="#7C1DC9"/>
<stop offset="0.96875" stop-color="#3919BB"/>
</radialGradient>
<radialGradient id="paint28_radial_531_2890" cx="0" cy="0" r="1" gradientUnits="userSpaceOnUse" gradientTransform="translate(323.256 122.564) rotate(90.7378) scale(178.365 152.988)">
<stop stop-color="#F8359E"/>
<stop offset="0.369792" stop-color="#E8975B"/>
<stop offset="0.734375" stop-color="#7C1DC9"/>
<stop offset="0.96875" stop-color="#3919BB"/>
</radialGradient>
</defs>
</svg>
