<svg width="451" height="401" viewBox="0 0 451 401" fill="none" xmlns="http://www.w3.org/2000/svg">
<g clip-path="url(#clip0_289_14147)">
<path opacity="0.6" d="M253.886 399.072L188.623 361.387C186.224 360.01 186.524 357.593 189.294 356.005L258.455 315.973C261.225 314.385 265.389 314.209 267.788 315.585L333.051 353.271C335.45 354.647 335.15 357.064 332.38 358.652L263.219 398.684C260.449 400.272 256.285 400.449 253.886 399.072Z" fill="#020230"/>
<path d="M260.713 381.623C257.89 381.623 255.05 380.9 252.527 379.435L222.921 362.339C221.581 361.563 220.787 360.187 220.787 358.634C220.787 357.082 221.581 355.705 222.921 354.929L252.527 337.833C257.573 334.922 263.836 334.922 268.882 337.833L298.487 354.929C299.828 355.705 300.622 357.082 300.622 358.634C300.622 360.187 299.828 361.563 298.487 362.339L268.882 379.435C266.359 380.9 263.536 381.623 260.713 381.623ZM260.713 337.939C258.278 337.939 255.844 338.574 253.674 339.826L224.068 356.923C223.433 357.276 223.063 357.928 223.063 358.652C223.063 359.375 223.433 360.028 224.068 360.381L253.674 377.477C258.014 379.982 263.413 379.982 267.753 377.477L297.358 360.381C297.993 360.028 298.364 359.375 298.364 358.652C298.364 357.928 297.993 357.276 297.358 356.923L267.753 339.826C265.583 338.574 263.148 337.939 260.713 337.939Z" fill="#E8975B"/>
<path d="M334.656 236.332L309.92 236.896L267.788 212.566C265.389 211.19 261.225 211.366 258.455 212.954L213.288 239.102L187 239.701V328.57H187.035C187.035 329.453 187.529 330.317 188.623 330.935L253.885 368.603C256.285 369.979 260.449 369.803 263.219 368.215L332.38 328.182C333.792 327.371 334.55 326.33 334.638 325.342V236.314L334.656 236.332Z" fill="url(#paint0_linear_289_14147)"/>
<mask id="mask0_289_14147" style="mask-type:luminance" maskUnits="userSpaceOnUse" x="187" y="195" width="148" height="86">
<path d="M253.886 279.698L188.623 242.013C186.224 240.636 186.524 238.219 189.294 236.631L258.455 196.599C261.225 195.011 265.389 194.835 267.788 196.211L333.051 233.897C335.45 235.273 335.15 237.69 332.38 239.278L263.219 279.31C260.449 280.898 256.285 281.075 253.886 279.698Z" fill="white"/>
</mask>
<g mask="url(#mask0_289_14147)">
<path d="M335.432 194.834H186.224V281.092H335.432V194.834Z" fill="#3919BB"/>
<path d="M308.545 282.84H184.478V193.053H337.215V266.29H345.808C342.526 269.607 338.944 272.871 335.081 276.082C327.37 282.487 318.514 288.609 308.528 294.343V282.84H308.545Z" fill="#3919BB"/>
<path d="M307.98 282.84H184.459V193.053H337.197V266.096H345.083C341.802 269.395 338.255 272.659 334.409 275.835C326.734 282.204 317.913 288.291 307.98 294.025V282.84Z" fill="#3A19BC"/>
<path d="M307.434 282.84H184.478V193.053H337.215V265.884H344.379C341.115 269.184 337.568 272.412 333.757 275.588C326.1 281.922 317.331 287.991 307.434 293.69V282.822V282.84Z" fill="#3A18BD"/>
<path d="M306.887 282.84H184.478V193.053H337.215V265.69H343.673C340.426 268.972 336.898 272.201 333.087 275.359C325.465 281.675 316.732 287.709 306.887 293.39V282.84Z" fill="#3B18BE"/>
<path d="M306.321 282.84H184.459V193.053H337.197V265.496H342.931C339.702 268.76 336.191 271.971 332.398 275.112C324.811 281.393 316.113 287.409 306.304 293.055V282.84H306.321Z" fill="#3C18BF"/>
<path d="M305.775 282.84H184.478V193.053H337.215V265.302H342.244C339.033 268.549 335.539 271.742 331.764 274.882C324.212 281.146 315.549 287.127 305.793 292.755V282.857L305.775 282.84Z" fill="#3D18C0"/>
<path d="M305.228 282.84H184.478V193.053H337.215V265.09H341.52C338.327 268.319 334.834 271.513 331.076 274.618C323.56 280.846 314.932 286.809 305.228 292.402V282.822V282.84Z" fill="#3D17C1"/>
<path d="M304.663 282.84H184.459V193.053H337.197V255.087H349.529C338.996 268.354 324.017 280.952 304.663 292.102V282.84Z" fill="#3E17C2"/>
<path d="M304.117 282.84H184.478V193.053H337.215V254.928H348.789C338.309 268.125 323.383 280.687 304.134 291.767V282.822L304.117 282.84Z" fill="#3F17C3"/>
<path d="M303.57 282.84H184.478V193.053H337.215V254.769H348.031C337.604 267.913 322.748 280.405 303.57 291.449V282.822V282.84Z" fill="#3F16C4"/>
<path d="M303.004 282.84H184.459V193.053H337.197V254.628H347.253C336.862 267.719 322.077 280.158 302.987 291.132V282.822L303.004 282.84Z" fill="#4016C5"/>
<path d="M302.458 282.84H184.478V193.053H337.215V254.469H346.531C336.192 267.49 321.478 279.876 302.476 290.814V282.84H302.458Z" fill="#4116C6"/>
<path d="M301.911 282.84H184.478V193.053H337.215V254.31H345.772C335.486 267.278 320.825 279.611 301.911 290.497V282.84Z" fill="#4216C7"/>
<path d="M301.346 282.84H184.459V193.053H337.197V254.152H344.995C334.744 267.067 320.171 279.329 301.346 290.162V282.822V282.84Z" fill="#4215C8"/>
<path d="M300.8 282.84H184.478V193.053H337.215V254.011H344.255C334.057 266.855 319.537 279.064 300.8 289.862V282.84Z" fill="#4315C9"/>
<path d="M300.253 282.84H184.478V193.053H337.215V253.852H343.514C333.369 266.643 318.919 278.799 300.253 289.526V282.822V282.84Z" fill="#4415CA"/>
<path d="M299.687 282.84H184.459V193.053H337.197V253.693H342.737C332.627 266.414 318.248 278.517 299.687 289.209V282.822V282.84Z" fill="#4414CB"/>
<path d="M299.141 282.84H184.478V193.053H337.215V253.552H341.997C331.94 266.22 317.631 278.27 299.141 288.909V282.84Z" fill="#4514CC"/>
<path d="M298.594 282.84H184.478V193.053H337.215V253.393H341.256C331.252 266.008 316.996 277.988 298.612 288.574V282.84H298.594Z" fill="#4614CD"/>
<path d="M298.029 282.84H184.459V193.053H337.197V253.234H340.478C330.51 265.779 316.343 277.723 298.029 288.256V282.84Z" fill="#4613CE"/>
<path d="M297.483 282.84H184.478V193.053H337.215V253.075H339.738C329.823 265.567 315.708 277.441 297.483 287.921V282.822V282.84Z" fill="#4713CF"/>
<path d="M296.936 282.84H184.478V193.053H337.215V252.934H338.98C329.117 265.373 315.073 277.176 296.936 287.621V282.84Z" fill="#4813D0"/>
<path d="M296.37 282.84H184.459V193.053H337.197V252.776H338.22C328.393 265.143 314.419 276.911 296.37 287.303V282.84Z" fill="#4913D1"/>
<path d="M295.824 282.84H184.478V193.053H337.215V252.617H337.48C327.706 264.932 313.803 276.629 295.842 286.968V282.822L295.824 282.84Z" fill="#4912D2"/>
<path d="M295.277 282.84H184.478V193.053H337.215V233.721H348.207C345.419 240.055 341.573 246.336 336.721 252.458C327 264.702 313.15 276.365 295.277 286.651V282.84Z" fill="#4A12D3"/>
<path d="M294.712 282.84H184.459V193.053H337.197V233.668H347.395C344.607 239.967 340.796 246.212 335.962 252.317C326.276 264.508 312.514 276.1 294.712 286.333V282.84Z" fill="#4B12D4"/>
<path d="M294.165 282.84H184.459V193.053H337.197V233.597H346.583C343.813 239.878 340.02 246.089 335.203 252.158C325.57 264.297 311.861 275.818 294.165 286.015V282.84Z" fill="#4B11D5"/>
<path d="M293.619 282.84H184.478V193.053H337.215V233.527H345.79C343.038 239.772 339.262 245.965 334.463 251.999C324.883 264.067 311.245 275.553 293.619 285.698V282.84Z" fill="#4C11D6"/>
<path d="M293.053 282.84H184.459V193.053H337.197V233.474H344.96C342.225 239.684 338.467 245.842 333.686 251.858C324.141 263.873 310.573 275.288 293.053 285.38V282.84Z" fill="#4D11D7"/>
<path d="M292.507 282.84H184.459V193.053H337.197V214.79H349.265C346.512 239.596 327.37 264.985 292.489 285.063V282.84H292.507Z" fill="#4E11D8"/>
<path d="M291.961 282.84H184.478V193.053H337.215V214.807H348.454C345.719 239.49 326.682 264.755 291.961 284.727V282.822V282.84Z" fill="#4E10D9"/>
<path d="M291.395 282.84H184.459V193.053H337.197V214.843H347.606C344.889 239.402 325.94 264.526 291.395 284.41V282.84Z" fill="#4F10DB"/>
<path d="M290.848 282.84H184.459V193.053H337.197V214.878H346.759C344.06 239.314 325.199 264.314 290.83 284.092V282.84H290.848Z" fill="#5010DC"/>
<path d="M290.302 282.84H184.478V193.053H337.215V214.896H345.949C343.249 239.208 324.495 264.085 290.302 283.757V282.822V282.84Z" fill="#500FDD"/>
<path d="M289.737 282.84H184.459V193.053H337.197V214.931H345.101C342.419 239.12 323.753 263.873 289.737 283.457V282.84Z" fill="#510FDE"/>
<path d="M289.19 282.84H184.459V193.053H337.197V214.966H344.254C341.59 239.031 323.012 263.661 289.172 283.14V282.84H289.19Z" fill="#520FDF"/>
<path d="M288.644 282.822C284.427 285.239 280.087 287.533 275.623 289.668V282.84H184.478V193.053H337.215V214.984H343.443C340.797 238.926 322.324 263.432 288.644 282.804V282.822Z" fill="#530FE0"/>
<path d="M288.078 282.504C283.897 284.921 279.574 287.18 275.128 289.315V282.84H184.459V193.053H337.197V215.019H342.596C339.967 238.837 321.583 263.22 288.078 282.487V282.504Z" fill="#530EE1"/>
<path d="M287.531 282.187C279.204 286.986 270.329 291.238 261.049 294.925V282.84H184.459V193.053H337.197V215.054H341.749C339.12 238.749 320.842 262.991 287.514 282.169L287.531 282.187Z" fill="#540EE2"/>
<path d="M286.985 281.85C278.693 286.614 269.871 290.848 260.644 294.536V282.838H184.478V193.052H333.087V180.825C339.65 191.64 342.244 203.285 340.938 215.071C338.327 238.642 320.137 262.76 286.985 281.85Z" fill="#550EE3"/>
<path d="M286.42 281.533C278.18 286.279 269.394 290.478 260.219 294.148V282.839H184.459V193.052H332.274V181.037C338.802 191.799 341.378 203.391 340.073 215.106C337.479 238.554 319.377 262.549 286.402 281.533H286.42Z" fill="#550DE4"/>
<path d="M285.874 281.216C277.67 285.944 268.936 290.126 259.815 293.76V282.839H184.478V193.053H331.499V181.25C337.992 191.959 340.55 203.48 339.262 215.142C336.686 238.466 318.672 262.338 285.874 281.216Z" fill="#560DE5"/>
<path d="M285.327 280.897C277.176 285.59 268.477 289.754 259.409 293.371V282.838H184.478V193.052H330.705V181.442C337.162 192.081 339.721 203.549 338.433 215.159C335.857 238.359 317.967 262.107 285.327 280.88V280.897Z" fill="#570DE6"/>
<path d="M284.761 280.581C276.645 285.256 268 289.385 258.967 293.002V282.857H184.459V193.07H329.893V181.673C336.315 192.259 338.855 203.674 337.567 215.213C335.009 238.29 317.207 261.914 284.744 280.581H284.761Z" fill="#580DE7"/>
<path d="M284.214 280.263C276.151 284.904 267.541 289.032 258.561 292.614V282.857H184.459V193.071H329.099V181.885C335.485 192.418 338.008 203.762 336.738 215.248C334.198 238.202 316.484 261.685 284.197 280.281L284.214 280.263Z" fill="#580CE8"/>
<path d="M283.668 279.946C275.641 284.569 267.084 288.662 258.156 292.226V282.84H184.478V193.053H328.323V182.079C334.675 192.559 337.18 203.833 335.927 215.248C333.404 238.079 315.779 261.438 283.668 279.928V279.946Z" fill="#590CE9"/>
<path d="M283.103 279.61C275.11 284.197 266.606 288.272 257.732 291.819V282.821H184.459V193.034H327.511V182.272C333.827 192.699 336.332 203.92 335.062 215.265C332.539 237.972 315.019 261.208 283.085 279.592L283.103 279.61Z" fill="#5A0CEA"/>
<path d="M282.557 279.293C274.617 283.862 266.148 287.92 257.327 291.449V282.839H184.478V193.053H326.735V182.484C333.016 192.841 335.504 204.009 334.251 215.301C331.746 237.884 314.314 260.997 282.557 279.275V279.293Z" fill="#5A0BEB"/>
<path d="M282.009 278.974C274.105 283.526 265.689 287.549 256.903 291.06V282.838H184.459V193.052H325.923V182.695C332.169 192.999 334.639 204.097 333.404 215.335C330.916 237.795 313.59 260.784 281.991 278.957L282.009 278.974Z" fill="#5B0BEC"/>
<path d="M281.444 278.657C273.593 283.174 265.23 287.179 256.479 290.672V282.838H184.459V193.052H325.129V182.907C331.339 193.158 333.809 204.203 332.557 215.371C330.087 237.707 312.849 260.573 281.427 278.639L281.444 278.657Z" fill="#5C0BED"/>
<path d="M280.897 278.34C273.081 282.839 264.771 286.826 256.073 290.284V282.839H184.459V193.052H324.335V183.119C330.528 193.317 332.962 204.291 331.727 215.406C329.275 237.619 312.126 260.361 280.88 278.34H280.897Z" fill="#5C0AEE"/>
<path d="M280.351 278.022C272.588 282.486 264.314 286.456 255.668 289.914V282.856H184.478V193.07H323.56V183.349C329.717 193.493 332.134 204.397 330.917 215.442C328.464 237.531 311.421 260.132 280.351 278.022Z" fill="#5D0AEF"/>
<path d="M279.786 277.704C272.058 282.15 263.836 286.085 255.244 289.525V282.856H184.459V193.07H322.747V183.56C328.869 193.634 331.269 204.503 330.051 215.477C327.617 237.442 310.661 259.92 279.768 277.704H279.786Z" fill="#5E0AF0"/>
<path d="M279.239 277.369C271.564 281.798 263.378 285.715 254.821 289.12V282.839H184.459V193.052H321.953V183.737C328.04 193.758 330.439 204.556 329.222 215.477C326.805 237.319 309.938 259.673 279.221 277.352L279.239 277.369Z" fill="#5F0AF1"/>
<path d="M278.692 277.052C271.052 281.445 262.919 285.344 254.415 288.732V282.839H184.459V193.053H321.159V183.949C327.211 193.917 329.593 204.644 328.393 215.512C325.993 237.231 309.232 259.462 278.674 277.034L278.692 277.052Z" fill="#5F09F2"/>
<path d="M278.127 276.735C270.541 281.11 262.443 284.974 253.991 288.361V282.857H184.459V193.07H320.365V184.178C326.382 194.094 328.746 204.768 327.546 215.566C325.147 237.161 308.491 259.268 278.11 276.752L278.127 276.735Z" fill="#6009F3"/>
<path d="M277.581 276.417C270.03 280.757 261.985 284.621 253.586 287.973V282.839H184.478V193.053H319.59V184.372C325.571 194.217 327.935 204.838 326.735 215.583C324.354 237.055 307.786 259.038 277.581 276.417Z" fill="#6109F4"/>
<path d="M277.034 276.099C269.536 280.422 261.526 284.251 253.181 287.585V282.839H184.478V193.053H318.796V184.584C324.742 194.376 327.088 204.927 325.906 215.618C323.542 236.967 307.063 258.827 277.034 276.099Z" fill="#6108F5"/>
<path d="M276.47 275.782C269.007 280.069 261.05 283.88 252.757 287.197V282.839H184.478V193.052H318.002V184.778C323.912 194.517 326.241 205.015 325.077 215.618C322.73 236.843 306.34 258.562 276.487 275.746L276.47 275.782Z" fill="#6208F6"/>
<path d="M275.922 275.464C268.494 279.733 260.59 283.527 252.333 286.808V282.839H184.459V193.052H317.189V184.989C323.065 194.675 325.376 205.103 324.211 215.653C321.883 236.754 305.58 258.35 275.904 275.428L275.922 275.464Z" fill="#6308F7"/>
<path d="M275.376 275.129C260.626 283.615 243.936 290.178 226.398 294.783V282.839H184.478V193.052H316.414V185.201C322.254 194.834 324.565 205.191 323.401 215.689C321.072 236.666 304.893 258.138 275.376 275.129Z" fill="#6408F8"/>
<path d="M274.81 274.811C260.149 283.244 243.547 289.772 226.115 294.359V282.838H184.459V193.052H315.602V185.413C321.406 194.975 323.7 205.297 322.553 215.724C320.242 236.578 304.151 257.926 274.81 274.811Z" fill="#6407F9"/>
<path d="M274.263 274.493C259.69 282.891 243.194 289.366 225.85 293.918V282.838H184.459V193.052H314.808V185.624C320.577 195.134 322.853 205.384 321.706 215.759C319.413 236.489 303.41 257.714 274.246 274.493H274.263Z" fill="#6507FA"/>
<path d="M273.717 274.176C259.232 282.521 242.824 288.961 225.604 293.477V282.838H184.478V193.052H314.032V185.836C319.766 195.293 322.042 205.473 320.895 215.794C318.619 236.401 302.705 257.503 273.717 274.176Z" fill="#6507FA"/>
<path d="M273.241 273.894C258.827 282.186 242.507 288.608 225.375 293.107V282.839H184.478V193.052H313.362V186.013C319.078 195.417 321.319 205.561 320.19 215.812C317.914 236.314 302.088 257.309 273.259 273.894H273.241Z" fill="#6607FA"/>
<path d="M272.765 273.628C258.421 281.885 242.189 288.272 225.146 292.736V282.838H184.478V193.052H312.691V186.188C318.372 195.557 320.613 205.631 319.484 215.829C317.226 236.225 301.488 257.114 272.782 273.611L272.765 273.628Z" fill="#6708FA"/>
<path d="M272.305 273.347C258.032 281.569 241.888 287.902 224.915 292.366V282.839H184.459V193.053H311.985V186.366C317.631 195.681 319.871 205.703 318.742 215.865C316.501 236.155 300.834 256.939 272.287 273.364L272.305 273.347Z" fill="#6708FA"/>
<path d="M271.829 273.082C257.626 281.251 241.571 287.568 224.686 291.996V282.839H184.459V193.053H311.314V186.542C316.942 195.805 319.148 205.791 318.036 215.883C315.796 236.067 300.217 256.727 271.829 273.082Z" fill="#6809FA"/>
<path d="M271.352 272.817C257.22 280.95 241.253 287.231 224.457 291.642V282.856H184.459V193.069H310.626V186.735C316.219 195.945 318.424 205.878 317.313 215.917C315.09 236.013 299.581 256.55 271.335 272.817H271.352Z" fill="#6909FA"/>
<path d="M270.876 272.536C256.832 280.616 240.935 286.88 224.227 291.255V282.839H184.459V193.053H309.956V186.896C315.513 196.07 317.719 205.933 316.607 215.936C314.402 235.926 298.982 256.357 270.876 272.536Z" fill="#6A0AFA"/>
<path d="M270.418 272.271C256.445 280.316 240.636 286.527 224.017 290.884V282.839H184.478V193.053H309.304V187.072C314.844 196.193 317.014 206.021 315.92 215.954C313.715 235.838 298.383 256.163 270.436 272.253L270.418 272.271Z" fill="#6B0AFA"/>
<path d="M269.941 271.988C256.038 279.981 240.318 286.174 223.786 290.514V282.839H184.459V193.053H308.597V187.248C314.102 196.317 316.272 206.091 315.178 215.971C312.99 235.749 297.729 255.968 269.923 271.971L269.941 271.988Z" fill="#6C0BFA"/>
<path d="M269.465 271.724C255.632 279.681 240 285.838 223.557 290.143V282.839H184.459V193.053H307.927V187.424C313.396 196.44 315.566 206.161 314.472 216.006C312.302 235.679 297.111 255.792 269.465 271.706V271.724Z" fill="#6D0CFA"/>
<path d="M269.007 271.44C255.245 279.362 239.701 285.484 223.346 289.771V282.838H184.478V193.051H307.275V187.6C312.727 196.58 314.861 206.248 313.785 216.023C311.615 235.589 296.53 255.597 269.024 271.423L269.007 271.44Z" fill="#6E0CFA"/>
<path d="M268.53 271.176C254.857 279.045 239.384 285.132 223.117 289.402V282.839H184.478V193.052H306.587V187.777C312.003 196.704 314.138 206.32 313.062 216.041C310.909 235.502 295.895 255.403 268.53 271.141V271.176Z" fill="#6F0DFA"/>
<path d="M268.054 270.895C254.451 278.729 239.066 284.78 222.887 289.015V282.822H184.478V193.035H305.916V187.937C311.298 196.811 313.432 206.374 312.356 216.06C310.221 235.414 295.277 255.21 268.072 270.877L268.054 270.895Z" fill="#700DFA"/>
<path d="M267.577 270.63C254.044 278.41 238.748 284.444 222.657 288.661V282.839H184.459V193.052H305.21V188.147C310.573 196.969 312.673 206.496 311.614 216.112C309.479 235.361 294.641 255.051 267.577 270.63Z" fill="#710EFA"/>
<path d="M267.119 270.347C253.657 278.092 238.431 284.073 222.446 288.273V282.838H184.478V193.052H304.558V188.324C309.886 197.11 311.986 206.567 310.927 216.129C308.81 235.272 294.042 254.856 267.119 270.347Z" fill="#720EFA"/>
<path d="M266.642 270.082C239.877 285.485 206.09 293.901 173.115 295.065L184.46 282.856V193.07H303.869V188.518C309.162 197.251 311.262 206.655 310.203 216.182C308.104 235.219 293.407 254.697 266.642 270.1V270.082Z" fill="#730FFA"/>
<path d="M266.165 269.8C239.541 285.115 205.949 293.495 173.15 294.642L184.459 282.839V193.052H303.18V188.677C308.456 197.357 310.538 206.726 309.479 216.183C307.38 235.114 292.771 254.486 266.147 269.8H266.165Z" fill="#7410FA"/>
<path d="M265.706 269.535C239.241 284.762 205.825 293.089 173.22 294.236L184.477 282.838V193.052H302.527V188.853C307.767 197.498 309.832 206.796 308.791 216.2C306.709 235.025 292.188 254.292 265.706 269.518V269.535Z" fill="#7410FA"/>
<path d="M265.23 269.253C238.906 284.408 205.684 292.683 173.256 293.812L184.477 282.82V193.034H301.857V189.011C307.062 197.603 309.126 206.849 308.085 216.217C306.021 234.937 291.571 254.097 265.248 269.235L265.23 269.253Z" fill="#7511FA"/>
<path d="M264.753 268.989C238.57 284.057 205.542 292.278 173.291 293.407L184.459 282.839V193.053H301.151V189.207C306.338 197.746 308.385 206.938 307.344 216.254C305.279 234.867 290.918 253.922 264.735 268.972L264.753 268.989Z" fill="#7611FA"/>
<path d="M264.277 268.706C238.253 283.685 205.402 291.872 173.326 293.001L184.441 282.838V193.052H300.463V189.382C305.615 197.869 307.644 207.026 306.621 216.271C304.574 234.778 290.283 253.71 264.259 268.689L264.277 268.706Z" fill="#7712FA"/>
<path d="M263.82 268.442C237.937 283.333 205.28 291.466 173.398 292.596L184.478 282.839V193.052H299.812V189.559C304.929 198.01 306.958 207.096 305.934 216.306C303.888 234.708 289.703 253.533 263.82 268.442Z" fill="#7812FA"/>
<path d="M263.343 268.177C237.601 282.979 205.138 291.077 173.433 292.189L184.46 282.856V193.069H299.123V189.752C304.222 198.151 306.234 207.184 305.21 216.341C303.181 234.637 289.067 253.356 263.325 268.177H263.343Z" fill="#7913FA"/>
<path d="M262.867 267.895C237.284 282.627 204.997 290.672 173.469 291.766L184.46 282.838V193.052H298.453V189.912C303.517 198.257 305.511 207.255 304.505 216.341C302.494 234.531 288.45 253.145 262.867 267.877V267.895Z" fill="#7A14FA"/>
<path d="M262.408 267.63C236.966 282.274 204.873 290.267 173.539 291.36L184.478 282.839V193.052H297.783V190.088C302.811 198.381 304.805 207.326 303.799 216.377C301.788 234.461 287.832 252.969 262.408 267.613V267.63Z" fill="#7B14FA"/>
<path d="M261.931 267.347C236.648 281.903 204.732 289.86 173.574 290.936L184.477 282.838V193.052H297.112V190.264C302.122 198.521 304.098 207.396 303.093 216.394C301.099 234.372 287.231 252.774 261.931 267.33V267.347Z" fill="#7C15FA"/>
<path d="M261.455 267.083C236.313 281.551 204.591 289.455 173.609 290.549L184.46 282.856V193.07H296.424V190.477C301.399 198.681 303.358 207.52 302.37 216.447C300.394 234.32 286.597 252.616 261.455 267.083Z" fill="#7D15FA"/>
<path d="M260.996 266.801C235.996 281.18 204.467 289.049 173.68 290.125L184.477 282.839V193.052H295.753V190.635C300.693 198.786 302.652 207.573 301.664 216.465C299.688 234.232 285.979 252.422 260.996 266.801Z" fill="#7F16FA"/>
<path d="M260.519 266.536C235.677 280.827 204.325 288.643 173.714 289.719L184.477 282.839V193.052H295.082V190.812C300.005 198.91 301.945 207.643 300.957 216.482C298.999 234.143 285.361 252.228 260.519 266.519V266.536Z" fill="#8017FA"/>
<path d="M260.043 266.254C235.342 280.475 204.185 288.238 173.75 289.296L184.459 282.839V193.053H294.377V190.988C299.264 199.051 301.187 207.732 300.217 216.5C298.276 234.055 284.726 252.034 260.025 266.254H260.043Z" fill="#8117FA"/>
<path d="M259.566 265.988C235.024 280.121 204.043 287.831 173.785 288.889L184.459 282.838V193.051H293.706V191.164C298.558 199.174 300.481 207.801 299.51 216.535C297.569 233.984 284.108 251.856 259.548 265.988H259.566Z" fill="#8218FA"/>
<path d="M259.108 265.707C234.707 279.751 203.92 287.426 173.856 288.484L184.477 282.839V193.052H293.054V191.341C297.888 199.298 299.793 207.873 298.823 216.553C296.9 233.914 283.509 251.663 259.108 265.707Z" fill="#8318FA"/>
<path d="M258.632 265.443C234.372 279.398 203.779 287.02 173.891 288.079L184.459 282.856V193.07H292.348V191.535C297.147 199.439 299.052 207.979 298.082 216.589C296.176 233.844 282.856 251.487 258.614 265.443H258.632Z" fill="#8419FA"/>
<path d="M258.155 265.16C234.054 279.027 203.619 286.614 173.926 287.655L184.459 282.838V193.052H291.677V191.693C296.44 199.562 298.328 208.031 297.375 216.606C295.47 233.755 282.255 251.292 258.137 265.16H258.155Z" fill="#851AFA"/>
<path d="M257.697 264.896C233.738 278.675 203.497 286.209 173.998 287.25L184.478 282.839V193.053H291.025V191.871C295.771 199.687 297.641 208.102 296.688 216.624C294.801 233.667 281.657 251.099 257.697 264.878V264.896Z" fill="#861AFA"/>
<path d="M257.22 264.613C233.402 278.322 203.356 285.802 174.033 286.826L184.478 282.838V193.052H290.337V192.046C295.048 199.809 296.918 208.19 295.965 216.641C294.095 233.579 281.021 250.904 257.22 264.595V264.613Z" fill="#871BFA"/>
<path d="M256.745 264.349C233.085 277.969 203.215 285.415 174.068 286.42L184.46 282.839V193.052H289.649V192.223C294.325 199.951 296.177 208.261 295.242 216.677C293.372 233.508 280.404 250.71 256.727 264.331L256.745 264.349Z" fill="#881BFB"/>
<path d="M256.268 264.067C232.749 277.599 203.073 284.992 174.103 286.015L184.46 282.839V193.053H288.96V192.4C293.618 200.075 295.453 208.332 294.518 216.695C292.665 233.42 279.768 250.517 256.25 264.049L256.268 264.067Z" fill="#891CFB"/>
<path d="M255.809 263.801C232.449 277.246 202.949 284.603 174.173 285.608L184.477 282.838V193.052H288.307V192.576C292.93 200.198 294.765 208.419 293.83 216.712C291.995 233.332 279.168 250.322 255.809 263.784V263.801Z" fill="#8A1DFB"/>
<path d="M255.333 263.52C232.114 276.876 202.809 284.18 174.209 285.186L184.46 282.839V193.053H287.62V192.771C292.207 200.339 294.024 208.508 293.107 216.765C291.272 233.279 278.533 250.164 255.315 263.537L255.333 263.52Z" fill="#8B1DFB"/>
<path d="M254.856 263.255C231.778 276.54 202.667 283.792 174.244 284.78L184.459 282.839V193.053H286.931V192.947C291.5 200.48 293.3 208.579 292.4 216.783C290.583 233.191 277.933 249.97 254.856 263.255Z" fill="#8C1EFB"/>
<path d="M254.398 262.99C231.479 276.187 202.545 283.385 174.315 284.373L184.478 282.838V193.052H277.405V182.396C281.057 185.783 284.003 189.382 286.279 193.123C290.814 200.603 292.613 208.649 291.713 216.8C289.914 233.102 277.334 249.775 254.416 262.972L254.398 262.99Z" fill="#8D1FFB"/>
<path d="M253.921 262.708C231.144 275.816 202.403 282.98 174.35 283.95L184.477 282.838V193.052H276.787V182.643C280.404 186.012 283.35 189.576 285.608 193.299C290.125 200.727 291.889 208.737 291.007 216.835C289.208 233.032 276.716 249.599 253.939 262.708H253.921Z" fill="#8E1FFB"/>
<path d="M253.445 262.443C230.826 275.464 202.262 282.574 174.385 283.562L184.46 282.856V193.07H276.151V182.907C279.751 186.259 282.662 189.806 284.902 193.493C289.384 200.868 291.148 208.825 290.266 216.87C288.484 232.961 276.063 249.422 253.445 262.443Z" fill="#8F20FB"/>
<path d="M252.968 262.161C230.491 275.093 202.121 282.168 174.438 283.139L184.477 282.839V193.052H275.552V183.137C279.133 186.454 282.027 189.982 284.25 193.652C288.696 200.992 290.46 208.878 289.578 216.871C287.814 232.855 275.481 249.211 253.004 262.143L252.968 262.161Z" fill="#9020FB"/>
<path d="M252.509 261.897C230.173 274.741 201.997 281.763 174.491 282.733H184.477V193.07H274.934V183.402C278.48 186.701 281.373 190.212 283.579 193.847C288.007 201.133 289.736 208.985 288.872 216.924C287.107 232.803 274.863 249.052 252.527 261.897H252.509Z" fill="#9121FB"/>
<path d="M252.033 261.613C229.855 274.387 201.855 281.356 174.526 282.308H184.459V193.051H274.281V183.63C277.809 186.912 280.668 190.387 282.873 194.004C287.266 201.238 288.995 209.036 288.131 216.923C286.384 232.696 274.21 248.839 252.033 261.595V261.613Z" fill="#9222FB"/>
<path d="M251.557 261.349C229.521 274.035 201.715 280.951 174.562 281.904H184.46V193.07H273.664V183.896C277.175 187.16 280.016 190.618 282.186 194.199C286.544 201.38 288.273 209.125 287.409 216.959C285.68 232.626 273.576 248.664 251.54 261.349H251.557Z" fill="#9322FB"/>
<path d="M251.099 261.068C229.203 273.665 201.592 280.546 174.633 281.498H184.478V193.071H273.064V184.143C276.54 187.372 279.363 190.812 281.533 194.376C285.873 201.522 287.567 209.214 286.72 216.995C284.991 232.556 272.994 248.488 251.099 261.085V261.068Z" fill="#9423FB"/>
<path d="M250.622 260.802C228.885 273.311 201.45 280.157 174.667 281.092H184.477V193.07H272.446V184.389C275.904 187.6 278.71 191.005 280.862 194.552C285.167 201.644 286.861 209.284 286.014 217.011C284.302 232.467 272.376 248.293 250.639 260.802H250.622Z" fill="#9624FB"/>
<path d="M250.146 260.52C228.551 272.941 201.31 279.734 174.704 280.669H184.46V193.053H271.812V184.619C275.252 187.813 278.04 191.2 280.175 194.729C284.444 201.768 286.138 209.355 285.291 217.03C283.598 232.379 271.741 248.099 250.146 260.52Z" fill="#9724FB"/>
<path d="M249.669 260.256C228.232 272.588 201.168 279.346 174.756 280.263H184.46V193.07H271.194V184.884C274.599 188.06 277.369 191.412 279.486 194.923C283.738 201.927 285.414 209.461 284.567 217.083C282.874 232.326 271.105 247.941 249.669 260.273V260.256Z" fill="#9825FB"/>
<path d="M249.21 259.973C227.915 272.236 201.044 278.922 174.809 279.84H184.477V193.053H270.594V185.113C273.981 188.271 276.733 191.606 278.833 195.082C283.05 202.033 284.708 209.514 283.879 217.083C282.203 232.221 270.523 247.711 249.228 259.973H249.21Z" fill="#9925FB"/>
<path d="M248.734 259.709C227.58 271.883 200.903 278.534 174.844 279.434H184.46V193.053H269.959V185.36C273.329 188.483 276.046 191.8 278.145 195.258C282.327 202.157 283.985 209.584 283.156 217.101C281.498 232.133 269.888 247.517 248.734 259.691V259.709Z" fill="#9A26FB"/>
<path d="M248.258 259.426C227.262 271.511 200.762 278.11 174.879 279.027H184.46V193.069H269.324V185.624C272.658 188.729 275.375 192.029 277.457 195.451C281.621 202.297 283.262 209.689 282.432 217.152C280.774 232.079 269.253 247.358 248.258 259.443V259.426Z" fill="#9B27FB"/>
<path d="M247.799 259.161C226.944 271.158 200.638 277.721 174.95 278.621H184.477V193.069H268.723V185.871C272.04 188.958 274.74 192.222 276.786 195.627C280.915 202.438 282.538 209.76 281.727 217.17C280.086 231.99 268.635 247.163 247.799 259.161Z" fill="#9C27FB"/>
<path d="M247.322 258.879C226.627 270.788 200.497 277.298 174.985 278.198H184.477V193.052H268.106V186.101C271.405 189.171 274.069 192.417 276.116 195.787C280.209 202.544 281.832 209.813 281.021 217.17C279.397 231.885 268.035 246.952 247.322 258.879Z" fill="#9D28FB"/>
<path d="M246.845 258.615C226.291 270.436 200.355 276.911 175.02 277.793H184.459V193.053H267.47V186.348C270.734 189.383 273.398 192.611 275.427 195.964C279.503 202.668 281.108 209.902 280.297 217.206C278.673 231.815 267.399 246.776 246.845 258.615Z" fill="#9E29FB"/>
<path d="M246.37 258.351C225.956 270.101 200.215 276.505 175.073 277.388H184.459V193.071H266.853V186.613C270.1 189.63 272.728 192.824 274.757 196.158C278.798 202.81 280.386 209.991 279.592 217.242C277.986 231.762 266.783 246.6 246.387 258.351H246.37Z" fill="#9F29FB"/>
<path d="M245.91 258.068C225.656 269.731 200.091 276.1 175.125 276.964H184.476V193.053H266.253V186.843C269.481 189.842 272.093 193.018 274.086 196.317C278.091 202.933 279.679 210.044 278.885 217.242C277.297 231.657 266.165 246.389 245.91 258.051V258.068Z" fill="#A02AFB"/>
<path d="M245.436 257.803C225.322 269.377 199.951 275.693 175.163 276.575H184.461V193.07H265.619V187.106C268.813 190.088 271.406 193.229 273.4 196.51C277.387 203.074 278.958 210.148 278.164 217.294C276.576 231.603 265.549 246.229 245.436 257.803Z" fill="#A12BFB"/>
<path d="M244.959 257.521C224.987 269.006 199.792 275.287 175.198 276.152H184.46V193.07H265.002V187.354C268.178 190.3 270.753 193.44 272.729 196.687C276.682 203.197 278.234 210.219 277.458 217.312C275.888 231.514 264.931 246.035 244.959 257.521Z" fill="#A22BFB"/>
<path d="M244.501 257.255C224.687 268.653 199.669 274.898 175.269 275.745H184.478V193.069H264.384V187.6C267.543 190.528 270.101 193.634 272.059 196.862C275.976 203.32 277.529 210.289 276.752 217.346C275.2 231.443 264.314 245.858 244.501 257.255Z" fill="#A42CFB"/>
<path d="M244.024 256.974C224.351 268.301 199.527 274.476 175.303 275.323H184.478V193.052H263.766V187.83C266.889 190.741 269.43 193.829 271.388 197.04C275.287 203.462 276.822 210.36 276.046 217.365C274.493 231.356 263.713 245.665 244.041 256.974H244.024Z" fill="#A52CFB"/>
<path d="M243.547 256.709C224.034 267.948 199.386 274.088 175.338 274.917H184.46V193.07H263.131V188.095C266.236 190.988 268.759 194.04 270.682 197.234C274.546 203.603 276.064 210.466 275.305 217.4C273.77 231.285 263.061 245.488 243.529 256.709H243.547Z" fill="#A62DFB"/>
<path d="M243.07 256.427C223.698 267.578 199.244 273.664 175.391 274.511H184.459V193.07H262.513V188.342C265.6 191.2 268.088 194.252 270.011 197.41C273.84 203.727 275.357 210.537 274.598 217.435C273.081 231.215 262.442 245.312 243.07 256.462V256.427Z" fill="#A72EFB"/>
<path d="M242.612 256.163C223.38 267.225 199.121 273.277 175.444 274.106H184.477V193.071H261.913V188.589C264.966 191.43 267.453 194.447 269.359 197.587C273.17 203.868 274.669 210.608 273.911 217.454C272.393 231.127 261.843 245.118 242.629 256.181L242.612 256.163Z" fill="#A82EFB"/>
<path d="M242.135 255.88C223.063 266.854 198.98 272.852 175.479 273.682H184.459V193.052H250.427V180.914C284.002 200.356 280.28 233.914 242.135 255.88Z" fill="#A92FFB"/>
<path d="M241.659 255.615C222.728 266.501 198.839 272.464 175.532 273.276H184.477V193.07H249.916V181.231C283.226 200.533 279.539 233.825 241.677 255.615H241.659Z" fill="#A92FFB"/>
<path d="M241.27 255.385C222.462 266.201 198.732 272.111 175.584 272.923H184.476V193.07H249.456V181.496C282.537 200.656 278.885 233.737 241.27 255.385Z" fill="#A930FA"/>
<path d="M240.865 255.139C222.181 265.884 198.627 271.759 175.62 272.57H184.477V193.052H248.998V181.743C281.868 200.78 278.233 233.632 240.865 255.139Z" fill="#AA30F9"/>
<path d="M240.46 254.91C221.917 265.584 198.504 271.424 175.639 272.218H184.46V193.052H248.523V182.008C281.163 200.921 277.546 233.544 240.46 254.91Z" fill="#AA31F8"/>
<path d="M240.053 254.68C221.634 265.283 198.38 271.07 175.673 271.864H184.46V193.052H248.063V182.272C280.492 201.044 276.893 233.473 240.053 254.662V254.68Z" fill="#AB32F7"/>
<path d="M239.648 254.451C221.352 264.984 198.257 270.736 175.709 271.529H184.46V193.07H247.605V182.555C279.804 201.204 276.24 233.402 239.648 254.451Z" fill="#AB33F6"/>
<path d="M239.26 254.222C221.087 264.684 198.151 270.401 175.762 271.177H184.46V193.071H247.146V182.82C279.116 201.345 275.587 233.315 239.242 254.222H239.26Z" fill="#AB33F5"/>
<path d="M238.854 253.974C220.805 264.366 198.028 270.029 175.797 270.806H184.46V193.052H246.688V183.066C278.446 201.45 274.935 233.208 238.837 253.974H238.854Z" fill="#AC34F4"/>
<path d="M238.448 253.745C220.523 264.049 197.922 269.695 175.833 270.471H184.46V193.07H246.229V183.349C277.757 201.609 274.264 233.138 238.431 253.763L238.448 253.745Z" fill="#AC35F3"/>
<path d="M238.042 253.516C220.258 263.749 197.798 269.342 175.868 270.118H184.46V193.07H245.788V183.613C277.104 201.751 273.629 233.05 238.042 253.533V253.516Z" fill="#AD35F2"/>
<path d="M237.636 253.286C219.976 263.449 197.675 269.007 175.903 269.765H184.46V193.053H245.329V183.843C276.416 201.857 272.976 232.926 237.636 253.269V253.286Z" fill="#AD36F1"/>
<path d="M237.248 253.057C219.71 263.148 197.568 268.671 175.955 269.429H184.459V193.07H244.87V184.125C275.728 201.997 272.322 232.855 237.23 253.057H237.248Z" fill="#AD37F0"/>
<path d="M236.842 252.81C219.428 262.831 197.444 268.301 175.99 269.06H184.459V193.053H244.411V184.372C275.057 202.121 271.669 232.767 236.842 252.81Z" fill="#AE38EF"/>
<path d="M236.438 252.58C219.147 262.531 197.34 267.965 176.027 268.706H184.461V193.052H243.954V184.636C274.371 202.262 271.001 232.679 236.438 252.563V252.58Z" fill="#AE38EE"/>
<path d="M236.032 252.351C218.865 262.231 197.217 267.63 176.062 268.371H184.461V193.07H243.495V184.918C273.7 202.403 270.348 232.608 236.032 252.351Z" fill="#AE39ED"/>
<path d="M235.625 252.122C218.582 261.932 197.093 267.278 176.097 268.019H184.46V193.07H243.036V185.184C273.011 202.545 269.694 232.52 235.625 252.122Z" fill="#AF3AEC"/>
<path d="M235.237 251.892C218.334 261.631 196.986 266.942 176.149 267.665H184.459V193.07H242.576V185.448C272.34 202.685 269.041 232.432 235.219 251.892H235.237Z" fill="#AF3BEB"/>
<path d="M234.831 251.645C218.052 261.296 196.863 266.589 176.185 267.312H184.46V193.07H242.118V185.712C271.653 202.826 268.389 232.343 234.814 251.663L234.831 251.645Z" fill="#B03BEA"/>
<path d="M234.425 251.415C217.77 260.996 196.739 266.236 176.22 266.959H184.459V193.052H241.658V185.959C270.964 202.932 267.717 232.237 234.407 251.415H234.425Z" fill="#B03CE9"/>
<path d="M234.019 251.186C217.487 260.696 196.633 265.901 176.255 266.607H184.459V193.052H241.217V186.224C270.311 203.073 267.082 232.149 234.019 251.186Z" fill="#B03DE8"/>
<path d="M233.631 250.957C217.223 260.396 196.527 265.548 176.308 266.271H184.477V193.07H240.776V186.489C269.641 203.215 266.447 232.079 233.631 250.957Z" fill="#B13DE7"/>
<path d="M233.226 250.728C216.941 260.096 196.404 265.213 176.344 265.919H184.46V193.07H240.3V186.753C268.953 203.338 265.777 231.991 233.226 250.728Z" fill="#B13EE6"/>
<path d="M232.82 250.481C216.658 259.779 196.28 264.86 176.379 265.548H184.459V193.052H239.842V187C268.265 203.462 265.124 231.885 232.82 250.481Z" fill="#B23FE5"/>
<path d="M232.414 250.252C216.394 259.479 196.157 264.508 176.414 265.213H184.459V193.07H239.383V187.283C267.577 203.621 264.454 231.815 232.414 250.252Z" fill="#B240E4"/>
<path d="M232.007 250.022C216.111 259.179 196.033 264.172 176.449 264.86H184.459V193.07H238.923V187.548C266.906 203.762 263.8 231.726 232.007 250.022Z" fill="#B240E3"/>
<path d="M231.621 249.793C215.848 258.879 195.946 263.837 176.503 264.507H184.478V193.07H238.484V187.812C266.237 203.885 263.167 231.638 231.621 249.793Z" fill="#B341E2"/>
<path d="M231.214 249.564C215.565 258.562 195.822 263.484 176.538 264.172H184.46V193.07H238.007V188.077C265.548 204.027 262.496 231.55 231.197 249.564H231.214Z" fill="#B342E1"/>
<path d="M230.808 249.316C215.282 258.244 195.698 263.131 176.573 263.801H184.46V193.052H237.548V188.324C264.86 204.15 261.843 231.444 230.791 249.316H230.808Z" fill="#B442E0"/>
<path d="M230.403 249.088C215 257.945 195.575 262.797 176.608 263.45H184.46V193.053H237.089V188.589C264.189 204.274 261.19 231.374 230.385 249.088H230.403Z" fill="#B443DF"/>
<path d="M229.997 248.858C214.735 257.644 195.451 262.443 176.644 263.113H184.459V193.07H236.648V188.871C263.519 204.432 260.537 231.303 229.997 248.875V248.858Z" fill="#B444DE"/>
<path d="M229.609 248.63C214.471 257.345 195.363 262.109 176.697 262.762H184.477V193.071H236.207V189.137C262.849 204.575 259.902 231.216 229.626 248.647L229.609 248.63Z" fill="#B545DD"/>
<path d="M229.203 248.399C214.189 257.044 195.24 261.755 176.732 262.408H184.46V193.07H235.731V189.382C262.161 204.697 259.232 231.109 229.203 248.399Z" fill="#B545DC"/>
<path d="M228.797 248.151C213.906 256.726 195.116 261.401 176.767 262.054H184.46V193.069H235.272V189.646C261.472 204.82 258.579 231.02 228.797 248.151Z" fill="#B546DB"/>
<path d="M228.392 247.923C213.624 256.427 194.993 261.067 176.803 261.702H184.46V193.07H234.814V189.912C260.802 204.961 257.926 230.932 228.392 247.923Z" fill="#B647DA"/>
<path d="M227.985 247.693C213.341 256.109 194.869 260.714 176.837 261.349H184.459V193.052H234.354V190.159C260.113 205.085 257.255 230.826 227.985 247.676V247.693Z" fill="#B647D9"/>
<path d="M227.596 247.464C213.076 255.81 194.762 260.379 176.89 261.014H184.476V193.07H233.913V190.441C259.442 205.226 256.619 230.756 227.596 247.464Z" fill="#B748D8"/>
<path d="M227.193 247.234C212.814 255.509 194.659 260.043 176.927 260.661H184.461V193.07H233.438V190.706C258.757 205.367 255.951 230.685 227.175 247.234H227.193Z" fill="#B749D7"/>
<path d="M226.787 246.987C212.531 255.192 194.535 259.673 176.962 260.29H184.461V193.052H232.98V190.953C258.068 205.491 255.298 230.579 226.769 246.987H226.787Z" fill="#B74AD6"/>
<path d="M226.381 246.758C212.249 254.891 194.411 259.337 176.998 259.937H184.461V193.052H232.521V191.217C257.398 205.614 254.645 230.491 226.363 246.758H226.381Z" fill="#B84AD5"/>
<path d="M225.992 246.529C211.983 254.592 194.305 259.003 177.05 259.603H184.478V193.07H232.097V191.5C256.744 205.773 254.01 230.421 226.01 246.547L225.992 246.529Z" fill="#B84BD4"/>
<path d="M225.586 246.3C211.7 254.293 194.181 258.651 177.084 259.25H184.477V193.071H231.637V191.765C256.056 205.915 253.356 230.333 225.603 246.318L225.586 246.3Z" fill="#B94CD3"/>
<path d="M225.18 246.07C211.418 253.992 194.075 258.314 177.12 258.897H184.459V193.07H231.161V192.011C255.367 206.038 252.686 230.226 225.18 246.07Z" fill="#B94CD2"/>
<path d="M224.774 245.824C211.154 253.675 193.952 257.945 177.155 258.544H184.46V193.053H230.702V192.259C254.68 206.144 252.033 230.121 224.774 245.806V245.824Z" fill="#B94DD1"/>
<path d="M224.369 245.594C210.872 253.357 193.829 257.609 177.191 258.191H184.46V193.052H230.245V192.523C254.01 206.285 251.381 230.032 224.369 245.576V245.594Z" fill="#BA4ED0"/>
<path d="M223.981 245.364C210.607 253.056 193.722 257.273 177.244 257.838H184.477V193.052H229.803V192.787C253.339 206.425 250.728 229.961 223.981 245.346V245.364Z" fill="#BA4FCF"/>
<path d="M223.575 245.135C210.325 252.757 193.599 256.921 177.279 257.503H184.477V193.07H185.448V183.86C201.768 183.296 217.699 186.313 229.362 193.07C252.686 206.567 250.092 229.891 223.592 245.135H223.575Z" fill="#BB4FCE"/>
<path d="M223.168 244.905C210.042 252.457 193.475 256.585 177.313 257.15H184.459V193.069H185.376V184.213C201.538 183.648 217.311 186.647 228.867 193.334C251.962 206.708 249.404 229.803 223.151 244.905H223.168Z" fill="#BB50CD"/>
<path d="M222.762 244.659C209.759 252.14 193.369 256.233 177.349 256.78H184.459V193.053H185.341V184.549C201.361 183.984 216.975 186.948 228.408 193.582C251.274 206.832 248.751 229.698 222.745 244.659H222.762Z" fill="#BB51CC"/>
<path d="M222.357 244.429C209.478 251.839 193.246 255.88 177.385 256.444H184.46V193.07H185.307V184.918C201.168 184.372 216.641 187.3 227.95 193.864C250.604 206.99 248.099 229.626 222.357 244.447V244.429Z" fill="#BC52CB"/>
<path d="M221.97 244.2C209.231 251.54 193.14 255.545 177.438 256.092H184.478V193.07H185.289V185.272C200.992 184.725 216.306 187.636 227.527 194.129C249.952 207.114 247.464 229.539 221.987 244.218L221.97 244.2Z" fill="#BC52CA"/>
<path d="M221.564 243.97C208.949 251.239 193.017 255.209 177.473 255.738H184.478V193.052H185.254V185.606C200.797 185.06 215.971 187.935 227.068 194.375C249.281 207.237 246.811 229.432 221.581 243.97H221.564Z" fill="#BC53C9"/>
<path d="M221.158 243.741C208.666 250.922 192.893 254.857 177.508 255.404H184.46V193.07H185.183V185.977C200.568 185.431 215.582 188.289 226.574 194.658C248.558 207.396 246.123 229.362 221.14 243.741H221.158Z" fill="#BD54C8"/>
<path d="M220.751 243.494C208.383 250.604 192.787 254.503 177.543 255.032H184.459V193.052H185.147V186.312C200.391 185.783 215.247 188.606 226.132 194.904C247.887 207.502 245.487 229.273 220.751 243.494Z" fill="#BD54C7"/>
<path d="M220.346 243.264C208.101 250.304 192.664 254.15 177.579 254.68H184.459V193.052H185.112V186.647C200.197 186.118 214.912 188.906 225.674 195.151C247.216 207.625 244.835 229.167 220.346 243.247V243.264Z" fill="#BE55C6"/>
<path d="M219.958 243.036C207.837 250.005 192.558 253.816 177.632 254.345H184.477V193.07H185.095V187.019C200.021 186.489 214.577 189.259 225.233 195.435C246.546 207.785 244.182 229.098 219.958 243.036Z" fill="#BE56C5"/>
<path d="M219.553 242.807C207.573 249.705 192.435 253.481 177.667 253.993H184.478V193.071H185.06V187.372C199.827 186.86 214.242 189.595 224.793 195.7C245.894 207.926 243.547 229.01 219.57 242.807H219.553Z" fill="#BE57C4"/>
<path d="M219.146 242.577C207.29 249.405 192.311 253.128 177.702 253.639H184.459V193.07H184.989V187.724C199.597 187.213 213.853 189.912 224.298 195.964C245.17 208.049 242.859 228.921 219.128 242.577H219.146Z" fill="#BF57C3"/>
<path d="M218.74 242.33C207.007 249.087 192.187 252.775 177.737 253.286H184.459V193.07H184.953V188.077C199.403 187.565 213.518 190.247 223.839 196.228C244.499 208.19 242.206 228.833 218.74 242.348V242.33Z" fill="#BF58C2"/>
<path d="M218.352 242.101C206.743 248.787 192.099 252.439 177.791 252.933H184.477V193.052H184.936V188.412C199.245 187.918 213.2 190.565 223.398 196.475C243.829 208.314 241.571 228.727 218.352 242.101Z" fill="#C059C1"/>
<path d="M217.948 241.872C206.462 248.488 191.977 252.087 177.827 252.581H184.479V193.053H184.902V188.765C199.052 188.271 212.849 190.883 222.959 196.74C243.16 208.438 240.937 228.639 217.965 241.872H217.948Z" fill="#C059C0"/>
<path d="M217.541 241.643C206.179 248.171 191.853 251.752 177.862 252.246H184.478V193.071H184.866V189.136C198.857 188.642 212.513 191.236 222.499 197.023C242.489 208.597 240.266 228.587 217.559 241.66L217.541 241.643Z" fill="#C05ABE"/>
<path d="M217.135 241.413C205.897 247.87 191.729 251.416 177.897 251.893H184.46V193.07H184.795V189.471C198.628 188.995 212.125 191.553 222.005 197.269C241.765 208.72 239.578 228.48 217.118 241.395L217.135 241.413Z" fill="#C15BBD"/>
<path d="M216.73 241.165C205.632 247.552 191.606 251.045 177.932 251.522H184.46V193.052H184.76V189.806C198.434 189.329 211.789 191.852 221.564 197.516C241.113 208.843 238.942 228.374 216.73 241.147V241.165Z" fill="#C15CBC"/>
<path d="M216.341 240.936C205.367 247.252 191.499 250.71 177.984 251.186H184.477V193.07H184.742V190.176C198.274 189.7 211.454 192.205 221.122 197.798C240.441 208.984 238.307 228.303 216.341 240.936Z" fill="#C25CBB"/>
<path d="M215.935 240.707C205.084 246.953 191.393 250.358 178.02 250.834H184.477V193.07H184.706V190.53C198.08 190.053 211.118 192.541 220.663 198.063C239.753 209.126 237.654 228.215 215.935 240.707Z" fill="#C25DBA"/>
<path d="M215.529 240.477C204.802 246.652 191.269 250.022 178.055 250.48H184.477V193.052H184.671V190.864C197.886 190.405 210.783 192.84 220.222 198.309C239.1 209.248 237.001 228.109 215.547 240.459L215.529 240.477Z" fill="#C25EB9"/>
<path d="M215.124 240.248C204.521 246.353 191.147 249.687 178.091 250.146H184.46V193.07H184.602V191.235C197.658 190.777 210.396 193.194 219.729 198.593C238.378 209.39 236.314 228.039 215.124 240.248Z" fill="#C35EB8"/>
<path d="M214.718 240.001C204.238 246.035 191.023 249.317 178.126 249.776H184.46V193.053H184.566V191.571C197.463 191.112 210.06 193.512 219.27 198.84C237.707 209.514 235.661 227.933 214.718 240.001Z" fill="#C35FB7"/>
<path d="M214.329 239.771C203.99 245.735 190.917 248.981 178.178 249.422H184.477V193.052H184.547V191.923C197.303 191.482 209.724 193.828 218.828 199.104C237.036 209.654 235.025 227.862 214.329 239.771Z" fill="#C460B6"/>
<path d="M213.923 239.542C203.708 245.417 190.811 248.646 178.213 249.087H184.477V193.14H175.055C178.196 192.681 181.354 192.399 184.512 192.293C197.109 191.852 209.389 194.181 218.387 199.386C236.365 209.813 234.389 227.792 213.941 239.56L213.923 239.542Z" fill="#C461B5"/>
<path d="M213.517 239.313C203.425 245.117 190.687 248.293 178.249 248.734H184.477V192.629C196.897 192.188 209.036 194.499 217.928 199.633C235.695 209.919 233.719 227.686 213.535 239.295L213.517 239.313Z" fill="#C461B4"/>
<path d="M213.112 239.084C203.143 244.818 190.564 247.958 178.284 248.382H184.459V193.07L184.406 192.982C196.686 192.558 208.666 194.834 217.434 199.898C234.972 210.061 233.031 227.598 213.094 239.066L213.112 239.084Z" fill="#C562B3"/>
<path d="M212.706 238.836C202.861 244.499 190.44 247.587 178.319 248.028H184.459V193.334H184.371C196.492 192.911 208.33 195.151 216.993 200.162C234.319 210.201 232.396 227.509 212.706 238.836Z" fill="#C563B2"/>
<path d="M212.319 238.607C202.597 244.2 190.335 247.252 178.373 247.676H184.478V193.67H184.354C196.316 193.246 207.996 195.47 216.553 200.427C233.649 210.325 231.761 227.421 212.319 238.607Z" fill="#C564B1"/>
<path d="M211.912 238.378C202.314 243.9 190.211 246.917 178.408 247.323H184.477V194.023H184.318C196.139 193.617 207.66 195.805 216.094 200.692C232.978 210.466 231.108 227.333 211.912 238.378Z" fill="#C664B0"/>
<path d="M211.506 238.148C202.049 243.6 190.105 246.564 178.443 246.987H184.477V194.393H184.283C195.945 193.987 207.325 196.14 215.652 200.974C232.308 210.625 230.455 227.262 211.542 238.166L211.506 238.148Z" fill="#C665AF"/>
<path d="M211.101 237.919C201.768 243.3 189.982 246.229 178.479 246.635H184.46V194.746H184.213C195.716 194.341 206.937 196.475 215.159 201.239C231.585 210.749 229.767 227.192 211.101 237.937V237.919Z" fill="#C766AE"/>
<path d="M210.713 237.671C201.503 242.964 189.876 245.876 178.532 246.264H184.477V195.063H184.195C195.54 194.657 206.62 196.774 214.718 201.468C230.932 210.854 229.132 227.068 210.713 237.671Z" fill="#C766AD"/>
<path d="M210.307 237.444C201.221 242.666 189.753 245.524 178.567 245.93H184.477V195.435H184.16C195.346 195.047 206.267 197.111 214.259 201.751C230.244 211.014 228.48 226.999 210.307 237.461V237.444Z" fill="#C767AC"/>
<path d="M209.901 237.213C200.938 242.365 189.629 245.188 178.602 245.576H184.477V195.787H184.124C195.169 195.399 205.931 197.446 213.818 202.015C229.591 211.154 227.844 226.91 209.919 237.231L209.901 237.213Z" fill="#C868AB"/>
<path d="M209.495 236.984C200.655 242.065 189.523 244.852 178.637 245.223H184.477V196.139H184.088C194.974 195.751 205.596 197.78 213.359 202.279C228.902 211.277 227.173 226.821 209.512 236.984H209.495Z" fill="#C869AA"/>
<path d="M209.09 236.754C200.374 241.765 189.4 244.5 178.673 244.888H184.46V196.493H184.019C194.746 196.122 205.208 198.098 212.865 202.544C228.18 211.419 226.486 226.733 209.072 236.754H209.09Z" fill="#C969A9"/>
<path d="M208.702 236.507C200.128 241.448 189.295 244.147 178.727 244.517H184.478V196.828H184.002C194.57 196.457 204.891 198.416 212.443 202.791C227.545 211.542 225.869 226.627 208.702 236.507Z" fill="#C96AA8"/>
<path d="M208.297 236.278C199.845 241.148 189.171 243.794 178.762 244.165H184.478V197.181H183.966C194.376 196.81 204.538 198.751 211.984 203.056C226.857 211.666 225.216 226.557 208.297 236.278Z" fill="#C96BA7"/>
<path d="M207.891 236.048C199.563 240.847 189.048 243.459 178.797 243.811H184.478V197.533H183.931C194.199 197.18 204.203 199.068 211.525 203.32C226.187 211.807 224.563 226.468 207.908 236.048H207.891Z" fill="#CA6BA6"/>
<path d="M207.485 235.82C199.281 240.548 188.924 243.124 178.832 243.477H184.478V197.887H183.896C194.005 197.534 203.868 199.404 211.084 203.585C225.516 211.948 223.928 226.38 207.52 235.82H207.485Z" fill="#CA6CA5"/>
<path d="M207.079 235.59C198.998 240.23 188.818 242.771 178.867 243.124H184.46V198.24H183.825C193.776 197.887 203.48 199.739 210.59 203.85C224.81 212.09 223.222 226.292 207.079 235.59Z" fill="#CB6DA4"/>
<path d="M206.689 235.343C198.732 239.913 188.711 242.418 178.919 242.753H184.477V198.575H183.806C193.598 198.239 203.161 200.039 210.147 204.097C224.139 212.195 222.586 226.186 206.689 235.343Z" fill="#CB6EA3"/>
<path d="M206.285 235.114C198.469 239.613 188.589 242.083 178.956 242.418H184.478V198.945H183.772C193.405 198.61 202.809 200.392 209.69 204.379C223.452 212.354 221.934 226.116 206.285 235.131V235.114Z" fill="#CB6EA2"/>
<path d="M205.879 234.884C198.187 239.313 188.465 241.73 178.991 242.065H184.478V199.28H183.737C193.211 198.945 202.474 200.709 209.249 204.626C222.799 212.477 221.299 226.01 205.897 234.867L205.879 234.884Z" fill="#CC6FA1"/>
<path d="M205.473 234.655C197.904 239.013 188.342 241.395 179.026 241.712H184.478V199.633H183.701C193.035 199.298 202.121 201.027 208.79 204.891C222.111 212.601 220.646 225.921 205.491 234.637L205.473 234.655Z" fill="#CC70A0"/>
<path d="M205.068 234.427C197.622 238.714 188.218 241.061 179.062 241.378H184.46V200.005H183.631C192.806 199.687 201.751 201.381 208.296 205.174C221.405 212.761 219.941 225.87 205.05 234.427H205.068Z" fill="#CC709F"/>
<path d="M204.678 234.178C197.356 238.395 188.129 240.689 179.113 241.006H184.477V200.339H183.612C192.628 200.021 201.432 201.697 207.872 205.42C220.751 212.883 219.322 225.763 204.678 234.178Z" fill="#CD719E"/>
<path d="M204.272 233.949C197.074 238.095 188.005 240.353 179.148 240.653H184.477V200.674H183.577C192.434 200.356 201.079 201.997 207.413 205.667C220.063 213.006 218.669 225.657 204.29 233.931L204.272 233.949Z" fill="#CD729D"/>
<path d="M203.866 233.72C196.792 237.795 187.882 240.001 179.184 240.318H184.477V201.045H183.541C192.24 200.745 200.744 202.35 206.954 205.949C219.392 213.148 218.016 225.586 203.884 233.72H203.866Z" fill="#CE739C"/>
<path d="M203.461 233.491C196.527 237.478 187.759 239.666 179.219 239.966H184.477V201.398H183.489C192.046 201.098 200.373 202.685 206.496 206.214C218.705 213.289 217.364 225.498 203.479 233.491H203.461Z" fill="#CE739B"/>
<path d="M203.073 233.262C196.263 237.178 187.653 239.331 179.272 239.613H184.477V201.751H183.454C191.852 201.451 200.039 203.003 206.037 206.479C218.035 213.431 216.694 225.41 203.073 233.262Z" fill="#CE749A"/>
<path d="M202.667 233.015C195.98 236.861 187.547 238.961 179.308 239.261H184.477V202.086H183.419C191.658 201.804 199.703 203.321 205.578 206.727C217.346 213.537 216.041 225.305 202.667 233.015Z" fill="#CF7599"/>
<path d="M202.261 232.785C195.698 236.56 187.423 238.625 179.343 238.907H184.477V202.438H183.383C191.464 202.156 199.35 203.656 205.119 206.99C216.658 213.677 215.388 225.216 202.261 232.767V232.785Z" fill="#CF7598"/>
<path d="M201.856 232.555C195.416 236.26 187.3 238.289 179.378 238.554H184.477V202.791H183.348C191.27 202.509 199.015 203.973 204.679 207.255C216.006 213.818 214.753 225.145 201.874 232.537L201.856 232.555Z" fill="#D07697"/>
<path d="M201.449 232.327C195.133 235.961 187.176 237.937 179.413 238.219H184.477V203.162H183.295C191.075 202.898 198.644 204.327 204.202 207.538C215.299 213.978 214.082 225.075 201.449 232.327Z" fill="#D07796"/>
<path d="M201.061 232.096C194.886 235.66 187.07 237.601 179.448 237.866H184.459V203.497H183.242C190.863 203.232 198.291 204.643 203.725 207.784C214.611 214.083 213.394 224.968 201.044 232.079L201.061 232.096Z" fill="#D07895"/>
<path d="M200.655 231.85C194.604 235.344 186.946 237.249 179.483 237.496H184.459V203.833H183.206C190.669 203.568 197.956 204.944 203.284 208.032C213.941 214.207 212.759 224.863 200.655 231.833V231.85Z" fill="#D17894"/>
<path d="M200.251 231.62C194.323 235.025 186.842 236.896 179.52 237.16H184.46V204.203H183.172C190.476 203.938 197.604 205.297 202.827 208.314C213.271 214.365 212.107 224.792 200.251 231.62Z" fill="#D17993"/>
<path d="M199.845 231.391C194.04 234.726 186.718 236.561 179.555 236.808H184.46V204.556H183.137C190.282 204.309 197.269 205.632 202.368 208.596C212.583 214.507 211.454 224.722 199.845 231.409V231.391Z" fill="#D27A92"/>
<path d="M199.438 231.162C193.757 234.426 186.594 236.208 179.59 236.455H184.459V204.891H183.083C190.088 204.644 196.898 205.949 201.909 208.843C211.895 214.63 210.801 224.616 199.438 231.162Z" fill="#D27A91"/>
<path d="M199.051 230.932C193.493 234.125 186.489 235.872 179.643 236.119H184.46V205.261H183.048C189.894 205.014 196.563 206.284 201.45 209.125C211.224 214.788 210.131 224.545 199.033 230.95L199.051 230.932Z" fill="#D27B90"/>
<path d="M198.644 230.685C193.21 233.808 186.365 235.519 179.678 235.749H184.459V205.596H183.012C189.699 205.367 196.227 206.602 200.991 209.372C210.536 214.894 209.477 224.457 198.627 230.703L198.644 230.685Z" fill="#D37C8F"/>
<path d="M198.239 230.457C192.946 233.509 186.242 235.167 179.714 235.397H184.46V205.95H182.978C189.506 205.721 195.875 206.938 200.533 209.638C209.866 215.036 208.825 224.37 198.222 230.457H198.239Z" fill="#D37D8E"/>
<path d="M197.833 230.227C192.664 233.209 186.136 234.832 179.749 235.061H184.46V206.303H182.942C189.312 206.073 195.54 207.256 200.092 209.902C209.196 215.177 208.19 224.281 197.833 230.227Z" fill="#D37D8D"/>
<path d="M197.427 229.998C192.381 232.909 186.012 234.497 179.784 234.709H184.459V206.656H182.889C189.099 206.444 195.169 207.591 199.615 210.167C208.489 215.319 207.519 224.193 197.427 229.998Z" fill="#D47E8C"/>
<path d="M197.04 229.768C192.117 232.608 185.907 234.143 179.837 234.355H184.46V207.008H182.854C188.924 206.796 194.834 207.925 199.157 210.431C207.82 215.441 206.867 224.104 197.022 229.768H197.04Z" fill="#D47F8B"/>
<path d="M196.633 229.521C191.834 232.273 185.783 233.79 179.872 234.002H184.459V207.361H182.819C188.729 207.149 194.481 208.243 198.715 210.695C207.148 215.582 206.213 224.016 196.633 229.538V229.521Z" fill="#D5808A"/>
<path d="M196.227 229.292C191.552 231.973 185.659 233.455 179.907 233.65H184.459V207.696H182.783C188.535 207.502 194.145 208.561 198.256 210.943C206.478 215.706 205.56 223.91 196.227 229.292Z" fill="#D58089"/>
<path d="M195.822 229.063C191.287 231.674 185.553 233.103 179.943 233.297H184.46V208.05H182.748C188.341 207.856 193.81 208.897 197.798 211.208C205.79 215.83 204.908 223.823 195.822 229.063Z" fill="#D58188"/>
<path d="M195.434 228.833C191.023 231.373 185.448 232.767 179.996 232.961H184.477V208.42H182.713C188.147 208.225 193.458 209.231 197.357 211.489C205.138 215.988 204.273 223.769 195.434 228.85V228.833Z" fill="#D68287"/>
<path d="M195.028 228.603C190.741 231.073 185.324 232.414 180.031 232.608H184.46V208.772H182.66C187.953 208.596 193.105 209.566 196.881 211.754C204.432 216.13 203.603 223.681 195.01 228.621L195.028 228.603Z" fill="#D68286"/>
<path d="M194.622 228.355C190.458 230.755 185.201 232.06 180.066 232.237H184.46V209.089H182.625C187.759 208.913 192.752 209.865 196.422 211.983C203.744 216.235 202.932 223.556 194.604 228.338L194.622 228.355Z" fill="#D78385"/>
<path d="M194.217 228.127C190.176 230.456 185.077 231.727 180.102 231.903H184.46V209.461H182.59C187.565 209.284 192.417 210.202 195.963 212.266C203.074 216.377 202.28 223.487 194.199 228.127H194.217Z" fill="#D78484"/>
<path d="M193.811 227.897C189.894 230.156 184.954 231.373 180.137 231.55H184.46V209.813H182.554C187.371 209.637 192.082 210.537 195.522 212.53C202.403 216.518 201.644 223.398 193.828 227.897H193.811Z" fill="#D78583"/>
<path d="M193.423 227.668C189.63 229.838 184.866 231.038 180.191 231.197H184.478V210.166H182.52C187.178 210.007 191.73 210.872 195.064 212.795C201.733 216.659 200.992 223.31 193.423 227.668Z" fill="#D88582"/>
<path d="M193.017 227.44C189.365 229.539 184.742 230.704 180.226 230.863H184.46V210.52H182.466C186.983 210.361 191.376 211.191 194.587 213.061C201.027 216.783 200.321 223.223 192.999 227.44H193.017Z" fill="#D88681"/>
<path d="M192.611 227.191C189.082 229.22 184.619 230.332 180.261 230.49H184.46V210.853H182.431C186.789 210.695 191.023 211.506 194.146 213.306C200.356 216.905 199.668 223.116 192.611 227.191Z" fill="#D98780"/>
<path d="M192.205 226.963C188.8 228.921 184.495 229.997 180.296 230.138H184.46V211.207H182.395C186.594 211.066 190.688 211.842 193.687 213.571C199.686 217.047 199.015 223.046 192.205 226.963Z" fill="#D9877F"/>
<path d="M191.8 226.733C188.518 228.621 184.372 229.645 180.332 229.803H184.46V211.578H182.361C186.401 211.437 190.353 212.178 193.229 213.854C198.998 217.206 198.363 222.975 191.8 226.751V226.733Z" fill="#D9887E"/>
<path d="M191.41 226.504C188.252 228.321 184.282 229.309 180.383 229.451H184.477V211.913H182.324C186.206 211.772 189.999 212.495 192.786 214.101C198.344 217.312 197.727 222.87 191.41 226.504Z" fill="#DA897D"/>
<path d="M191.006 226.275C187.971 228.021 184.16 228.974 180.42 229.098H184.46V212.266H182.272C185.995 212.143 189.647 212.831 192.311 214.366C197.64 217.453 197.058 222.781 190.988 226.275H191.006Z" fill="#DA8A7C"/>
<path d="M190.599 226.028C187.688 227.704 184.036 228.604 180.455 228.728H184.46V212.602H182.237C185.818 212.478 189.294 213.131 191.852 214.613C196.951 217.577 196.386 222.676 190.582 226.01L190.599 226.028Z" fill="#DA8A7B"/>
<path d="M190.192 225.799C187.422 227.404 183.911 228.269 180.488 228.392H184.458V215.548H172.496C178.054 212.354 186.505 212.055 191.392 214.877C196.279 217.7 195.732 222.588 190.192 225.781V225.799Z" fill="#DB8B7A"/>
<path d="M189.788 225.569C187.141 227.086 183.789 227.933 180.525 228.039H184.46V215.777H172.903C178.196 212.724 186.277 212.442 190.952 215.142C195.61 217.841 195.098 222.499 189.806 225.551L189.788 225.569Z" fill="#DB8C79"/>
<path d="M189.4 225.34C184.354 228.251 176.661 228.516 172.215 225.94H184.477V216.024H173.327C178.373 213.113 186.065 212.848 190.511 215.424C194.957 218 194.463 222.429 189.417 225.34H189.4Z" fill="#DC8C78"/>
<path d="M188.994 225.109C184.195 227.862 176.891 228.126 172.674 225.674H184.478V216.252H173.715C178.514 213.5 185.819 213.235 190.035 215.688C194.252 218.14 193.793 222.357 188.994 225.109Z" fill="#DC8D77"/>
<path d="M188.589 224.863C184.055 227.475 177.121 227.722 173.134 225.41H184.478V216.483H174.122C178.656 213.872 185.59 213.625 189.577 215.936C193.565 218.247 193.124 222.252 188.589 224.863Z" fill="#DC8E76"/>
<path d="M188.182 224.634C183.895 227.104 177.349 227.334 173.574 225.146H184.46V216.712H174.509C178.796 214.242 185.342 214.013 189.117 216.201C192.893 218.388 192.47 222.164 188.182 224.634Z" fill="#DD8F75"/>
<path d="M187.794 224.405C183.754 226.734 177.596 226.945 174.05 224.881H184.477V216.942H174.932C178.972 214.613 185.13 214.401 188.676 216.465C192.222 218.53 191.834 222.076 187.794 224.405Z" fill="#DD8F74"/>
<path d="M187.388 224.175C183.595 226.345 177.826 226.557 174.509 224.634H184.477V217.189H175.338C179.131 215.019 184.901 214.807 188.218 216.73C191.535 218.653 191.182 221.988 187.388 224.175Z" fill="#DE9073"/>
<path d="M186.982 223.945C183.454 225.974 178.073 226.168 174.95 224.369H184.459V217.435H175.708C179.237 215.406 184.618 215.212 187.741 217.012C190.846 218.811 190.511 221.916 186.965 223.945H186.982Z" fill="#DE9172"/>
<path d="M186.577 223.699C183.295 225.587 178.302 225.763 175.409 224.087H184.46V217.647H176.114C179.396 215.76 184.389 215.583 187.283 217.259C190.176 218.935 189.859 221.811 186.577 223.699Z" fill="#DE9171"/>
<path d="M186.171 223.469C183.137 225.216 178.532 225.375 175.868 223.822H184.46V217.876H176.52C179.555 216.129 184.16 215.971 186.824 217.523C189.488 219.058 189.188 221.722 186.171 223.469Z" fill="#DF9270"/>
<path d="M185.783 223.24C183.013 224.845 178.779 224.987 176.327 223.575H184.46V218.123H176.927C179.697 216.518 183.931 216.377 186.383 217.788C188.818 219.2 188.553 221.652 185.783 223.24Z" fill="#DF936F"/>
<path d="M185.376 223.01C182.853 224.457 179.007 224.598 176.784 223.31H184.477V218.353H177.349C179.872 216.906 183.718 216.765 185.941 218.053C188.164 219.341 187.917 221.564 185.394 223.01H185.376Z" fill="#E0946E"/>
<path d="M184.971 222.781C182.695 224.087 179.237 224.211 177.244 223.046H184.477V218.582H177.738C180.014 217.277 183.472 217.153 185.465 218.318C187.459 219.482 187.247 221.476 184.971 222.781Z" fill="#E0946D"/>
</g>
<path d="M332.38 237.831L263.219 277.864C260.449 279.452 256.285 279.628 253.886 278.252L188.623 240.566C187.847 240.107 187.371 239.543 187.159 238.943C186.788 240.072 187.229 241.219 188.623 242.013L253.886 279.699C256.285 281.075 260.449 280.898 263.219 279.31L332.38 239.278C334.233 238.202 334.956 236.773 334.515 235.52C334.233 236.349 333.545 237.161 332.38 237.831Z" fill="white"/>
<path opacity="0.4" d="M323.17 290.708C323.17 304.681 313.361 321.654 301.275 328.641C289.172 335.627 279.38 329.964 279.38 315.991C279.38 302.017 289.19 285.044 301.275 278.058C313.378 271.071 323.17 276.734 323.17 290.708Z" fill="#06033E"/>
<path d="M303.534 329.206L311.208 316.502C313.82 313.468 316.007 309.851 317.489 306.093L325.958 292.084L315.496 286.086C312.69 284.268 308.738 284.392 304.328 286.95C295.859 291.837 288.996 303.729 288.996 313.521C288.996 318.337 290.672 321.742 293.371 323.366L293.459 323.419C293.477 323.419 293.512 323.454 293.53 323.454L303.551 329.188L303.534 329.206Z" fill="#7F0FFB"/>
<path d="M325.436 316.792C331.424 306.421 331.421 295.209 325.429 291.75C319.438 288.291 309.727 293.894 303.739 304.265C297.751 314.636 297.754 325.848 303.746 329.307C309.737 332.766 319.448 327.163 325.436 316.792Z" fill="#5315DB"/>
<path d="M324.671 304.717C324.671 311.139 320.154 318.973 314.597 322.184C309.022 325.395 304.522 322.784 304.522 316.362C304.522 309.94 309.039 302.106 314.597 298.895C320.154 295.684 324.671 298.277 324.671 304.717Z" fill="#E8975B"/>
<path d="M319.005 297.536C319.852 298.753 320.364 300.447 320.364 302.564C320.364 308.986 315.847 316.82 310.29 320.031C308.702 320.948 307.202 321.372 305.879 321.39C307.626 323.877 310.872 324.336 314.612 322.184C320.188 318.972 324.687 311.157 324.687 304.717C324.687 300.112 322.375 297.483 319.023 297.536H319.005Z" fill="#CE7436"/>
<path d="M334.286 331.958C339.859 331.958 344.378 327.439 344.378 321.866C344.378 316.292 339.859 311.774 334.286 311.774C328.712 311.774 324.194 316.292 324.194 321.866C324.194 327.439 328.712 331.958 334.286 331.958Z" fill="#E8975B"/>
<path d="M196.422 318.037L196.351 264.596C196.351 262.637 197.939 261.967 199.897 263.096L249.051 291.325C251.01 292.455 252.598 294.96 252.598 296.918L252.668 350.36C252.668 352.318 251.08 352.988 249.122 351.859L199.968 323.63C198.01 322.501 196.422 319.996 196.422 318.037Z" fill="url(#paint1_linear_289_14147)"/>
<path opacity="0.4" d="M196.422 318.037L196.351 264.596C196.351 262.637 197.939 261.967 199.897 263.096L249.051 291.325C251.01 292.455 252.598 294.96 252.598 296.918L252.668 350.36C252.668 352.318 251.08 352.988 249.122 351.859L199.968 323.63C198.01 322.501 196.422 319.996 196.422 318.037Z" fill="#06033E"/>
<path d="M218.413 285.285L214.466 283.596C214.101 283.441 213.836 282.958 213.872 282.515C213.908 282.079 214.237 281.845 214.601 282L218.548 283.689C218.912 283.844 219.178 284.327 219.142 284.77C219.106 285.206 218.777 285.44 218.413 285.285Z" fill="white"/>
<path d="M227.811 289.309L221.993 286.819C221.628 286.663 221.363 286.181 221.398 285.738C221.435 285.301 221.763 285.068 222.128 285.223L227.946 287.714C228.311 287.869 228.576 288.351 228.541 288.795C228.504 289.231 228.176 289.464 227.811 289.309Z" fill="white"/>
<path d="M214.36 304.319L210.413 302.63C210.049 302.475 209.783 301.992 209.819 301.549C209.855 301.113 210.184 300.88 210.549 301.035L214.495 302.723C214.86 302.878 215.125 303.361 215.089 303.804C215.053 304.24 214.725 304.474 214.36 304.319Z" fill="white"/>
<path d="M222.739 307.908L216.92 305.417C216.556 305.262 216.29 304.78 216.326 304.336C216.362 303.9 216.691 303.667 217.055 303.822L222.874 306.312C223.238 306.468 223.504 306.95 223.468 307.393C223.432 307.83 223.103 308.063 222.739 307.908Z" fill="white"/>
<path d="M207.246 283.964L204.779 282.906C204.414 282.751 204.149 282.269 204.184 281.826C204.221 281.389 204.549 281.156 204.914 281.311L207.381 282.369C207.745 282.524 208.011 283.007 207.975 283.45C207.939 283.886 207.61 284.12 207.246 283.964Z" fill="white"/>
<path d="M215.31 290.88L207.775 287.652C207.411 287.496 207.145 287.014 207.181 286.571C207.217 286.134 207.546 285.901 207.91 286.056L215.446 289.284C215.81 289.439 216.076 289.922 216.04 290.365C216.004 290.801 215.675 291.035 215.31 290.88Z" fill="white"/>
<path d="M209.666 295.387L207.199 294.329C206.834 294.174 206.569 293.691 206.604 293.248C206.641 292.812 206.969 292.578 207.334 292.733L209.801 293.791C210.166 293.946 210.431 294.429 210.396 294.872C210.359 295.308 210.031 295.542 209.666 295.387Z" fill="white"/>
<path d="M224.952 315.777L218.37 312.954C218.005 312.799 217.739 312.317 217.775 311.873C217.812 311.437 218.14 311.204 218.505 311.359L225.087 314.182C225.452 314.337 225.718 314.819 225.682 315.263C225.645 315.699 225.317 315.932 224.952 315.777Z" fill="white"/>
<path d="M208.205 301.682L206.623 301.006C206.259 300.851 205.993 300.368 206.029 299.925C206.065 299.489 206.394 299.255 206.758 299.411L208.34 300.087C208.704 300.242 208.97 300.725 208.934 301.168C208.898 301.604 208.569 301.838 208.205 301.682Z" fill="white"/>
<path d="M208.012 308.519L206.045 307.677C205.681 307.522 205.415 307.039 205.451 306.596C205.487 306.16 205.816 305.926 206.18 306.081L208.147 306.923C208.512 307.078 208.777 307.561 208.742 308.004C208.705 308.441 208.377 308.674 208.012 308.519Z" fill="white"/>
<path d="M215.654 311.792L210.471 309.571C210.106 309.416 209.841 308.933 209.876 308.49C209.913 308.054 210.241 307.82 210.606 307.975L215.79 310.196C216.154 310.351 216.42 310.834 216.384 311.277C216.348 311.713 216.019 311.947 215.654 311.792Z" fill="white"/>
<path d="M209.481 312.611L205.757 311.018C205.393 310.863 205.127 310.38 205.163 309.937C205.199 309.501 205.528 309.267 205.892 309.422L209.616 311.016C209.98 311.171 210.246 311.653 210.21 312.097C210.174 312.533 209.845 312.766 209.481 312.611Z" fill="white"/>
<path d="M230.604 318.212L228.212 317.191C227.848 317.036 227.582 316.553 227.618 316.11C227.654 315.673 227.983 315.44 228.347 315.595L230.739 316.617C231.104 316.772 231.369 317.254 231.334 317.698C231.297 318.134 230.969 318.367 230.604 318.212Z" fill="white"/>
<path d="M218.834 299.309L212.251 296.486C211.887 296.331 211.621 295.849 211.657 295.406C211.693 294.969 212.022 294.736 212.386 294.891L218.969 297.714C219.334 297.869 219.599 298.352 219.564 298.795C219.527 299.231 219.199 299.465 218.834 299.309Z" fill="white"/>
<path d="M218.968 295.904L207.494 290.992C207.129 290.837 206.863 290.355 206.899 289.912C206.936 289.475 207.264 289.242 207.629 289.397L219.103 294.308C219.468 294.463 219.733 294.946 219.698 295.389C219.661 295.825 219.333 296.059 218.968 295.904Z" fill="#E8975B"/>
<path d="M213.499 300.486L206.916 297.663C206.552 297.508 206.286 297.025 206.322 296.582C206.358 296.146 206.687 295.912 207.051 296.067L213.634 298.89C213.999 299.045 214.264 299.528 214.229 299.971C214.192 300.407 213.864 300.641 213.499 300.486Z" fill="#E8975B"/>
<path d="M223.828 301.451L221.436 300.429C221.072 300.274 220.806 299.792 220.842 299.349C220.878 298.912 221.207 298.679 221.572 298.834L223.963 299.856C224.328 300.011 224.593 300.493 224.558 300.936C224.521 301.373 224.193 301.606 223.828 301.451Z" fill="#E8975B"/>
<path d="M245.561 296.908L231.399 290.843C231.034 290.688 230.769 290.205 230.804 289.762C230.841 289.326 231.169 289.092 231.534 289.247L245.696 295.312C246.061 295.467 246.326 295.95 246.291 296.393C246.254 296.829 245.926 297.063 245.561 296.908Z" fill="#E8975B"/>
<path d="M214.248 307.729L206.334 304.341C205.97 304.186 205.704 303.703 205.74 303.26C205.776 302.824 206.105 302.59 206.469 302.745L214.383 306.133C214.747 306.289 215.013 306.771 214.977 307.214C214.941 307.651 214.612 307.884 214.248 307.729Z" fill="#F8359E"/>
<path d="M210.886 282.063L205.068 279.572C204.703 279.417 204.438 278.935 204.473 278.492C204.51 278.055 204.838 277.822 205.203 277.977L211.021 280.468C211.386 280.623 211.651 281.105 211.616 281.549C211.579 281.985 211.251 282.218 210.886 282.063Z" fill="#F8359E"/>
<path d="M208.916 315.833L202.178 312.945C201.813 312.79 201.548 312.308 201.583 311.865C201.62 311.428 201.948 311.195 202.313 311.35L209.051 314.238C209.416 314.393 209.681 314.875 209.646 315.318C209.609 315.755 209.281 315.988 208.916 315.833Z" fill="#E8975B"/>
<path d="M203.602 321.054C201.644 319.925 200.056 317.42 200.056 315.461L199.986 263.132L199.897 263.079C197.939 261.949 196.351 262.62 196.351 264.578L196.422 318.02C196.422 319.978 198.01 322.483 199.968 323.613L249.122 351.842C251.08 352.971 252.668 352.3 252.668 350.342V349.23L203.602 321.054Z" fill="url(#paint2_linear_289_14147)"/>
<path d="M250.533 270.047L203.514 243.035C198.838 240.336 199.42 235.625 204.819 232.502L253.462 204.679C258.86 201.556 267.029 201.221 271.705 203.92L318.724 230.932C323.399 233.632 322.817 238.342 317.418 241.465L268.776 269.289C263.377 272.411 255.208 272.747 250.533 270.047Z" fill="url(#paint3_linear_289_14147)"/>
<path opacity="0.6" d="M250.533 270.047L203.514 243.035C198.838 240.336 199.42 235.625 204.819 232.502L253.462 204.679C258.86 201.556 267.029 201.221 271.705 203.92L318.724 230.932C323.399 233.632 322.817 238.342 317.418 241.465L268.776 269.289C263.377 272.411 255.208 272.747 250.533 270.047Z" fill="#020230"/>
<path d="M203.514 243.035L207.66 245.435L253.462 219.235C258.86 216.112 267.029 215.777 271.705 218.476L314.578 243.106L317.418 241.465C322.817 238.342 323.399 233.632 318.724 230.932L271.705 203.92C267.029 201.221 258.86 201.556 253.462 204.679L204.819 232.502C199.42 235.625 198.838 240.336 203.514 243.035Z" fill="url(#paint4_linear_289_14147)"/>
<path opacity="0.6" d="M234.125 243.23L274.564 220.135L271.706 218.477C267.03 215.777 258.861 216.112 253.462 219.235L207.661 245.435L250.534 270.065C253.833 271.971 258.861 272.359 263.431 271.336L232.802 253.781C228.127 251.081 228.709 246.371 234.108 243.248L234.125 243.23Z" fill="#020230"/>
<path opacity="0.6" d="M271.705 203.92C267.029 201.221 258.86 201.556 253.462 204.679L204.819 232.502C199.42 235.625 198.838 240.336 203.514 243.035L207.66 245.435L253.462 219.235C258.86 216.112 267.029 215.777 271.705 218.476L274.563 220.135V205.579L271.705 203.92Z" fill="#020230"/>
<path d="M259.037 265.742C256.497 265.742 254.044 265.213 252.174 264.136L214.964 242.753C212.988 241.606 211.895 239.983 211.895 238.148C211.895 236.031 213.394 233.949 216.005 232.449L254.503 210.43C259.161 207.749 265.989 207.484 270.082 209.831L307.291 231.214C309.267 232.361 310.361 233.984 310.361 235.819C310.361 237.936 308.862 240.018 306.251 241.518L267.753 263.537C265.23 265.001 262.054 265.742 259.037 265.742ZM263.254 210.519C260.608 210.519 257.785 211.154 255.632 212.389L217.135 234.408C215.247 235.501 214.171 236.86 214.171 238.13C214.171 239.401 215.211 240.265 216.094 240.759L253.303 262.143C256.62 264.066 262.725 263.784 266.606 261.543L305.104 239.524C306.992 238.43 308.068 237.072 308.068 235.801C308.068 234.531 307.027 233.684 306.145 233.173L268.935 211.789C267.453 210.924 265.406 210.501 263.254 210.501V210.519Z" fill="#E8975B"/>
<path opacity="0.3" d="M252.739 263.149L215.529 241.765C211.824 239.63 212.301 235.89 216.57 233.438L255.068 211.419C259.337 208.949 265.813 208.684 269.5 210.819L306.71 232.203C310.415 234.337 309.938 238.078 305.669 240.53L267.171 262.549C262.901 265.019 256.426 265.284 252.739 263.149Z" fill="#E8975B"/>
<path style="mix-blend-mode:lighten" opacity="0.6" d="M313.264 133.333H216.402L216.579 242.615C216.579 243.109 216.861 243.568 217.461 243.921L258.923 268.392C260.246 269.151 265.768 269.345 267.285 268.462L311.976 244.15C312.77 243.691 313.193 243.109 313.228 242.545V133.333H313.264Z" fill="url(#paint5_linear_289_14147)"/>
<path d="M366.006 253.964L218.769 169.036V5.09424L366.006 90.0218V253.964Z" fill="url(#paint6_linear_289_14147)"/>
<path d="M374.689 248.869L365.985 253.963V90.0206L374.689 84.9663V248.869Z" fill="url(#paint7_linear_289_14147)"/>
<path d="M374.69 84.9666L365.987 90.0209L218.769 5.09332L227.531 0L374.69 84.9666Z" fill="url(#paint8_linear_289_14147)"/>
<path d="M366.494 98.978L352.619 107.272L204.718 21.9343L218.651 13.6016L366.494 98.978Z" fill="url(#paint9_linear_289_14147)"/>
<path d="M343.838 266.667L196.6 181.739V17.7969L343.838 102.724V266.667Z" fill="url(#paint10_linear_289_14147)"/>
<path d="M352.522 261.573L343.799 266.666V102.724L352.522 97.6699V261.573Z" fill="url(#paint11_linear_289_14147)"/>
<path d="M352.522 97.6712L343.799 102.726L196.6 17.7979L205.362 12.7046L352.522 97.6712Z" fill="url(#paint12_linear_289_14147)"/>
<path opacity="0.5" d="M276.314 105.671L267.766 100.734V209.977L276.314 214.914V105.671ZM288.627 94.7043L280.08 89.7671V216.963L288.627 221.9V94.7043ZM301.292 126.728L292.745 121.791V224.203L301.292 229.14V126.728ZM242.436 133.519V195.068L250.984 200.005V138.456L242.436 133.519ZM263.649 118.844L255.101 113.907V202.308L263.649 207.245V118.844ZM313.723 153.463L305.176 148.526V231.443L313.723 236.38V153.463ZM325.9 184.023L317.353 179.085V238.566L325.9 243.503V184.023ZM238.299 124.366L229.752 119.429V187.418L238.299 192.355V124.366ZM204.422 127.86V172.528L212.969 177.466V132.797L204.422 127.86ZM225.634 113.79L217.087 108.852V179.768L225.634 184.706V113.79Z" fill="url(#paint13_linear_289_14147)"/>
<path d="M276.315 137.051L267.768 132.114V209.977L276.315 214.915V137.051ZM288.629 116.873L280.081 111.936V216.964L288.629 221.901V116.873ZM301.294 143.823L292.746 138.886V224.204L301.294 229.141V143.823ZM242.438 146.321V195.068L250.985 200.005V151.258L242.438 146.321ZM263.65 144.76L255.103 139.822V202.308L263.65 207.245V144.76ZM238.301 129.206L229.753 124.269V187.419L238.301 192.356V129.206ZM204.423 153.346V172.529L212.971 177.466V158.283L204.423 153.346ZM225.636 153.366L217.088 148.428V179.769L225.636 184.706V153.366ZM313.725 167.26L305.177 162.323V231.443L313.725 236.381V167.26ZM325.902 191.536L317.354 186.599V238.547L325.902 243.484V191.536Z" fill="url(#paint14_linear_289_14147)"/>
<g style="mix-blend-mode:color-dodge">
<path d="M301.272 144.895L292.744 139.958V138.885L301.272 143.822V144.895Z" fill="#58595B"/>
<path d="M288.608 117.927L280.061 113.009V111.936L288.608 116.873V117.927Z" fill="#58595B"/>
<path d="M325.9 192.609L317.353 187.672V186.599L325.9 191.536V192.609Z" fill="#58595B"/>
<path d="M276.313 138.104L267.766 133.187V132.113L276.313 137.05V138.104Z" fill="#58595B"/>
<path d="M313.704 168.332L305.156 163.395V162.322L313.704 167.259V168.332Z" fill="#58595B"/>
<path d="M225.617 154.419L217.089 149.501V148.428L225.617 153.365V154.419Z" fill="#58595B"/>
<path d="M238.301 130.279L229.754 125.342V124.269L238.301 129.206V130.279Z" fill="#58595B"/>
<path d="M212.95 158.263V159.336L204.403 154.399V153.345L212.95 158.263Z" fill="#58595B"/>
<path d="M263.629 145.832L255.082 140.895V139.822L263.629 144.759V145.832Z" fill="#58595B"/>
<path d="M250.965 152.331L242.418 147.394V146.32L250.965 151.258V152.331Z" fill="#58595B"/>
</g>
</g>
<defs>
<linearGradient id="paint0_linear_289_14147" x1="171.456" y1="290.602" x2="335.803" y2="290.602" gradientUnits="userSpaceOnUse">
<stop stop-color="#E39A65"/>
<stop offset="0.25" stop-color="#A92FFB"/>
<stop offset="0.56" stop-color="#3919BB"/>
</linearGradient>
<linearGradient id="paint1_linear_289_14147" x1="177.808" y1="281.11" x2="244.235" y2="318.584" gradientUnits="userSpaceOnUse">
<stop stop-color="#3919BB"/>
<stop offset="1" stop-color="#6507FA"/>
</linearGradient>
<linearGradient id="paint2_linear_289_14147" x1="187.565" y1="286.615" x2="230.385" y2="310.768" gradientUnits="userSpaceOnUse">
<stop stop-color="#131060"/>
<stop offset="0.21" stop-color="#140F62"/>
<stop offset="0.32" stop-color="#190F6A"/>
<stop offset="0.4" stop-color="#220F77"/>
<stop offset="0.48" stop-color="#2E0F8A"/>
<stop offset="0.54" stop-color="#3E0EA3"/>
<stop offset="0.6" stop-color="#510EC1"/>
<stop offset="0.66" stop-color="#680DE5"/>
<stop offset="0.68" stop-color="#740DF8"/>
<stop offset="0.72" stop-color="#7B16ED"/>
<stop offset="0.79" stop-color="#902FD0"/>
<stop offset="0.88" stop-color="#B357A2"/>
<stop offset="0.99" stop-color="#E18F63"/>
<stop offset="1" stop-color="#E8975B"/>
</linearGradient>
<linearGradient id="paint3_linear_289_14147" x1="217.716" y1="204.873" x2="315.001" y2="276.875" gradientUnits="userSpaceOnUse">
<stop stop-color="#4F1FEC"/>
<stop offset="1" stop-color="#A92FFB"/>
</linearGradient>
<linearGradient id="paint4_linear_289_14147" x1="110.993" y1="223.769" x2="363.785" y2="223.769" gradientUnits="userSpaceOnUse">
<stop stop-color="#131060"/>
<stop offset="0.14" stop-color="#140F62"/>
<stop offset="0.21" stop-color="#190F6A"/>
<stop offset="0.26" stop-color="#220F77"/>
<stop offset="0.31" stop-color="#2E0F8A"/>
<stop offset="0.35" stop-color="#3D0EA3"/>
<stop offset="0.39" stop-color="#510EC1"/>
<stop offset="0.43" stop-color="#670DE5"/>
<stop offset="0.45" stop-color="#740DF8"/>
<stop offset="0.52" stop-color="#7D18EA"/>
<stop offset="0.66" stop-color="#9837C7"/>
<stop offset="0.85" stop-color="#C1698E"/>
<stop offset="1" stop-color="#E8975B"/>
</linearGradient>
<linearGradient id="paint5_linear_289_14147" x1="264.833" y1="269.045" x2="264.833" y2="133.333" gradientUnits="userSpaceOnUse">
<stop stop-color="#E39A65"/>
<stop offset="0.15" stop-color="#B2794F"/>
<stop offset="0.24" stop-color="#956542"/>
<stop offset="0.43" stop-color="#60412A"/>
<stop offset="0.61" stop-color="#362518"/>
<stop offset="0.77" stop-color="#18100A"/>
<stop offset="0.9" stop-color="#060402"/>
<stop offset="1"/>
</linearGradient>
<linearGradient id="paint6_linear_289_14147" x1="40.7953" y1="185.936" x2="555.142" y2="70.6243" gradientUnits="userSpaceOnUse">
<stop stop-color="#25054D"/>
<stop offset="1" stop-color="#45108A"/>
</linearGradient>
<linearGradient id="paint7_linear_289_14147" x1="362.395" y1="171.845" x2="466.856" y2="140.564" gradientUnits="userSpaceOnUse">
<stop stop-color="#25054D"/>
<stop offset="1" stop-color="#45108A"/>
</linearGradient>
<linearGradient id="paint8_linear_289_14147" x1="151.228" y1="-232.263" x2="307.755" y2="66.0374" gradientUnits="userSpaceOnUse">
<stop stop-color="#25054D"/>
<stop offset="1" stop-color="#45108A"/>
</linearGradient>
<linearGradient id="paint9_linear_289_14147" x1="926.836" y1="579.974" x2="226.145" y2="12.2746" gradientUnits="userSpaceOnUse">
<stop stop-color="#FFE4A7"/>
<stop offset="0.1" stop-color="#FAC098"/>
<stop offset="0.2" stop-color="#F49587"/>
<stop offset="0.46" stop-color="#A142B4"/>
<stop offset="0.6" stop-color="#7C1DC9"/>
<stop offset="0.63" stop-color="#7825CB"/>
<stop offset="0.7" stop-color="#6F3ED1"/>
<stop offset="0.78" stop-color="#6065DB"/>
<stop offset="0.87" stop-color="#4B9CE8"/>
<stop offset="0.97" stop-color="#31E0F9"/>
<stop offset="1" stop-color="#2AF6FF"/>
</linearGradient>
<linearGradient id="paint10_linear_289_14147" x1="18.6269" y1="198.619" x2="532.973" y2="83.3269" gradientUnits="userSpaceOnUse">
<stop stop-color="#25054D"/>
<stop offset="1" stop-color="#45108A"/>
</linearGradient>
<linearGradient id="paint11_linear_289_14147" x1="340.228" y1="184.549" x2="444.69" y2="153.267" gradientUnits="userSpaceOnUse">
<stop stop-color="#25054D"/>
<stop offset="1" stop-color="#45108A"/>
</linearGradient>
<linearGradient id="paint12_linear_289_14147" x1="129.06" y1="-219.578" x2="285.587" y2="78.7225" gradientUnits="userSpaceOnUse">
<stop stop-color="#25054D"/>
<stop offset="1" stop-color="#45108A"/>
</linearGradient>
<linearGradient id="paint13_linear_289_14147" x1="274.46" y1="160.781" x2="377.399" y2="-114.883" gradientUnits="userSpaceOnUse">
<stop stop-color="#5513AB"/>
<stop offset="1" stop-color="#BE3BFF"/>
</linearGradient>
<linearGradient id="paint14_linear_289_14147" x1="262.089" y1="205.099" x2="299.03" y2="124.777" gradientUnits="userSpaceOnUse">
<stop stop-color="#5513AB"/>
<stop offset="0.87" stop-color="#BE3BFF"/>
<stop offset="1" stop-color="#CA3CDC"/>
</linearGradient>
<clipPath id="clip0_289_14147">
<rect width="450.535" height="400" fill="white" transform="translate(0.232422 0.278809)"/>
</clipPath>
</defs>
</svg>
