<svg width="386" height="401" viewBox="0 0 386 401" fill="none" xmlns="http://www.w3.org/2000/svg">
<g clip-path="url(#clip0_232_27453)">
<path d="M67.7874 161.745C66.4335 162.521 64.2429 162.521 62.889 161.745C61.5351 160.97 61.5351 159.707 62.889 158.916C64.2429 158.14 66.4335 158.14 67.7874 158.916C69.1414 159.692 69.1414 160.954 67.7874 161.745Z" fill="#E39A65"/>
<path d="M84.2171 171.238C82.8632 172.014 80.6726 172.014 79.3187 171.238C77.9647 170.462 77.9647 169.199 79.3187 168.408C80.6726 167.617 82.8632 167.633 84.2171 168.408C85.571 169.184 85.571 170.447 84.2171 171.238Z" fill="#E39A65"/>
<path d="M100.647 180.715C99.2929 181.491 97.1023 181.491 95.7484 180.715C94.3944 179.94 94.3944 178.677 95.7484 177.886C97.1023 177.095 99.2929 177.11 100.647 177.886C102.001 178.662 102.001 179.924 100.647 180.715Z" fill="#E39A65"/>
<path d="M117.092 190.208C115.738 190.984 113.547 190.984 112.193 190.208C110.839 189.432 110.839 188.17 112.193 187.379C113.547 186.588 115.738 186.603 117.092 187.379C118.446 188.154 118.446 189.417 117.092 190.208Z" fill="#E82B88"/>
<path d="M133.521 199.686C132.167 200.461 129.977 200.461 128.623 199.686C127.269 198.91 127.269 197.647 128.623 196.856C129.977 196.08 132.167 196.08 133.521 196.856C134.875 197.632 134.875 198.895 133.521 199.686Z" fill="#E82B88"/>
<path d="M52.3162 170.69C50.9623 171.466 48.7717 171.466 47.4178 170.69C46.0639 169.915 46.0639 168.652 47.4178 167.861C48.7717 167.085 50.9623 167.085 52.3162 167.861C53.6702 168.637 53.6702 169.899 52.3162 170.69Z" fill="#E39A65"/>
<path d="M68.7459 180.168C67.392 180.944 65.2014 180.944 63.8475 180.168C62.4936 179.392 62.4936 178.129 63.8475 177.338C65.2014 176.547 67.392 176.562 68.7459 177.338C70.0998 178.114 70.0998 179.377 68.7459 180.168Z" fill="#E39A65"/>
<path d="M82.763 190.229C84.6702 190.227 86.215 189.332 86.2135 188.232C86.212 187.131 84.6646 186.241 82.7575 186.244C80.8503 186.246 79.3054 187.141 79.307 188.241C79.3085 189.342 80.8558 190.232 82.763 190.229Z" fill="#E39A65"/>
<path d="M101.62 199.138C100.267 199.914 98.0759 199.914 96.722 199.138C95.3681 198.362 95.3681 197.099 96.722 196.308C98.0759 195.517 100.267 195.532 101.62 196.308C102.974 197.084 102.974 198.347 101.62 199.138Z" fill="#E82B88"/>
<path d="M118.05 208.615C116.696 209.391 114.506 209.391 113.152 208.615C111.798 207.839 111.798 206.577 113.152 205.786C114.506 205.01 116.696 205.01 118.05 205.786C119.404 206.562 119.404 207.824 118.05 208.615Z" fill="#E82B88"/>
<path d="M36.845 179.62C35.4911 180.396 33.3005 180.396 31.9466 179.62C30.5927 178.844 30.5927 177.582 31.9466 176.791C33.3005 176 35.4911 176.015 36.845 176.791C38.199 177.567 38.199 178.829 36.845 179.62Z" fill="#E39A65"/>
<path d="M53.2747 189.113C51.9208 189.889 49.7302 189.889 48.3763 189.113C47.0224 188.337 47.0224 187.074 48.3763 186.283C49.7302 185.507 51.9208 185.507 53.2747 186.283C54.6287 187.059 54.6287 188.322 53.2747 189.113Z" fill="#E39A65"/>
<path d="M69.7044 198.59C68.3505 199.366 66.1599 199.366 64.806 198.59C63.452 197.814 63.452 196.552 64.806 195.761C66.1599 194.97 68.3505 194.985 69.7044 195.761C71.0583 196.537 71.0583 197.799 69.7044 198.59Z" fill="#E39A65"/>
<path d="M86.1493 208.068C84.7953 208.844 82.6047 208.844 81.2508 208.068C79.8969 207.292 79.8969 206.029 81.2508 205.238C82.6047 204.447 84.7953 204.462 86.1493 205.238C87.5032 206.014 87.5032 207.277 86.1493 208.068Z" fill="#E82B88"/>
<path d="M102.579 217.56C101.225 218.336 99.0344 218.336 97.6805 217.56C96.3266 216.785 96.3266 215.522 97.6805 214.731C99.0344 213.955 101.225 213.955 102.579 214.731C103.933 215.507 103.933 216.769 102.579 217.56Z" fill="#E82B88"/>
<path d="M18.9451 189.147C20.8523 189.144 22.3972 188.25 22.3956 187.149C22.3941 186.049 20.8468 185.159 18.9396 185.161C17.0324 185.164 15.4876 186.058 15.4891 187.159C15.4906 188.26 17.038 189.15 18.9451 189.147Z" fill="#E82B88"/>
<path d="M37.8035 198.043C36.4496 198.818 34.259 198.818 32.9051 198.043C31.5512 197.267 31.5512 196.004 32.9051 195.213C34.259 194.422 36.4496 194.437 37.8035 195.213C39.1575 195.989 39.1575 197.252 37.8035 198.043Z" fill="#E82B88"/>
<path d="M51.8153 208.117C53.7224 208.114 55.2673 207.22 55.2657 206.119C55.2642 205.019 53.7169 204.129 51.8097 204.131C49.9025 204.134 48.3577 205.028 48.3592 206.129C48.3608 207.229 49.9081 208.12 51.8153 208.117Z" fill="#E82B88"/>
<path d="M70.6781 217.013C69.3241 217.789 67.1335 217.789 65.7796 217.013C64.4257 216.237 64.4257 214.974 65.7796 214.183C67.1335 213.392 69.3241 213.407 70.6781 214.183C72.032 214.959 72.032 216.222 70.6781 217.013Z" fill="#E82B88"/>
<path d="M87.1077 226.49C85.7538 227.266 83.5632 227.266 82.2093 226.49C80.8554 225.714 80.8554 224.452 82.2093 223.661C83.5632 222.87 85.7538 222.885 87.1077 223.661C88.4617 224.436 88.4617 225.699 87.1077 226.49Z" fill="#E82B88"/>
<path d="M5.90267 197.495C4.54875 198.271 2.35813 198.271 1.00421 197.495C-0.349711 196.719 -0.349711 195.457 1.00421 194.665C2.35813 193.874 4.54875 193.89 5.90267 194.665C7.25659 195.441 7.25659 196.704 5.90267 197.495Z" fill="#E82B88"/>
<path d="M22.3324 206.973C20.9784 207.748 18.7878 207.748 17.4339 206.973C16.08 206.197 16.08 204.934 17.4339 204.143C18.7878 203.352 20.9784 203.367 22.3324 204.143C23.6863 204.919 23.6863 206.182 22.3324 206.973Z" fill="#E82B88"/>
<path d="M36.3416 217.038C38.2488 217.035 39.7936 216.141 39.7921 215.04C39.7906 213.94 38.2432 213.05 36.3361 213.052C34.4289 213.055 32.8841 213.949 32.8856 215.05C32.8871 216.151 34.4345 217.041 36.3416 217.038Z" fill="#E82B88"/>
<path d="M55.2069 225.942C53.8529 226.718 51.6623 226.718 50.3084 225.942C48.9545 225.167 48.9545 223.904 50.3084 223.113C51.6623 222.337 53.8529 222.337 55.2069 223.113C56.5608 223.889 56.5608 225.151 55.2069 225.942Z" fill="#E82B88"/>
<path d="M69.2118 236.008C71.1189 236.005 72.6638 235.111 72.6622 234.01C72.6607 232.909 71.1134 232.019 69.2062 232.022C67.299 232.025 65.7542 232.919 65.7557 234.02C65.7572 235.12 67.3046 236.01 69.2118 236.008Z" fill="#E82B88"/>
<path opacity="0.6" d="M134.16 398.286L28.2956 337.101C23.1537 334.135 23.7926 328.947 29.7408 325.509L256.317 194.696C262.265 191.273 271.241 190.893 276.398 193.859L382.262 255.044C387.404 258.011 386.765 263.198 380.817 266.636L154.241 397.449C148.293 400.872 139.317 401.253 134.16 398.286Z" fill="#020230"/>
<path d="M376.801 210.319L376.923 210.471L276.748 152.572C271.636 149.621 262.706 149.986 256.819 153.394L32.4182 282.959L24.9336 280.099L27.0329 290.596C27.3068 292.163 28.4173 293.654 30.3949 294.795L133.78 354.55C138.891 357.501 147.821 357.136 153.708 353.728L378.687 223.843C381.456 222.246 383.053 220.253 383.449 218.291L385.594 208.083L376.755 210.334L376.801 210.319Z" fill="url(#paint0_radial_232_27453)"/>
<path d="M134.16 345.316L28.2956 284.131C23.1537 281.164 23.7926 275.977 29.7408 272.539L256.317 141.726C262.265 138.303 271.241 137.923 276.398 140.889L382.262 202.074C387.404 205.04 386.765 210.228 380.817 213.666L154.241 344.479C148.293 347.902 139.317 348.282 134.16 345.316Z" fill="url(#paint1_radial_232_27453)"/>
<path d="M134.297 338.47L36.7539 282.108C31.7185 279.202 32.3575 274.136 38.1687 270.789L256.378 144.783C262.189 141.437 270.967 141.072 275.987 143.977L374.306 200.781C379.326 203.687 378.703 208.752 372.891 212.099L153.906 337.649C148.095 340.996 139.317 341.361 134.297 338.455V338.47Z" fill="url(#paint2_radial_232_27453)"/>
<path opacity="0.4" d="M134.297 338.47L36.7539 282.108C31.7185 279.202 32.3575 274.136 38.1687 270.789L256.378 144.783C262.189 141.437 270.967 141.072 275.987 143.977L374.306 200.781C379.326 203.687 378.703 208.752 372.891 212.099L153.906 337.649C148.095 340.996 139.317 341.361 134.297 338.455V338.47Z" fill="#06033E"/>
<path d="M131.437 259.836L175.812 285.241C178.55 286.808 183.327 286.595 186.476 284.754C189.625 282.914 189.96 280.16 187.222 278.593L142.847 253.188C140.108 251.621 135.331 251.834 132.182 253.675C129.033 255.516 128.699 258.269 131.437 259.836Z" fill="url(#paint3_linear_232_27453)"/>
<path opacity="0.9" d="M152.978 247.301L197.353 272.706C200.091 274.273 204.868 274.06 208.017 272.219C211.166 270.379 211.501 267.625 208.763 266.058L164.388 240.653C161.649 239.086 156.873 239.299 153.724 241.14C150.574 242.981 150.24 245.734 152.978 247.301Z" fill="url(#paint4_linear_232_27453)"/>
<path opacity="0.7" d="M174.534 234.751L218.909 260.156C221.648 261.723 226.424 261.51 229.573 259.669C232.722 257.828 233.057 255.075 230.319 253.508L185.944 228.103C183.205 226.536 178.429 226.749 175.28 228.59C172.131 230.43 171.796 233.184 174.534 234.751Z" fill="url(#paint5_linear_232_27453)"/>
<path opacity="0.6" d="M196.075 222.216L240.45 247.621C243.189 249.188 247.965 248.975 251.114 247.134C254.263 245.293 254.598 242.54 251.86 240.973L207.485 215.568C204.746 214.001 199.97 214.214 196.821 216.054C193.672 217.895 193.337 220.649 196.075 222.216Z" fill="url(#paint6_linear_232_27453)"/>
<path opacity="0.3" d="M217.616 209.665L261.991 235.07C264.73 236.637 269.506 236.424 272.655 234.583C275.804 232.743 276.139 229.989 273.401 228.422L229.026 203.017C226.287 201.45 221.511 201.663 218.362 203.504C215.213 205.345 214.878 208.098 217.616 209.665Z" fill="url(#paint7_linear_232_27453)"/>
<path opacity="0.2" d="M239.157 197.13L283.532 222.535C286.271 224.102 291.047 223.889 294.196 222.048C297.345 220.207 297.68 217.454 294.942 215.887L250.567 190.482C247.828 188.915 243.052 189.128 239.903 190.969C236.754 192.81 236.419 195.563 239.157 197.13Z" fill="url(#paint8_linear_232_27453)"/>
<path d="M380.817 210.913L154.241 341.726C148.293 345.164 139.317 345.529 134.16 342.562L28.2958 281.377C26.5463 280.358 25.5119 279.08 25.0859 277.711C24.4014 280.084 25.4054 282.457 28.2958 284.116L134.16 345.301C139.302 348.267 148.293 347.902 154.241 344.464L380.817 213.651C384.742 211.384 386.294 208.372 385.472 205.725C384.94 207.566 383.419 209.407 380.817 210.913Z" fill="white"/>
<path opacity="0.6" d="M359.809 225.79L284.065 182.009C280.262 179.803 273.599 180.092 269.202 182.617L101.544 279.415C97.148 281.955 96.6764 285.789 100.48 287.995L176.223 331.777L359.809 225.775V225.79Z" fill="#020230"/>
<path d="M68.8069 270.059C63.8933 267.229 61.1702 261.312 61.1398 253.371C61.0941 237.23 72.4123 217.515 86.3623 209.406L215.913 134.134C217.099 133.45 218.255 132.644 219.381 131.807C219.488 131.898 219.609 131.989 219.716 132.081L224.706 128.08L230.912 120.504L236.997 109.596L239.614 102.188L241.059 93.6384L321.443 124.9L326.508 128.795L329.049 133.663L330.479 141.284L329.505 151.309L325.078 163.297L317.746 174.554L311.706 181.202L305.363 185.431L302.655 187.211L175.858 260.886L169.788 265.267L162.334 272.919L156.812 281.788L152.446 292.482L151.031 300.575L151.077 307.604L152.765 314.099L156.097 319.18L157.74 320.884L68.8526 270.028L68.8069 270.059Z" fill="url(#paint9_radial_232_27453)"/>
<path opacity="0.4" d="M225.816 126.726L230.897 120.519L236.982 109.612L239.599 102.203L241.029 93.6538L321.412 124.916L326.478 128.81L329.018 133.678L330.448 141.3L329.475 151.325L325.048 163.312L317.7 174.554L314.794 177.764L225.816 126.726Z" fill="#06033E"/>
<path d="M158.531 320.139C153.967 317.522 151.442 311.924 151.411 304.394C151.366 288.603 162.44 269.298 176.086 261.373L305.637 186.101C319.587 177.992 330.905 158.262 330.859 142.136C330.859 137.481 329.901 133.511 328.121 130.453C326.873 128.308 325.215 126.619 323.192 125.448C318.278 122.619 311.783 123.273 304.922 127.258C290.972 135.367 279.654 155.097 279.699 171.223H280.795C280.749 155.432 291.824 136.127 305.469 128.202C311.98 124.414 318.081 123.775 322.644 126.391C327.208 129.008 329.733 134.606 329.764 142.136C329.809 157.927 318.735 177.232 305.089 185.158L175.539 260.429C161.589 268.538 150.27 288.253 150.316 304.394C150.331 312.335 153.054 318.253 157.983 321.082L158.531 320.139Z" fill="url(#paint10_linear_232_27453)"/>
<path d="M304.937 127.258C290.987 135.367 279.669 155.097 279.714 171.223L190.538 120.2C190.493 104.059 201.811 84.3436 215.761 76.2353C222.561 72.2801 228.996 71.6259 233.894 74.3642H233.909L234.016 74.425L322.781 125.235L322.644 125.205C317.792 122.71 311.539 123.41 304.907 127.258H304.937Z" fill="url(#paint11_radial_232_27453)"/>
<g opacity="0.4">
<path d="M144.368 196.141C145.128 195.7 146.376 195.684 147.151 196.141L153.967 200.05C154.743 200.492 154.743 201.207 153.967 201.663C153.206 202.104 151.959 202.119 151.183 201.663L144.368 197.753C143.592 197.312 143.592 196.597 144.368 196.141Z" fill="#06033E"/>
<path d="M116.955 205.71L130.296 213.362C131.072 213.803 131.072 214.518 130.296 214.974C129.535 215.415 128.288 215.431 127.512 214.974L114.171 207.322C113.395 206.881 113.395 206.166 114.171 205.71C114.931 205.268 116.179 205.253 116.955 205.71Z" fill="#06033E"/>
<path d="M173.591 238.204L180.833 242.357C181.608 242.798 181.608 243.513 180.833 243.969C180.072 244.411 178.825 244.426 178.049 243.969L170.807 239.816C170.032 239.375 170.032 238.66 170.807 238.204C171.568 237.763 172.816 237.747 173.591 238.204Z" fill="#06033E"/>
<path d="M179.418 234.827L186.659 238.98C187.435 239.421 187.435 240.136 186.659 240.592C185.898 241.033 184.651 241.049 183.875 240.592L176.634 236.439C175.858 235.998 175.858 235.283 176.634 234.827C177.394 234.385 178.642 234.37 179.418 234.827Z" fill="#06033E"/>
<path d="M185.244 231.434L192.485 235.587C193.261 236.028 193.261 236.743 192.485 237.2C191.71 237.656 190.477 237.656 189.701 237.2L182.46 233.047C181.684 232.605 181.684 231.89 182.46 231.434C183.221 230.993 184.468 230.978 185.244 231.434Z" fill="#06033E"/>
<path d="M191.07 228.057L198.312 232.21C199.087 232.651 199.087 233.366 198.312 233.822C197.551 234.264 196.304 234.279 195.528 233.822L188.286 229.669C187.511 229.228 187.511 228.513 188.286 228.057C189.047 227.616 190.295 227.6 191.07 228.057Z" fill="#06033E"/>
<path d="M196.897 224.664L204.138 228.818C204.914 229.259 204.914 229.974 204.138 230.43C203.362 230.886 202.13 230.886 201.354 230.43L194.113 226.277C193.337 225.836 193.337 225.121 194.113 224.664C194.874 224.223 196.121 224.208 196.897 224.664Z" fill="#06033E"/>
<path d="M202.708 221.287L209.949 225.44C210.725 225.881 210.725 226.596 209.949 227.053C209.189 227.494 207.941 227.509 207.165 227.053L199.924 222.9C199.148 222.459 199.148 221.744 199.924 221.287C200.685 220.846 201.932 220.831 202.708 221.287Z" fill="#06033E"/>
<path d="M208.534 217.895L215.775 222.048C216.551 222.489 216.551 223.204 215.775 223.661C215 224.117 213.767 224.117 212.992 223.661L205.75 219.507C204.974 219.066 204.974 218.351 205.75 217.895C206.511 217.454 207.758 217.439 208.534 217.895Z" fill="#06033E"/>
<path d="M214.361 214.518L221.602 218.671C222.378 219.112 222.378 219.827 221.602 220.283C220.841 220.724 219.594 220.74 218.818 220.283L211.577 216.13C210.801 215.689 210.801 214.974 211.577 214.518C212.338 214.077 213.585 214.061 214.361 214.518Z" fill="#06033E"/>
<path d="M119.997 202.332C120.758 201.891 122.005 201.876 122.781 202.332L143.318 214.107C144.094 214.548 144.094 215.263 143.318 215.72C142.557 216.161 141.31 216.176 140.534 215.72L119.997 203.945C119.221 203.504 119.221 202.789 119.997 202.332Z" fill="#06033E"/>
<path d="M128.607 198.94L132.73 201.298C133.506 201.739 133.506 202.454 132.73 202.911C131.969 203.352 130.722 203.367 129.946 202.911L125.824 200.553C125.048 200.111 125.048 199.396 125.824 198.94C126.584 198.499 127.832 198.484 128.607 198.94Z" fill="#06033E"/>
<path d="M134.434 195.563L146.057 202.226C146.832 202.667 146.832 203.382 146.057 203.839C145.296 204.28 144.049 204.295 143.273 203.839L131.65 197.175C130.874 196.734 130.874 196.019 131.65 195.563C132.411 195.122 133.658 195.107 134.434 195.563Z" fill="#06033E"/>
<path d="M140.245 192.17L142.755 193.616C143.531 194.057 143.531 194.772 142.755 195.228C141.995 195.669 140.747 195.684 139.971 195.228L137.461 193.783C136.685 193.342 136.685 192.627 137.461 192.17C138.222 191.729 139.469 191.714 140.245 192.17Z" fill="#06033E"/>
<path d="M160.128 198.453C159.368 198.894 158.12 198.91 157.344 198.453L143.303 190.391C142.527 189.949 142.527 189.234 143.303 188.778C144.064 188.337 145.311 188.322 146.087 188.778L160.128 196.841C160.904 197.282 160.904 197.997 160.128 198.453Z" fill="#06033E"/>
<path d="M169.241 208.798L182.171 216.222C182.947 216.663 182.947 217.378 182.171 217.834C181.411 218.275 180.163 218.29 179.387 217.834L166.457 210.41L165.346 209.771L156.234 204.538C155.458 204.097 155.458 203.382 156.234 202.926C156.994 202.485 158.242 202.469 159.018 202.926L168.13 208.159L169.241 208.798Z" fill="#06033E"/>
<path d="M149.114 187.028C148.338 186.587 148.338 185.872 149.114 185.416C149.875 184.975 151.122 184.96 151.898 185.416L155.108 187.257C155.884 187.698 155.884 188.413 155.108 188.869C154.332 189.326 153.1 189.326 152.324 188.869L149.114 187.028Z" fill="#06033E"/>
<path d="M166.258 196.856L157.192 191.653C156.416 191.212 156.416 190.497 157.192 190.041C157.952 189.6 159.2 189.584 159.976 190.041L169.042 195.243C169.818 195.685 169.818 196.4 169.042 196.856C168.282 197.297 167.034 197.312 166.258 196.856Z" fill="#06033E"/>
<path d="M161.36 187.318L154.956 183.636C154.18 183.195 154.18 182.48 154.956 182.024C155.717 181.582 156.964 181.567 157.74 182.024L164.144 185.705C164.92 186.146 164.92 186.861 164.144 187.318C163.384 187.759 162.136 187.774 161.36 187.318Z" fill="#06033E"/>
<path d="M186.278 208.341L183.175 206.562L182.293 206.06L171.553 199.898C170.777 199.457 170.777 198.742 171.553 198.286C172.328 197.83 173.561 197.83 174.336 198.286L185.077 204.447L185.959 204.949L189.062 206.729C189.838 207.17 189.838 207.885 189.062 208.341C188.302 208.783 187.054 208.798 186.278 208.341Z" fill="#06033E"/>
<path d="M195.589 213.681L191.603 211.399C190.827 210.958 190.827 210.243 191.603 209.787C192.379 209.33 193.611 209.33 194.387 209.787L198.372 212.069C199.148 212.51 199.148 213.225 198.372 213.681C197.612 214.122 196.364 214.137 195.589 213.681Z" fill="#06033E"/>
<path d="M149.434 212.494C148.673 212.936 147.425 212.951 146.65 212.494L135.027 205.831C134.251 205.39 134.251 204.675 135.027 204.219C135.788 203.778 137.035 203.762 137.811 204.219L149.434 210.882C150.209 211.323 150.209 212.038 149.434 212.494Z" fill="#06033E"/>
<path d="M155.747 217.728L155.062 217.332L151.761 215.446C150.985 215.005 150.985 214.29 151.761 213.833C152.522 213.392 153.769 213.377 154.545 213.833L157.846 215.72L158.531 216.115L161.832 218.001C162.608 218.443 162.608 219.158 161.832 219.614C161.071 220.055 159.824 220.07 159.048 219.614L155.747 217.728Z" fill="#06033E"/>
</g>
<path opacity="0.6" d="M76.8084 188.9L20.4001 156.33C18.3312 155.143 18.5898 153.059 20.9782 151.675L80.7637 117.066C83.152 115.682 86.7574 115.545 88.8263 116.731L145.235 149.302C147.304 150.488 147.045 152.572 144.657 153.957L84.8711 188.565C82.4827 189.95 78.8773 190.087 76.8084 188.9Z" fill="#020230"/>
<path d="M146.619 48.2442L125.245 48.731L88.8262 27.7072C86.7573 26.5206 83.1519 26.6575 80.7636 28.0419L41.728 50.6326L19.0156 51.1498V127.958H19.0461C19.0461 128.719 19.472 129.464 20.4152 130.012L76.8235 162.582C78.8924 163.769 82.4978 163.632 84.8862 162.247L144.672 127.639C145.889 126.939 146.558 126.041 146.634 125.174V48.2442H146.619Z" fill="url(#paint12_linear_232_27453)"/>
<mask id="mask0_232_27453" style="mask-type:luminance" maskUnits="userSpaceOnUse" x="19" y="12" width="128" height="75">
<path d="M76.8084 85.7281L20.4001 53.1579C18.3312 51.9713 18.5898 49.8872 20.9782 48.5028L80.7637 13.8942C83.152 12.5098 86.7574 12.3729 88.8263 13.5595L145.235 46.1297C147.304 47.3163 147.045 49.4004 144.657 50.7847L84.8711 85.3934C82.4827 86.7777 78.8773 86.9146 76.8084 85.7281Z" fill="white"/>
</mask>
<g mask="url(#mask0_232_27453)">
<path d="M147.289 12.3728H18.3315V86.9145H147.289V12.3728Z" fill="#3919BB"/>
<path d="M124.044 88.4358H16.8101V10.8516H148.81V74.136H156.249C153.404 77.0111 150.316 79.8255 146.984 82.5942C140.321 88.1163 132.669 93.4103 124.044 98.3848V88.4358Z" fill="#3919BB"/>
<path d="M123.572 88.4358H16.8101V10.8516H148.81V73.9686H155.625C152.795 76.8286 149.723 79.6429 146.406 82.3964C139.773 87.9034 132.152 93.1669 123.557 98.111V88.4358H123.572Z" fill="#3A19BC"/>
<path d="M123.085 88.4358H16.8101V10.8516H148.81V73.8013H155.001C152.187 76.646 149.129 79.4452 145.813 82.1834C139.195 87.66 131.62 92.9083 123.07 97.8372V88.451L123.085 88.4358Z" fill="#3A18BD"/>
<path d="M122.614 88.4358H16.8101V10.8516H148.81V73.6339H154.393C151.594 76.4635 148.536 79.2474 145.25 81.9857C138.663 87.447 131.118 92.6649 122.598 97.5634V88.451L122.614 88.4358Z" fill="#3B18BE"/>
<path d="M122.127 88.4358H16.8101V10.8516H148.81V73.4514H153.769C150.97 76.2657 147.943 79.0496 144.672 81.7575C138.115 87.1884 130.6 92.3911 122.127 97.2591V88.4206V88.4358Z" fill="#3C18BF"/>
<path d="M121.655 88.4358H16.8101V10.8516H148.81V73.2841H153.161C150.377 76.0984 147.365 78.8519 144.094 81.5597C137.568 86.9754 130.083 92.1477 121.64 97.0005V88.4358H121.655Z" fill="#3D18C0"/>
<path d="M121.184 88.4358H16.8101V10.8516H148.81V73.1167H152.537C149.768 75.9158 146.756 78.6693 143.516 81.3619C137.02 86.7472 129.566 91.9043 121.168 96.7267V88.4358H121.184Z" fill="#3D17C1"/>
<path d="M120.697 88.4358H16.8101V10.8516H148.81V72.9494H151.913C149.16 75.7333 146.163 78.4715 142.938 81.149C136.472 86.5038 129.049 91.6457 120.697 96.4528V88.451V88.4358Z" fill="#3E17C2"/>
<path d="M120.225 88.4358H16.8101V10.8516H148.81V64.3238H158.82C149.768 75.7333 136.868 86.5799 120.225 96.1638V88.4358Z" fill="#3F17C3"/>
<path d="M119.738 88.4358H16.8101V10.8516H148.81V64.2021H158.165C149.144 75.5659 136.32 86.3669 119.738 95.9052V88.451V88.4358Z" fill="#3F16C4"/>
<path d="M119.267 88.4358H16.8101V10.8516H148.81V64.0652H157.511C148.536 75.3682 135.757 86.1235 119.252 95.6161V88.4358H119.267Z" fill="#4016C5"/>
<path d="M118.78 88.4358H16.8101V10.8516H148.81V63.9283H156.857C147.927 75.1856 135.21 85.8953 118.78 95.3423V88.4358Z" fill="#4116C6"/>
<path d="M118.308 88.4358H16.8101V10.8516H148.81V63.7914H156.203C147.304 75.0031 134.647 85.6519 118.293 95.0533V88.4206L118.308 88.4358Z" fill="#4216C7"/>
<path d="M117.837 88.4358H16.8101V10.8516H148.81V63.6697H155.549C146.695 74.8205 134.099 85.4237 117.822 94.7947V88.451L117.837 88.4358Z" fill="#4215C8"/>
<path d="M117.35 88.4358H16.8101V10.8516H148.81V63.5328H154.91C146.102 74.638 133.552 85.1955 117.35 94.5208V88.451V88.4358Z" fill="#4315C9"/>
<path d="M116.879 88.4358H16.8101V10.8516H148.81V63.3959H154.256C145.478 74.4554 133.004 84.9521 116.879 94.2318V88.4358Z" fill="#4415CA"/>
<path d="M116.392 88.4358H16.8101V10.8516H148.81V63.259H153.602C144.87 74.2577 132.441 84.7239 116.392 93.958V88.4358Z" fill="#4414CB"/>
<path d="M115.92 88.4358H16.8101V10.8516H148.81V63.122H152.948C144.261 74.0751 131.878 84.4805 115.905 93.6689V88.4206L115.92 88.4358Z" fill="#4514CC"/>
<path d="M115.449 88.4358H16.8101V10.8516H148.81V63.0003H152.293C143.637 73.8926 131.33 84.2523 115.433 93.4103V88.451L115.449 88.4358Z" fill="#4614CD"/>
<path d="M114.962 88.4358H16.8101V10.8516H148.81V62.8634H151.639C143.029 73.71 130.768 84.0242 114.947 93.1365V88.451L114.962 88.4358Z" fill="#4613CE"/>
<path d="M114.49 88.4358H16.8101V10.8516H148.81V62.7265H151C142.436 73.5275 130.235 83.7807 114.49 92.8475V88.4358Z" fill="#4713CF"/>
<path d="M114.003 88.4358H16.8101V10.8516H148.81V62.5896H150.346C141.812 73.3297 129.672 83.5526 114.003 92.5736V88.4358Z" fill="#4813D0"/>
<path d="M113.532 88.4358H16.8101V10.8516H148.81V62.4679H149.692C141.203 73.1624 129.125 83.3244 113.517 92.2998V88.4358H113.532Z" fill="#4913D1"/>
<path d="M113.06 88.4358H16.8101V10.8516H148.81V62.331H149.038C140.595 72.9798 128.562 83.081 113.045 92.026V88.451L113.06 88.4358Z" fill="#4912D2"/>
<path d="M112.573 88.4358H16.8101V10.8516H148.81V45.9927H158.318C155.899 51.4692 152.582 56.9001 148.384 62.1941C139.971 72.782 128.014 82.8528 112.558 91.7369V88.4358H112.573Z" fill="#4A12D3"/>
<path d="M112.102 88.4358H16.8101V10.8516H148.81V45.947H157.618C155.214 51.3931 151.913 56.7936 147.73 62.0724C139.363 72.6147 127.451 82.6246 112.087 91.4783V88.451L112.102 88.4358Z" fill="#4B12D4"/>
<path d="M111.615 88.4358H16.8101V10.8516H148.81V45.8862H156.918C154.53 51.3019 151.244 56.6871 147.091 61.9202C138.769 72.4017 126.919 82.3812 111.615 91.1893V88.4358Z" fill="#4B11D5"/>
<path d="M111.143 88.4358H16.8101V10.8516H148.81V45.8405H156.218C153.845 51.241 150.574 56.5806 146.437 61.7985C138.146 72.2344 126.356 82.153 111.143 90.9155V88.4358Z" fill="#4C11D6"/>
<path d="M110.672 88.4358H16.8101V10.8516H148.81V45.7797H155.519C153.145 51.1497 149.905 56.4741 145.782 61.6616C137.537 72.0518 125.808 81.9248 110.657 90.6416V88.451L110.672 88.4358Z" fill="#4D11D7"/>
<path d="M110.185 88.4358H16.8101V10.8516H148.81V29.6239H159.246C156.872 51.0585 140.321 72.995 110.17 90.3526V88.4358H110.185Z" fill="#4E11D8"/>
<path d="M109.713 88.4358H16.8101V10.8516H148.81V29.6543H158.531C156.173 50.9824 139.713 72.8125 109.698 90.0788V88.4358H109.713Z" fill="#4E10D9"/>
<path d="M109.227 88.4358H16.8101V10.8516H148.81V29.6848H157.8C155.442 50.9063 139.074 72.6299 109.211 89.8049V88.4358H109.227Z" fill="#4F10DB"/>
<path d="M108.755 88.4358H16.8101V10.8516H148.81V29.7H157.085C154.743 50.8151 138.45 72.4321 108.755 89.5311V88.4358Z" fill="#5010DC"/>
<path d="M108.283 88.4358H16.8101V10.8516H148.81V29.7304H156.355C154.028 50.739 137.811 72.2496 108.268 89.2573V88.4358H108.283Z" fill="#500FDD"/>
<path d="M107.797 88.4358H16.8101V10.8516H148.81V29.7608H155.64C153.328 50.6629 137.187 72.0671 107.797 88.9835V88.451V88.4358Z" fill="#510FDE"/>
<path d="M107.325 88.4358H16.8101V10.8516H148.81V29.776H154.925C152.628 50.5716 136.579 71.8541 107.325 88.6944V88.4358Z" fill="#520FDF"/>
<path d="M106.838 88.4206C103.202 90.5199 99.4449 92.4824 95.5809 94.3383V88.4358H16.8101V10.8516H148.81V29.8065H154.195C151.898 50.4956 135.94 71.6715 106.838 88.4206Z" fill="#530FE0"/>
<path d="M106.367 88.1468C102.746 90.2309 99.0037 92.1933 95.1702 94.034V88.4358H16.8101V10.8516H148.81V29.8369H153.48C151.198 50.4195 135.316 71.489 106.367 88.1468Z" fill="#530EE1"/>
<path d="M105.895 87.8729C98.6995 92.0108 91.0171 95.6922 83.0153 98.8869V88.4358H16.8101V10.8516H148.81V29.8521H152.75C150.483 50.3283 134.677 71.2912 105.88 87.8577L105.895 87.8729Z" fill="#540EE2"/>
<path d="M105.408 87.5991C98.2431 91.7217 90.6064 95.3727 82.635 98.5522V88.4358H16.8101V10.8516H145.25V0.278809C150.924 9.61934 153.161 19.6901 152.035 29.8825C149.783 50.2522 134.054 71.1087 105.408 87.5991Z" fill="#550EE3"/>
<path d="M104.937 87.3101C97.8171 91.4175 90.2261 95.0533 82.2851 98.2176V88.4359H16.8101V10.8516H144.565V0.461426C150.209 9.75632 152.43 19.7814 151.305 29.913C149.053 50.1762 133.415 70.911 104.921 87.3254L104.937 87.3101Z" fill="#550DE4"/>
<path d="M104.45 87.0361C97.3608 91.1131 89.8153 94.7337 81.92 97.8827V88.4357H16.8101V10.8514H143.881V0.643799C149.494 9.89306 151.715 19.8573 150.59 29.9433C148.353 50.0999 132.806 70.7282 104.45 87.0513V87.0361Z" fill="#560DE5"/>
<path d="M103.978 86.7624C96.9348 90.8241 89.4198 94.4143 81.5701 97.5481V88.4358H16.8101V10.8515H143.196V0.826416C148.779 10.03 150.985 19.9334 149.875 29.9585C147.654 50.0087 132.182 70.5305 103.978 86.7624Z" fill="#570DE6"/>
<path d="M103.507 86.4887C96.4936 90.52 89.0243 94.1102 81.2202 97.2136V88.4359H16.8101V10.8517H142.512V0.993896C148.064 10.1519 150.255 20.0096 149.144 29.9739C146.939 49.9176 131.543 70.3329 103.491 86.4735L103.507 86.4887Z" fill="#580DE7"/>
<path d="M103.02 86.2147C96.0373 90.2308 88.6135 93.7906 80.8551 96.8939V88.4509H16.8101V10.8515H141.827V1.17627C147.349 10.2734 149.525 20.0855 148.429 30.0041C146.239 49.8414 130.92 70.1502 103.02 86.1995V86.2147Z" fill="#580CE8"/>
<path d="M102.548 85.9257C95.6113 89.9114 88.218 93.4559 80.49 96.5441V88.4358H16.8101V10.8515H141.143V1.35889C146.634 10.4104 148.81 20.1617 147.714 30.0346C145.524 49.7654 130.296 69.9677 102.548 85.9257Z" fill="#590CE9"/>
<path d="M102.061 85.6519C95.1549 89.6224 87.8073 93.1518 80.1249 96.2095V88.4358H16.8101V10.8516H140.443V1.5415C145.904 10.5474 148.064 20.253 146.969 30.0651C144.794 49.6894 129.657 69.77 102.046 85.6672L102.061 85.6519Z" fill="#5A0CEA"/>
<path d="M101.59 85.3782C94.729 89.3335 87.4117 92.8324 79.775 95.8749V88.4359H16.8101V10.8517H139.758V1.72412C145.189 10.6843 147.334 20.3291 146.254 30.0956C144.094 49.6134 129.033 69.5875 101.575 85.3934L101.59 85.3782Z" fill="#5A0BEB"/>
<path d="M101.118 85.1042C94.2878 89.029 87.0162 92.5127 79.4251 95.5552V88.451H16.8101V10.8515H139.074V1.90649C144.474 10.8211 146.604 20.405 145.539 30.1106C143.394 49.5219 128.41 69.3896 101.103 85.1042H101.118Z" fill="#5B0BEC"/>
<path d="M100.631 84.8305C93.8466 88.7401 86.6054 92.1934 79.06 95.2207V88.4511H16.8101V10.8516H138.389V2.07397C143.759 10.9277 145.889 20.4812 144.809 30.126C142.664 49.4308 127.771 69.1919 100.616 84.8153L100.631 84.8305Z" fill="#5C0BED"/>
<path d="M100.16 84.5565C93.4055 88.4357 86.2099 91.889 78.7101 94.8858V88.4509H16.8101V10.8515H137.705V2.25635C143.044 11.0644 145.159 20.5571 144.094 30.1562C141.964 49.3545 127.147 69.0092 100.145 84.5413L100.16 84.5565Z" fill="#5C0AEE"/>
<path d="M99.6731 84.2675C92.9643 88.1315 85.8144 91.5544 78.3298 94.536V88.4358H16.8101V10.8515H137.02V2.43896C142.329 11.2014 144.429 20.6332 143.379 30.1867C141.264 49.2785 126.523 68.8267 99.6731 84.2675Z" fill="#5D0AEF"/>
<path d="M99.2015 83.9938C92.5232 87.8425 85.4189 91.235 77.9799 94.2014V88.4358H16.8101V10.8516H136.335V2.62158C141.614 11.3384 143.714 20.7246 142.649 30.2172C140.549 49.2025 125.9 68.629 99.1863 84.009L99.2015 83.9938Z" fill="#5E0AF0"/>
<path d="M98.7147 83.72C92.082 87.5384 85.0081 90.9308 77.6148 93.882V88.4511H16.8101V10.8517H135.651V2.8042C140.899 11.4602 142.983 20.8007 141.934 30.2325C139.85 49.1113 125.276 68.4313 98.7147 83.72Z" fill="#5F0AF1"/>
<path d="M98.2431 83.446C91.6408 87.2491 84.6126 90.6111 77.2649 93.5472V88.4509H16.8101V10.8515H134.966V2.98657C140.199 11.5969 142.253 20.8766 141.219 30.2628C139.135 49.0351 124.652 68.2486 98.2431 83.446Z" fill="#5F09F2"/>
<path d="M97.7715 83.1722C91.2149 86.945 84.2171 90.2917 76.915 93.2125V88.451H16.8101V10.8515H134.267V3.16919C139.469 11.7339 141.508 20.9679 140.473 30.2932C138.404 48.9591 123.998 68.0661 97.7411 83.1722H97.7715Z" fill="#6009F3"/>
<path d="M97.2847 82.8831C90.7585 86.6406 83.8063 89.9722 76.5499 92.8626V88.4205H16.8101V10.8514H133.582V3.33643C138.754 11.8555 140.793 21.0287 139.758 30.3084C137.705 48.8677 123.374 67.8683 97.2695 82.8831H97.2847Z" fill="#6109F4"/>
<path d="M96.8131 82.6093C90.3173 86.3364 83.4108 89.6528 76.1848 92.5432V88.4358H16.8101V10.8515H132.897V3.51904C138.039 11.9925 140.063 21.1048 139.043 30.3389C137.005 48.7917 122.766 67.6706 96.8131 82.6093Z" fill="#6108F5"/>
<path d="M96.3263 82.3356C89.8762 86.0474 83.0001 89.3334 75.8197 92.2085V88.4358H16.8101V10.8516H132.213V3.70166C137.324 12.1142 139.332 21.1809 138.313 30.3693C136.275 48.7157 122.127 67.4881 96.3263 82.3356Z" fill="#6208F6"/>
<path d="M95.8547 82.0618C89.435 85.7585 82.6045 89.0292 75.4698 91.8739V88.4359H16.8101V10.8516H131.528V3.88428C136.609 12.2512 138.617 21.2723 137.598 30.3846C135.575 48.6245 121.503 67.2904 95.8547 82.0618Z" fill="#6308F7"/>
<path d="M95.3831 81.7878C82.635 89.1203 68.2134 94.7946 53.0465 98.7803V88.4509H16.8101V10.8515H130.844V4.06665C135.894 12.3879 137.887 21.3482 136.883 30.4149C134.875 48.5483 120.879 67.1077 95.3831 81.7878Z" fill="#6408F8"/>
<path d="M94.8963 81.4988C82.2242 88.8009 67.8787 94.4295 52.8031 98.3848V88.4358H16.8101V10.8515H130.159V4.24927C135.179 12.5249 137.157 21.4243 136.153 30.4454C134.16 48.4723 120.241 66.9252 94.8963 81.514V81.4988Z" fill="#6407F9"/>
<path d="M94.4247 81.2251C81.8287 88.4816 67.5745 94.0798 52.5901 98.0199V88.4359H16.8101V10.8517H129.475V4.41675C134.464 12.6468 136.427 21.5005 135.438 30.4607C133.46 48.3812 119.617 66.7275 94.4247 81.2251Z" fill="#6507FA"/>
<path d="M93.9379 80.9511C81.418 88.1619 67.2398 93.7297 52.3467 97.6394V88.4357H16.8101V10.8515H128.79V4.59912C133.749 12.7683 135.712 21.5764 134.723 30.491C132.745 48.3049 119.008 66.5296 93.9531 80.9511H93.9379Z" fill="#6507FA"/>
<path d="M93.5424 80.7229C81.0833 87.8881 66.9812 93.4407 52.1641 97.3351V88.4509H16.8101V10.8515H128.197V4.75122C133.126 12.89 135.073 21.6372 134.099 30.5061C132.137 48.2288 118.461 66.3622 93.5272 80.7077L93.5424 80.7229Z" fill="#6607FA"/>
<path d="M93.1317 80.4797C80.7334 87.6144 66.7074 93.1366 51.9664 97.0005V88.4359H16.8101V10.8516H127.619V4.9187C132.532 13.0118 134.464 21.7286 133.491 30.5367C131.543 48.1681 117.928 66.2103 93.1317 80.4797Z" fill="#6708FA"/>
<path d="M92.7209 80.2514C80.3835 87.3557 66.4335 92.8323 51.7686 96.681V88.4358H16.8101V10.8516H127.025V5.0708C131.909 13.1183 133.841 21.7894 132.867 30.5671C130.92 48.1072 117.381 66.0581 92.7209 80.2514Z" fill="#6708FA"/>
<path d="M92.3102 80.008C80.0336 87.0667 66.1597 92.528 51.5708 96.3616V88.4358H16.8101V10.8516H126.447V5.2229C131.3 13.2247 133.217 21.8503 132.258 30.5823C130.326 48.0311 116.863 65.8907 92.3102 80.008Z" fill="#6809FA"/>
<path d="M91.9146 79.7798C79.7141 86.808 65.9011 92.2389 51.3883 96.0421V88.451H16.8101V10.8515H125.854V5.375C130.692 13.3464 132.593 21.9263 131.635 30.5975C129.718 47.9551 116.316 65.7234 91.8994 79.7646L91.9146 79.7798Z" fill="#6909FA"/>
<path d="M91.5039 79.5364C79.3643 86.519 65.6273 91.9346 51.1905 95.7226V88.451H16.8101V10.8515H125.276V5.5271C130.083 13.4529 131.985 21.9871 131.026 30.6279C129.109 47.8942 115.783 65.5712 91.5039 79.5516V79.5364Z" fill="#6A0AFA"/>
<path d="M91.0932 79.3082C79.0144 86.2603 65.3535 91.6304 50.9928 95.4031V88.4509H16.8101V10.8515H124.683V5.6792C129.459 13.5593 131.346 22.048 130.403 30.6431C128.501 47.8181 115.251 65.4039 91.0932 79.3082Z" fill="#6B0AFA"/>
<path d="M90.6824 79.0647C78.6645 85.9865 65.0796 91.3261 50.795 95.0684V88.4357H16.8101V10.8515H124.104V5.8313C128.866 13.6658 130.737 22.124 129.794 30.6583C127.908 47.742 114.718 65.2365 90.6824 79.0647Z" fill="#6C0BFA"/>
<path d="M90.2717 78.8215C78.3146 85.6976 64.8058 91.022 50.5972 94.7491V88.4359H16.8101V10.8517H123.511V5.98364C128.242 13.7877 130.113 22.1851 129.17 30.6737C127.284 47.6662 114.171 65.0694 90.2717 78.8215Z" fill="#6D0CFA"/>
<path d="M89.8762 78.5933C77.9951 85.439 64.5472 90.7178 50.4147 94.4296V88.4359H16.8101V10.8516H122.933V6.13574C127.634 13.8942 129.49 22.2459 128.562 30.7041C126.691 47.6053 113.638 64.902 89.8762 78.5933Z" fill="#6E0CFA"/>
<path d="M89.4654 78.3499C77.6452 85.1499 64.2734 90.4135 50.2169 94.1102V88.4359H16.8101V10.8516H122.34V6.28784C127.025 14.0006 128.866 22.3067 127.938 30.7193C126.082 47.5292 113.106 64.7346 89.4502 78.3499H89.4654Z" fill="#6F0DFA"/>
<path d="M89.0547 78.1216C77.2953 84.8912 63.9995 90.1244 50.0192 93.7906V88.4358H16.8101V10.8515H121.762V6.45508C126.417 14.1222 128.258 22.3979 127.33 30.7496C125.474 47.4682 112.573 64.5824 89.0547 78.1216Z" fill="#700DFA"/>
<path d="M88.6439 77.8782C76.9455 84.6021 63.7257 89.8201 49.8214 93.4559V88.4205H16.8101V10.8515H121.184V6.60718C125.808 14.2439 127.634 22.4587 126.721 30.78C124.88 47.4074 112.041 64.4303 88.6591 77.8934L88.6439 77.8782Z" fill="#710EFA"/>
<path d="M88.2484 77.65C76.6108 84.3435 63.4671 89.5158 49.6236 93.1516V88.4509H16.8101V10.8515H120.59V6.75928C125.2 14.3504 127.01 22.5195 126.097 30.7952C124.272 47.3313 111.493 64.2629 88.2332 77.65H88.2484Z" fill="#720EFA"/>
<path d="M87.8378 77.4068C64.6994 90.7178 35.5065 97.9894 6.99805 98.9935L16.8102 88.4359V10.8517H120.012V6.91162C124.591 14.4571 126.402 22.5958 125.489 30.8106C123.663 47.2554 110.976 64.0958 87.8378 77.4068Z" fill="#730FFA"/>
<path d="M87.4268 77.1786C64.4254 90.4135 35.3845 97.6547 7.04346 98.6436L16.8252 88.4359V10.8517H119.434V7.06372C123.983 14.5635 125.793 22.6566 124.88 30.841C123.07 47.2098 110.443 63.9436 87.442 77.1786H87.4268Z" fill="#7410FA"/>
<path d="M87.0164 76.9351C64.1367 90.1093 35.2632 97.2896 7.07422 98.2784L16.8103 88.4207V10.8516H118.841V7.21582C123.375 14.6852 125.154 22.7175 124.257 30.8562C122.462 47.1337 109.896 63.7762 87.0164 76.9351Z" fill="#7410FA"/>
<path d="M86.6055 76.7069C63.8475 89.805 35.1413 96.9549 7.10449 97.9437L16.7949 88.451V10.8516H118.233V7.36792C122.735 14.7917 124.515 22.7935 123.618 30.8714C121.823 47.0576 109.348 63.6089 86.5903 76.6917L86.6055 76.7069Z" fill="#7511FA"/>
<path d="M86.2102 76.4635C63.589 89.4855 35.035 96.605 7.16553 97.5786L16.8255 88.4358V10.8516H117.685V7.52002C122.158 14.8981 123.937 22.8543 123.04 30.9018C121.26 46.9967 108.847 63.4567 86.2254 76.4787L86.2102 76.4635Z" fill="#7611FA"/>
<path d="M85.7993 76.2353C63.2999 89.1812 34.9132 96.2551 7.1958 97.2287L16.8102 88.4358V10.8516H117.076V7.67212C121.534 15.0046 123.283 22.9151 122.401 30.917C120.636 46.9206 108.284 63.2894 85.7841 76.2353H85.7993Z" fill="#7712FA"/>
<path d="M85.3883 75.9919C63.0258 88.8617 34.7912 95.9052 7.24121 96.8635L16.8251 88.4358V10.8515H116.513V7.82422C120.94 15.1263 122.69 22.976 121.807 30.9322C120.043 46.8445 107.766 63.1068 85.4035 75.9919H85.3883Z" fill="#7812FA"/>
<path d="M84.9779 75.7638C62.7371 88.5576 34.6699 95.5554 7.27197 96.5138L16.8103 88.4359V10.8517H115.905V7.9917C120.302 15.2481 122.051 23.0674 121.169 30.9779C119.419 46.799 107.219 62.97 84.9779 75.779V75.7638Z" fill="#7913FA"/>
<path d="M84.5822 75.5204C62.463 88.2533 34.5631 95.2055 7.31738 96.1487L16.81 88.4359V10.8516H115.327V8.1438C119.708 15.3546 121.427 23.1282 120.56 30.9931C118.826 46.7229 106.686 62.8027 84.5669 75.5356L84.5822 75.5204Z" fill="#7A14FA"/>
<path d="M84.1717 75.2922C62.1895 87.9491 34.4417 94.8556 7.36328 95.814L16.8255 88.4511V10.8516H114.749V8.2959C119.1 15.4762 120.819 23.189 119.952 31.0083C118.217 46.6469 106.154 62.6353 84.1717 75.2922Z" fill="#7B14FA"/>
<path d="M83.7608 75.0487C61.9003 87.6296 34.3199 94.5057 7.39355 95.4488L16.8102 88.4358V10.8516H114.156V8.448C118.476 15.5827 120.195 23.2651 119.328 31.0387C117.609 46.586 105.606 62.4831 83.7608 75.064V75.0487Z" fill="#7C15FA"/>
<path d="M83.3499 74.8205C61.6263 87.3253 34.198 94.1557 7.42383 95.0989L16.81 88.451V10.8516H113.562V8.6001C117.867 15.6892 119.556 23.3259 118.704 31.0539C117 46.5099 105.073 62.3158 83.3347 74.8205H83.3499Z" fill="#7D15FA"/>
<path d="M82.9394 74.5771C61.3375 87.0058 34.0766 93.8058 7.46973 94.7338L16.8103 88.4358V10.8515H112.984V8.7522C117.259 15.7956 118.948 23.3867 118.096 31.0691C116.392 46.4338 104.541 62.1484 82.9394 74.5771Z" fill="#7F16FA"/>
<path d="M82.5437 74.3489C61.0635 86.7015 33.9698 93.4559 7.51514 94.3839L16.8252 88.4358V10.8515H112.421V8.9043C116.666 15.9173 118.354 23.4628 117.502 31.0995C115.814 46.3729 104.024 61.9963 82.5589 74.3489H82.5437Z" fill="#8017FA"/>
<path d="M82.1333 74.1055C60.79 86.3972 33.8485 93.106 7.5459 94.0187L16.8104 88.4357V10.8515H111.813V9.0564C116.042 16.0238 117.7 23.5236 116.864 31.1147C115.19 46.2968 103.477 61.8289 82.118 74.1055H82.1333Z" fill="#8117FA"/>
<path d="M81.7223 73.8773C60.5007 86.093 33.7265 92.7561 7.59131 93.6688L16.8101 88.4357V10.8515H111.235V9.2085C115.433 16.1302 117.092 23.5844 116.255 31.1298C114.581 46.2207 102.944 61.6615 81.7223 73.862V73.8773Z" fill="#8218FA"/>
<path d="M81.3114 73.6341C60.2267 85.7737 33.6047 92.4064 7.62158 93.3192L16.81 88.4359V10.8517H110.641V9.36084C114.81 16.2369 116.468 23.6607 115.631 31.1453C113.973 46.1449 102.396 61.4944 81.3114 73.6188V73.6341Z" fill="#8318FA"/>
<path d="M80.9161 73.4058C59.9531 85.4694 33.4984 92.0564 7.68262 92.9692L16.8254 88.451V10.8516H110.079V9.52808C114.232 16.3737 115.859 23.7366 115.038 31.1908C113.38 46.0992 101.879 61.3422 80.9161 73.4058Z" fill="#8419FA"/>
<path d="M80.5052 73.1623C59.6639 85.1499 33.3765 91.7065 7.71289 92.604L16.8252 88.4358V10.8515H109.485V9.68018C113.608 16.4802 115.236 23.7975 114.414 31.206C112.771 46.0231 101.346 61.1748 80.5052 73.1776V73.1623Z" fill="#851AFA"/>
<path d="M80.0948 72.9341C59.3904 84.8456 33.2552 91.3566 7.74365 92.2541L16.8104 88.4358V10.8515H108.892V9.83228C112.984 16.5867 114.612 23.8583 113.791 31.2212C112.163 45.947 100.799 61.0074 80.0948 72.9341Z" fill="#861AFA"/>
<path d="M79.6838 72.6907C59.1012 84.5261 33.1332 91.0067 7.78906 91.889L16.8101 88.4357V10.8515H108.299V9.98438C112.376 16.6931 113.973 23.9343 113.167 31.2516C111.539 45.8861 100.251 60.8553 79.6686 72.7059L79.6838 72.6907Z" fill="#871BFA"/>
<path d="M79.2729 72.4625C58.8272 84.237 33.0114 90.6567 7.81934 91.5391L16.81 88.4357V10.8515H107.72V10.1365C111.767 16.8148 113.364 23.9952 112.558 31.2668C110.946 45.81 99.7186 60.6879 79.2729 72.4625Z" fill="#881BFB"/>
<path d="M78.8776 72.2191C58.5536 83.9175 32.9052 90.3068 7.86523 91.1892L16.8102 88.4357V10.8514H107.127V10.2886C111.144 16.9213 112.741 24.056 111.935 31.282C110.337 45.7339 99.1864 60.5206 78.8624 72.2191H78.8776Z" fill="#891CFB"/>
<path d="M78.4667 71.9911C58.2643 83.6135 32.7832 89.9572 7.91064 90.8395L16.8252 88.4511V10.8517H106.564V10.4409C110.565 17.028 112.132 24.1323 111.341 31.3126C109.744 45.6733 98.669 60.3687 78.4667 71.9911Z" fill="#8A1DFB"/>
<path d="M78.0563 71.7477C57.9908 83.294 32.6619 89.6072 7.94141 90.4744L16.8104 88.4359V10.8516H105.956V10.593C109.927 17.1344 111.494 24.1931 110.702 31.3278C109.12 45.5972 98.1065 60.2013 78.041 71.7477H78.0563Z" fill="#8B1DFB"/>
<path d="M77.6454 71.5194C57.7017 82.9897 32.54 89.2573 7.97168 90.1244L16.795 88.4358V10.8516H105.363V10.7451C109.303 17.2561 110.87 24.2539 110.079 31.343C108.512 45.5211 97.5739 60.0339 77.6302 71.5042L77.6454 71.5194Z" fill="#8C1EFB"/>
<path d="M77.2495 71.2761C57.4427 82.6703 32.4332 88.9075 8.03223 89.7594L16.8251 88.4359V10.8516H97.1324V1.63281C100.281 4.56884 102.837 7.67221 104.8 10.8973C108.724 17.3626 110.276 24.33 109.485 31.3734C107.918 45.4603 97.0563 59.8818 77.2495 71.2761Z" fill="#8D1FFB"/>
<path d="M76.8391 71.0478C57.154 82.3812 32.3119 88.5727 8.06299 89.4094L16.8102 88.4358V10.8516H96.5851V1.8457C99.7189 4.75131 102.259 7.83947 104.207 11.0493C108.101 17.469 109.637 24.3908 108.862 31.3886C107.31 45.3842 96.509 59.7144 76.8239 71.0326L76.8391 71.0478Z" fill="#8E1FFB"/>
<path d="M76.4282 70.8043C56.8648 82.0616 32.1899 88.2075 8.1084 89.0594L16.8252 88.4509V10.8515H96.0676V2.05859C99.1862 4.94899 101.696 8.02193 103.644 11.2014C107.507 17.5754 109.044 24.4515 108.268 31.4037C106.732 45.308 95.9916 59.5318 76.4434 70.7891L76.4282 70.8043Z" fill="#8F20FB"/>
<path d="M76.0178 70.5763C56.5913 81.7575 32.0686 87.873 8.13916 88.7097L16.8103 88.4511V10.8516H95.5203V2.27173C98.6085 5.14691 101.119 8.18943 103.035 11.3689C106.884 17.7125 108.405 24.5278 107.63 31.4495C106.093 45.2625 95.4443 59.395 76.0178 70.5763Z" fill="#9020FB"/>
<path d="M75.622 70.3328C56.3172 81.438 31.9619 87.5078 8.18457 88.3445H16.8253V10.8515H95.0029V2.48462C98.0758 5.34459 100.571 8.37189 102.472 11.5209C106.291 17.8189 107.797 24.6037 107.036 31.4646C105.515 45.1864 94.9268 59.2276 75.622 70.3328Z" fill="#9121FB"/>
<path d="M75.2115 70.1045C56.0437 81.1337 31.8404 87.1731 8.23047 87.9945H16.8256V10.8515H94.4555V2.69751C97.5132 5.52705 99.9776 8.53915 101.879 11.6729C105.667 17.9253 107.173 24.6645 106.413 31.4797C104.907 45.1102 94.3794 59.0602 75.2115 70.0893V70.1045Z" fill="#9222FB"/>
<path d="M74.8006 69.8613C55.7545 80.8143 31.7186 86.8081 8.26074 87.6296H16.8102V10.8516H93.9077V2.91064C96.935 5.72497 99.3994 8.70664 101.286 11.8252C105.058 18.032 106.549 24.7255 105.789 31.5103C104.283 45.0495 93.8468 58.9082 74.8006 69.8765V69.8613Z" fill="#9322FB"/>
<path d="M74.3897 69.633C55.4653 80.5252 31.5967 86.4734 8.29102 87.2796H16.8101V10.8515H93.3751V3.12354C96.3872 5.92265 98.8212 8.88911 100.692 11.9773C104.435 18.1536 105.91 24.8015 105.165 31.5255C103.674 44.9734 93.299 58.7408 74.3745 69.633H74.3897Z" fill="#9423FB"/>
<path d="M73.9793 69.3895C55.1917 80.2057 31.4753 86.1082 8.33691 86.9144H16.8103V10.8514H92.8429V3.33643C95.8398 6.12033 98.2586 9.05636 100.115 12.1293C103.826 18.26 105.302 24.8622 104.557 31.5406C103.081 44.8972 92.7668 58.5734 73.9793 69.3895Z" fill="#9624FB"/>
<path d="M73.5835 69.1615C54.9177 79.9016 31.3686 85.7736 8.38232 86.5799H16.8253V10.8516H92.3254V3.54956C95.2919 6.30304 97.6955 9.23907 99.5514 12.2816C103.248 18.3666 104.708 24.9233 103.963 31.5559C102.487 44.8213 92.2494 58.4062 73.5987 69.1463L73.5835 69.1615Z" fill="#9724FB"/>
<path d="M73.1726 68.918C54.6437 79.582 31.2467 85.4085 8.4126 86.2147H16.81V10.8515H91.7624V3.76245C94.7137 6.50072 97.102 9.40632 98.9428 12.4336C102.609 18.473 104.054 24.9992 103.324 31.5863C101.864 44.7604 91.7016 58.254 73.1574 68.918H73.1726Z" fill="#9825FB"/>
<path d="M72.7621 68.69C54.3549 79.2779 31.1253 85.0739 8.4585 85.865H16.8102V10.8517H91.2302V3.97559C94.1663 6.69864 96.5394 9.58903 98.3497 12.5859C101.986 18.5949 103.431 25.0602 102.701 31.6017C101.255 44.6845 91.1542 58.0868 72.7469 68.6748L72.7621 68.69Z" fill="#9925FB"/>
<path d="M72.3513 68.4464C54.0809 78.9583 31.0034 84.7087 8.48877 85.4997H16.8101V10.8515H90.6976V4.20361C93.6032 6.91146 95.9612 9.77142 97.7715 12.7531C101.392 18.7164 102.822 25.1361 102.092 31.6319C100.647 44.6235 90.6216 57.9345 72.3513 68.4464Z" fill="#9A26FB"/>
<path d="M71.9559 68.2184C53.8073 78.6694 30.8971 84.3742 8.5498 85.15H16.8255V10.8517H90.1806V4.41675C93.071 7.09416 95.4137 9.95413 97.2088 12.9054C100.799 18.8231 102.214 25.2124 101.499 31.6625C100.069 44.5628 90.1045 57.7673 71.9559 68.2184Z" fill="#9B27FB"/>
<path d="M71.545 67.9749C53.5181 78.3499 30.7753 84.009 8.58008 84.7848H16.8253V10.8516H89.6328V4.62964C92.508 7.29184 94.8203 10.1214 96.6154 13.0574C100.175 18.9447 101.59 25.2731 100.875 31.6776C99.4601 44.4866 89.5719 57.5999 71.545 67.9749Z" fill="#9C27FB"/>
<path d="M71.1341 67.7466C53.2441 78.0455 30.6534 83.6742 8.61035 84.45H16.8099V10.8515H89.085V4.84253C91.9297 7.48952 94.2421 10.2886 96.0067 13.2095C99.5513 19.0511 100.951 25.3339 100.236 31.6928C98.8211 44.4105 89.0089 57.4325 71.1189 67.7314L71.1341 67.7466Z" fill="#9D28FB"/>
<path d="M70.7236 67.5034C52.9553 77.7262 30.532 83.3093 8.65625 84.0851H16.8254V10.8517H88.568V5.05566C91.3976 7.68744 93.6795 10.4713 95.4441 13.3617C98.9582 19.1577 100.343 25.3949 99.6428 31.7233C98.2432 44.3498 88.492 57.2805 70.7236 67.5034Z" fill="#9E29FB"/>
<path d="M70.3128 67.2751C52.6814 77.4219 30.4101 82.9745 8.68652 83.7351H16.8101V10.8516H88.0202V5.26855C90.8345 7.86991 93.1012 10.6386 94.8507 13.5138C98.3496 19.2641 99.7187 25.4709 99.0189 31.7385C97.6346 44.2889 87.9442 57.1131 70.3128 67.2599V67.2751Z" fill="#9F29FB"/>
<path d="M69.9175 67.0316C52.4078 77.1023 30.3039 82.6093 8.73242 83.3699H16.8103V10.8515H87.488V5.48145C90.2719 8.06759 92.5386 10.8211 94.2729 13.681C97.7413 19.401 99.1105 25.5469 98.4107 31.7688C97.0263 44.2279 87.4272 56.9609 69.9175 67.0316Z" fill="#A02AFB"/>
<path d="M69.5065 66.8036C52.1185 76.8135 30.182 82.2748 8.77783 83.0202H16.8253V10.8516H86.9554V5.69458C89.7241 8.26551 91.9603 10.9886 93.6793 13.8333C97.1174 19.5076 98.4713 25.6079 97.7867 31.7994C96.4176 44.1672 86.8793 56.8089 69.4913 66.8188L69.5065 66.8036Z" fill="#A12BFB"/>
<path d="M69.0956 66.5601C51.8445 76.4939 30.0601 81.9096 8.80811 82.655H16.8099V10.8516H86.4076V5.90747C89.161 8.46319 91.3821 11.171 93.0859 13.9854C96.5087 19.614 97.8474 25.6838 97.1629 31.8145C95.8089 44.0911 86.3315 56.6415 69.0804 66.5753L69.0956 66.5601Z" fill="#A22BFB"/>
<path d="M68.6852 66.3166C51.5558 76.1744 29.9387 81.5596 8.83887 82.305H16.8103V10.8515H85.8755V6.12036C88.5985 8.66086 90.8043 11.3383 92.5081 14.1374C95.9006 19.7204 97.2393 25.7446 96.5547 31.8296C95.2008 44.0149 85.8146 56.474 68.6852 66.3318V66.3166Z" fill="#A42CFB"/>
<path d="M68.2894 66.0886C51.2969 75.8703 29.8319 81.2099 8.89941 81.9553H16.8252V10.8516H85.3579V6.3335C88.0658 8.84357 90.2564 11.521 91.945 14.2897C95.307 19.8423 96.6305 25.8056 95.9611 31.8602C94.6224 43.9542 85.2971 56.3221 68.2894 66.1038V66.0886Z" fill="#A52CFB"/>
<path d="M67.879 65.8451C51.0082 75.5507 29.7106 80.8599 8.93018 81.5901H16.8103V10.8516H84.8106V6.54639C87.5032 9.04125 89.6786 11.6882 91.3368 14.4417C94.6836 19.9487 95.9919 25.8816 95.3225 31.8754C93.999 43.8781 84.7346 56.1547 67.8638 65.8603L67.879 65.8451Z" fill="#A62DFB"/>
<path d="M67.4681 65.6168C50.719 75.2464 29.5887 80.5252 8.96045 81.2401H16.8101V10.8515H84.2628V6.75928C86.925 9.23893 89.0852 11.8555 90.7434 14.5938C94.0597 20.0551 95.368 25.9424 94.7139 31.8905C93.3904 43.8019 84.2019 55.972 67.4681 65.6168Z" fill="#A72EFB"/>
<path d="M67.0571 65.3736C50.445 74.9423 29.4668 80.1602 9.00586 80.8752H16.8099V10.8516H83.7301V6.97241C86.3771 9.43685 88.5221 12.0382 90.1651 14.746C93.451 20.1617 94.7593 26.0034 94.1051 31.9211C92.7968 43.7413 83.6845 55.8201 67.0571 65.3888V65.3736Z" fill="#A82EFB"/>
<path d="M66.6467 65.1454C50.1563 74.6381 29.3454 79.8256 9.03662 80.5254H16.8103V10.8517H73.8271V0.35498C102.837 17.1649 99.6276 46.1601 66.6467 65.1454Z" fill="#A92FFB"/>
<path d="M66.2509 64.9019C49.8974 74.3185 29.2386 79.4603 9.09717 80.1601H16.8252V10.8515H73.3704V0.628662C102.153 17.3017 98.9732 46.0839 66.2509 64.9171V64.9019Z" fill="#A92FFB"/>
<path d="M65.9013 64.704C49.6543 74.0598 29.1477 79.1712 9.12793 79.871H16.8255V10.8514H72.9752V0.841553C101.575 17.4081 98.4107 45.9925 65.9013 64.704Z" fill="#A930FA"/>
<path d="M65.5513 64.5064C49.4107 73.8012 29.0411 78.867 9.1582 79.5668H16.8254V10.8515H72.5795V1.06982C100.981 17.5299 97.8324 45.9166 65.5513 64.5064Z" fill="#AA30F9"/>
<path d="M65.2013 64.3087C49.1672 73.5427 28.9344 78.5781 9.18848 79.2626H16.81V10.8516H72.1686V1.2981C100.388 17.6364 97.2542 45.8406 65.186 64.2935L65.2013 64.3087Z" fill="#AA31F8"/>
<path d="M64.8517 64.1107C48.9241 73.2687 28.8283 78.2889 9.21924 78.9734H16.8103V10.8514H71.7734V1.52612C99.795 17.758 96.6917 45.7644 64.8517 64.0955V64.1107Z" fill="#AB32F7"/>
<path d="M64.5017 63.8979C48.6806 72.995 28.7368 77.9695 9.24951 78.6541H16.8102V10.8515H71.3777V1.75439C99.2016 17.8797 96.1286 45.7036 64.5017 63.8979Z" fill="#AB33F6"/>
<path d="M64.1668 63.7002C48.4674 72.7365 28.6453 77.6805 9.29492 78.3499H16.8252V10.8516H70.9972V1.98267C98.6385 17.9863 95.5808 45.6276 64.1668 63.7002Z" fill="#AB33F5"/>
<path d="M63.8172 63.5022C48.2243 72.4777 28.5392 77.3761 9.32568 78.0607H16.8255V10.8514H70.6172V2.21069C98.0608 18.1079 95.0182 45.5514 63.8324 63.5022H63.8172Z" fill="#AC34F4"/>
<path d="M63.4672 63.3046C47.9807 72.2191 28.4326 77.0872 9.35596 77.7565H16.8101V10.8515H70.2063V2.43896C97.4521 18.2296 94.44 45.4754 63.4672 63.3046Z" fill="#AC35F3"/>
<path d="M63.1171 63.0917C47.7372 71.9454 28.3259 76.783 9.38623 77.4371H16.81V10.8516H69.8107V2.66724C96.8739 18.3362 93.877 45.3994 63.1171 63.0917Z" fill="#AD35F2"/>
<path d="M62.7676 62.8937C47.4941 71.6866 28.235 76.4786 9.41699 77.1479H16.8103V10.8515H69.4155V2.89526C96.2809 18.4577 93.3145 45.3232 62.7676 62.8937Z" fill="#AD36F1"/>
<path d="M62.4175 62.6961C47.2506 71.4281 28.1283 76.1896 9.44727 76.8438H16.8102V10.8515H69.0198V3.12354C95.7027 18.5795 92.7362 45.2472 62.4175 62.6961Z" fill="#AD37F0"/>
<path d="M62.0826 62.4984C47.0374 71.1543 28.0368 75.8855 9.49268 76.5396H16.8251V10.8516H68.6392V3.35181C95.1244 18.6861 92.1883 45.1712 62.0826 62.4984Z" fill="#AE38EF"/>
<path d="M61.7331 62.2852C46.7943 70.8804 27.9307 75.5811 9.52344 76.2352H16.8103V10.8515H68.2288V3.57983C94.5162 18.8076 91.6106 45.095 61.7331 62.3005V62.2852Z" fill="#AE38EE"/>
<path d="M61.383 62.0876C46.5507 70.6218 27.824 75.2921 9.55371 75.931H16.8101V10.8515H67.8332V3.80811C93.938 18.9294 91.0476 45.019 61.383 62.1028V62.0876Z" fill="#AE39ED"/>
<path d="M61.033 61.8899C46.3072 70.3633 27.7326 74.9879 9.58398 75.6268H16.81V10.8516H67.4375V4.03638C93.3445 19.0512 90.4846 44.943 61.033 61.8899Z" fill="#AF3AEC"/>
<path d="M60.6834 61.692C46.0641 70.1045 27.6265 74.6987 9.61475 75.3224H16.8103V10.8515H67.0423V4.2644C92.7668 19.1575 89.9068 44.8668 60.6834 61.692Z" fill="#AF3BEB"/>
<path d="M60.3334 61.4791C45.8206 69.8308 27.5198 74.3946 9.64502 75.0183H16.8102V10.8516H66.6466V4.47754C92.1734 19.2642 89.3438 44.7757 60.3334 61.4791Z" fill="#B03BEA"/>
<path d="M59.9833 61.2812C45.5922 69.5721 27.4132 74.0902 9.67529 74.7139H16.7948V10.8515H66.2357V4.70557C91.5647 19.3857 88.7656 44.7147 59.9681 61.2812H59.9833Z" fill="#B03CE9"/>
<path d="M59.6488 61.0835C45.3642 69.2983 27.3373 73.8013 9.73633 74.4098H16.8254V10.8515H65.8708V4.93384C91.0172 19.4923 88.2333 44.6387 59.6488 61.0835Z" fill="#B03DE8"/>
<path d="M59.2988 60.8859C45.1207 69.0398 27.2307 73.4971 9.7666 74.1208H16.8252V10.8516H65.4751V5.16211C90.4238 19.6141 87.6703 44.5627 59.2988 60.8706V60.8859Z" fill="#B13DE7"/>
<path d="M58.9493 60.6879C44.8776 68.781 27.1245 73.2079 9.79736 73.8164H16.8256V10.8515H65.0799V5.39014C89.8308 19.7356 87.0926 44.4865 58.9645 60.6727L58.9493 60.6879Z" fill="#B13EE6"/>
<path d="M58.5992 60.475C44.6341 68.5073 27.0179 72.9037 9.82764 73.497H16.8254V10.8515H64.6843V5.61841C89.2526 19.8422 86.5295 44.4105 58.6144 60.475H58.5992Z" fill="#B23FE5"/>
<path d="M58.2492 60.2773C44.3905 68.2487 26.9112 72.5995 9.85791 73.2081H16.8101V10.8516H64.2734V5.84668C88.644 19.964 85.9513 44.3345 58.2492 60.2773Z" fill="#B240E4"/>
<path d="M57.8991 60.0794C44.1622 67.99 26.8198 72.3103 9.88818 72.9036H16.8099V10.8515H63.8777V6.07471C88.0657 20.0855 85.3883 44.2583 57.8991 60.0794Z" fill="#B240E3"/>
<path d="M57.5647 59.8817C43.9342 67.7314 26.7288 72.0214 9.93408 72.5995H16.8254V10.8515H63.4976V6.30298C87.4879 20.1921 84.8257 44.1823 57.5647 59.8817Z" fill="#B341E2"/>
<path d="M57.2147 59.6688C43.6907 67.4577 26.6221 71.702 9.96436 72.2953H16.8252V10.8516H63.102V6.53125C86.8945 20.3139 84.2627 44.1064 57.2147 59.6688Z" fill="#B342E1"/>
<path d="M56.8651 59.4709C43.4476 67.1989 26.516 71.4128 9.99512 71.9909H16.8256V10.8515H62.7068V6.75928C86.3167 20.4354 83.7001 44.0301 56.8651 59.4709Z" fill="#B442E0"/>
<path d="M56.5151 59.2732C43.2041 66.9252 26.4094 71.1086 10.0254 71.6867H16.8102V10.8515H62.2959V6.98755C85.7081 20.5572 83.1219 43.9542 56.4999 59.2732H56.5151Z" fill="#B443DF"/>
<path d="M56.165 59.0756C42.9605 66.6666 26.3179 70.8197 10.0557 71.3826H16.8101V10.8516H61.9002V7.21582C85.1298 20.6638 82.5589 43.8782 56.165 59.0756Z" fill="#B444DE"/>
<path d="M55.815 58.8624C42.7322 66.3927 26.2113 70.5153 10.0859 71.0781H16.8099V10.8515H61.5045V7.44385C84.5364 20.7853 81.9807 43.8172 55.815 58.8776V58.8624Z" fill="#B545DD"/>
<path d="M55.4655 58.6647C42.4891 66.1341 26.1051 70.2111 10.1167 70.774H16.8102V10.8516H61.1093V7.67212C83.9434 20.9071 81.4181 43.7412 55.4655 58.68V58.6647Z" fill="#B545DC"/>
<path d="M55.1306 58.4671C42.2607 65.8756 26.0136 69.9221 10.1621 70.4698H16.8252V10.8516H60.7288V7.90039C83.3803 21.0136 80.8703 43.6652 55.1306 58.4671Z" fill="#B546DB"/>
<path d="M54.781 58.2691C42.0176 65.6168 25.9227 69.6329 10.1929 70.1806H16.8104V10.8515H60.3184V8.12842C82.7722 21.1352 80.2925 43.589 54.7658 58.2691H54.781Z" fill="#B647DA"/>
<path d="M54.4309 58.0715C41.7741 65.3583 25.8161 69.3288 10.2231 69.8764H16.8102V10.8516H59.9379V8.35669C82.1939 21.257 79.7295 43.513 54.4309 58.0715Z" fill="#B647D9"/>
<path d="M54.0809 57.8584C41.5305 65.0692 25.7094 69.0244 10.2534 69.5569H16.81V10.8515H59.5422V8.56958C81.6157 21.3482 79.1665 43.4216 54.0809 57.8584Z" fill="#B748D8"/>
<path d="M53.7309 57.6607C41.3022 64.8106 25.6028 68.7203 10.2837 69.2679H16.8099V10.8516H59.1466V8.79785C81.0223 21.4699 78.6035 43.3457 53.7309 57.6607Z" fill="#B749D7"/>
<path d="M53.3813 57.463C41.0591 64.5521 25.4966 68.4313 10.3145 68.9638H16.795V10.8516H58.7361V9.02612C80.4293 21.5917 78.0257 43.2697 53.3661 57.463H53.3813Z" fill="#B74AD6"/>
<path d="M53.0464 57.2651C40.8307 64.2933 25.4203 68.1421 10.3599 68.6593H16.81V10.8515H58.3556V9.25415C79.851 21.6981 77.4778 43.1935 53.0464 57.2499V57.2651Z" fill="#B84AD5"/>
<path d="M52.6969 57.0522C40.5876 64.0196 25.3142 67.8227 10.3906 68.3552H16.8103V10.8516H57.9604V9.48242C79.258 21.8198 76.9001 43.1175 52.6969 57.0522Z" fill="#B84BD4"/>
<path d="M52.3467 56.8545C40.344 63.761 25.2075 67.5338 10.436 68.051H16.8253V10.8516H57.5799V9.71069C78.695 21.9416 76.3522 43.0415 52.3619 56.8545H52.3467Z" fill="#B94CD3"/>
<path d="M51.9967 56.6566C40.1157 63.5023 25.1008 67.2294 10.4663 67.7466H16.8252V10.8515H57.1842V9.93872C78.1015 22.0632 75.7892 42.9653 52.0119 56.6566H51.9967Z" fill="#B94CD2"/>
<path d="M51.6471 56.4589C39.8726 63.2437 25.0099 66.9404 10.4971 67.4424H16.8103V10.8516H56.7738V10.167C77.5086 22.1697 75.2115 42.8893 51.6471 56.4589Z" fill="#B94DD1"/>
<path d="M51.2971 56.246C39.629 62.9548 24.9032 66.6362 10.5273 67.1382H16.8101V10.8516H56.3781V10.3953C76.9151 22.2915 74.6332 42.8285 51.2971 56.2612V56.246Z" fill="#BA4ED0"/>
<path d="M50.9622 56.0481C39.4006 62.696 24.8117 66.3318 10.5728 66.8338H16.8251V10.8515H55.9976V10.6233C76.3368 22.4131 74.0853 42.7523 50.9622 56.0481Z" fill="#BA4FCF"/>
<path d="M50.6126 55.8504C39.1576 62.4375 24.7056 66.0429 10.6035 66.5297H16.8255V10.8516H55.6024C75.7591 22.5196 73.5228 42.6763 50.6126 55.8504Z" fill="#BB4FCE"/>
<path d="M50.2626 55.6527C38.914 62.1789 24.599 65.7538 10.6338 66.2406H16.8253V10.8516H17.6164V3.19962C31.5967 2.71282 45.2272 5.29896 55.2067 11.0797C75.1656 22.6413 72.9598 42.6003 50.2778 55.6527H50.2626Z" fill="#BB50CD"/>
<path d="M49.9126 55.4549C38.6857 61.9203 24.5075 65.4496 10.6641 65.9364H16.81V10.8516H17.5706V3.50388C31.414 3.01708 44.9076 5.58801 54.7958 11.3079C74.557 22.763 72.3816 42.5242 49.9126 55.4549Z" fill="#BB51CC"/>
<path d="M49.563 55.242C38.4426 61.6465 24.4014 65.1454 10.6948 65.6169H16.8103V10.8516H17.5405V3.80817C31.247 3.32136 44.6189 5.86187 54.4006 11.5362C73.9792 22.8695 71.8038 42.4482 49.563 55.2572V55.242Z" fill="#BC52CB"/>
<path d="M49.213 55.044C38.199 61.3877 24.2947 64.841 10.7251 65.3278H16.8101V10.8515H17.5099V4.11228C31.0796 3.64069 44.3145 6.15077 54.0049 11.7642C73.3858 22.9911 71.2408 42.372 49.213 55.044Z" fill="#BC52CA"/>
<path d="M48.8629 54.8463C37.9555 61.1291 24.1881 64.5519 10.7554 65.0235H16.81V10.8515H17.4641V4.41653C30.8968 3.94494 44.0101 6.43981 53.6093 11.9924C72.8076 23.1128 70.6778 42.2959 48.8629 54.8463Z" fill="#BC53C9"/>
<path d="M48.5285 54.6486C37.7276 60.8553 24.0971 64.2629 10.8013 64.7193H16.8255V10.8515H17.4492V4.72082C30.745 4.24923 43.7213 6.71367 53.2292 12.2206C72.2297 23.2193 70.1304 42.2199 48.5285 54.6486Z" fill="#BD54C8"/>
<path d="M48.1785 54.4358C37.484 60.5816 24.0057 63.9436 10.8315 64.4152H16.8101V10.8517H17.4034V5.01004C30.5775 4.55366 43.4169 6.98768 52.8183 12.4338C71.6211 23.326 69.5522 42.1288 48.1633 54.4358H48.1785Z" fill="#BD54C7"/>
<path d="M47.8284 54.238C37.2557 60.323 23.899 63.6546 10.8618 64.111H16.8099V10.8517H17.3728V5.31429C30.41 4.85792 43.1277 7.27672 52.4226 12.662C71.0428 23.4477 68.9739 42.0527 47.8132 54.238H47.8284Z" fill="#BE55C6"/>
<path d="M47.4789 54.04C37.0126 60.0642 23.7929 63.3653 10.8926 63.8065H16.8103V10.8515H17.3427V5.61833C30.243 5.16196 42.8238 7.55033 52.0426 12.89C70.4651 23.5692 68.4266 41.9764 47.4941 54.04H47.4789Z" fill="#BE56C5"/>
<path d="M47.1288 53.8424C36.7691 59.8057 23.6862 63.0612 10.9229 63.5176H16.8101V10.8516H17.2969V5.92269C30.0603 5.48153 42.5194 7.83948 51.6318 13.1183C69.8717 23.6758 67.8484 41.9005 47.1288 53.8272V53.8424Z" fill="#BE57C4"/>
<path d="M46.7788 53.6294C36.5255 59.5319 23.5948 62.757 10.9531 63.1981H16.81V10.8516H17.2664V6.22695C29.8928 5.78578 42.215 8.12852 51.2361 13.3464C69.2782 23.7975 67.2854 41.8396 46.7788 53.6294Z" fill="#BF57C3"/>
<path d="M46.4444 53.4317C36.2976 59.2733 23.5038 62.4527 10.999 62.8939H16.8102V10.8516H17.2362V6.53123C29.7257 6.09006 41.9262 8.40238 50.8408 13.5747C68.6852 23.9192 66.7076 41.7636 46.4292 53.4317H46.4444Z" fill="#BF58C2"/>
<path d="M46.0943 53.2338C36.054 59.0146 23.3971 62.1636 11.0293 62.5895H16.8101V10.8515H17.2056V6.83535C29.5735 6.4094 41.6218 8.69129 50.4603 13.8027C68.1222 24.0256 66.1597 41.6874 46.0943 53.2338Z" fill="#C059C1"/>
<path d="M45.7447 53.036C35.8261 58.7407 23.2909 61.8745 11.0752 62.3005H16.8256V10.8515H17.1907V7.1396C29.4216 6.71365 41.3483 8.98033 50.0803 14.0309C67.5443 24.1473 65.6124 41.6113 45.7599 53.036H45.7447Z" fill="#C059C0"/>
<path d="M45.3947 52.8383C35.5825 58.4821 23.1843 61.5703 11.1055 61.9962H16.8254V10.8515H17.1449V7.44388C29.2389 7.01793 41.0286 9.25418 49.6694 14.2591C66.9357 24.269 65.0341 41.5353 45.3947 52.8383Z" fill="#C05ABE"/>
<path d="M45.0446 52.6253C35.339 58.2083 23.0928 61.2661 11.1357 61.6768H16.8253V10.8515H17.1143V7.74815C29.0714 7.32219 40.7395 9.54323 49.2737 14.4873C66.3575 24.3755 64.4711 41.4593 45.0446 52.6253Z" fill="#C15BBD"/>
<path d="M44.6951 52.4276C35.0959 57.9498 22.9867 60.9619 11.1665 61.3879H16.8104V10.8516H17.069V8.0525C28.8892 7.64176 40.4355 9.83237 48.8785 14.7156C65.7645 24.4973 63.8934 41.3833 44.6951 52.4276Z" fill="#C15CBC"/>
<path d="M44.345 52.2299C34.8524 57.6912 22.8801 60.6729 11.1968 61.0836H16.8102V10.8516H17.0384V8.35678C28.7217 7.94604 40.1311 10.1062 48.4828 14.9438C65.1863 24.619 63.3303 41.3073 44.3602 52.2299H44.345Z" fill="#C25CBB"/>
<path d="M44.0101 52.032C34.6239 57.4325 22.7885 60.3837 11.2422 60.7792H16.8252V10.8515H17.0078V8.64566C28.5693 8.23492 39.8419 10.3799 48.0871 15.1567C64.5928 24.7102 62.7673 41.2158 44.0101 52.0168V52.032Z" fill="#C25DBA"/>
<path d="M43.6606 51.8191C34.3961 57.1587 22.6976 60.0643 11.2729 60.4751H16.8255V10.8516H16.9777V8.95002C28.4023 8.55449 39.538 10.669 47.6919 15.3849C63.9998 24.832 62.2047 41.1399 43.6606 51.8191Z" fill="#C25EB9"/>
<path d="M43.3105 51.6214C34.1525 56.9001 22.591 59.7753 11.3032 60.1709H16.8102V10.8516H16.9319V9.2543C28.2196 8.85877 39.2335 10.9429 47.2962 15.6132C63.4216 24.9537 61.6265 41.0638 43.3105 51.6214Z" fill="#C35EB8"/>
<path d="M42.9605 51.4236C33.909 56.6263 22.4843 59.4863 11.3335 59.8666H16.81V10.8516H16.9013V9.55856C28.0521 9.16303 38.9291 11.2319 46.9005 15.8414C62.8281 25.0754 61.0635 40.9878 42.9605 51.4084V51.4236Z" fill="#C35FB7"/>
<path d="M42.6109 51.2257C33.6659 56.3676 22.3782 59.1819 11.3643 59.5774H16.8104V10.8515H16.8712V9.86268C27.8851 9.48236 38.6404 11.5208 46.5054 16.0694C62.2504 25.1818 60.5009 40.9268 42.6109 51.2105V51.2257Z" fill="#C460B6"/>
<path d="M42.2609 51.0128C33.4224 56.0938 22.2715 58.8777 11.3945 59.258H16.8102V10.8972H8.65625C11.3641 10.5016 14.1024 10.2582 16.8254 10.1669C27.7024 9.78663 38.3208 11.7947 46.0944 16.2976C61.6417 25.3035 59.9227 40.8508 42.2457 51.0128H42.2609Z" fill="#C461B5"/>
<path d="M41.926 50.815C33.194 55.8352 22.1952 58.5734 11.4399 58.9538H16.8252V10.4712C27.5653 10.0909 38.0468 12.0837 45.7291 16.5258C61.0786 25.4252 59.39 40.7747 41.926 50.815Z" fill="#C461B4"/>
<path d="M41.5764 50.6174C32.9661 55.5767 22.0891 58.2845 11.4707 58.6496H16.8103V10.8516L16.7647 10.7756C27.3831 10.4105 37.7276 12.3729 45.3187 16.7541C60.4857 25.5318 58.7971 40.6988 41.5764 50.6174Z" fill="#C562B3"/>
<path d="M41.2264 50.4196C32.7225 55.3181 21.9825 57.9955 11.501 58.3606H16.8102V11.0798H16.7341C27.2156 10.7147 37.4385 12.6467 44.9231 16.9823C59.8923 25.6535 58.2341 40.6227 41.2264 50.4044V50.4196Z" fill="#C563B2"/>
<path d="M40.8764 50.2219C32.479 55.0595 21.8758 57.6912 11.5312 58.0564H16.81V11.3841H16.7035C27.0481 11.019 37.1493 12.9358 44.5274 17.2105C59.2988 25.7752 57.6711 40.5467 40.8764 50.2067V50.2219Z" fill="#C564B1"/>
<path d="M40.5268 50.0089C32.2359 54.7857 21.7697 57.387 11.562 57.7369H16.8104V11.6884H16.6582C26.8659 11.3233 36.8301 13.2248 44.1322 17.4387C58.7211 25.8817 57.1085 40.4706 40.5268 50.0089Z" fill="#C664B0"/>
<path d="M40.1768 49.811C31.9924 54.5117 21.6782 57.0978 11.5923 57.4477H16.8102V11.9925H16.6277C26.6984 11.6426 36.5409 13.4985 43.7365 17.6668C58.1276 26.0033 56.5303 40.3944 40.1768 49.811Z" fill="#C665AF"/>
<path d="M39.8419 49.6133C31.764 54.2531 21.5867 56.7936 11.6377 57.1435H16.81V12.2968H16.597C26.546 11.9469 36.2365 13.7876 43.3407 17.9102C57.5493 26.1402 55.9672 40.3336 39.8266 49.6285L39.8419 49.6133Z" fill="#C766AE"/>
<path d="M39.4923 49.4156C31.5361 53.9946 21.4806 56.5046 11.6685 56.8393H16.8103V12.5859H16.5669C26.379 12.236 35.9478 14.0615 42.9456 18.1233C56.9564 26.2316 55.4047 40.2424 39.4771 49.4156H39.4923Z" fill="#C766AD"/>
<path d="M39.1423 49.2025C31.2926 53.7206 21.3739 56.1851 11.6987 56.5349H16.8102V12.89H16.5363C26.2115 12.5553 35.6434 14.3352 42.5651 18.3513C56.3781 26.3532 54.8569 40.1662 39.1423 49.2025Z" fill="#C767AC"/>
<path d="M38.7922 49.0047C31.049 53.462 21.2825 55.896 11.729 56.2307H16.81V13.1943H16.4905C26.0288 12.8596 35.339 14.6243 42.1542 18.5795C55.7847 26.4749 54.2786 40.0901 38.7922 49.0047Z" fill="#C868AB"/>
<path d="M38.4426 48.807C30.8059 53.2034 21.1763 55.607 11.7749 55.9265H16.8255V13.4985H16.4756C25.877 13.1639 35.0502 14.9133 41.7741 18.8077C55.2069 26.5966 53.716 40.0141 38.4578 48.807H38.4426Z" fill="#C869AA"/>
<path d="M38.0925 48.6093C30.5623 52.9449 21.0696 55.3029 11.8052 55.6375H16.8101V13.8029H16.4298C25.6943 13.4834 34.7458 15.1873 41.3633 19.036C54.6134 26.7032 53.1378 39.9534 38.0925 48.6093Z" fill="#C969A9"/>
<path d="M37.7425 48.3964C30.3188 52.6711 20.963 54.9986 11.8354 55.3181H16.81V14.1072H16.3992C25.542 13.7877 34.4566 15.4763 40.9828 19.2642C54.0352 26.8249 52.59 39.8773 37.7577 48.4116L37.7425 48.3964Z" fill="#C96AA8"/>
<path d="M37.4081 48.1986C30.106 52.3973 20.872 54.6944 11.8813 55.0138H16.8254V14.4114H16.3843C25.3901 14.092 34.1678 15.7653 40.6027 19.4924C53.4574 26.9466 52.0426 39.8012 37.4233 48.2138L37.4081 48.1986Z" fill="#C96BA7"/>
<path d="M37.058 48.0007C29.8625 52.1385 20.7806 54.4052 11.9116 54.7247H16.8253V14.7155H16.3385C25.2074 14.4113 33.8634 16.0543 40.1918 19.7205C52.8639 27.053 51.4492 39.7251 37.058 48.0007Z" fill="#CA6BA6"/>
<path d="M36.708 47.803C29.6189 51.8799 20.6739 54.1162 11.9419 54.4204H16.8251V15.0198H16.3079C25.0399 14.7156 33.559 16.3281 39.7962 19.9487C52.2705 27.1747 50.8861 39.649 36.708 47.803Z" fill="#CA6CA5"/>
<path d="M36.3584 47.6052C29.3759 51.6213 20.5678 53.8119 11.9727 54.1162H16.8103V15.3241H16.2626C24.8577 15.0198 33.2551 16.6171 39.3858 20.1769C51.6623 27.2964 50.3084 39.573 36.3432 47.6052H36.3584Z" fill="#CB6DA4"/>
<path d="M36.0084 47.3922C29.1323 51.3475 20.4611 53.5077 12.0029 53.7967H16.8101V15.6283H16.232C24.6902 15.3241 32.9507 16.9062 39.0053 20.4051C51.0993 27.4029 49.7606 39.4969 36.0084 47.4075V47.3922Z" fill="#CB6EA3"/>
<path d="M35.6584 47.1944C28.8888 51.0888 20.3697 53.2185 12.0332 53.5076H16.81V15.9325H16.2015C24.538 15.6434 32.6615 17.1799 38.6096 20.6332C50.5059 27.5245 49.1976 39.4207 35.6736 47.2096L35.6584 47.1944Z" fill="#CB6EA2"/>
<path d="M35.3239 46.9966C28.676 50.8302 20.2787 52.9143 12.0791 53.2033H16.8254V16.2367H16.1713C24.3709 15.9477 32.3575 17.4689 38.2143 20.8614C49.928 27.6462 48.6198 39.3447 35.3239 47.0118V46.9966Z" fill="#CC6FA1"/>
<path d="M34.9739 46.7989C28.4325 50.5716 20.1721 52.6253 12.1094 52.8992H16.8253V16.5259H16.1407C24.2034 16.2368 32.0683 17.7429 37.8187 21.0744C49.3346 27.7375 48.0567 39.2535 34.9739 46.7837V46.7989Z" fill="#CC70A0"/>
<path d="M34.6239 46.5861C28.1889 50.2827 20.0654 52.306 12.1396 52.595H16.8099V16.8302H16.0949C24.0207 16.5564 31.7639 18.0168 37.423 21.3027C48.7412 27.8594 47.4937 39.1775 34.6239 46.5861Z" fill="#CC709F"/>
<path d="M34.2743 46.3881C27.9459 50.0239 19.9593 52.0167 12.1704 52.2906H16.8103V17.1342H16.0648C23.8537 16.8604 31.46 18.3056 37.0278 21.5307C48.1634 27.9808 46.9312 39.1012 34.2743 46.3881Z" fill="#CD719E"/>
<path d="M33.9243 46.1903C27.7023 49.7653 19.8678 51.7277 12.2007 51.9863H16.8101V17.4385H16.0343C23.6862 17.1647 31.1708 18.5947 36.6321 21.7589C47.57 28.1025 46.3682 39.0252 33.9243 46.1903Z" fill="#CD729D"/>
<path d="M33.5742 45.9927C27.474 49.5068 19.7612 51.4236 12.231 51.6974H16.8099V17.7429H15.9885C23.5187 17.4843 30.8512 18.8686 36.2212 21.9872C46.9613 28.2092 45.7747 38.9645 33.559 45.9927H33.5742Z" fill="#CE739C"/>
<path d="M33.2247 45.7797C27.2309 49.233 19.655 51.1193 12.2617 51.3779H16.8103V18.0471H15.9584C23.3517 17.7885 30.5625 19.1577 35.8412 22.2154C46.3988 28.3309 45.2274 38.8884 33.2247 45.7949V45.7797Z" fill="#CE739B"/>
<path d="M32.8898 45.582C27.0025 48.9744 19.5635 50.8303 12.3071 51.0737H16.8101V18.3514H15.9277C23.1841 18.0928 30.258 19.4467 35.4455 22.4436C45.8053 28.4526 44.6643 38.8123 32.8898 45.582Z" fill="#CE749A"/>
<path d="M32.5397 45.3841C26.7589 48.7156 19.4569 50.5259 12.3374 50.7845H16.8099V18.6555H15.8972C23.0166 18.4121 29.9688 19.7204 35.0498 22.6717C45.227 28.5589 44.1013 38.7362 32.5397 45.3841Z" fill="#CF7599"/>
<path d="M32.1902 45.1863C26.5159 48.457 19.366 50.2369 12.3682 50.4803H16.8102V18.9598H15.8671C22.8496 18.7164 29.6649 20.0095 34.6546 22.8999C44.6341 28.6806 43.5236 38.6601 32.1902 45.1863Z" fill="#CF7598"/>
<path d="M31.8401 44.9886C26.2723 48.1832 19.2593 49.9326 12.3984 50.1761H16.8101V19.2641H15.8213C22.6669 19.0207 29.3605 20.2985 34.2589 23.1281C44.0406 28.8024 42.9605 38.5841 31.8401 44.9886Z" fill="#D07697"/>
<path d="M31.4905 44.7757C26.0444 47.9095 19.1531 49.6285 12.4443 49.8567H16.8256V19.5684H15.8063C22.5303 19.3403 29.0717 20.5725 33.8789 23.3564C43.478 28.909 42.4131 38.5081 31.5057 44.7909L31.4905 44.7757Z" fill="#D07796"/>
<path d="M31.1405 44.578C25.8008 47.6509 19.0465 49.3395 12.4746 49.5677H16.8102V19.8727H15.7605C22.3476 19.6445 28.7673 20.8615 33.468 23.5846C42.8694 29.0307 41.8349 38.4321 31.1405 44.578Z" fill="#D07895"/>
<path d="M30.8056 44.3802C25.5724 47.3923 18.9702 49.0352 12.52 49.2634H16.8252V20.177H15.7451C22.1952 19.9488 28.4932 21.1506 33.0875 23.8128C42.3063 29.1524 41.287 38.356 30.8056 44.3802Z" fill="#D17894"/>
<path d="M30.456 44.1823C25.3294 47.1335 18.864 48.7461 12.5508 48.9591H16.8255V20.4659H15.6998C22.013 20.2377 28.1741 21.409 32.6923 24.0256C41.7133 29.2435 40.7093 38.2646 30.456 44.1671V44.1823Z" fill="#D17993"/>
<path d="M30.106 43.9694C25.0858 46.8598 18.7574 48.4419 12.5811 48.6549H16.8254V20.7702H15.6692C21.8455 20.5572 27.8849 21.6982 32.2966 24.2539C41.1199 29.3653 40.1463 38.1886 30.1212 43.9694H30.106Z" fill="#D27A92"/>
<path d="M29.7559 43.7717C24.8423 46.6012 18.6507 48.1377 12.6113 48.3507H16.81V21.0745H15.6234C21.6628 20.8615 27.5653 21.9872 31.8857 24.4821C40.5264 29.487 39.568 38.1126 29.7559 43.7717Z" fill="#D27A91"/>
<path d="M29.4064 43.5739C24.6144 46.3426 18.5446 47.8487 12.6421 48.0464H16.8103V21.3788H15.5933C21.511 21.1658 27.2766 22.2611 31.4905 24.7103C39.9335 29.6088 39.0055 38.0518 29.4064 43.5739Z" fill="#D27B90"/>
<path d="M29.0563 43.376C24.3708 46.0687 18.4531 47.5443 12.6724 47.7573H16.8102V21.6829H15.5628C21.3435 21.4851 26.9722 22.55 31.11 24.9384C39.3705 29.7151 38.4425 37.9756 29.0715 43.3608L29.0563 43.376Z" fill="#D37C8F"/>
<path d="M28.7214 43.1631C24.1424 45.7948 18.3616 47.24 12.7178 47.4378H16.8252V21.9871H15.5321C21.176 21.7894 26.6829 22.839 30.7143 25.1666C38.777 29.8368 37.8794 37.8995 28.7214 43.1631Z" fill="#D37D8E"/>
<path d="M28.3719 42.9653C23.8994 45.5363 18.2555 46.951 12.7485 47.1336H16.8255V22.2914H15.502C21.009 22.0936 26.379 23.1129 30.3191 25.3948C38.184 29.9586 37.3169 37.8235 28.3719 42.9653Z" fill="#D37D8D"/>
<path d="M28.0218 42.7677C23.6558 45.2778 18.1489 46.6469 12.7788 46.8447H16.8101V22.5958H15.4562C20.8263 22.4132 26.0746 23.402 29.9082 25.6231C37.5906 30.0652 36.7386 37.7475 28.0066 42.7677H28.0218Z" fill="#D47E8C"/>
<path d="M27.6718 42.5699C23.4123 45.0191 18.0574 46.3578 12.8091 46.5404H16.81V22.9H15.4256C20.6588 22.7175 25.7854 23.6911 29.5277 25.8513C37.0123 30.1869 36.1908 37.6715 27.6718 42.5699Z" fill="#D47F8B"/>
<path d="M27.3222 42.3722C23.1844 44.7606 17.9513 46.0536 12.8398 46.2362H16.8103V23.2043H15.3956C20.507 23.0218 25.4815 23.9649 29.1325 26.0795C36.4194 30.3086 35.6131 37.5954 27.3222 42.3722Z" fill="#D5808A"/>
<path d="M26.9722 42.1591C22.9409 44.4866 17.8446 45.7492 12.8701 45.9318H16.8102V23.5084H15.3498C20.3243 23.3411 25.1771 24.2538 28.7216 26.3075C35.8259 30.4149 35.0349 37.5192 26.9722 42.1591Z" fill="#D58089"/>
<path d="M26.6222 41.9613C22.6973 44.228 17.738 45.4602 12.9004 45.6275H16.81V23.8127H15.3192C20.1568 23.6453 24.8727 24.5429 28.326 26.5357C35.2325 30.5366 34.4719 37.4432 26.6222 41.9613Z" fill="#D58188"/>
<path d="M26.2877 41.7636C22.4694 43.9542 17.647 45.156 12.9463 45.3233H16.8103V24.117H15.289C19.9897 23.9496 24.5839 24.8167 27.9459 26.7639C34.6699 30.6584 33.9245 37.3671 26.2877 41.7636Z" fill="#D68287"/>
<path d="M25.9377 41.5659C22.2258 43.6957 17.5556 44.867 12.9766 45.0192H16.8101V24.4061H15.2585C19.8222 24.2388 24.2795 25.0907 27.5502 26.977C34.0764 30.7497 33.3462 37.276 25.9377 41.5507V41.5659Z" fill="#D68286"/>
<path d="M25.5877 41.3528C21.9823 43.4217 17.4489 44.5626 13.0068 44.7148H16.81V24.7102H15.2279C19.6547 24.5581 23.9903 25.3796 27.1546 27.2051C33.483 30.8713 32.7832 37.1997 25.5877 41.3528Z" fill="#D78385"/>
<path d="M25.2381 41.155C21.7544 43.1631 17.3428 44.2584 13.0376 44.4105H16.8103V25.0145H15.1826C19.4877 24.8623 23.6712 25.6534 26.7441 27.4333C32.89 30.993 32.2055 37.1237 25.2229 41.155H25.2381Z" fill="#D78484"/>
<path d="M24.8881 40.9573C21.5109 42.9045 17.2361 43.9694 13.0679 44.1063H16.8102V25.3187H15.152C19.3202 25.1666 23.382 25.9425 26.3485 27.6615C32.2966 31.1147 31.6425 37.0629 24.8728 40.9421L24.8881 40.9573Z" fill="#D78583"/>
<path d="M24.5379 40.7596C21.2672 42.6459 17.1294 43.6652 13.1133 43.8173H16.8099V25.6382H15.1213C19.1527 25.5013 23.0775 26.2467 25.9679 27.9049C31.7183 31.2365 31.0946 37.002 24.5379 40.7596Z" fill="#D88582"/>
<path d="M24.2035 40.5467C21.0393 42.3722 17.0536 43.361 13.1592 43.4979H16.8254V25.9274H15.1064C19.0008 25.7905 22.804 26.5054 25.5879 28.118C31.1557 31.343 30.532 36.9109 24.2187 40.5467H24.2035Z" fill="#D88681"/>
<path d="M23.8535 40.3488C20.7958 42.1134 16.947 43.0718 13.1895 43.1935H16.8253V26.2163H15.0758C18.8333 26.0793 22.5148 26.7791 25.1922 28.3308C30.5622 31.4494 29.9689 36.8194 23.8687 40.3335L23.8535 40.3488Z" fill="#D98780"/>
<path d="M23.5034 40.151C20.5522 41.8396 16.8403 42.7676 13.2197 42.9045H16.8251V26.5358H15.03C18.6506 26.4141 22.1952 27.0834 24.7813 28.5742C29.9688 31.5711 29.3907 36.7586 23.5034 40.151Z" fill="#D9877F"/>
<path d="M23.1539 39.9533C20.3243 41.581 16.7342 42.4786 13.2505 42.6003H16.8254V26.84H14.9999C18.4988 26.7183 21.9065 27.3572 24.4013 28.8024C29.3911 31.6928 28.8434 36.6826 23.1691 39.9381L23.1539 39.9533Z" fill="#D9887E"/>
<path d="M22.8038 39.7555C20.0808 41.3224 16.6427 42.1895 13.2808 42.296H16.8101V27.1443H14.9541C18.3161 27.0226 21.5868 27.6463 23.9904 29.0307C28.7824 31.8146 28.25 36.6065 22.8038 39.7403V39.7555Z" fill="#DA897D"/>
<path d="M22.4538 39.5424C19.8372 41.0485 16.5361 41.87 13.311 41.9917H16.8099V27.4484H14.9236C18.1486 27.3419 21.2976 27.9352 23.5948 29.2739C28.2042 31.9361 27.6869 36.5455 22.4538 39.5576V39.5424Z" fill="#DA8A7C"/>
<path d="M22.1194 39.3447C19.6093 40.7898 16.4451 41.5809 13.3569 41.6874H16.8254V27.7527H14.9086C17.9968 27.6462 21.0089 28.2242 23.2147 29.5021C27.6264 32.0578 27.1395 36.4695 22.1194 39.3599V39.3447Z" fill="#DA8A7B"/>
<path d="M21.7696 39.147C19.366 40.5313 16.3387 41.2767 13.3875 41.3832H16.8255V30.2932H6.48096C11.2729 27.5245 18.5902 27.2811 22.8193 29.7151C27.0484 32.1644 26.5768 36.3783 21.7696 39.147Z" fill="#DB8B7A"/>
<path d="M21.4194 38.9493C19.1223 40.2728 16.232 40.9878 13.4176 41.0791H16.8252V30.4911H6.83057C11.4096 27.8593 18.3921 27.6159 22.4235 29.9434C26.4548 32.271 26.0137 36.3023 21.4194 38.9493Z" fill="#DB8C79"/>
<path d="M21.0697 38.7363C16.7036 41.2463 10.0557 41.4745 6.22217 39.2535H16.8101V30.6888H7.16535C11.5314 28.1787 18.1793 27.9505 22.0128 30.1716C25.8464 32.3926 25.4205 36.2262 21.0697 38.7363Z" fill="#DC8C78"/>
<path d="M20.7198 38.5385C16.5819 40.9268 10.2535 41.1398 6.61768 39.0253H16.8253V30.8865H7.53043C11.6683 28.4981 17.9967 28.2852 21.6325 30.3997C25.2835 32.5143 24.8728 36.1501 20.735 38.5385H20.7198Z" fill="#DC8D77"/>
<path d="M20.3699 38.3408C16.4451 40.6074 10.4665 40.8052 6.99805 38.8123H16.8102V31.0996H7.86517C11.79 28.8329 17.7686 28.6351 21.237 30.628C24.6903 32.636 24.31 36.0893 20.3851 38.3408H20.3699Z" fill="#DC8E76"/>
<path d="M20.02 38.1429C16.3081 40.2726 10.6643 40.4704 7.39355 38.584H16.8102V31.2972H8.19982C11.9117 29.1674 17.5556 28.9697 20.8263 30.856C24.0818 32.7424 23.7319 36.0131 20.02 38.1429Z" fill="#DD8F75"/>
<path d="M19.6852 37.9299C16.2016 39.938 10.8771 40.1205 7.8042 38.3406H16.8253V31.4798H8.56483C12.0485 29.4717 17.3729 29.2892 20.4459 31.069C23.5188 32.8489 23.1841 35.9218 19.6852 37.9299Z" fill="#DD8F74"/>
<path d="M19.3353 37.7322C16.0646 39.6186 11.0749 39.7859 8.19971 38.1277H16.8253V31.6928H8.9147C12.1854 29.8064 17.1751 29.6391 20.0503 31.2973C22.9255 32.9707 22.606 35.8458 19.3353 37.7322Z" fill="#DE9073"/>
<path d="M18.9854 37.5346C15.9277 39.2992 11.2726 39.4514 8.59521 37.8997H16.8252V31.9059H9.26457C12.3223 30.1412 16.9774 29.9891 19.6548 31.5408C22.3474 33.0925 22.0431 35.7851 18.9854 37.5346Z" fill="#DE9172"/>
<path d="M18.6355 37.3367C15.806 38.9644 11.4856 39.1165 8.99072 37.6713H16.8252V32.1035H9.61444C12.444 30.4758 16.7644 30.3237 19.2592 31.7688C21.7541 33.214 21.4803 35.7089 18.6355 37.3367Z" fill="#DE9171"/>
<path d="M18.2857 37.139C15.6691 38.645 11.6834 38.7819 9.37109 37.4584H16.8101V32.3166H9.94917C12.5657 30.8105 16.5514 30.6736 18.8638 31.9971C21.1609 33.3358 20.9175 35.6329 18.3009 37.139H18.2857Z" fill="#DF9270"/>
<path d="M17.9358 36.926C15.5322 38.3104 11.8812 38.4321 9.7666 37.2151H16.81V32.4992H10.299C12.7026 31.1148 16.3537 30.9931 18.4682 32.2101C20.5828 33.4271 20.3394 35.5417 17.951 36.926H17.9358Z" fill="#DF936F"/>
<path d="M17.601 36.7282C15.4256 37.9909 12.094 38.0973 10.1772 36.9868H16.8252V32.6969H10.6488C12.8242 31.4342 16.1558 31.3277 18.0726 32.4383C19.9894 33.5488 19.7764 35.4656 17.601 36.7282Z" fill="#E0946E"/>
<path d="M17.2511 36.5305C15.2887 37.6563 12.2918 37.7628 10.5728 36.7587H16.8251V32.8947H10.9987C12.9611 31.769 15.958 31.6625 17.677 32.6665C19.4113 33.6706 19.2135 35.3896 17.2511 36.5305Z" fill="#E0946D"/>
</g>
<path d="M144.656 49.5373L84.8709 84.1459C82.4825 85.5303 78.8771 85.6672 76.8082 84.4806L20.3999 51.9104C19.7154 51.5149 19.3198 51.0281 19.1373 50.4957C18.8178 51.4693 19.1981 52.4581 20.3999 53.1579L76.8082 85.728C78.8771 86.9146 82.4825 86.7777 84.8709 85.3934L144.656 50.7847C146.254 49.8567 146.877 48.6245 146.497 47.5444C146.254 48.2594 145.66 48.9592 144.656 49.5373Z" fill="white"/>
<path d="M27.1546 118.861L27.0938 72.6603C27.0938 70.9717 28.4629 70.3784 30.1515 71.3672L72.6403 95.753C74.3289 96.7266 75.7132 98.8868 75.7132 100.591L75.7741 146.791C75.7741 148.48 74.4049 149.073 72.7163 148.084L30.2275 123.699C28.5389 122.725 27.1546 120.565 27.1546 118.861Z" fill="url(#paint13_linear_232_27453)"/>
<path opacity="0.4" d="M27.1546 118.861L27.0938 72.6603C27.0938 70.9717 28.4629 70.3784 30.1515 71.3672L72.6403 95.753C74.3289 96.7266 75.7132 98.8868 75.7132 100.591L75.7741 146.791C75.7741 148.48 74.4049 149.073 72.7163 148.084L30.2275 123.699C28.5389 122.725 27.1546 120.565 27.1546 118.861Z" fill="#06033E"/>
<path d="M33.361 121.462C31.6724 120.489 30.288 118.329 30.288 116.625L30.2272 71.3978L30.1511 71.3522C28.4625 70.3786 27.0782 70.9567 27.0934 72.6453L27.1542 118.846C27.1542 120.535 28.5386 122.695 30.2272 123.684L72.716 148.069C74.4046 149.043 75.7889 148.465 75.7737 146.776V145.818L33.361 121.462Z" fill="url(#paint14_linear_232_27453)"/>
<path opacity="0.4" d="M138.328 118.861L138.389 72.6603C138.389 70.9717 137.02 70.3784 135.331 71.3672L92.8423 95.753C91.1537 96.7266 89.7693 98.8868 89.7693 100.591L89.7085 146.791C89.7085 148.48 91.0776 149.073 92.7662 148.084L135.255 123.699C136.944 122.725 138.328 120.565 138.328 118.861Z" fill="#06033E"/>
<path opacity="0.4" d="M132.121 121.462C133.81 120.489 135.194 118.329 135.194 116.625L135.255 71.3978L135.331 71.3522C137.02 70.3786 138.404 70.9567 138.389 72.6453L138.328 118.846C138.328 120.535 136.944 122.695 135.255 123.684L92.7663 148.069C91.0778 149.043 89.6934 148.465 89.7086 146.776V145.818L132.121 121.462Z" fill="#06033E"/>
<path opacity="0.4" d="M81.0376 76.5702C79.9727 76.5702 78.9535 76.342 78.1624 75.9008L38.1533 52.8081C37.271 52.2909 36.7842 51.5607 36.7842 50.7088C36.7842 49.7504 37.4383 48.8376 38.5641 48.1835L80.9616 23.6456C82.8936 22.535 85.7383 22.4286 87.4421 23.4022L127.451 46.4949C128.334 46.9969 128.82 47.7423 128.82 48.579C128.82 49.5374 128.166 50.4502 127.041 51.1043L84.643 75.6422C83.5933 76.2507 82.2851 76.555 81.0376 76.555V76.5702ZM84.5974 24.2389C83.6086 24.2389 82.5437 24.4823 81.7374 24.9386L39.3399 49.4766C38.701 49.8417 38.3207 50.298 38.3207 50.6936C38.3207 51.0891 38.701 51.3325 38.9292 51.4694L78.9383 74.5621C80.1705 75.2771 82.4372 75.1706 83.8976 74.3187L126.295 49.7808C126.919 49.4157 127.314 48.9593 127.314 48.579C127.314 48.1987 126.934 47.9401 126.706 47.8032L86.6967 24.7104C86.1491 24.391 85.3884 24.2389 84.5974 24.2389Z" fill="#06033E"/>
<path opacity="0.5" d="M64.8818 113.674L64.5319 113.461C63.2236 112.7 62.1436 110.646 62.1436 108.897V102.842C62.1436 101.093 63.2236 100.287 64.5319 101.032L64.8818 101.245C66.1901 102.006 67.2702 104.059 67.2702 105.809V111.863C67.2702 113.613 66.1901 114.419 64.8818 113.674Z" fill="#E8975B"/>
<path d="M64.8818 131.548L64.5319 131.335C63.2236 130.575 62.1436 128.521 62.1436 126.772V120.717C62.1436 118.968 63.2236 118.161 64.5319 118.907L64.8818 119.12C66.1901 119.88 67.2702 121.934 67.2702 123.684V129.738C67.2702 131.488 66.1901 132.294 64.8818 131.548Z" fill="#E8975B"/>
<path d="M53.3506 107.011L53.0007 106.798C51.6924 106.037 50.6123 103.983 50.6123 102.234V96.1793C50.6123 94.4298 51.6924 93.6236 53.0007 94.369L53.3506 94.582C54.6589 95.3426 55.7389 97.3963 55.7389 99.1457V105.2C55.7389 106.95 54.6589 107.756 53.3506 107.011Z" fill="#F8359E"/>
<path d="M53.3506 124.885L53.0007 124.672C51.6924 123.912 50.6123 121.858 50.6123 120.109V114.054C50.6123 112.305 51.6924 111.498 53.0007 112.244L53.3506 112.457C54.6589 113.217 55.7389 115.271 55.7389 117.02V123.075C55.7389 124.825 54.6589 125.631 53.3506 124.885Z" fill="#F8359E"/>
<path d="M41.8193 100.363L41.4694 100.15C40.1611 99.3891 39.0811 97.3354 39.0811 95.5859V89.5313C39.0811 87.7819 40.1611 86.9756 41.4694 87.721L41.8193 87.934C43.1276 88.6946 44.2077 90.7483 44.2077 92.4978V98.5524C44.2077 100.302 43.1276 101.108 41.8193 100.363Z" fill="#E8975B"/>
<path opacity="0.5" d="M41.8193 118.237L41.4694 118.024C40.1611 117.264 39.0811 115.21 39.0811 113.461V107.406C39.0811 105.657 40.1611 104.85 41.4694 105.596L41.8193 105.809C43.1276 106.569 44.2077 108.623 44.2077 110.373V116.427C44.2077 118.177 43.1276 118.983 41.8193 118.237Z" fill="#E8975B"/>
<path d="M81.8136 291.691C80.1858 292.635 77.554 292.635 75.9415 291.691C74.3138 290.748 74.3138 289.242 75.9415 288.299C77.5693 287.356 80.201 287.356 81.8136 288.299C83.4413 289.242 83.4413 290.748 81.8136 291.691Z" fill="#E39A65"/>
<path d="M101.544 303.07C99.9165 304.013 97.2847 304.013 95.6721 303.07C94.0596 302.127 94.0444 300.621 95.6721 299.678C97.2999 298.735 99.9317 298.735 101.544 299.678C103.172 300.621 103.172 302.127 101.544 303.07Z" fill="#E82B88"/>
<path d="M121.275 314.465C119.647 315.408 117.015 315.408 115.403 314.465C113.775 313.521 113.775 312.015 115.403 311.072C117.031 310.129 119.662 310.129 121.275 311.072C122.903 312.015 122.903 313.521 121.275 314.465Z" fill="#E82B88"/>
</g>
<defs>
<radialGradient id="paint0_radial_232_27453" cx="0" cy="0" r="1" gradientUnits="userSpaceOnUse" gradientTransform="translate(28.6455 229.7) scale(353.982 353.982)">
<stop stop-color="#E39A65"/>
<stop offset="0.28" stop-color="#A92FFB"/>
<stop offset="0.33" stop-color="#881BFA"/>
<stop offset="0.4" stop-color="#6507FA"/>
<stop offset="0.54" stop-color="#0D0C6F"/>
</radialGradient>
<radialGradient id="paint1_radial_232_27453" cx="0" cy="0" r="1" gradientUnits="userSpaceOnUse" gradientTransform="translate(88.5527 126.833) scale(467.27 467.27)">
<stop stop-color="#E39A65"/>
<stop offset="0.41" stop-color="#A92FFB"/>
<stop offset="0.55" stop-color="#881BFA"/>
<stop offset="0.73" stop-color="#6507FA"/>
<stop offset="0.74" stop-color="#6308F8"/>
<stop offset="1" stop-color="#3919BB"/>
</radialGradient>
<radialGradient id="paint2_radial_232_27453" cx="0" cy="0" r="1" gradientUnits="userSpaceOnUse" gradientTransform="translate(106.717 139.064) scale(293.527 293.527)">
<stop stop-color="#6507FA"/>
<stop offset="1" stop-color="#3919BB"/>
</radialGradient>
<linearGradient id="paint3_linear_232_27453" x1="172.296" y1="293.222" x2="145.03" y2="246.394" gradientUnits="userSpaceOnUse">
<stop stop-color="#E39A65"/>
<stop offset="1" stop-color="#E95F8D"/>
</linearGradient>
<linearGradient id="paint4_linear_232_27453" x1="193.829" y1="280.684" x2="166.564" y2="233.856" gradientUnits="userSpaceOnUse">
<stop stop-color="#E39A65"/>
<stop offset="1" stop-color="#E95F8D"/>
</linearGradient>
<linearGradient id="paint5_linear_232_27453" x1="215.377" y1="268.138" x2="188.111" y2="221.31" gradientUnits="userSpaceOnUse">
<stop stop-color="#E39A65"/>
<stop offset="1" stop-color="#E95F8D"/>
</linearGradient>
<linearGradient id="paint6_linear_232_27453" x1="236.911" y1="255.6" x2="209.645" y2="208.772" gradientUnits="userSpaceOnUse">
<stop stop-color="#E39A65"/>
<stop offset="1" stop-color="#E95F8D"/>
</linearGradient>
<linearGradient id="paint7_linear_232_27453" x1="258.458" y1="243.054" x2="231.192" y2="196.226" gradientUnits="userSpaceOnUse">
<stop stop-color="#E39A65"/>
<stop offset="1" stop-color="#E95F8D"/>
</linearGradient>
<linearGradient id="paint8_linear_232_27453" x1="280.005" y1="230.508" x2="252.739" y2="183.68" gradientUnits="userSpaceOnUse">
<stop stop-color="#E39A65"/>
<stop offset="1" stop-color="#E95F8D"/>
</linearGradient>
<radialGradient id="paint9_radial_232_27453" cx="0" cy="0" r="1" gradientUnits="userSpaceOnUse" gradientTransform="translate(46.7401 200.237) rotate(59.84) scale(393.474 393.474)">
<stop stop-color="#E39A65"/>
<stop offset="0.4" stop-color="#A92FFB"/>
<stop offset="0.55" stop-color="#881BFA"/>
<stop offset="0.73" stop-color="#6507FA"/>
<stop offset="1" stop-color="#3919BB"/>
</radialGradient>
<linearGradient id="paint10_linear_232_27453" x1="215.164" y1="179.363" x2="262.276" y2="260.439" gradientUnits="userSpaceOnUse">
<stop stop-color="#5B04F7"/>
<stop offset="1" stop-color="#2D0979"/>
</linearGradient>
<radialGradient id="paint11_radial_232_27453" cx="0" cy="0" r="1" gradientUnits="userSpaceOnUse" gradientTransform="translate(184.717 112.672) rotate(59.84) scale(234.228 234.228)">
<stop stop-color="#E39A65"/>
<stop offset="0.4" stop-color="#A92FFB"/>
<stop offset="0.55" stop-color="#881BFA"/>
<stop offset="0.73" stop-color="#6507FA"/>
<stop offset="1" stop-color="#3919BB"/>
</radialGradient>
<linearGradient id="paint12_linear_232_27453" x1="5.56769" y1="95.1446" x2="147.608" y2="95.1446" gradientUnits="userSpaceOnUse">
<stop stop-color="#E39A65"/>
<stop offset="0.25" stop-color="#A92FFB"/>
<stop offset="0.56" stop-color="#3919BB"/>
</linearGradient>
<linearGradient id="paint13_linear_232_27453" x1="11.0597" y1="86.9602" x2="68.472" y2="119.333" gradientUnits="userSpaceOnUse">
<stop stop-color="#3919BB"/>
<stop offset="1" stop-color="#6507FA"/>
</linearGradient>
<linearGradient id="paint14_linear_232_27453" x1="19.4871" y1="91.7066" x2="56.4993" y2="112.594" gradientUnits="userSpaceOnUse">
<stop stop-color="#131060"/>
<stop offset="0.21" stop-color="#140F62"/>
<stop offset="0.32" stop-color="#190F6A"/>
<stop offset="0.4" stop-color="#220F77"/>
<stop offset="0.48" stop-color="#2E0F8A"/>
<stop offset="0.54" stop-color="#3E0EA3"/>
<stop offset="0.6" stop-color="#510EC1"/>
<stop offset="0.66" stop-color="#680DE5"/>
<stop offset="0.68" stop-color="#740DF8"/>
<stop offset="0.72" stop-color="#7B16ED"/>
<stop offset="0.79" stop-color="#902FD0"/>
<stop offset="0.88" stop-color="#B357A2"/>
<stop offset="0.99" stop-color="#E18F63"/>
<stop offset="1" stop-color="#E8975B"/>
</linearGradient>
<clipPath id="clip0_232_27453">
<rect width="385.731" height="400" fill="white" transform="translate(0 0.278809)"/>
</clipPath>
</defs>
</svg>
