<svg width="341" height="400" viewBox="0 0 341 400" fill="none" xmlns="http://www.w3.org/2000/svg">
<g clip-path="url(#clip0_531_9772)">
<path d="M131.788 139.333C158.062 139.333 179.362 118.034 179.362 91.7593C179.362 65.485 158.062 44.1855 131.788 44.1855C105.514 44.1855 84.2145 65.485 84.2145 91.7593C84.2145 118.034 105.514 139.333 131.788 139.333Z" fill="white"/>
<path opacity="0.46" d="M131.788 139.333C158.062 139.333 179.362 118.034 179.362 91.7593C179.362 65.485 158.062 44.1855 131.788 44.1855C105.514 44.1855 84.2145 65.485 84.2145 91.7593C84.2145 118.034 105.514 139.333 131.788 139.333Z" fill="url(#paint0_linear_531_9772)"/>
<path d="M244.293 161.627H184.665C169.827 161.627 157.798 173.656 157.798 188.494V188.507C157.798 203.345 169.827 215.373 184.665 215.373H244.293C259.131 215.373 271.159 203.345 271.159 188.507V188.494C271.159 173.656 259.131 161.627 244.293 161.627Z" fill="white"/>
<path opacity="0.15" d="M184.677 215.373H244.305C259.143 215.373 271.172 203.345 271.172 188.507V188.494C271.172 173.656 259.143 161.627 244.305 161.627H184.677C169.839 161.627 157.811 173.656 157.811 188.494V188.507C157.811 203.345 169.839 215.373 184.677 215.373Z" fill="url(#paint1_linear_531_9772)"/>
<path d="M174.639 109.544H119.016C111.434 109.544 105.237 103.347 105.237 95.7647C105.237 88.1822 111.434 81.9851 119.016 81.9851H174.639C182.221 81.9851 188.418 88.1822 188.418 95.7647C188.418 103.347 182.221 109.544 174.639 109.544Z" fill="white"/>
<path d="M171.968 103.146H142.154C138.086 103.146 134.773 99.8206 134.773 95.7648C134.773 91.6964 138.099 88.3838 142.154 88.3838H171.968C176.037 88.3838 179.349 91.709 179.349 95.7648C179.349 99.8332 176.024 103.146 171.968 103.146Z" fill="#5648A6"/>
<path d="M67.6387 149.158L99.216 273.313H153.806L184.035 149.158H67.6387Z" fill="white"/>
<path d="M86.6329 149.158L113.701 273.313" stroke="#8379D8" stroke-miterlimit="10"/>
<path opacity="0.51" d="M67.6387 149.158L99.216 273.313H153.806L184.035 149.158H67.6387Z" fill="url(#paint2_linear_531_9772)"/>
<path d="M121.674 235.639H62.0588C47.2841 235.639 35.1923 223.547 35.1923 208.773C35.1923 193.998 47.2841 181.906 62.0588 181.906H121.674C136.449 181.906 148.54 193.998 148.54 208.773C148.54 223.547 136.449 235.639 121.674 235.639Z" fill="url(#paint3_linear_531_9772)"/>
<path opacity="0.15" d="M62.0588 181.906H121.674C136.449 181.906 148.54 193.998 148.54 208.773C148.54 223.547 136.449 235.639 121.674 235.639H62.0588C47.2841 235.639 35.1923 223.547 35.1923 208.773C35.1923 193.998 47.2841 181.906 62.0588 181.906Z" fill="url(#paint4_linear_531_9772)"/>
<path d="M130.529 224.82C136.344 224.82 141.059 217.28 141.059 207.979C141.059 198.679 136.344 191.139 130.529 191.139C124.713 191.139 119.999 198.679 119.999 207.979C119.999 217.28 124.713 224.82 130.529 224.82Z" fill="#5648A6"/>
<path d="M251.837 204.075C257.653 204.075 262.367 196.535 262.367 187.234C262.367 177.934 257.653 170.394 251.837 170.394C246.022 170.394 241.307 177.934 241.307 187.234C241.307 196.535 246.022 204.075 251.837 204.075Z" fill="#5648A6"/>
<path d="M100.508 99.7573C101.752 92.0943 96.5484 84.8738 88.8854 83.6299C81.2224 82.386 74.0019 87.5898 72.758 95.2528C71.5141 102.916 76.7179 110.136 84.3809 111.38C92.0439 112.624 99.2644 107.42 100.508 99.7573Z" fill="white"/>
<path d="M157.068 230.085C168.838 230.085 178.38 220.543 178.38 208.773C178.38 197.003 168.838 187.461 157.068 187.461C145.297 187.461 135.756 197.003 135.756 208.773C135.756 220.543 145.297 230.085 157.068 230.085Z" fill="white"/>
<path opacity="0.19" d="M157.068 230.085C168.838 230.085 178.38 220.543 178.38 208.773C178.38 197.003 168.838 187.461 157.068 187.461C145.297 187.461 135.756 197.003 135.756 208.773C135.756 220.543 145.297 230.085 157.068 230.085Z" fill="url(#paint5_linear_531_9772)"/>
<path d="M294.577 199.192C301.176 189.445 298.625 176.195 288.878 169.596C279.132 162.997 265.881 165.549 259.282 175.295C252.684 185.042 255.235 198.292 264.982 204.891C274.728 211.49 287.978 208.938 294.577 199.192Z" fill="white"/>
<path opacity="0.19" d="M294.577 199.192C301.176 189.445 298.625 176.195 288.878 169.596C279.132 162.997 265.881 165.549 259.282 175.295C252.684 185.042 255.235 198.292 264.982 204.891C274.728 211.49 287.978 208.938 294.577 199.192Z" fill="url(#paint6_linear_531_9772)"/>
<path d="M286.148 194.048C287.924 194.93 289.599 195.976 291.199 197.147C291.677 197.5 291.022 196.996 291.312 197.235C291.488 197.374 291.665 197.512 291.841 197.663C292.219 197.978 292.597 198.306 292.962 198.633C293.693 199.301 294.398 199.994 295.066 200.724C295.733 201.455 296.325 202.135 296.905 202.878C296.476 202.324 297.018 203.042 297.056 203.105C297.194 203.281 297.32 203.47 297.446 203.659C297.723 204.062 298 204.478 298.265 204.893C298.794 205.725 299.285 206.594 299.739 207.463C299.94 207.866 300.142 208.269 300.331 208.672C300.444 208.911 300.557 209.163 300.658 209.415C300.431 208.911 300.658 209.453 300.746 209.667C301.351 211.191 302.875 212.426 304.626 211.871C306.099 211.393 307.472 209.642 306.83 207.992C303.53 199.679 297.383 192.638 289.335 188.62C287.861 187.889 285.858 188.179 285.027 189.753C284.271 191.177 284.586 193.28 286.161 194.061L286.148 194.048Z" fill="#7C1DC9"/>
<path d="M292.534 186.315C293.365 186.264 294.197 186.252 295.028 186.302C295.444 186.327 295.859 186.365 296.275 186.416C296.766 186.466 295.784 186.315 296.262 186.416C296.489 186.466 296.716 186.491 296.942 186.542C297.761 186.705 298.567 186.907 299.361 187.159C299.764 187.285 300.154 187.423 300.545 187.574C300.595 187.6 301.137 187.814 300.809 187.675C300.444 187.524 301.212 187.864 301.2 187.851C301.918 188.192 302.61 188.557 303.278 188.973C303.631 189.187 303.983 189.413 304.323 189.653C304.512 189.779 304.701 189.93 304.89 190.056C305.281 190.333 304.55 189.766 304.915 190.068C305.545 190.61 306.175 191.152 306.767 191.744C307.057 192.046 307.334 192.348 307.611 192.663C307.737 192.802 307.85 192.94 307.964 193.091C308.543 193.797 307.611 192.6 308.14 193.331C309.11 194.653 310.924 195.447 312.448 194.464C313.758 193.62 314.614 191.58 313.581 190.157C308.745 183.556 300.797 179.488 292.547 180.017C290.909 180.118 289.322 181.39 289.398 183.166C289.473 184.778 290.783 186.428 292.547 186.315H292.534Z" fill="#7C1DC9"/>
<path d="M290.229 177.725C291.438 177.41 292.647 177.145 293.882 176.931C294.171 176.881 294.448 176.843 294.738 176.793C295.116 176.742 295.116 176.742 294.751 176.793C294.889 176.78 295.04 176.755 295.179 176.742C295.796 176.667 296.413 176.616 297.043 176.566C299.537 176.39 302.031 176.465 304.512 176.742C306.15 176.931 307.737 175.168 307.661 173.593C307.573 171.729 306.276 170.646 304.512 170.444C299.184 169.84 293.743 170.293 288.554 171.654C286.967 172.069 285.833 173.921 286.349 175.533C286.866 177.145 288.516 178.178 290.229 177.737V177.725Z" fill="white"/>
<path d="M159.07 224.228C159.31 224.253 159.537 224.278 159.776 224.303C160.292 224.341 159.033 224.177 159.927 224.328C160.343 224.404 160.771 224.467 161.187 224.555C162.018 224.732 162.849 224.958 163.655 225.21C164.109 225.361 164.55 225.512 165.003 225.689C165.053 225.714 165.595 225.928 165.293 225.802C164.927 225.651 165.633 225.953 165.696 225.991C166.515 226.369 167.321 226.785 168.089 227.251C168.819 227.692 169.537 228.158 170.23 228.661C170.407 228.787 170.734 229.052 170.381 228.775C170.533 228.901 170.671 229.014 170.822 229.14C171.187 229.442 171.54 229.757 171.893 230.085C172.51 230.664 173.115 231.281 173.669 231.924C173.82 232.1 173.971 232.289 174.122 232.465C174.198 232.553 174.588 233.07 174.248 232.616C174.525 232.994 174.802 233.385 175.067 233.775C175.986 235.136 177.888 235.866 179.375 234.909C180.735 234.027 181.491 232.062 180.508 230.601C175.634 223.333 167.774 218.736 159.07 217.942C157.42 217.791 155.846 219.492 155.922 221.091C156.01 222.93 157.307 224.077 159.07 224.24V224.228Z" fill="#532EAA"/>
<path d="M168.492 215.713C170.054 215.575 171.616 215.575 173.165 215.726C173.354 215.751 173.555 215.764 173.744 215.789C173.392 215.738 173.404 215.738 173.782 215.789C174.072 215.839 174.362 215.889 174.651 215.94C175.42 216.091 176.175 216.267 176.931 216.494C177.687 216.721 178.417 216.973 179.148 217.25C180.042 217.59 178.606 216.985 179.475 217.388C179.828 217.552 180.181 217.716 180.533 217.892C181.932 218.598 183.254 219.429 184.488 220.386C185.798 221.394 188.066 220.638 188.796 219.253C189.678 217.59 189.073 216.015 187.663 214.945C182.284 210.839 175.231 208.823 168.492 209.415C166.855 209.554 165.267 210.763 165.343 212.564C165.419 214.151 166.729 215.864 168.492 215.713Z" fill="#532EAA"/>
<path d="M168.782 203.936C170.293 203.571 171.817 203.256 173.341 203.017C174.261 202.865 174.324 202.865 175.168 202.777C175.936 202.689 176.717 202.626 177.485 202.576C180.584 202.362 183.695 202.412 186.794 202.702C188.444 202.853 190.018 201.14 189.942 199.553C189.854 197.714 188.557 196.568 186.794 196.404C180.206 195.787 173.53 196.316 167.107 197.865C165.507 198.255 164.398 200.157 164.902 201.744C165.444 203.407 167.056 204.364 168.782 203.949V203.936Z" fill="#532EAA"/>
<path d="M143.943 97.5533C145.543 97.5533 146.84 96.2562 146.84 94.6563C146.84 93.0563 145.543 91.7593 143.943 91.7593C142.343 91.7593 141.046 93.0563 141.046 94.6563C141.046 96.2562 142.343 97.5533 143.943 97.5533Z" fill="#7C1DC9"/>
<path d="M157.068 97.5533C158.668 97.5533 159.965 96.2562 159.965 94.6563C159.965 93.0563 158.668 91.7593 157.068 91.7593C155.468 91.7593 154.171 93.0563 154.171 94.6563C154.171 96.2562 155.468 97.5533 157.068 97.5533Z" fill="#7C1DC9"/>
<path d="M170.18 97.5533C171.78 97.5533 173.077 96.2562 173.077 94.6563C173.077 93.0563 171.78 91.7593 170.18 91.7593C168.58 91.7593 167.283 93.0563 167.283 94.6563C167.283 96.2562 168.58 97.5533 170.18 97.5533Z" fill="#7C1DC9"/>
<path d="M157.798 295.368C157.798 297.169 145.014 298.618 129.244 298.618C113.474 298.618 100.69 297.156 100.69 295.368C100.69 293.579 113.474 292.118 129.244 292.118C145.014 292.118 157.798 293.579 157.798 295.368Z" fill="url(#paint7_linear_531_9772)" stroke="url(#paint8_linear_531_9772)" stroke-width="2" stroke-linecap="round" stroke-linejoin="round"/>
<path d="M152.533 307.636C152.533 309.022 142.684 310.143 130.529 310.143C118.374 310.143 108.524 309.022 108.524 307.636C108.524 306.251 118.374 305.13 130.529 305.13C142.684 305.13 152.533 306.251 152.533 307.636Z" fill="url(#paint9_linear_531_9772)" stroke="url(#paint10_linear_531_9772)" stroke-width="2" stroke-linecap="round" stroke-linejoin="round"/>
<path d="M135.202 328.092C135.202 331.379 132.531 334.049 129.244 334.049C125.957 334.049 123.286 331.379 123.286 328.092C123.286 324.804 125.957 322.134 129.244 322.134C132.531 322.134 135.202 324.804 135.202 328.092Z" fill="url(#paint11_linear_531_9772)"/>
<path d="M62.7264 97.5408C62.7264 100.828 60.0561 103.498 56.7687 103.498C53.4812 103.498 50.8109 100.828 50.8109 97.5408C50.8109 94.2533 53.4812 91.583 56.7687 91.583C60.0561 91.583 62.7264 94.2533 62.7264 97.5408Z" fill="url(#paint12_linear_531_9772)"/>
<path d="M206.732 95.7522C206.732 99.0396 204.062 101.71 200.775 101.71C197.487 101.71 194.817 99.0396 194.817 95.7522C194.817 92.4647 197.487 89.7944 200.775 89.7944C204.062 89.7944 206.732 92.4647 206.732 95.7522Z" fill="url(#paint13_linear_531_9772)"/>
<path d="M62.7264 97.5408C62.7264 100.828 60.0561 103.498 56.7687 103.498C53.4812 103.498 50.8109 100.828 50.8109 97.5408C50.8109 94.2533 53.4812 91.583 56.7687 91.583C60.0561 91.583 62.7264 94.2533 62.7264 97.5408Z" fill="url(#paint14_linear_531_9772)"/>
<path d="M206.732 95.7522C206.732 99.0396 204.062 101.71 200.775 101.71C197.487 101.71 194.817 99.0396 194.817 95.7522C194.817 92.4647 197.487 89.7944 200.775 89.7944C204.062 89.7944 206.732 92.4647 206.732 95.7522Z" fill="url(#paint15_linear_531_9772)"/>
<path opacity="0.42" d="M226.848 118.059H191.139C189.791 118.059 188.695 116.963 188.695 115.615C188.695 114.268 189.791 113.172 191.139 113.172H226.848C228.195 113.172 229.291 114.268 229.291 115.615C229.291 116.963 228.195 118.059 226.848 118.059Z" fill="url(#paint16_linear_531_9772)"/>
<path opacity="0.42" d="M226.848 128.551H191.139C189.791 128.551 188.695 127.455 188.695 126.108C188.695 124.76 189.791 123.664 191.139 123.664H226.848C228.195 123.664 229.291 124.76 229.291 126.108C229.291 127.455 228.195 128.551 226.848 128.551Z" fill="url(#paint17_linear_531_9772)"/>
<path opacity="0.42" d="M272.305 118.059H236.597C235.249 118.059 234.153 116.963 234.153 115.615C234.153 114.268 235.249 113.172 236.597 113.172H272.305C273.653 113.172 274.749 114.268 274.749 115.615C274.749 116.963 273.653 118.059 272.305 118.059Z" fill="url(#paint18_linear_531_9772)"/>
<path opacity="0.42" d="M272.305 128.551H236.597C235.249 128.551 234.153 127.455 234.153 126.108C234.153 124.76 235.249 123.664 236.597 123.664H272.305C273.653 123.664 274.749 124.76 274.749 126.108C274.749 127.455 273.653 128.551 272.305 128.551Z" fill="url(#paint19_linear_531_9772)"/>
<path opacity="0.42" d="M320.093 118.059H284.385C283.037 118.059 281.941 116.963 281.941 115.615C281.941 114.268 283.037 113.172 284.385 113.172H320.093C321.441 113.172 322.537 114.268 322.537 115.615C322.537 116.963 321.441 118.059 320.093 118.059Z" fill="url(#paint20_linear_531_9772)"/>
<path opacity="0.42" d="M320.093 128.551H284.385C283.037 128.551 281.941 127.455 281.941 126.108C281.941 124.76 283.037 123.664 284.385 123.664H320.093C321.441 123.664 322.537 124.76 322.537 126.108C322.537 127.455 321.441 128.551 320.093 128.551Z" fill="url(#paint21_linear_531_9772)"/>
<path opacity="0.42" d="M217.955 148.074C217.955 150.543 215.952 152.558 213.471 152.558C210.99 152.558 208.987 150.556 208.987 148.074C208.987 145.593 210.99 143.59 213.471 143.59C215.952 143.59 217.955 145.593 217.955 148.074Z" fill="url(#paint22_linear_531_9772)"/>
<path opacity="0.42" d="M258.941 148.074C258.941 150.543 256.939 152.558 254.457 152.558C251.976 152.558 249.973 150.556 249.973 148.074C249.973 145.593 251.976 143.59 254.457 143.59C256.939 143.59 258.941 145.593 258.941 148.074Z" fill="url(#paint23_linear_531_9772)"/>
<path opacity="0.42" d="M298.58 148.074C298.58 150.543 296.577 152.558 294.096 152.558C291.614 152.558 289.612 150.556 289.612 148.074C289.612 145.593 291.614 143.59 294.096 143.59C296.577 143.59 298.58 145.593 298.58 148.074Z" fill="url(#paint24_linear_531_9772)"/>
<path d="M317.687 74.327H246.22C244.078 74.327 242.315 72.5762 242.315 70.4223C242.315 68.2811 244.066 66.5303 246.22 66.5303H317.687C319.829 66.5303 321.579 68.2811 321.579 70.4223C321.579 72.5636 319.829 74.327 317.687 74.327Z" fill="url(#paint25_linear_531_9772)"/>
<path opacity="0.67" d="M317.687 89.3283H246.22C244.078 89.3283 242.315 87.5775 242.315 85.4237C242.315 83.2824 244.066 81.519 246.22 81.519H317.687C319.829 81.519 321.579 83.2698 321.579 85.4237C321.579 87.565 319.829 89.3283 317.687 89.3283Z" fill="url(#paint26_linear_531_9772)"/>
<path opacity="0.67" d="M317.687 103.322H246.22C244.078 103.322 242.315 101.571 242.315 99.4173C242.315 97.2761 244.066 95.5127 246.22 95.5127H317.687C319.829 95.5127 321.579 97.2635 321.579 99.4173C321.579 101.559 319.829 103.322 317.687 103.322Z" fill="url(#paint27_linear_531_9772)"/>
<g opacity="0.42">
<path d="M223.711 310.949C223.195 310.974 222.678 310.987 222.162 310.987C204.276 310.987 189.728 296.439 189.728 278.553C189.728 260.667 204.276 246.119 222.162 246.119C240.048 246.119 254.596 260.667 254.596 278.553C254.596 278.905 254.583 279.271 254.571 279.623H264.32C264.32 279.271 264.332 278.918 264.332 278.553C264.332 255.301 245.414 236.383 222.162 236.383C198.91 236.383 179.992 255.301 179.992 278.553C179.992 301.804 198.91 320.723 222.162 320.723C222.678 320.723 223.195 320.71 223.711 320.685V310.936V310.949Z" fill="url(#paint28_linear_531_9772)"/>
</g>
<path d="M221.608 246.144V236.408C198.608 236.71 179.992 255.49 179.992 278.565C179.992 278.817 180.004 279.069 180.017 279.308H189.753C189.753 279.057 189.728 278.817 189.728 278.565C189.728 260.868 203.974 246.446 221.608 246.157V246.144Z" fill="url(#paint29_linear_531_9772)"/>
<path d="M222.842 291.048C215.915 291.048 210.259 285.38 210.259 278.465C210.259 271.537 215.927 265.882 222.842 265.882C229.77 265.882 235.425 271.55 235.425 278.465C235.425 285.392 229.757 291.048 222.842 291.048Z" fill="url(#paint30_linear_531_9772)"/>
<path d="M164.915 3.87939H322.474C330.749 3.87939 337.463 10.5929 337.463 18.8682V179.513C337.463 187.788 330.749 194.502 322.474 194.502H164.915C156.639 194.502 149.926 187.788 149.926 179.513V18.8808C149.926 10.6055 156.639 3.89199 164.915 3.89199V3.87939Z" stroke="url(#paint31_linear_531_9772)" stroke-width="0.82" stroke-miterlimit="10"/>
<path opacity="0.32" d="M315.622 12.1799H171.779C164.218 12.1799 158.088 18.3098 158.088 25.8714V172.523C158.088 180.084 164.218 186.214 171.779 186.214H315.622C323.183 186.214 329.313 180.084 329.313 172.523V25.8714C329.313 18.3098 323.183 12.1799 315.622 12.1799Z" fill="url(#paint32_linear_531_9772)"/>
<path d="M243.688 5.66804C242.126 5.66804 240.854 4.39588 240.854 2.83402C240.854 1.27216 242.126 0 243.688 0C245.25 0 246.522 1.27216 246.522 2.83402C246.522 4.39588 245.25 5.66804 243.688 5.66804Z" fill="url(#paint33_linear_531_9772)"/>
<path d="M148.868 32.3834C147.306 32.3834 146.034 31.1112 146.034 29.5494C146.034 27.9875 147.306 26.7153 148.868 26.7153C150.43 26.7153 151.702 27.9875 151.702 29.5494C151.702 31.1112 150.43 32.3834 148.868 32.3834Z" fill="url(#paint34_linear_531_9772)"/>
<path d="M337.463 30.6829C335.901 30.6829 334.629 29.4108 334.629 27.8489C334.629 26.2871 335.901 25.0149 337.463 25.0149C339.024 25.0149 340.297 26.2871 340.297 27.8489C340.297 29.4108 339.024 30.6829 337.463 30.6829Z" fill="url(#paint35_linear_531_9772)"/>
<path d="M337.463 176.163C335.901 176.163 334.629 174.891 334.629 173.329C334.629 171.767 335.901 170.495 337.463 170.495C339.024 170.495 340.297 171.767 340.297 173.329C340.297 174.891 339.024 176.163 337.463 176.163Z" fill="url(#paint36_linear_531_9772)"/>
<path d="M149.913 176.163C148.352 176.163 147.079 174.891 147.079 173.329C147.079 171.767 148.352 170.495 149.913 170.495C151.475 170.495 152.747 171.767 152.747 173.329C152.747 174.891 151.475 176.163 149.913 176.163Z" fill="url(#paint37_linear_531_9772)"/>
<path d="M313.166 40.7974H178.934C175.722 40.7974 173.089 38.1649 173.089 34.953C173.089 31.7411 175.722 29.1086 178.934 29.1086H313.166C316.377 29.1086 319.01 31.7411 319.01 34.953C319.01 38.1649 316.377 40.7974 313.166 40.7974Z" fill="url(#paint38_linear_531_9772)"/>
<path d="M313.644 59.5144H179.412C176.201 59.5144 173.568 56.882 173.568 53.6701C173.568 50.4582 176.201 47.8257 179.412 47.8257H313.644C316.856 47.8257 319.489 50.4582 319.489 53.6701C319.489 56.882 316.856 59.5144 313.644 59.5144Z" fill="url(#paint39_linear_531_9772)"/>
</g>
<defs>
<linearGradient id="paint0_linear_531_9772" x1="165.459" y1="125.307" x2="98.1799" y2="58.0272" gradientUnits="userSpaceOnUse">
<stop stop-color="#F8359E"/>
<stop offset="0.12" stop-color="#A92FFB"/>
<stop offset="0.28" stop-color="#E39A65"/>
<stop offset="0.44" stop-color="#E8975B"/>
<stop offset="0.62" stop-color="#7C1DC9"/>
<stop offset="0.8" stop-color="#45108A"/>
<stop offset="0.99" stop-color="#4E53E6"/>
<stop offset="1" stop-color="#6E41D1"/>
</linearGradient>
<linearGradient id="paint1_linear_531_9772" x1="271.172" y1="188.494" x2="157.811" y2="188.494" gradientUnits="userSpaceOnUse">
<stop stop-color="#F8359E"/>
<stop offset="0.22" stop-color="#A92FFB"/>
<stop offset="0.48" stop-color="#E8975B"/>
<stop offset="0.71" stop-color="#3919BB"/>
<stop offset="0.89" stop-color="#6E41D1"/>
<stop offset="1" stop-color="#6507FA"/>
</linearGradient>
<linearGradient id="paint2_linear_531_9772" x1="163.555" y1="211.683" x2="81.2672" y2="209.995" gradientUnits="userSpaceOnUse">
<stop stop-color="#F8359E"/>
<stop offset="0.22" stop-color="#A92FFB"/>
<stop offset="0.48" stop-color="#E39A65"/>
<stop offset="0.71" stop-color="#7C1DC9"/>
<stop offset="0.89" stop-color="#7C1DC9"/>
<stop offset="1" stop-color="#6E41D1"/>
</linearGradient>
<linearGradient id="paint3_linear_531_9772" x1="91.8664" y1="181.906" x2="91.8664" y2="235.639" gradientUnits="userSpaceOnUse">
<stop stop-color="#F8359E"/>
<stop offset="0.307292" stop-color="#E8975B"/>
<stop offset="0.723958" stop-color="#45108A"/>
<stop offset="1" stop-color="#3919BB"/>
</linearGradient>
<linearGradient id="paint4_linear_531_9772" x1="148.54" y1="208.773" x2="35.1797" y2="208.773" gradientUnits="userSpaceOnUse">
<stop stop-color="white"/>
<stop offset="0.22" stop-color="#CBCDF7"/>
<stop offset="0.48" stop-color="#9497F0"/>
<stop offset="0.71" stop-color="#6C70EA"/>
<stop offset="0.89" stop-color="#5458E7"/>
<stop offset="1" stop-color="#4B50E6"/>
</linearGradient>
<linearGradient id="paint5_linear_531_9772" x1="135.756" y1="208.773" x2="178.367" y2="208.773" gradientUnits="userSpaceOnUse">
<stop stop-color="white"/>
<stop offset="0.22" stop-color="#CBCDF7"/>
<stop offset="0.48" stop-color="#9497F0"/>
<stop offset="0.71" stop-color="#6C70EA"/>
<stop offset="0.89" stop-color="#5458E7"/>
<stop offset="1" stop-color="#4B50E6"/>
</linearGradient>
<linearGradient id="paint6_linear_531_9772" x1="255.622" y1="187.242" x2="298.246" y2="187.242" gradientUnits="userSpaceOnUse">
<stop stop-color="white"/>
<stop offset="0.22" stop-color="#CBCDF7"/>
<stop offset="0.48" stop-color="#9497F0"/>
<stop offset="0.71" stop-color="#6C70EA"/>
<stop offset="0.89" stop-color="#5458E7"/>
<stop offset="1" stop-color="#4B50E6"/>
</linearGradient>
<linearGradient id="paint7_linear_531_9772" x1="100.75" y1="295.368" x2="157.798" y2="295.368" gradientUnits="userSpaceOnUse">
<stop offset="0.52" stop-color="#0032FF"/>
<stop offset="1" stop-color="#497CFF"/>
</linearGradient>
<linearGradient id="paint8_linear_531_9772" x1="99.4301" y1="295.368" x2="159.058" y2="295.368" gradientUnits="userSpaceOnUse">
<stop offset="0.52" stop-color="#3919BB"/>
<stop offset="1" stop-color="#A2F7FF"/>
</linearGradient>
<linearGradient id="paint9_linear_531_9772" x1="108.571" y1="307.636" x2="152.533" y2="307.636" gradientUnits="userSpaceOnUse">
<stop offset="0.52" stop-color="#0032FF"/>
<stop offset="1" stop-color="#497CFF"/>
</linearGradient>
<linearGradient id="paint10_linear_531_9772" x1="107.265" y1="307.636" x2="153.793" y2="307.636" gradientUnits="userSpaceOnUse">
<stop offset="0.52" stop-color="#F8359E"/>
<stop offset="1" stop-color="#A2F7FF"/>
</linearGradient>
<linearGradient id="paint11_linear_531_9772" x1="123.299" y1="328.092" x2="135.202" y2="328.092" gradientUnits="userSpaceOnUse">
<stop offset="0.52" stop-color="#0032FF"/>
<stop offset="1" stop-color="#497CFF"/>
</linearGradient>
<linearGradient id="paint12_linear_531_9772" x1="50.8235" y1="97.5407" x2="62.7264" y2="97.5407" gradientUnits="userSpaceOnUse">
<stop offset="0.52" stop-color="#7C1DC9"/>
<stop offset="1" stop-color="#A2F7FF"/>
</linearGradient>
<linearGradient id="paint13_linear_531_9772" x1="194.829" y1="95.7522" x2="206.732" y2="95.7522" gradientUnits="userSpaceOnUse">
<stop offset="0.52" stop-color="#7C1DC9"/>
<stop offset="1" stop-color="#A2F7FF"/>
</linearGradient>
<linearGradient id="paint14_linear_531_9772" x1="50.8235" y1="97.5407" x2="62.7264" y2="97.5407" gradientUnits="userSpaceOnUse">
<stop offset="0.52" stop-color="#7C1DC9"/>
<stop offset="1" stop-color="#A2F7FF"/>
</linearGradient>
<linearGradient id="paint15_linear_531_9772" x1="194.829" y1="95.7522" x2="206.732" y2="95.7522" gradientUnits="userSpaceOnUse">
<stop offset="0.52" stop-color="#7C1DC9"/>
<stop offset="1" stop-color="#A2F7FF"/>
</linearGradient>
<linearGradient id="paint16_linear_531_9772" x1="188.695" y1="115.615" x2="229.291" y2="115.615" gradientUnits="userSpaceOnUse">
<stop offset="0.52" stop-color="#F8359E"/>
<stop offset="1" stop-color="#A2F7FF"/>
</linearGradient>
<linearGradient id="paint17_linear_531_9772" x1="188.695" y1="126.108" x2="229.291" y2="126.108" gradientUnits="userSpaceOnUse">
<stop offset="0.52" stop-color="#F8359E"/>
<stop offset="1" stop-color="#A2F7FF"/>
</linearGradient>
<linearGradient id="paint18_linear_531_9772" x1="234.166" y1="115.615" x2="274.749" y2="115.615" gradientUnits="userSpaceOnUse">
<stop offset="0.52" stop-color="#7C1DC9"/>
<stop offset="1" stop-color="#F8359E"/>
</linearGradient>
<linearGradient id="paint19_linear_531_9772" x1="234.166" y1="126.108" x2="274.749" y2="126.108" gradientUnits="userSpaceOnUse">
<stop offset="0.52" stop-color="#7C1DC9"/>
<stop offset="1" stop-color="#F8359E"/>
</linearGradient>
<linearGradient id="paint20_linear_531_9772" x1="281.954" y1="115.615" x2="322.537" y2="115.615" gradientUnits="userSpaceOnUse">
<stop offset="0.52" stop-color="#7C1DC9"/>
<stop offset="1" stop-color="#F8359E"/>
</linearGradient>
<linearGradient id="paint21_linear_531_9772" x1="281.954" y1="126.108" x2="322.537" y2="126.108" gradientUnits="userSpaceOnUse">
<stop offset="0.52" stop-color="#7C1DC9"/>
<stop offset="1" stop-color="#F8359E"/>
</linearGradient>
<linearGradient id="paint22_linear_531_9772" x1="209" y1="148.074" x2="217.955" y2="148.074" gradientUnits="userSpaceOnUse">
<stop offset="0.52" stop-color="#F8359E"/>
<stop offset="1" stop-color="#A2F7FF"/>
</linearGradient>
<linearGradient id="paint23_linear_531_9772" x1="249.973" y1="148.074" x2="258.941" y2="148.074" gradientUnits="userSpaceOnUse">
<stop offset="0.52" stop-color="#7C1DC9"/>
<stop offset="1" stop-color="#A2F7FF"/>
</linearGradient>
<linearGradient id="paint24_linear_531_9772" x1="289.624" y1="148.074" x2="298.58" y2="148.074" gradientUnits="userSpaceOnUse">
<stop offset="0.52" stop-color="#F8359E"/>
<stop offset="1" stop-color="#A2F7FF"/>
</linearGradient>
<linearGradient id="paint25_linear_531_9772" x1="242.315" y1="70.4223" x2="321.579" y2="70.4223" gradientUnits="userSpaceOnUse">
<stop offset="0.52" stop-color="#45108A"/>
<stop offset="1" stop-color="#A2F7FF"/>
</linearGradient>
<linearGradient id="paint26_linear_531_9772" x1="242.315" y1="85.4237" x2="321.579" y2="85.4237" gradientUnits="userSpaceOnUse">
<stop offset="0.52" stop-color="#7C1DC9"/>
<stop offset="1" stop-color="#A2F7FF"/>
</linearGradient>
<linearGradient id="paint27_linear_531_9772" x1="242.315" y1="99.4173" x2="321.579" y2="99.4173" gradientUnits="userSpaceOnUse">
<stop offset="0.52" stop-color="#7C1DC9"/>
<stop offset="1" stop-color="#A2F7FF"/>
</linearGradient>
<linearGradient id="paint28_linear_531_9772" x1="179.992" y1="278.565" x2="266.5" y2="279.5" gradientUnits="userSpaceOnUse">
<stop stop-color="#F8359E"/>
<stop offset="0.255208" stop-color="#E8975B"/>
<stop offset="0.640625" stop-color="#45108A"/>
<stop offset="1" stop-color="#6E41D1"/>
</linearGradient>
<linearGradient id="paint29_linear_531_9772" x1="179.992" y1="257.858" x2="264.32" y2="257.858" gradientUnits="userSpaceOnUse">
<stop offset="0.52" stop-color="#F8359E"/>
<stop offset="1" stop-color="#0032FF"/>
</linearGradient>
<linearGradient id="paint30_linear_531_9772" x1="210.259" y1="278.452" x2="261.259" y2="278.452" gradientUnits="userSpaceOnUse">
<stop offset="0.0208333" stop-color="#F8359E"/>
<stop offset="0.359375" stop-color="#E8975B"/>
<stop offset="0.677083" stop-color="#45108A"/>
<stop offset="0.994792" stop-color="#6E41D1"/>
</linearGradient>
<linearGradient id="paint31_linear_531_9772" x1="149.397" y1="99.2033" x2="337.979" y2="99.2033" gradientUnits="userSpaceOnUse">
<stop offset="0.52" stop-color="#0032FF"/>
<stop offset="1" stop-color="#497CFF"/>
</linearGradient>
<linearGradient id="paint32_linear_531_9772" x1="158.088" y1="99.2033" x2="329.301" y2="99.2033" gradientUnits="userSpaceOnUse">
<stop offset="0.0104167" stop-color="#F8359E"/>
<stop offset="0.307292" stop-color="#E8975B"/>
<stop offset="0.734375" stop-color="#7C1DC9"/>
<stop offset="1" stop-color="#6E41D1"/>
</linearGradient>
<linearGradient id="paint33_linear_531_9772" x1="240.854" y1="2.83402" x2="246.522" y2="2.83402" gradientUnits="userSpaceOnUse">
<stop offset="0.52" stop-color="#7C1DC9"/>
<stop offset="1" stop-color="#A2F7FF"/>
</linearGradient>
<linearGradient id="paint34_linear_531_9772" x1="146.034" y1="29.5494" x2="151.702" y2="29.5494" gradientUnits="userSpaceOnUse">
<stop offset="0.52" stop-color="#7C1DC9"/>
<stop offset="1" stop-color="#A2F7FF"/>
</linearGradient>
<linearGradient id="paint35_linear_531_9772" x1="334.629" y1="27.8489" x2="340.297" y2="27.8489" gradientUnits="userSpaceOnUse">
<stop offset="0.52" stop-color="#7C1DC9"/>
<stop offset="1" stop-color="#A2F7FF"/>
</linearGradient>
<linearGradient id="paint36_linear_531_9772" x1="334.629" y1="173.329" x2="340.297" y2="173.329" gradientUnits="userSpaceOnUse">
<stop offset="0.52" stop-color="#7C1DC9"/>
<stop offset="1" stop-color="#A2F7FF"/>
</linearGradient>
<linearGradient id="paint37_linear_531_9772" x1="147.079" y1="173.329" x2="152.747" y2="173.329" gradientUnits="userSpaceOnUse">
<stop offset="0.52" stop-color="#7C1DC9"/>
<stop offset="1" stop-color="#A2F7FF"/>
</linearGradient>
<linearGradient id="paint38_linear_531_9772" x1="173.077" y1="34.953" x2="319.01" y2="34.953" gradientUnits="userSpaceOnUse">
<stop offset="0.52" stop-color="#7C1DC9"/>
<stop offset="1" stop-color="#6E41D1"/>
</linearGradient>
<linearGradient id="paint39_linear_531_9772" x1="173.556" y1="53.6701" x2="319.489" y2="53.6701" gradientUnits="userSpaceOnUse">
<stop offset="0.52" stop-color="#7C1DC9"/>
<stop offset="1" stop-color="#6E41D1"/>
</linearGradient>
<clipPath id="clip0_531_9772">
<rect width="340.297" height="400" fill="white"/>
</clipPath>
</defs>
</svg>
